{
			"notes": [
				{
					"name": "C4",
					"midi": 60,
					"time": 5.4545400000000015,
					"velocity": 0.7874015748031497,
					"duration": 0.056818125000000386
				},
				{
					"name": "D4",
					"midi": 62,
					"time": 5.909085000000002,
					"velocity": 0.7874015748031497,
					"duration": 0.06155296875000005
				},
				{
					"name": "E4",
					"midi": 64,
					"time": 6.363630000000002,
					"velocity": 0.7874015748031497,
					"duration": 0.056818125000000386
				},
				{
					"name": "F4",
					"midi": 65,
					"time": 6.818175000000003,
					"velocity": 0.7874015748031497,
					"duration": 0.056818125000000386
				},
				{
					"name": "C4",
					"midi": 60,
					"time": 7.272720000000003,
					"velocity": 0.7874015748031497,
					"duration": 0.056818125000000386
				},
				{
					"name": "D4",
					"midi": 62,
					"time": 7.727265000000004,
					"velocity": 0.7874015748031497,
					"duration": 0.056818125000000386
				},
				{
					"name": "E4",
					"midi": 64,
					"time": 8.181810000000004,
					"velocity": 0.7874015748031497,
					"duration": 0.0568181249999995
				},
				{
					"name": "F4",
					"midi": 65,
					"time": 8.636355000000004,
					"velocity": 0.7874015748031497,
					"duration": 0.0568181249999995
				},
				{
					"name": "C4",
					"midi": 60,
					"time": 9.090900000000003,
					"velocity": 0.7874015748031497,
					"duration": 0.0568181249999995
				},
				{
					"name": "D4",
					"midi": 62,
					"time": 9.545445000000003,
					"velocity": 0.7874015748031497,
					"duration": 0.06155296875000005
				},
				{
					"name": "E4",
					"midi": 64,
					"time": 9.999990000000002,
					"velocity": 0.7874015748031497,
					"duration": 0.0568181249999995
				},
				{
					"name": "F4",
					"midi": 65,
					"time": 10.454535000000002,
					"velocity": 0.7874015748031497,
					"duration": 0.0568181249999995
				},
				{
					"name": "C4",
					"midi": 60,
					"time": 10.909080000000001,
					"velocity": 0.7874015748031497,
					"duration": 0.0568181249999995
				},
				{
					"name": "D4",
					"midi": 62,
					"time": 11.363625,
					"velocity": 0.7874015748031497,
					"duration": 0.0568181249999995
				},
				{
					"name": "E4",
					"midi": 64,
					"time": 11.81817,
					"velocity": 0.7874015748031497,
					"duration": 0.0568181249999995
				},
				{
					"name": "F4",
					"midi": 65,
					"time": 12.272715,
					"velocity": 0.7874015748031497,
					"duration": 0.0568181249999995
				},
				{
					"name": "C4",
					"midi": 60,
					"time": 12.72726,
					"velocity": 0.7874015748031497,
					"duration": 0.0568181249999995
				},
				{
					"name": "D4",
					"midi": 62,
					"time": 13.181804999999999,
					"velocity": 0.7874015748031497,
					"duration": 0.06155296875000005
				},
				{
					"name": "E4",
					"midi": 64,
					"time": 13.636349999999998,
					"velocity": 0.7874015748031497,
					"duration": 0.0568181249999995
				},
				{
					"name": "F4",
					"midi": 65,
					"time": 14.090894999999998,
					"velocity": 0.7874015748031497,
					"duration": 0.0568181249999995
				},
				{
					"name": "C4",
					"midi": 60,
					"time": 14.545439999999997,
					"velocity": 0.7874015748031497,
					"duration": 0.0568181249999995
				},
				{
					"name": "D4",
					"midi": 62,
					"time": 14.999984999999997,
					"velocity": 0.7874015748031497,
					"duration": 0.0568181249999995
				},
				{
					"name": "E4",
					"midi": 64,
					"time": 15.454529999999997,
					"velocity": 0.7874015748031497,
					"duration": 0.0568181249999995
				},
				{
					"name": "F4",
					"midi": 65,
					"time": 15.909074999999996,
					"velocity": 0.7874015748031497,
					"duration": 0.0568181249999995
				},
				{
					"name": "C4",
					"midi": 60,
					"time": 16.363619999999997,
					"velocity": 0.7874015748031497,
					"duration": 0.0568181249999995
				},
				{
					"name": "D4",
					"midi": 62,
					"time": 16.818164999999997,
					"velocity": 0.7874015748031497,
					"duration": 0.06155296875000005
				},
				{
					"name": "E4",
					"midi": 64,
					"time": 17.272709999999996,
					"velocity": 0.7874015748031497,
					"duration": 0.0568181249999995
				},
				{
					"name": "F4",
					"midi": 65,
					"time": 17.727254999999996,
					"velocity": 0.7874015748031497,
					"duration": 0.0568181249999995
				},
				{
					"name": "C4",
					"midi": 60,
					"time": 18.181799999999996,
					"velocity": 0.7874015748031497,
					"duration": 0.0568181249999995
				},
				{
					"name": "D4",
					"midi": 62,
					"time": 18.636344999999995,
					"velocity": 0.7874015748031497,
					"duration": 0.0568181249999995
				},
				{
					"name": "E4",
					"midi": 64,
					"time": 19.090889999999995,
					"velocity": 0.7874015748031497,
					"duration": 0.0568181249999995
				},
				{
					"name": "F4",
					"midi": 65,
					"time": 19.545434999999994,
					"velocity": 0.7874015748031497,
					"duration": 0.0568181249999995
				},
				{
					"name": "C4",
					"midi": 60,
					"time": 19.999979999999994,
					"velocity": 0.7874015748031497,
					"duration": 0.0568181249999995
				},
				{
					"name": "D4",
					"midi": 62,
					"time": 20.454524999999993,
					"velocity": 0.7874015748031497,
					"duration": 0.06155296875000005
				},
				{
					"name": "E4",
					"midi": 64,
					"time": 20.909069999999993,
					"velocity": 0.7874015748031497,
					"duration": 0.0568181249999995
				},
				{
					"name": "F4",
					"midi": 65,
					"time": 21.363614999999992,
					"velocity": 0.7874015748031497,
					"duration": 0.0568181249999995
				},
				{
					"name": "C4",
					"midi": 60,
					"time": 21.818159999999992,
					"velocity": 0.7874015748031497,
					"duration": 0.0568181249999995
				},
				{
					"name": "D4",
					"midi": 62,
					"time": 22.27270499999999,
					"velocity": 0.7874015748031497,
					"duration": 0.0568181249999995
				},
				{
					"name": "E4",
					"midi": 64,
					"time": 22.72724999999999,
					"velocity": 0.7874015748031497,
					"duration": 0.0568181249999995
				},
				{
					"name": "F4",
					"midi": 65,
					"time": 23.18179499999999,
					"velocity": 0.7874015748031497,
					"duration": 0.0568181249999995
				},
				{
					"name": "C4",
					"midi": 60,
					"time": 23.63633999999999,
					"velocity": 0.7874015748031497,
					"duration": 0.0568181249999995
				},
				{
					"name": "D4",
					"midi": 62,
					"time": 24.09088499999999,
					"velocity": 0.7874015748031497,
					"duration": 0.06155296875000005
				},
				{
					"name": "E4",
					"midi": 64,
					"time": 24.54542999999999,
					"velocity": 0.7874015748031497,
					"duration": 0.0568181249999995
				},
				{
					"name": "F4",
					"midi": 65,
					"time": 24.99997499999999,
					"velocity": 0.7874015748031497,
					"duration": 0.0568181249999995
				},
				{
					"name": "C4",
					"midi": 60,
					"time": 25.454519999999988,
					"velocity": 0.7874015748031497,
					"duration": 0.0568181249999995
				},
				{
					"name": "D4",
					"midi": 62,
					"time": 25.909064999999988,
					"velocity": 0.7874015748031497,
					"duration": 0.0568181249999995
				},
				{
					"name": "E4",
					"midi": 64,
					"time": 26.363609999999987,
					"velocity": 0.7874015748031497,
					"duration": 0.0568181249999995
				},
				{
					"name": "F4",
					"midi": 65,
					"time": 26.818154999999987,
					"velocity": 0.7874015748031497,
					"duration": 0.0568181249999995
				},
				{
					"name": "C4",
					"midi": 60,
					"time": 27.272699999999986,
					"velocity": 0.7874015748031497,
					"duration": 0.0568181249999995
				},
				{
					"name": "D4",
					"midi": 62,
					"time": 27.727244999999986,
					"velocity": 0.7874015748031497,
					"duration": 0.06155296875000005
				},
				{
					"name": "E4",
					"midi": 64,
					"time": 28.181789999999985,
					"velocity": 0.7874015748031497,
					"duration": 0.0568181249999995
				},
				{
					"name": "F4",
					"midi": 65,
					"time": 28.636334999999985,
					"velocity": 0.7874015748031497,
					"duration": 0.0568181249999995
				},
				{
					"name": "C4",
					"midi": 60,
					"time": 29.090879999999984,
					"velocity": 0.7874015748031497,
					"duration": 0.0568181249999995
				},
				{
					"name": "D4",
					"midi": 62,
					"time": 29.545424999999984,
					"velocity": 0.7874015748031497,
					"duration": 0.0568181249999995
				},
				{
					"name": "E4",
					"midi": 64,
					"time": 29.999969999999983,
					"velocity": 0.7874015748031497,
					"duration": 0.0568181249999995
				},
				{
					"name": "F4",
					"midi": 65,
					"time": 30.454514999999983,
					"velocity": 0.7874015748031497,
					"duration": 0.0568181249999995
				},
				{
					"name": "C4",
					"midi": 60,
					"time": 30.909059999999982,
					"velocity": 0.7874015748031497,
					"duration": 0.0568181249999995
				},
				{
					"name": "D4",
					"midi": 62,
					"time": 31.363604999999982,
					"velocity": 0.7874015748031497,
					"duration": 0.06155296875000005
				},
				{
					"name": "E4",
					"midi": 64,
					"time": 31.81814999999998,
					"velocity": 0.7874015748031497,
					"duration": 0.0568181249999995
				},
				{
					"name": "F4",
					"midi": 65,
					"time": 32.272694999999985,
					"velocity": 0.7874015748031497,
					"duration": 0.0568181249999995
				},
				{
					"name": "C4",
					"midi": 60,
					"time": 32.72723999999998,
					"velocity": 0.7874015748031497,
					"duration": 0.0568181249999995
				},
				{
					"name": "D4",
					"midi": 62,
					"time": 33.18178499999998,
					"velocity": 0.7874015748031497,
					"duration": 0.0568181249999995
				},
				{
					"name": "E4",
					"midi": 64,
					"time": 33.63632999999997,
					"velocity": 0.7874015748031497,
					"duration": 0.0568181249999995
				},
				{
					"name": "F4",
					"midi": 65,
					"time": 34.09087499999997,
					"velocity": 0.7874015748031497,
					"duration": 0.0568181249999995
				},
				{
					"name": "C4",
					"midi": 60,
					"time": 34.545419999999964,
					"velocity": 0.7874015748031497,
					"duration": 0.0568181249999995
				},
				{
					"name": "D4",
					"midi": 62,
					"time": 34.99996499999996,
					"velocity": 0.7874015748031497,
					"duration": 0.06155296875000005
				},
				{
					"name": "E4",
					"midi": 64,
					"time": 35.454509999999964,
					"velocity": 0.7874015748031497,
					"duration": 0.0568181249999995
				},
				{
					"name": "F4",
					"midi": 65,
					"time": 35.90905499999997,
					"velocity": 0.7874015748031497,
					"duration": 0.0568181249999995
				},
				{
					"name": "C4",
					"midi": 60,
					"time": 36.36359999999996,
					"velocity": 0.7874015748031497,
					"duration": 0.0568181249999995
				},
				{
					"name": "D4",
					"midi": 62,
					"time": 36.81814499999996,
					"velocity": 0.7874015748031497,
					"duration": 0.0568181249999995
				},
				{
					"name": "E4",
					"midi": 64,
					"time": 37.272689999999955,
					"velocity": 0.7874015748031497,
					"duration": 0.0568181249999995
				},
				{
					"name": "F4",
					"midi": 65,
					"time": 37.72723499999995,
					"velocity": 0.7874015748031497,
					"duration": 0.0568181249999995
				},
				{
					"name": "C4",
					"midi": 60,
					"time": 38.18177999999995,
					"velocity": 0.7874015748031497,
					"duration": 0.0568181249999995
				},
				{
					"name": "D4",
					"midi": 62,
					"time": 38.63632499999994,
					"velocity": 0.7874015748031497,
					"duration": 0.06155296875000005
				},
				{
					"name": "E4",
					"midi": 64,
					"time": 39.090869999999946,
					"velocity": 0.7874015748031497,
					"duration": 0.0568181249999995
				},
				{
					"name": "F4",
					"midi": 65,
					"time": 39.54541499999995,
					"velocity": 0.7874015748031497,
					"duration": 0.0568181249999995
				},
				{
					"name": "C4",
					"midi": 60,
					"time": 39.999959999999945,
					"velocity": 0.7874015748031497,
					"duration": 0.0568181249999995
				},
				{
					"name": "D4",
					"midi": 62,
					"time": 40.45450499999994,
					"velocity": 0.7874015748031497,
					"duration": 0.0568181249999995
				},
				{
					"name": "E4",
					"midi": 64,
					"time": 40.90904999999994,
					"velocity": 0.7874015748031497,
					"duration": 0.0568181249999995
				},
				{
					"name": "F4",
					"midi": 65,
					"time": 41.36359499999993,
					"velocity": 0.7874015748031497,
					"duration": 0.0568181249999995
				},
				{
					"name": "C4",
					"midi": 60,
					"time": 41.81813999999993,
					"velocity": 0.7874015748031497,
					"duration": 0.0568181249999995
				},
				{
					"name": "D4",
					"midi": 62,
					"time": 42.272684999999925,
					"velocity": 0.7874015748031497,
					"duration": 0.06155296875000005
				},
				{
					"name": "E4",
					"midi": 64,
					"time": 42.72722999999993,
					"velocity": 0.7874015748031497,
					"duration": 0.0568181249999995
				},
				{
					"name": "F4",
					"midi": 65,
					"time": 43.18177499999993,
					"velocity": 0.7874015748031497,
					"duration": 0.0568181249999995
				},
				{
					"name": "C4",
					"midi": 60,
					"time": 43.63631999999993,
					"velocity": 0.7874015748031497,
					"duration": 0.0568181249999995
				},
				{
					"name": "D4",
					"midi": 62,
					"time": 44.09086499999992,
					"velocity": 0.7874015748031497,
					"duration": 0.0568181249999995
				},
				{
					"name": "E4",
					"midi": 64,
					"time": 44.54540999999992,
					"velocity": 0.7874015748031497,
					"duration": 0.0568181249999995
				},
				{
					"name": "F4",
					"midi": 65,
					"time": 44.999954999999915,
					"velocity": 0.7874015748031497,
					"duration": 0.0568181249999995
				},
				{
					"name": "C4",
					"midi": 60,
					"time": 45.45449999999991,
					"velocity": 0.7874015748031497,
					"duration": 0.0568181249999995
				},
				{
					"name": "D4",
					"midi": 62,
					"time": 45.90904499999991,
					"velocity": 0.7874015748031497,
					"duration": 0.06155296875000005
				},
				{
					"name": "E4",
					"midi": 64,
					"time": 46.36358999999991,
					"velocity": 0.7874015748031497,
					"duration": 0.0568181249999995
				},
				{
					"name": "F4",
					"midi": 65,
					"time": 46.81813499999991,
					"velocity": 0.7874015748031497,
					"duration": 0.0568181249999995
				},
				{
					"name": "C4",
					"midi": 60,
					"time": 47.27267999999991,
					"velocity": 0.7874015748031497,
					"duration": 0.0568181249999995
				},
				{
					"name": "D4",
					"midi": 62,
					"time": 47.727224999999905,
					"velocity": 0.7874015748031497,
					"duration": 0.0568181249999995
				},
				{
					"name": "E4",
					"midi": 64,
					"time": 48.1817699999999,
					"velocity": 0.7874015748031497,
					"duration": 0.0568181249999995
				},
				{
					"name": "F4",
					"midi": 65,
					"time": 48.6363149999999,
					"velocity": 0.7874015748031497,
					"duration": 0.0568181249999995
				},
				{
					"name": "C4",
					"midi": 60,
					"time": 49.09085999999989,
					"velocity": 0.7874015748031497,
					"duration": 0.0568181249999995
				},
				{
					"name": "D4",
					"midi": 62,
					"time": 49.54540499999989,
					"velocity": 0.7874015748031497,
					"duration": 0.06155296875000005
				},
				{
					"name": "E4",
					"midi": 64,
					"time": 49.99994999999989,
					"velocity": 0.7874015748031497,
					"duration": 0.0568181249999995
				},
				{
					"name": "F4",
					"midi": 65,
					"time": 50.454494999999895,
					"velocity": 0.7874015748031497,
					"duration": 0.0568181249999995
				},
				{
					"name": "C4",
					"midi": 60,
					"time": 50.90903999999989,
					"velocity": 0.7874015748031497,
					"duration": 0.0568181249999995
				},
				{
					"name": "D4",
					"midi": 62,
					"time": 51.36358499999989,
					"velocity": 0.7874015748031497,
					"duration": 0.0568181249999995
				},
				{
					"name": "E4",
					"midi": 64,
					"time": 51.81812999999988,
					"velocity": 0.7874015748031497,
					"duration": 0.0568181249999995
				},
				{
					"name": "F4",
					"midi": 65,
					"time": 52.27267499999988,
					"velocity": 0.7874015748031497,
					"duration": 0.0568181249999995
				},
				{
					"name": "C4",
					"midi": 60,
					"time": 52.727219999999875,
					"velocity": 0.7874015748031497,
					"duration": 0.0568181249999995
				},
				{
					"name": "D4",
					"midi": 62,
					"time": 53.18176499999987,
					"velocity": 0.7874015748031497,
					"duration": 0.06155296875000005
				},
				{
					"name": "E4",
					"midi": 64,
					"time": 53.636309999999874,
					"velocity": 0.7874015748031497,
					"duration": 0.0568181249999995
				},
				{
					"name": "F4",
					"midi": 65,
					"time": 54.09085499999988,
					"velocity": 0.7874015748031497,
					"duration": 0.0568181249999995
				},
				{
					"name": "C4",
					"midi": 60,
					"time": 54.54539999999987,
					"velocity": 0.7874015748031497,
					"duration": 0.0568181249999995
				},
				{
					"name": "D4",
					"midi": 62,
					"time": 54.99994499999987,
					"velocity": 0.7874015748031497,
					"duration": 0.0568181249999995
				},
				{
					"name": "E4",
					"midi": 64,
					"time": 55.454489999999865,
					"velocity": 0.7874015748031497,
					"duration": 0.0568181249999995
				},
				{
					"name": "F4",
					"midi": 65,
					"time": 55.90903499999986,
					"velocity": 0.7874015748031497,
					"duration": 0.0568181249999995
				},
				{
					"name": "C4",
					"midi": 60,
					"time": 56.36357999999986,
					"velocity": 0.7874015748031497,
					"duration": 0.0568181249999995
				},
				{
					"name": "D4",
					"midi": 62,
					"time": 56.81812499999985,
					"velocity": 0.7874015748031497,
					"duration": 0.06155296875000005
				},
				{
					"name": "E4",
					"midi": 64,
					"time": 57.272669999999856,
					"velocity": 0.7874015748031497,
					"duration": 0.0568181249999995
				},
				{
					"name": "F4",
					"midi": 65,
					"time": 57.72721499999986,
					"velocity": 0.7874015748031497,
					"duration": 0.0568181249999995
				},
				{
					"name": "C4",
					"midi": 60,
					"time": 58.181759999999855,
					"velocity": 0.7874015748031497,
					"duration": 0.0568181249999995
				},
				{
					"name": "D4",
					"midi": 62,
					"time": 58.63630499999985,
					"velocity": 0.7874015748031497,
					"duration": 0.0568181249999995
				},
				{
					"name": "E4",
					"midi": 64,
					"time": 59.09084999999985,
					"velocity": 0.7874015748031497,
					"duration": 0.0568181249999995
				},
				{
					"name": "F4",
					"midi": 65,
					"time": 59.54539499999984,
					"velocity": 0.7874015748031497,
					"duration": 0.0568181249999995
				},
				{
					"name": "C4",
					"midi": 60,
					"time": 59.99993999999984,
					"velocity": 0.7874015748031497,
					"duration": 0.0568181249999995
				},
				{
					"name": "D4",
					"midi": 62,
					"time": 60.454484999999835,
					"velocity": 0.7874015748031497,
					"duration": 0.06155296875000005
				},
				{
					"name": "E4",
					"midi": 64,
					"time": 60.90902999999984,
					"velocity": 0.7874015748031497,
					"duration": 0.0568181249999995
				},
				{
					"name": "F4",
					"midi": 65,
					"time": 61.36357499999984,
					"velocity": 0.7874015748031497,
					"duration": 0.0568181249999995
				},
				{
					"name": "C4",
					"midi": 60,
					"time": 61.81811999999984,
					"velocity": 0.7874015748031497,
					"duration": 0.0568181249999995
				},
				{
					"name": "D4",
					"midi": 62,
					"time": 62.27266499999983,
					"velocity": 0.7874015748031497,
					"duration": 0.0568181249999995
				},
				{
					"name": "E4",
					"midi": 64,
					"time": 62.72720999999983,
					"velocity": 0.7874015748031497,
					"duration": 0.0568181249999995
				},
				{
					"name": "F4",
					"midi": 65,
					"time": 63.181754999999825,
					"velocity": 0.7874015748031497,
					"duration": 0.0568181249999995
				},
				{
					"name": "C4",
					"midi": 60,
					"time": 63.63629999999982,
					"velocity": 0.7874015748031497,
					"duration": 0.0568181249999995
				},
				{
					"name": "D4",
					"midi": 62,
					"time": 64.09084499999982,
					"velocity": 0.7874015748031497,
					"duration": 0.06155296874999294
				},
				{
					"name": "E4",
					"midi": 64,
					"time": 64.54538999999981,
					"velocity": 0.7874015748031497,
					"duration": 0.0568181250000066
				},
				{
					"name": "F4",
					"midi": 65,
					"time": 64.99993499999982,
					"velocity": 0.7874015748031497,
					"duration": 0.0568181250000066
				},
				{
					"name": "C4",
					"midi": 60,
					"time": 65.45447999999983,
					"velocity": 0.7874015748031497,
					"duration": 0.0568181250000066
				},
				{
					"name": "D4",
					"midi": 62,
					"time": 65.90902499999984,
					"velocity": 0.7874015748031497,
					"duration": 0.0568181250000066
				},
				{
					"name": "E4",
					"midi": 64,
					"time": 66.36356999999985,
					"velocity": 0.7874015748031497,
					"duration": 0.0568181250000066
				},
				{
					"name": "F4",
					"midi": 65,
					"time": 66.81811499999986,
					"velocity": 0.7874015748031497,
					"duration": 0.0568181250000066
				},
				{
					"name": "C4",
					"midi": 60,
					"time": 67.27265999999987,
					"velocity": 0.7874015748031497,
					"duration": 0.0568181250000066
				},
				{
					"name": "D4",
					"midi": 62,
					"time": 67.72720499999988,
					"velocity": 0.7874015748031497,
					"duration": 0.06155296874999294
				},
				{
					"name": "E4",
					"midi": 64,
					"time": 68.18174999999988,
					"velocity": 0.7874015748031497,
					"duration": 0.0568181250000066
				},
				{
					"name": "F4",
					"midi": 65,
					"time": 68.63629499999989,
					"velocity": 0.7874015748031497,
					"duration": 0.0568181250000066
				},
				{
					"name": "C4",
					"midi": 60,
					"time": 69.0908399999999,
					"velocity": 0.7874015748031497,
					"duration": 0.0568181250000066
				},
				{
					"name": "D4",
					"midi": 62,
					"time": 69.54538499999991,
					"velocity": 0.7874015748031497,
					"duration": 0.0568181250000066
				},
				{
					"name": "E4",
					"midi": 64,
					"time": 69.99992999999992,
					"velocity": 0.7874015748031497,
					"duration": 0.0568181250000066
				},
				{
					"name": "F4",
					"midi": 65,
					"time": 70.45447499999993,
					"velocity": 0.7874015748031497,
					"duration": 0.0568181250000066
				},
				{
					"name": "C4",
					"midi": 60,
					"time": 70.90901999999994,
					"velocity": 0.7874015748031497,
					"duration": 0.0568181250000066
				},
				{
					"name": "D4",
					"midi": 62,
					"time": 71.36356499999995,
					"velocity": 0.7874015748031497,
					"duration": 0.06155296874999294
				},
				{
					"name": "E4",
					"midi": 64,
					"time": 71.81810999999995,
					"velocity": 0.7874015748031497,
					"duration": 0.0568181250000066
				},
				{
					"name": "F4",
					"midi": 65,
					"time": 72.27265499999996,
					"velocity": 0.7874015748031497,
					"duration": 0.0568181250000066
				},
				{
					"name": "C4",
					"midi": 60,
					"time": 72.72719999999997,
					"velocity": 0.7874015748031497,
					"duration": 0.0568181250000066
				},
				{
					"name": "D4",
					"midi": 62,
					"time": 73.18174499999998,
					"velocity": 0.7874015748031497,
					"duration": 0.0568181250000066
				},
				{
					"name": "E4",
					"midi": 64,
					"time": 73.63628999999999,
					"velocity": 0.7874015748031497,
					"duration": 0.0568181250000066
				},
				{
					"name": "F4",
					"midi": 65,
					"time": 74.090835,
					"velocity": 0.7874015748031497,
					"duration": 0.0568181250000066
				},
				{
					"name": "C4",
					"midi": 60,
					"time": 74.54538000000001,
					"velocity": 0.7874015748031497,
					"duration": 0.0568181250000066
				},
				{
					"name": "D4",
					"midi": 62,
					"time": 74.99992500000002,
					"velocity": 0.7874015748031497,
					"duration": 0.06155296874999294
				},
				{
					"name": "E4",
					"midi": 64,
					"time": 75.45447000000001,
					"velocity": 0.7874015748031497,
					"duration": 0.0568181250000066
				},
				{
					"name": "F4",
					"midi": 65,
					"time": 75.90901500000002,
					"velocity": 0.7874015748031497,
					"duration": 0.0568181250000066
				},
				{
					"name": "C4",
					"midi": 60,
					"time": 76.36356000000004,
					"velocity": 0.7874015748031497,
					"duration": 0.0568181250000066
				},
				{
					"name": "D4",
					"midi": 62,
					"time": 76.81810500000005,
					"velocity": 0.7874015748031497,
					"duration": 0.0568181250000066
				},
				{
					"name": "E4",
					"midi": 64,
					"time": 77.27265000000006,
					"velocity": 0.7874015748031497,
					"duration": 0.0568181250000066
				},
				{
					"name": "F4",
					"midi": 65,
					"time": 77.72719500000007,
					"velocity": 0.7874015748031497,
					"duration": 0.0568181250000066
				},
				{
					"name": "C4",
					"midi": 60,
					"time": 78.18174000000008,
					"velocity": 0.7874015748031497,
					"duration": 0.0568181250000066
				},
				{
					"name": "D4",
					"midi": 62,
					"time": 78.63628500000009,
					"velocity": 0.7874015748031497,
					"duration": 0.06155296874999294
				},
				{
					"name": "E4",
					"midi": 64,
					"time": 79.09083000000008,
					"velocity": 0.7874015748031497,
					"duration": 0.0568181250000066
				},
				{
					"name": "F4",
					"midi": 65,
					"time": 79.54537500000009,
					"velocity": 0.7874015748031497,
					"duration": 0.0568181250000066
				},
				{
					"name": "C4",
					"midi": 60,
					"time": 79.9999200000001,
					"velocity": 0.7874015748031497,
					"duration": 0.0568181250000066
				},
				{
					"name": "D4",
					"midi": 62,
					"time": 80.45446500000011,
					"velocity": 0.7874015748031497,
					"duration": 0.0568181250000066
				},
				{
					"name": "E4",
					"midi": 64,
					"time": 80.90901000000012,
					"velocity": 0.7874015748031497,
					"duration": 0.0568181250000066
				},
				{
					"name": "F4",
					"midi": 65,
					"time": 81.36355500000013,
					"velocity": 0.7874015748031497,
					"duration": 0.0568181250000066
				},
				{
					"name": "C4",
					"midi": 60,
					"time": 81.81810000000014,
					"velocity": 0.7874015748031497,
					"duration": 0.0568181250000066
				},
				{
					"name": "D4",
					"midi": 62,
					"time": 82.27264500000015,
					"velocity": 0.7874015748031497,
					"duration": 0.06155296874999294
				},
				{
					"name": "E4",
					"midi": 64,
					"time": 82.72719000000015,
					"velocity": 0.7874015748031497,
					"duration": 0.0568181250000066
				},
				{
					"name": "F4",
					"midi": 65,
					"time": 83.18173500000016,
					"velocity": 0.7874015748031497,
					"duration": 0.0568181250000066
				},
				{
					"name": "C4",
					"midi": 60,
					"time": 83.63628000000017,
					"velocity": 0.7874015748031497,
					"duration": 0.0568181250000066
				},
				{
					"name": "D4",
					"midi": 62,
					"time": 84.09082500000018,
					"velocity": 0.7874015748031497,
					"duration": 0.0568181250000066
				},
				{
					"name": "E4",
					"midi": 64,
					"time": 84.54537000000019,
					"velocity": 0.7874015748031497,
					"duration": 0.0568181250000066
				},
				{
					"name": "F4",
					"midi": 65,
					"time": 84.9999150000002,
					"velocity": 0.7874015748031497,
					"duration": 0.0568181250000066
				},
				{
					"name": "C4",
					"midi": 60,
					"time": 85.45446000000021,
					"velocity": 0.7874015748031497,
					"duration": 0.0568181250000066
				},
				{
					"name": "D4",
					"midi": 62,
					"time": 85.90900500000022,
					"velocity": 0.7874015748031497,
					"duration": 0.06155296874999294
				},
				{
					"name": "E4",
					"midi": 64,
					"time": 86.36355000000022,
					"velocity": 0.7874015748031497,
					"duration": 0.0568181250000066
				},
				{
					"name": "F4",
					"midi": 65,
					"time": 86.81809500000023,
					"velocity": 0.7874015748031497,
					"duration": 0.0568181250000066
				},
				{
					"name": "C4",
					"midi": 60,
					"time": 87.27264000000024,
					"velocity": 0.7874015748031497,
					"duration": 0.0568181250000066
				},
				{
					"name": "D4",
					"midi": 62,
					"time": 87.72718500000025,
					"velocity": 0.7874015748031497,
					"duration": 0.0568181250000066
				},
				{
					"name": "E4",
					"midi": 64,
					"time": 88.18173000000026,
					"velocity": 0.7874015748031497,
					"duration": 0.0568181250000066
				},
				{
					"name": "F4",
					"midi": 65,
					"time": 88.63627500000027,
					"velocity": 0.7874015748031497,
					"duration": 0.0568181250000066
				},
				{
					"name": "C4",
					"midi": 60,
					"time": 89.09082000000028,
					"velocity": 0.7874015748031497,
					"duration": 0.0568181250000066
				},
				{
					"name": "D4",
					"midi": 62,
					"time": 89.54536500000029,
					"velocity": 0.7874015748031497,
					"duration": 0.06155296874999294
				},
				{
					"name": "E4",
					"midi": 64,
					"time": 89.99991000000028,
					"velocity": 0.7874015748031497,
					"duration": 0.0568181250000066
				},
				{
					"name": "F4",
					"midi": 65,
					"time": 90.4544550000003,
					"velocity": 0.7874015748031497,
					"duration": 0.0568181250000066
				},
				{
					"name": "C4",
					"midi": 60,
					"time": 90.9090000000003,
					"velocity": 0.7874015748031497,
					"duration": 0.0568181250000066
				},
				{
					"name": "D4",
					"midi": 62,
					"time": 91.36354500000031,
					"velocity": 0.7874015748031497,
					"duration": 0.0568181250000066
				},
				{
					"name": "E4",
					"midi": 64,
					"time": 91.81809000000032,
					"velocity": 0.7874015748031497,
					"duration": 0.0568181250000066
				},
				{
					"name": "F4",
					"midi": 65,
					"time": 92.27263500000034,
					"velocity": 0.7874015748031497,
					"duration": 0.0568181250000066
				},
				{
					"name": "C4",
					"midi": 60,
					"time": 92.72718000000035,
					"velocity": 0.7874015748031497,
					"duration": 0.0568181250000066
				},
				{
					"name": "D4",
					"midi": 62,
					"time": 93.18172500000036,
					"velocity": 0.7874015748031497,
					"duration": 0.06155296874999294
				},
				{
					"name": "E4",
					"midi": 64,
					"time": 93.63627000000035,
					"velocity": 0.7874015748031497,
					"duration": 0.0568181250000066
				},
				{
					"name": "F4",
					"midi": 65,
					"time": 94.09081500000036,
					"velocity": 0.7874015748031497,
					"duration": 0.0568181250000066
				},
				{
					"name": "C4",
					"midi": 60,
					"time": 94.54536000000037,
					"velocity": 0.7874015748031497,
					"duration": 0.0568181250000066
				},
				{
					"name": "D4",
					"midi": 62,
					"time": 94.99990500000038,
					"velocity": 0.7874015748031497,
					"duration": 0.0568181250000066
				},
				{
					"name": "E4",
					"midi": 64,
					"time": 95.45445000000039,
					"velocity": 0.7874015748031497,
					"duration": 0.0568181250000066
				},
				{
					"name": "F4",
					"midi": 65,
					"time": 95.9089950000004,
					"velocity": 0.7874015748031497,
					"duration": 0.0568181250000066
				},
				{
					"name": "C4",
					"midi": 60,
					"time": 96.36354000000041,
					"velocity": 0.7874015748031497,
					"duration": 0.0568181250000066
				},
				{
					"name": "D4",
					"midi": 62,
					"time": 96.81808500000042,
					"velocity": 0.7874015748031497,
					"duration": 0.06155296874999294
				},
				{
					"name": "E4",
					"midi": 64,
					"time": 97.27263000000042,
					"velocity": 0.7874015748031497,
					"duration": 0.0568181250000066
				},
				{
					"name": "F4",
					"midi": 65,
					"time": 97.72717500000043,
					"velocity": 0.7874015748031497,
					"duration": 0.0568181250000066
				},
				{
					"name": "C4",
					"midi": 60,
					"time": 98.18172000000044,
					"velocity": 0.7874015748031497,
					"duration": 0.0568181250000066
				},
				{
					"name": "D4",
					"midi": 62,
					"time": 98.63626500000045,
					"velocity": 0.7874015748031497,
					"duration": 0.0568181250000066
				},
				{
					"name": "E4",
					"midi": 64,
					"time": 99.09081000000046,
					"velocity": 0.7874015748031497,
					"duration": 0.0568181250000066
				},
				{
					"name": "F4",
					"midi": 65,
					"time": 99.54535500000047,
					"velocity": 0.7874015748031497,
					"duration": 0.0568181250000066
				},
				{
					"name": "C4",
					"midi": 60,
					"time": 99.99990000000048,
					"velocity": 0.7874015748031497,
					"duration": 0.0568181250000066
				},
				{
					"name": "D4",
					"midi": 62,
					"time": 100.45444500000049,
					"velocity": 0.7874015748031497,
					"duration": 0.06155296874999294
				},
				{
					"name": "E4",
					"midi": 64,
					"time": 100.90899000000049,
					"velocity": 0.7874015748031497,
					"duration": 0.0568181250000066
				},
				{
					"name": "F4",
					"midi": 65,
					"time": 101.3635350000005,
					"velocity": 0.7874015748031497,
					"duration": 0.0568181250000066
				},
				{
					"name": "C4",
					"midi": 60,
					"time": 101.8180800000005,
					"velocity": 0.7874015748031497,
					"duration": 0.0568181250000066
				},
				{
					"name": "D4",
					"midi": 62,
					"time": 102.27262500000052,
					"velocity": 0.7874015748031497,
					"duration": 0.0568181250000066
				},
				{
					"name": "E4",
					"midi": 64,
					"time": 102.72717000000053,
					"velocity": 0.7874015748031497,
					"duration": 0.0568181250000066
				},
				{
					"name": "F4",
					"midi": 65,
					"time": 103.18171500000054,
					"velocity": 0.7874015748031497,
					"duration": 0.0568181250000066
				},
				{
					"name": "C4",
					"midi": 60,
					"time": 103.63626000000055,
					"velocity": 0.7874015748031497,
					"duration": 0.0568181250000066
				},
				{
					"name": "D4",
					"midi": 62,
					"time": 104.09080500000056,
					"velocity": 0.7874015748031497,
					"duration": 0.06155296874999294
				},
				{
					"name": "E4",
					"midi": 64,
					"time": 104.54535000000055,
					"velocity": 0.7874015748031497,
					"duration": 0.0568181250000066
				},
				{
					"name": "F4",
					"midi": 65,
					"time": 104.99989500000056,
					"velocity": 0.7874015748031497,
					"duration": 0.0568181250000066
				},
				{
					"name": "C4",
					"midi": 60,
					"time": 105.45444000000057,
					"velocity": 0.7874015748031497,
					"duration": 0.0568181250000066
				},
				{
					"name": "D4",
					"midi": 62,
					"time": 105.90898500000058,
					"velocity": 0.7874015748031497,
					"duration": 0.0568181250000066
				},
				{
					"name": "E4",
					"midi": 64,
					"time": 106.3635300000006,
					"velocity": 0.7874015748031497,
					"duration": 0.0568181250000066
				},
				{
					"name": "F4",
					"midi": 65,
					"time": 106.8180750000006,
					"velocity": 0.7874015748031497,
					"duration": 0.0568181250000066
				},
				{
					"name": "C4",
					"midi": 60,
					"time": 107.27262000000061,
					"velocity": 0.7874015748031497,
					"duration": 0.0568181250000066
				},
				{
					"name": "D4",
					"midi": 62,
					"time": 107.72716500000062,
					"velocity": 0.7874015748031497,
					"duration": 0.06155296874999294
				},
				{
					"name": "E4",
					"midi": 64,
					"time": 108.18171000000062,
					"velocity": 0.7874015748031497,
					"duration": 0.0568181250000066
				},
				{
					"name": "F4",
					"midi": 65,
					"time": 108.63625500000063,
					"velocity": 0.7874015748031497,
					"duration": 0.0568181250000066
				},
				{
					"name": "C4",
					"midi": 60,
					"time": 109.09080000000064,
					"velocity": 0.7874015748031497,
					"duration": 0.0568181250000066
				},
				{
					"name": "D4",
					"midi": 62,
					"time": 109.54534500000065,
					"velocity": 0.7874015748031497,
					"duration": 0.0568181250000066
				},
				{
					"name": "E4",
					"midi": 64,
					"time": 109.99989000000066,
					"velocity": 0.7874015748031497,
					"duration": 0.0568181250000066
				},
				{
					"name": "F4",
					"midi": 65,
					"time": 110.45443500000067,
					"velocity": 0.7874015748031497,
					"duration": 0.0568181250000066
				},
				{
					"name": "C4",
					"midi": 60,
					"time": 110.90898000000068,
					"velocity": 0.7874015748031497,
					"duration": 0.0568181250000066
				},
				{
					"name": "D4",
					"midi": 62,
					"time": 111.36352500000069,
					"velocity": 0.7874015748031497,
					"duration": 0.06155296874999294
				},
				{
					"name": "E4",
					"midi": 64,
					"time": 111.81807000000069,
					"velocity": 0.7874015748031497,
					"duration": 0.0568181250000066
				},
				{
					"name": "F4",
					"midi": 65,
					"time": 112.2726150000007,
					"velocity": 0.7874015748031497,
					"duration": 0.0568181250000066
				},
				{
					"name": "C4",
					"midi": 60,
					"time": 112.72716000000071,
					"velocity": 0.7874015748031497,
					"duration": 0.0568181250000066
				},
				{
					"name": "D4",
					"midi": 62,
					"time": 113.18170500000072,
					"velocity": 0.7874015748031497,
					"duration": 0.0568181250000066
				},
				{
					"name": "E4",
					"midi": 64,
					"time": 113.63625000000073,
					"velocity": 0.7874015748031497,
					"duration": 0.0568181250000066
				},
				{
					"name": "F4",
					"midi": 65,
					"time": 114.09079500000074,
					"velocity": 0.7874015748031497,
					"duration": 0.0568181250000066
				},
				{
					"name": "C4",
					"midi": 60,
					"time": 114.54534000000075,
					"velocity": 0.7874015748031497,
					"duration": 0.0568181250000066
				},
				{
					"name": "D4",
					"midi": 62,
					"time": 114.99988500000076,
					"velocity": 0.7874015748031497,
					"duration": 0.06155296874999294
				},
				{
					"name": "E4",
					"midi": 64,
					"time": 115.45443000000076,
					"velocity": 0.7874015748031497,
					"duration": 0.0568181250000066
				},
				{
					"name": "F4",
					"midi": 65,
					"time": 115.90897500000077,
					"velocity": 0.7874015748031497,
					"duration": 0.0568181250000066
				},
				{
					"name": "C4",
					"midi": 60,
					"time": 116.36352000000078,
					"velocity": 0.7874015748031497,
					"duration": 0.0568181250000066
				},
				{
					"name": "D4",
					"midi": 62,
					"time": 116.81806500000079,
					"velocity": 0.7874015748031497,
					"duration": 0.0568181250000066
				},
				{
					"name": "E4",
					"midi": 64,
					"time": 117.2726100000008,
					"velocity": 0.7874015748031497,
					"duration": 0.0568181250000066
				},
				{
					"name": "F4",
					"midi": 65,
					"time": 117.7271550000008,
					"velocity": 0.7874015748031497,
					"duration": 0.0568181250000066
				},
				{
					"name": "C4",
					"midi": 60,
					"time": 118.18170000000082,
					"velocity": 0.7874015748031497,
					"duration": 0.0568181250000066
				},
				{
					"name": "D4",
					"midi": 62,
					"time": 118.63624500000083,
					"velocity": 0.7874015748031497,
					"duration": 0.06155296874999294
				},
				{
					"name": "E4",
					"midi": 64,
					"time": 119.09079000000082,
					"velocity": 0.7874015748031497,
					"duration": 0.0568181250000066
				},
				{
					"name": "F4",
					"midi": 65,
					"time": 119.54533500000083,
					"velocity": 0.7874015748031497,
					"duration": 0.0568181250000066
				},
				{
					"name": "C4",
					"midi": 60,
					"time": 119.99988000000084,
					"velocity": 0.7874015748031497,
					"duration": 0.0568181250000066
				},
				{
					"name": "D4",
					"midi": 62,
					"time": 120.45442500000085,
					"velocity": 0.7874015748031497,
					"duration": 0.0568181250000066
				},
				{
					"name": "E4",
					"midi": 64,
					"time": 120.90897000000086,
					"velocity": 0.7874015748031497,
					"duration": 0.0568181250000066
				},
				{
					"name": "F4",
					"midi": 65,
					"time": 121.36351500000087,
					"velocity": 0.7874015748031497,
					"duration": 0.0568181250000066
				},
				{
					"name": "C4",
					"midi": 60,
					"time": 121.81806000000088,
					"velocity": 0.7874015748031497,
					"duration": 0.0568181250000066
				},
				{
					"name": "D4",
					"midi": 62,
					"time": 122.2726050000009,
					"velocity": 0.7874015748031497,
					"duration": 0.06155296874999294
				},
				{
					"name": "E4",
					"midi": 64,
					"time": 122.72715000000089,
					"velocity": 0.7874015748031497,
					"duration": 0.0568181250000066
				},
				{
					"name": "F4",
					"midi": 65,
					"time": 123.1816950000009,
					"velocity": 0.7874015748031497,
					"duration": 0.0568181250000066
				},
				{
					"name": "C4",
					"midi": 60,
					"time": 123.63624000000091,
					"velocity": 0.7874015748031497,
					"duration": 0.0568181250000066
				},
				{
					"name": "D4",
					"midi": 62,
					"time": 124.09078500000092,
					"velocity": 0.7874015748031497,
					"duration": 0.0568181250000066
				},
				{
					"name": "E4",
					"midi": 64,
					"time": 124.54533000000093,
					"velocity": 0.7874015748031497,
					"duration": 0.0568181250000066
				},
				{
					"name": "F4",
					"midi": 65,
					"time": 124.99987500000094,
					"velocity": 0.7874015748031497,
					"duration": 0.0568181250000066
				},
				{
					"name": "C4",
					"midi": 60,
					"time": 125.45442000000095,
					"velocity": 0.7874015748031497,
					"duration": 0.0568181250000066
				},
				{
					"name": "D4",
					"midi": 62,
					"time": 125.90896500000096,
					"velocity": 0.7874015748031497,
					"duration": 0.06155296874999294
				},
				{
					"name": "E4",
					"midi": 64,
					"time": 126.36351000000096,
					"velocity": 0.7874015748031497,
					"duration": 0.0568181250000066
				},
				{
					"name": "F4",
					"midi": 65,
					"time": 126.81805500000097,
					"velocity": 0.7874015748031497,
					"duration": 0.0568181250000066
				},
				{
					"name": "C4",
					"midi": 60,
					"time": 127.27260000000098,
					"velocity": 0.7874015748031497,
					"duration": 0.0568181250000066
				},
				{
					"name": "D4",
					"midi": 62,
					"time": 127.72714500000099,
					"velocity": 0.7874015748031497,
					"duration": 0.0568181250000066
				},
				{
					"name": "E4",
					"midi": 64,
					"time": 128.181690000001,
					"velocity": 0.7874015748031497,
					"duration": 0.0568181250000066
				},
				{
					"name": "F4",
					"midi": 65,
					"time": 128.636235000001,
					"velocity": 0.7874015748031497,
					"duration": 0.0568181250000066
				},
				{
					"name": "C4",
					"midi": 60,
					"time": 129.090780000001,
					"velocity": 0.7874015748031497,
					"duration": 0.0568181250000066
				},
				{
					"name": "D4",
					"midi": 62,
					"time": 129.545325000001,
					"velocity": 0.7874015748031497,
					"duration": 0.06155296874999294
				},
				{
					"name": "E4",
					"midi": 64,
					"time": 129.99987000000098,
					"velocity": 0.7874015748031497,
					"duration": 0.0568181250000066
				},
				{
					"name": "F4",
					"midi": 65,
					"time": 130.45441500000098,
					"velocity": 0.7874015748031497,
					"duration": 0.0568181250000066
				},
				{
					"name": "C4",
					"midi": 60,
					"time": 130.90896000000097,
					"velocity": 0.7874015748031497,
					"duration": 0.0568181250000066
				},
				{
					"name": "D4",
					"midi": 62,
					"time": 131.36350500000097,
					"velocity": 0.7874015748031497,
					"duration": 0.0568181250000066
				},
				{
					"name": "E4",
					"midi": 64,
					"time": 131.81805000000097,
					"velocity": 0.7874015748031497,
					"duration": 0.0568181250000066
				},
				{
					"name": "F4",
					"midi": 65,
					"time": 132.27259500000096,
					"velocity": 0.7874015748031497,
					"duration": 0.0568181250000066
				},
				{
					"name": "C4",
					"midi": 60,
					"time": 132.72714000000096,
					"velocity": 0.7874015748031497,
					"duration": 0.0568181250000066
				},
				{
					"name": "D4",
					"midi": 62,
					"time": 133.18168500000095,
					"velocity": 0.7874015748031497,
					"duration": 0.06155296874999294
				},
				{
					"name": "E4",
					"midi": 64,
					"time": 133.63623000000095,
					"velocity": 0.7874015748031497,
					"duration": 0.0568181250000066
				},
				{
					"name": "F4",
					"midi": 65,
					"time": 134.09077500000095,
					"velocity": 0.7874015748031497,
					"duration": 0.0568181250000066
				},
				{
					"name": "C4",
					"midi": 60,
					"time": 134.54532000000094,
					"velocity": 0.7874015748031497,
					"duration": 0.0568181250000066
				},
				{
					"name": "D4",
					"midi": 62,
					"time": 134.99986500000094,
					"velocity": 0.7874015748031497,
					"duration": 0.0568181250000066
				},
				{
					"name": "E4",
					"midi": 64,
					"time": 135.45441000000093,
					"velocity": 0.7874015748031497,
					"duration": 0.0568181250000066
				},
				{
					"name": "F4",
					"midi": 65,
					"time": 135.90895500000093,
					"velocity": 0.7874015748031497,
					"duration": 0.0568181250000066
				},
				{
					"name": "C4",
					"midi": 60,
					"time": 136.36350000000093,
					"velocity": 0.7874015748031497,
					"duration": 0.0568181250000066
				},
				{
					"name": "D4",
					"midi": 62,
					"time": 136.81804500000092,
					"velocity": 0.7874015748031497,
					"duration": 0.06155296874999294
				},
				{
					"name": "E4",
					"midi": 64,
					"time": 137.27259000000092,
					"velocity": 0.7874015748031497,
					"duration": 0.0568181250000066
				},
				{
					"name": "F4",
					"midi": 65,
					"time": 137.7271350000009,
					"velocity": 0.7874015748031497,
					"duration": 0.0568181250000066
				},
				{
					"name": "C4",
					"midi": 60,
					"time": 138.1816800000009,
					"velocity": 0.7874015748031497,
					"duration": 0.0568181250000066
				},
				{
					"name": "D4",
					"midi": 62,
					"time": 138.6362250000009,
					"velocity": 0.7874015748031497,
					"duration": 0.0568181250000066
				},
				{
					"name": "E4",
					"midi": 64,
					"time": 139.0907700000009,
					"velocity": 0.7874015748031497,
					"duration": 0.0568181250000066
				},
				{
					"name": "F4",
					"midi": 65,
					"time": 139.5453150000009,
					"velocity": 0.7874015748031497,
					"duration": 0.0568181250000066
				},
				{
					"name": "C4",
					"midi": 60,
					"time": 139.9998600000009,
					"velocity": 0.7874015748031497,
					"duration": 0.0568181250000066
				},
				{
					"name": "D4",
					"midi": 62,
					"time": 140.4544050000009,
					"velocity": 0.7874015748031497,
					"duration": 0.06155296874999294
				},
				{
					"name": "E4",
					"midi": 64,
					"time": 140.90895000000089,
					"velocity": 0.7874015748031497,
					"duration": 0.0568181250000066
				},
				{
					"name": "F4",
					"midi": 65,
					"time": 141.36349500000088,
					"velocity": 0.7874015748031497,
					"duration": 0.0568181250000066
				},
				{
					"name": "C4",
					"midi": 60,
					"time": 141.81804000000088,
					"velocity": 0.7874015748031497,
					"duration": 0.0568181250000066
				},
				{
					"name": "D4",
					"midi": 62,
					"time": 142.27258500000087,
					"velocity": 0.7874015748031497,
					"duration": 0.0568181250000066
				},
				{
					"name": "E4",
					"midi": 64,
					"time": 142.72713000000087,
					"velocity": 0.7874015748031497,
					"duration": 0.0568181250000066
				},
				{
					"name": "F4",
					"midi": 65,
					"time": 143.18167500000087,
					"velocity": 0.7874015748031497,
					"duration": 0.0568181250000066
				},
				{
					"name": "C4",
					"midi": 60,
					"time": 143.63622000000086,
					"velocity": 0.7874015748031497,
					"duration": 0.0568181250000066
				},
				{
					"name": "D4",
					"midi": 62,
					"time": 144.09076500000086,
					"velocity": 0.7874015748031497,
					"duration": 0.06155296874999294
				},
				{
					"name": "E4",
					"midi": 64,
					"time": 144.54531000000085,
					"velocity": 0.7874015748031497,
					"duration": 0.0568181250000066
				},
				{
					"name": "F4",
					"midi": 65,
					"time": 144.99985500000085,
					"velocity": 0.7874015748031497,
					"duration": 0.0568181250000066
				},
				{
					"name": "C4",
					"midi": 60,
					"time": 145.45440000000085,
					"velocity": 0.7874015748031497,
					"duration": 0.0568181250000066
				},
				{
					"name": "D4",
					"midi": 62,
					"time": 145.90894500000084,
					"velocity": 0.7874015748031497,
					"duration": 0.0568181250000066
				},
				{
					"name": "E4",
					"midi": 64,
					"time": 146.36349000000084,
					"velocity": 0.7874015748031497,
					"duration": 0.0568181250000066
				},
				{
					"name": "F4",
					"midi": 65,
					"time": 146.81803500000083,
					"velocity": 0.7874015748031497,
					"duration": 0.0568181250000066
				},
				{
					"name": "C4",
					"midi": 60,
					"time": 147.27258000000083,
					"velocity": 0.7874015748031497,
					"duration": 0.0568181250000066
				},
				{
					"name": "D4",
					"midi": 62,
					"time": 147.72712500000083,
					"velocity": 0.7874015748031497,
					"duration": 0.06155296874999294
				},
				{
					"name": "E4",
					"midi": 64,
					"time": 148.18167000000082,
					"velocity": 0.7874015748031497,
					"duration": 0.0568181250000066
				},
				{
					"name": "F4",
					"midi": 65,
					"time": 148.63621500000082,
					"velocity": 0.7874015748031497,
					"duration": 0.0568181250000066
				},
				{
					"name": "C4",
					"midi": 60,
					"time": 149.0907600000008,
					"velocity": 0.7874015748031497,
					"duration": 0.0568181250000066
				},
				{
					"name": "D4",
					"midi": 62,
					"time": 149.5453050000008,
					"velocity": 0.7874015748031497,
					"duration": 0.0568181250000066
				},
				{
					"name": "E4",
					"midi": 64,
					"time": 149.9998500000008,
					"velocity": 0.7874015748031497,
					"duration": 0.0568181250000066
				},
				{
					"name": "F4",
					"midi": 65,
					"time": 150.4543950000008,
					"velocity": 0.7874015748031497,
					"duration": 0.0568181250000066
				},
				{
					"name": "C4",
					"midi": 60,
					"time": 150.9089400000008,
					"velocity": 0.7874015748031497,
					"duration": 0.0568181250000066
				},
				{
					"name": "D4",
					"midi": 62,
					"time": 151.3634850000008,
					"velocity": 0.7874015748031497,
					"duration": 0.06155296874999294
				},
				{
					"name": "E4",
					"midi": 64,
					"time": 151.8180300000008,
					"velocity": 0.7874015748031497,
					"duration": 0.0568181250000066
				},
				{
					"name": "F4",
					"midi": 65,
					"time": 152.27257500000078,
					"velocity": 0.7874015748031497,
					"duration": 0.0568181250000066
				},
				{
					"name": "C4",
					"midi": 60,
					"time": 152.72712000000078,
					"velocity": 0.7874015748031497,
					"duration": 0.0568181250000066
				},
				{
					"name": "D4",
					"midi": 62,
					"time": 153.18166500000078,
					"velocity": 0.7874015748031497,
					"duration": 0.0568181250000066
				},
				{
					"name": "E4",
					"midi": 64,
					"time": 153.63621000000077,
					"velocity": 0.7874015748031497,
					"duration": 0.0568181250000066
				},
				{
					"name": "F4",
					"midi": 65,
					"time": 154.09075500000077,
					"velocity": 0.7874015748031497,
					"duration": 0.0568181250000066
				},
				{
					"name": "C4",
					"midi": 60,
					"time": 154.54530000000076,
					"velocity": 0.7874015748031497,
					"duration": 0.0568181250000066
				},
				{
					"name": "D4",
					"midi": 62,
					"time": 154.99984500000076,
					"velocity": 0.7874015748031497,
					"duration": 0.06155296874999294
				},
				{
					"name": "E4",
					"midi": 64,
					"time": 155.45439000000076,
					"velocity": 0.7874015748031497,
					"duration": 0.0568181250000066
				},
				{
					"name": "F4",
					"midi": 65,
					"time": 155.90893500000075,
					"velocity": 0.7874015748031497,
					"duration": 0.0568181250000066
				},
				{
					"name": "C4",
					"midi": 60,
					"time": 156.36348000000075,
					"velocity": 0.7874015748031497,
					"duration": 0.0568181250000066
				},
				{
					"name": "D4",
					"midi": 62,
					"time": 156.81802500000074,
					"velocity": 0.7874015748031497,
					"duration": 0.0568181250000066
				},
				{
					"name": "E4",
					"midi": 64,
					"time": 157.27257000000074,
					"velocity": 0.7874015748031497,
					"duration": 0.0568181250000066
				},
				{
					"name": "F4",
					"midi": 65,
					"time": 157.72711500000074,
					"velocity": 0.7874015748031497,
					"duration": 0.0568181250000066
				},
				{
					"name": "C4",
					"midi": 60,
					"time": 158.18166000000073,
					"velocity": 0.7874015748031497,
					"duration": 0.0568181250000066
				},
				{
					"name": "D4",
					"midi": 62,
					"time": 158.63620500000073,
					"velocity": 0.7874015748031497,
					"duration": 0.06155296874999294
				},
				{
					"name": "E4",
					"midi": 64,
					"time": 159.09075000000072,
					"velocity": 0.7874015748031497,
					"duration": 0.0568181250000066
				},
				{
					"name": "F4",
					"midi": 65,
					"time": 159.54529500000072,
					"velocity": 0.7874015748031497,
					"duration": 0.0568181250000066
				},
				{
					"name": "C4",
					"midi": 60,
					"time": 159.99984000000072,
					"velocity": 0.7874015748031497,
					"duration": 0.0568181250000066
				},
				{
					"name": "D4",
					"midi": 62,
					"time": 160.4543850000007,
					"velocity": 0.7874015748031497,
					"duration": 0.0568181250000066
				},
				{
					"name": "E4",
					"midi": 64,
					"time": 160.9089300000007,
					"velocity": 0.7874015748031497,
					"duration": 0.0568181250000066
				},
				{
					"name": "F4",
					"midi": 65,
					"time": 161.3634750000007,
					"velocity": 0.7874015748031497,
					"duration": 0.0568181250000066
				},
				{
					"name": "C4",
					"midi": 60,
					"time": 161.8180200000007,
					"velocity": 0.7874015748031497,
					"duration": 0.0568181250000066
				},
				{
					"name": "D4",
					"midi": 62,
					"time": 162.2725650000007,
					"velocity": 0.7874015748031497,
					"duration": 0.06155296874999294
				},
				{
					"name": "E4",
					"midi": 64,
					"time": 162.7271100000007,
					"velocity": 0.7874015748031497,
					"duration": 0.0568181250000066
				},
				{
					"name": "F4",
					"midi": 65,
					"time": 163.1816550000007,
					"velocity": 0.7874015748031497,
					"duration": 0.0568181250000066
				},
				{
					"name": "C4",
					"midi": 60,
					"time": 163.63620000000068,
					"velocity": 0.7874015748031497,
					"duration": 0.0568181250000066
				},
				{
					"name": "D4",
					"midi": 62,
					"time": 164.09074500000068,
					"velocity": 0.7874015748031497,
					"duration": 0.0568181250000066
				},
				{
					"name": "E4",
					"midi": 64,
					"time": 164.54529000000068,
					"velocity": 0.7874015748031497,
					"duration": 0.0568181250000066
				},
				{
					"name": "F4",
					"midi": 65,
					"time": 164.99983500000067,
					"velocity": 0.7874015748031497,
					"duration": 0.0568181250000066
				},
				{
					"name": "C4",
					"midi": 60,
					"time": 165.45438000000067,
					"velocity": 0.7874015748031497,
					"duration": 0.0568181250000066
				},
				{
					"name": "D4",
					"midi": 62,
					"time": 165.90892500000066,
					"velocity": 0.7874015748031497,
					"duration": 0.06155296874999294
				},
				{
					"name": "E4",
					"midi": 64,
					"time": 166.36347000000066,
					"velocity": 0.7874015748031497,
					"duration": 0.0568181250000066
				},
				{
					"name": "F4",
					"midi": 65,
					"time": 166.81801500000066,
					"velocity": 0.7874015748031497,
					"duration": 0.0568181250000066
				},
				{
					"name": "C4",
					"midi": 60,
					"time": 167.27256000000065,
					"velocity": 0.7874015748031497,
					"duration": 0.0568181250000066
				},
				{
					"name": "D4",
					"midi": 62,
					"time": 167.72710500000065,
					"velocity": 0.7874015748031497,
					"duration": 0.0568181250000066
				},
				{
					"name": "E4",
					"midi": 64,
					"time": 168.18165000000064,
					"velocity": 0.7874015748031497,
					"duration": 0.0568181250000066
				},
				{
					"name": "F4",
					"midi": 65,
					"time": 168.63619500000064,
					"velocity": 0.7874015748031497,
					"duration": 0.0568181250000066
				},
				{
					"name": "C4",
					"midi": 60,
					"time": 169.09074000000064,
					"velocity": 0.7874015748031497,
					"duration": 0.0568181250000066
				},
				{
					"name": "D4",
					"midi": 62,
					"time": 169.54528500000063,
					"velocity": 0.7874015748031497,
					"duration": 0.06155296874999294
				},
				{
					"name": "E4",
					"midi": 64,
					"time": 169.99983000000063,
					"velocity": 0.7874015748031497,
					"duration": 0.0568181250000066
				},
				{
					"name": "F4",
					"midi": 65,
					"time": 170.45437500000062,
					"velocity": 0.7874015748031497,
					"duration": 0.0568181250000066
				},
				{
					"name": "C4",
					"midi": 60,
					"time": 170.90892000000062,
					"velocity": 0.7874015748031497,
					"duration": 0.0568181250000066
				},
				{
					"name": "D4",
					"midi": 62,
					"time": 171.36346500000062,
					"velocity": 0.7874015748031497,
					"duration": 0.0568181250000066
				},
				{
					"name": "E4",
					"midi": 64,
					"time": 171.8180100000006,
					"velocity": 0.7874015748031497,
					"duration": 0.0568181250000066
				},
				{
					"name": "F4",
					"midi": 65,
					"time": 172.2725550000006,
					"velocity": 0.7874015748031497,
					"duration": 0.0568181250000066
				},
				{
					"name": "C4",
					"midi": 60,
					"time": 172.7271000000006,
					"velocity": 0.7874015748031497,
					"duration": 0.0568181250000066
				},
				{
					"name": "D4",
					"midi": 62,
					"time": 173.1816450000006,
					"velocity": 0.7874015748031497,
					"duration": 0.06155296874999294
				},
				{
					"name": "E4",
					"midi": 64,
					"time": 173.6361900000006,
					"velocity": 0.7874015748031497,
					"duration": 0.0568181250000066
				},
				{
					"name": "F4",
					"midi": 65,
					"time": 174.0907350000006,
					"velocity": 0.7874015748031497,
					"duration": 0.0568181250000066
				},
				{
					"name": "C4",
					"midi": 60,
					"time": 174.5452800000006,
					"velocity": 0.7874015748031497,
					"duration": 0.0568181250000066
				},
				{
					"name": "D4",
					"midi": 62,
					"time": 174.99982500000058,
					"velocity": 0.7874015748031497,
					"duration": 0.0568181250000066
				},
				{
					"name": "E4",
					"midi": 64,
					"time": 175.45437000000058,
					"velocity": 0.7874015748031497,
					"duration": 0.0568181250000066
				},
				{
					"name": "F4",
					"midi": 65,
					"time": 175.90891500000058,
					"velocity": 0.7874015748031497,
					"duration": 0.0568181250000066
				},
				{
					"name": "C4",
					"midi": 60,
					"time": 176.36346000000057,
					"velocity": 0.7874015748031497,
					"duration": 0.0568181250000066
				},
				{
					"name": "D4",
					"midi": 62,
					"time": 176.81800500000057,
					"velocity": 0.7874015748031497,
					"duration": 0.06155296874999294
				},
				{
					"name": "E4",
					"midi": 64,
					"time": 177.27255000000056,
					"velocity": 0.7874015748031497,
					"duration": 0.0568181250000066
				},
				{
					"name": "F4",
					"midi": 65,
					"time": 177.72709500000056,
					"velocity": 0.7874015748031497,
					"duration": 0.0568181250000066
				},
				{
					"name": "C4",
					"midi": 60,
					"time": 178.18164000000056,
					"velocity": 0.7874015748031497,
					"duration": 0.0568181250000066
				},
				{
					"name": "D4",
					"midi": 62,
					"time": 178.63618500000055,
					"velocity": 0.7874015748031497,
					"duration": 0.0568181250000066
				},
				{
					"name": "E4",
					"midi": 64,
					"time": 179.09073000000055,
					"velocity": 0.7874015748031497,
					"duration": 0.0568181250000066
				},
				{
					"name": "F4",
					"midi": 65,
					"time": 179.54527500000054,
					"velocity": 0.7874015748031497,
					"duration": 0.0568181250000066
				},
				{
					"name": "C4",
					"midi": 60,
					"time": 179.99982000000054,
					"velocity": 0.7874015748031497,
					"duration": 0.0568181250000066
				},
				{
					"name": "D4",
					"midi": 62,
					"time": 180.45436500000054,
					"velocity": 0.7874015748031497,
					"duration": 0.06155296874999294
				},
				{
					"name": "E4",
					"midi": 64,
					"time": 180.90891000000053,
					"velocity": 0.7874015748031497,
					"duration": 0.0568181250000066
				},
				{
					"name": "F4",
					"midi": 65,
					"time": 181.36345500000053,
					"velocity": 0.7874015748031497,
					"duration": 0.0568181250000066
				},
				{
					"name": "C4",
					"midi": 60,
					"time": 181.81800000000052,
					"velocity": 0.7874015748031497,
					"duration": 0.0568181250000066
				},
				{
					"name": "D4",
					"midi": 62,
					"time": 182.27254500000052,
					"velocity": 0.7874015748031497,
					"duration": 0.0568181250000066
				},
				{
					"name": "E4",
					"midi": 64,
					"time": 182.72709000000052,
					"velocity": 0.7874015748031497,
					"duration": 0.0568181250000066
				},
				{
					"name": "F4",
					"midi": 65,
					"time": 183.1816350000005,
					"velocity": 0.7874015748031497,
					"duration": 0.0568181250000066
				},
				{
					"name": "C4",
					"midi": 60,
					"time": 183.6361800000005,
					"velocity": 0.7874015748031497,
					"duration": 0.0568181250000066
				},
				{
					"name": "D4",
					"midi": 62,
					"time": 184.0907250000005,
					"velocity": 0.7874015748031497,
					"duration": 0.06155296874999294
				},
				{
					"name": "E4",
					"midi": 64,
					"time": 184.5452700000005,
					"velocity": 0.7874015748031497,
					"duration": 0.0568181250000066
				},
				{
					"name": "F4",
					"midi": 65,
					"time": 184.9998150000005,
					"velocity": 0.7874015748031497,
					"duration": 0.0568181250000066
				},
				{
					"name": "C4",
					"midi": 60,
					"time": 185.4543600000005,
					"velocity": 0.7874015748031497,
					"duration": 0.0568181250000066
				},
				{
					"name": "D4",
					"midi": 62,
					"time": 185.9089050000005,
					"velocity": 0.7874015748031497,
					"duration": 0.0568181250000066
				},
				{
					"name": "E4",
					"midi": 64,
					"time": 186.36345000000048,
					"velocity": 0.7874015748031497,
					"duration": 0.0568181250000066
				},
				{
					"name": "F4",
					"midi": 65,
					"time": 186.81799500000048,
					"velocity": 0.7874015748031497,
					"duration": 0.0568181250000066
				},
				{
					"name": "C4",
					"midi": 60,
					"time": 187.27254000000048,
					"velocity": 0.7874015748031497,
					"duration": 0.0568181250000066
				},
				{
					"name": "D4",
					"midi": 62,
					"time": 187.72708500000047,
					"velocity": 0.7874015748031497,
					"duration": 0.06155296874999294
				},
				{
					"name": "E4",
					"midi": 64,
					"time": 188.18163000000047,
					"velocity": 0.7874015748031497,
					"duration": 0.0568181250000066
				},
				{
					"name": "F4",
					"midi": 65,
					"time": 188.63617500000046,
					"velocity": 0.7874015748031497,
					"duration": 0.0568181250000066
				},
				{
					"name": "C4",
					"midi": 60,
					"time": 189.09072000000046,
					"velocity": 0.7874015748031497,
					"duration": 0.0568181250000066
				},
				{
					"name": "D4",
					"midi": 62,
					"time": 189.54526500000046,
					"velocity": 0.7874015748031497,
					"duration": 0.0568181250000066
				},
				{
					"name": "E4",
					"midi": 64,
					"time": 189.99981000000045,
					"velocity": 0.7874015748031497,
					"duration": 0.0568181250000066
				},
				{
					"name": "F4",
					"midi": 65,
					"time": 190.45435500000045,
					"velocity": 0.7874015748031497,
					"duration": 0.0568181250000066
				},
				{
					"name": "C4",
					"midi": 60,
					"time": 190.90890000000044,
					"velocity": 0.7874015748031497,
					"duration": 0.0568181250000066
				},
				{
					"name": "D4",
					"midi": 62,
					"time": 191.36344500000044,
					"velocity": 0.7874015748031497,
					"duration": 0.06155296874999294
				},
				{
					"name": "E4",
					"midi": 64,
					"time": 191.81799000000044,
					"velocity": 0.7874015748031497,
					"duration": 0.0568181250000066
				},
				{
					"name": "F4",
					"midi": 65,
					"time": 192.27253500000043,
					"velocity": 0.7874015748031497,
					"duration": 0.0568181250000066
				}
			]
		}