{
      "notes": [
        {
          "name": "E5",
          "midi": 76,
          "time": 7.2727200000000005,
          "velocity": 0.7874015748031497,
          "duration": 0.056818125000000386
        },
        {
          "name": "E5",
          "midi": 76,
          "time": 7.499992500000001,
          "velocity": 0.7874015748031497,
          "duration": 0.056818125000000386
        },
        {
          "name": "E5",
          "midi": 76,
          "time": 7.954537500000002,
          "velocity": 0.7874015748031497,
          "duration": 0.052083281249999835
        },
        {
          "name": "E5",
          "midi": 76,
          "time": 8.181810000000002,
          "velocity": 0.7874015748031497,
          "duration": 0.06155296875000005
        },
        {
          "name": "C5",
          "midi": 72,
          "time": 8.409082500000002,
          "velocity": 0.7874015748031497,
          "duration": 0.0568181249999995
        },
        {
          "name": "E5",
          "midi": 76,
          "time": 8.863627500000002,
          "velocity": 0.7874015748031497,
          "duration": 0.0568181249999995
        },
        {
          "name": "E5",
          "midi": 76,
          "time": 9.090900000000001,
          "velocity": 0.7874015748031497,
          "duration": 0.0568181249999995
        },
        {
          "name": "E5",
          "midi": 76,
          "time": 9.318172500000001,
          "velocity": 0.7874015748031497,
          "duration": 0.0568181249999995
        },
        {
          "name": "E5",
          "midi": 76,
          "time": 9.7727175,
          "velocity": 0.7874015748031497,
          "duration": 0.052083281250000724
        },
        {
          "name": "E5",
          "midi": 76,
          "time": 9.999990000000002,
          "velocity": 0.7874015748031497,
          "duration": 0.06155296875000005
        },
        {
          "name": "C5",
          "midi": 72,
          "time": 10.227262500000002,
          "velocity": 0.7874015748031497,
          "duration": 0.0568181249999995
        },
        {
          "name": "F5",
          "midi": 77,
          "time": 10.909080000000001,
          "velocity": 0.7874015748031497,
          "duration": 0.0568181249999995
        },
        {
          "name": "F5",
          "midi": 77,
          "time": 11.136352500000001,
          "velocity": 0.7874015748031497,
          "duration": 0.0568181249999995
        },
        {
          "name": "F5",
          "midi": 77,
          "time": 11.5908975,
          "velocity": 0.7874015748031497,
          "duration": 0.052083281250000724
        },
        {
          "name": "F5",
          "midi": 77,
          "time": 11.818170000000002,
          "velocity": 0.7874015748031497,
          "duration": 0.06155296875000005
        },
        {
          "name": "D5",
          "midi": 74,
          "time": 12.045442500000002,
          "velocity": 0.7874015748031497,
          "duration": 0.0568181249999995
        },
        {
          "name": "F5",
          "midi": 77,
          "time": 12.499987500000001,
          "velocity": 0.7874015748031497,
          "duration": 0.0568181249999995
        },
        {
          "name": "F5",
          "midi": 77,
          "time": 12.727260000000001,
          "velocity": 0.7874015748031497,
          "duration": 0.0568181249999995
        },
        {
          "name": "F5",
          "midi": 77,
          "time": 12.954532500000001,
          "velocity": 0.7874015748031497,
          "duration": 0.0568181249999995
        },
        {
          "name": "F5",
          "midi": 77,
          "time": 13.4090775,
          "velocity": 0.7874015748031497,
          "duration": 0.052083281250000724
        },
        {
          "name": "F5",
          "midi": 77,
          "time": 13.636350000000002,
          "velocity": 0.7874015748031497,
          "duration": 0.06155296875000005
        },
        {
          "name": "D5",
          "midi": 74,
          "time": 13.863622500000002,
          "velocity": 0.7874015748031497,
          "duration": 0.0568181249999995
        },
        {
          "name": "E5",
          "midi": 76,
          "time": 14.545440000000001,
          "velocity": 0.7874015748031497,
          "duration": 0.0568181249999995
        },
        {
          "name": "E5",
          "midi": 76,
          "time": 14.7727125,
          "velocity": 0.7874015748031497,
          "duration": 0.0568181249999995
        },
        {
          "name": "E5",
          "midi": 76,
          "time": 15.2272575,
          "velocity": 0.7874015748031497,
          "duration": 0.052083281250000724
        },
        {
          "name": "E5",
          "midi": 76,
          "time": 15.454530000000002,
          "velocity": 0.7874015748031497,
          "duration": 0.06155296875000005
        },
        {
          "name": "C5",
          "midi": 72,
          "time": 15.681802500000002,
          "velocity": 0.7874015748031497,
          "duration": 0.0568181249999995
        },
        {
          "name": "E5",
          "midi": 76,
          "time": 16.1363475,
          "velocity": 0.7874015748031497,
          "duration": 0.0568181249999995
        },
        {
          "name": "E5",
          "midi": 76,
          "time": 16.363619999999997,
          "velocity": 0.7874015748031497,
          "duration": 0.0568181249999995
        },
        {
          "name": "E5",
          "midi": 76,
          "time": 16.590892499999995,
          "velocity": 0.7874015748031497,
          "duration": 0.0568181249999995
        },
        {
          "name": "E5",
          "midi": 76,
          "time": 17.045437499999995,
          "velocity": 0.7874015748031497,
          "duration": 0.05208328124999895
        },
        {
          "name": "E5",
          "midi": 76,
          "time": 17.272709999999993,
          "velocity": 0.7874015748031497,
          "duration": 0.06155296875000005
        },
        {
          "name": "C5",
          "midi": 72,
          "time": 17.499982499999994,
          "velocity": 0.7874015748031497,
          "duration": 0.0568181249999995
        },
        {
          "name": "F5",
          "midi": 77,
          "time": 18.181799999999996,
          "velocity": 0.7874015748031497,
          "duration": 0.0568181249999995
        },
        {
          "name": "F5",
          "midi": 77,
          "time": 18.409072499999994,
          "velocity": 0.7874015748031497,
          "duration": 0.0568181249999995
        },
        {
          "name": "F5",
          "midi": 77,
          "time": 18.863617499999993,
          "velocity": 0.7874015748031497,
          "duration": 0.05208328124999895
        },
        {
          "name": "F5",
          "midi": 77,
          "time": 19.09088999999999,
          "velocity": 0.7874015748031497,
          "duration": 0.0568181249999995
        },
        {
          "name": "D5",
          "midi": 74,
          "time": 19.31816249999999,
          "velocity": 0.7874015748031497,
          "duration": 0.0568181249999995
        },
        {
          "name": "F5",
          "midi": 77,
          "time": 19.77270749999999,
          "velocity": 0.7874015748031497,
          "duration": 0.0568181249999995
        },
        {
          "name": "F5",
          "midi": 77,
          "time": 19.999979999999987,
          "velocity": 0.7874015748031497,
          "duration": 0.0568181249999995
        },
        {
          "name": "F5",
          "midi": 77,
          "time": 20.227252499999985,
          "velocity": 0.7874015748031497,
          "duration": 0.0568181249999995
        },
        {
          "name": "F5",
          "midi": 77,
          "time": 20.681797499999984,
          "velocity": 0.7874015748031497,
          "duration": 0.05208328124999895
        },
        {
          "name": "F5",
          "midi": 77,
          "time": 20.909069999999982,
          "velocity": 0.7874015748031497,
          "duration": 0.0568181249999995
        },
        {
          "name": "D5",
          "midi": 74,
          "time": 21.13634249999998,
          "velocity": 0.7874015748031497,
          "duration": 0.0568181249999995
        },
        {
          "name": "C5",
          "midi": 72,
          "time": 21.81815999999998,
          "velocity": 0.7874015748031497,
          "duration": 0.0568181249999995
        },
        {
          "name": "E5",
          "midi": 76,
          "time": 23.18179499999998,
          "velocity": 0.7874015748031497,
          "duration": 0.0568181249999995
        },
        {
          "name": "D5",
          "midi": 74,
          "time": 23.63633999999998,
          "velocity": 0.7874015748031497,
          "duration": 0.0568181249999995
        },
        {
          "name": "E5",
          "midi": 76,
          "time": 24.31815749999998,
          "velocity": 0.7874015748031497,
          "duration": 0.0568181249999995
        },
        {
          "name": "F5",
          "midi": 77,
          "time": 24.54542999999998,
          "velocity": 0.7874015748031497,
          "duration": 0.0568181249999995
        },
        {
          "name": "E5",
          "midi": 76,
          "time": 24.772702499999976,
          "velocity": 0.7874015748031497,
          "duration": 0.0568181249999995
        },
        {
          "name": "D5",
          "midi": 74,
          "time": 24.999974999999974,
          "velocity": 0.7874015748031497,
          "duration": 0.0568181249999995
        },
        {
          "name": "C5",
          "midi": 72,
          "time": 25.227247499999972,
          "velocity": 0.7874015748031497,
          "duration": 0.0568181249999995
        },
        {
          "name": "D5",
          "midi": 74,
          "time": 25.45451999999997,
          "velocity": 0.7874015748031497,
          "duration": 0.0568181249999995
        },
        {
          "name": "E5",
          "midi": 76,
          "time": 26.81815499999997,
          "velocity": 0.7874015748031497,
          "duration": 0.0568181249999995
        },
        {
          "name": "F5",
          "midi": 77,
          "time": 27.27269999999997,
          "velocity": 0.7874015748031497,
          "duration": 0.0568181249999995
        },
        {
          "name": "E5",
          "midi": 76,
          "time": 27.95451749999997,
          "velocity": 0.7874015748031497,
          "duration": 0.0568181249999995
        },
        {
          "name": "C5",
          "midi": 72,
          "time": 28.181789999999967,
          "velocity": 0.7874015748031497,
          "duration": 0.0568181249999995
        },
        {
          "name": "D5",
          "midi": 74,
          "time": 28.409062499999965,
          "velocity": 0.7874015748031497,
          "duration": 0.0568181249999995
        },
        {
          "name": "E5",
          "midi": 76,
          "time": 28.636334999999963,
          "velocity": 0.7874015748031497,
          "duration": 0.0568181249999995
        },
        {
          "name": "F5",
          "midi": 77,
          "time": 28.86360749999996,
          "velocity": 0.7874015748031497,
          "duration": 0.0568181249999995
        },
        {
          "name": "C5",
          "midi": 72,
          "time": 29.09087999999996,
          "velocity": 0.7874015748031497,
          "duration": 0.0568181249999995
        },
        {
          "name": "E5",
          "midi": 76,
          "time": 30.454514999999958,
          "velocity": 0.7874015748031497,
          "duration": 0.0568181249999995
        },
        {
          "name": "D5",
          "midi": 74,
          "time": 30.909059999999958,
          "velocity": 0.7874015748031497,
          "duration": 0.0568181249999995
        },
        {
          "name": "E5",
          "midi": 76,
          "time": 31.59087749999996,
          "velocity": 0.7874015748031497,
          "duration": 0.0568181249999995
        },
        {
          "name": "F5",
          "midi": 77,
          "time": 31.818149999999957,
          "velocity": 0.7874015748031497,
          "duration": 0.0568181249999995
        },
        {
          "name": "E5",
          "midi": 76,
          "time": 32.04542249999996,
          "velocity": 0.7874015748031497,
          "duration": 0.0568181249999995
        },
        {
          "name": "D5",
          "midi": 74,
          "time": 32.272694999999956,
          "velocity": 0.7874015748031497,
          "duration": 0.0568181249999995
        },
        {
          "name": "C5",
          "midi": 72,
          "time": 32.499967499999954,
          "velocity": 0.7874015748031497,
          "duration": 0.0568181249999995
        },
        {
          "name": "D5",
          "midi": 74,
          "time": 32.72723999999995,
          "velocity": 0.7874015748031497,
          "duration": 0.0568181249999995
        },
        {
          "name": "E5",
          "midi": 76,
          "time": 34.090874999999954,
          "velocity": 0.7874015748031497,
          "duration": 0.0568181249999995
        },
        {
          "name": "F5",
          "midi": 77,
          "time": 34.54541999999995,
          "velocity": 0.7874015748031497,
          "duration": 0.0568181249999995
        },
        {
          "name": "E5",
          "midi": 76,
          "time": 35.22723749999995,
          "velocity": 0.7874015748031497,
          "duration": 0.0568181249999995
        },
        {
          "name": "C5",
          "midi": 72,
          "time": 35.45450999999995,
          "velocity": 0.7874015748031497,
          "duration": 0.0568181249999995
        },
        {
          "name": "D5",
          "midi": 74,
          "time": 35.68178249999995,
          "velocity": 0.7874015748031497,
          "duration": 0.0568181249999995
        },
        {
          "name": "E5",
          "midi": 76,
          "time": 35.909054999999945,
          "velocity": 0.7874015748031497,
          "duration": 0.0568181249999995
        },
        {
          "name": "F5",
          "midi": 77,
          "time": 36.13632749999994,
          "velocity": 0.7874015748031497,
          "duration": 0.0568181249999995
        },
        {
          "name": "C5",
          "midi": 72,
          "time": 36.36359999999994,
          "velocity": 0.6299212598425197,
          "duration": 0.0568181249999995
        },
        {
          "name": "F5",
          "midi": 77,
          "time": 37.27268999999994,
          "velocity": 0.7874015748031497,
          "duration": 0.0568181249999995
        },
        {
          "name": "E5",
          "midi": 76,
          "time": 37.727234999999936,
          "velocity": 0.7874015748031497,
          "duration": 0.0568181249999995
        },
        {
          "name": "E5",
          "midi": 76,
          "time": 38.18177999999993,
          "velocity": 0.7874015748031497,
          "duration": 0.0473484374999984
        },
        {
          "name": "D5",
          "midi": 74,
          "time": 38.63632499999993,
          "velocity": 0.7874015748031497,
          "duration": 0.0568181249999995
        },
        {
          "name": "D5",
          "midi": 74,
          "time": 39.090869999999924,
          "velocity": 0.7874015748031497,
          "duration": 0.0568181249999995
        },
        {
          "name": "C5",
          "midi": 72,
          "time": 39.54541499999992,
          "velocity": 0.7874015748031497,
          "duration": 0.0568181249999995
        },
        {
          "name": "F5",
          "midi": 77,
          "time": 40.90904999999992,
          "velocity": 0.7874015748031497,
          "duration": 0.0568181249999995
        },
        {
          "name": "E5",
          "midi": 76,
          "time": 41.36359499999992,
          "velocity": 0.7874015748031497,
          "duration": 0.0568181249999995
        },
        {
          "name": "D5",
          "midi": 74,
          "time": 41.818139999999914,
          "velocity": 0.7874015748031497,
          "duration": 0.0568181249999995
        },
        {
          "name": "E5",
          "midi": 76,
          "time": 42.499957499999915,
          "velocity": 0.6299212598425197,
          "duration": 0.0568181249999995
        },
        {
          "name": "E5",
          "midi": 76,
          "time": 42.72722999999991,
          "velocity": 0.6299212598425197,
          "duration": 0.0568181249999995
        },
        {
          "name": "C5",
          "midi": 72,
          "time": 42.95450249999991,
          "velocity": 0.6299212598425197,
          "duration": 0.0568181249999995
        },
        {
          "name": "C5",
          "midi": 72,
          "time": 43.63631999999991,
          "velocity": 0.6299212598425197,
          "duration": 0.0568181249999995
        },
        {
          "name": "F5",
          "midi": 77,
          "time": 44.54540999999991,
          "velocity": 0.7874015748031497,
          "duration": 0.0568181249999995
        },
        {
          "name": "E5",
          "midi": 76,
          "time": 44.999954999999915,
          "velocity": 0.7874015748031497,
          "duration": 0.0568181249999995
        },
        {
          "name": "E5",
          "midi": 76,
          "time": 45.45449999999991,
          "velocity": 0.7874015748031497,
          "duration": 0.0473484374999984
        },
        {
          "name": "D5",
          "midi": 74,
          "time": 45.90904499999991,
          "velocity": 0.7874015748031497,
          "duration": 0.0568181249999995
        },
        {
          "name": "D5",
          "midi": 74,
          "time": 46.3635899999999,
          "velocity": 0.7874015748031497,
          "duration": 0.0568181249999995
        },
        {
          "name": "C5",
          "midi": 72,
          "time": 46.8181349999999,
          "velocity": 0.7874015748031497,
          "duration": 0.0568181249999995
        },
        {
          "name": "F5",
          "midi": 77,
          "time": 47.272679999999895,
          "velocity": 0.7874015748031497,
          "duration": 0.0568181249999995
        },
        {
          "name": "D5",
          "midi": 74,
          "time": 47.49995249999989,
          "velocity": 0.7874015748031497,
          "duration": 0.0568181249999995
        },
        {
          "name": "F5",
          "midi": 77,
          "time": 47.95449749999989,
          "velocity": 0.7874015748031497,
          "duration": 0.0568181249999995
        },
        {
          "name": "F5",
          "midi": 77,
          "time": 48.18176999999989,
          "velocity": 0.7874015748031497,
          "duration": 0.0568181249999995
        },
        {
          "name": "E5",
          "midi": 76,
          "time": 48.409042499999885,
          "velocity": 0.7874015748031497,
          "duration": 0.0568181249999995
        },
        {
          "name": "E5",
          "midi": 76,
          "time": 48.63631499999988,
          "velocity": 0.7874015748031497,
          "duration": 0.0568181249999995
        },
        {
          "name": "F5",
          "midi": 77,
          "time": 49.09085999999988,
          "velocity": 0.7874015748031497,
          "duration": 0.0568181249999995
        },
        {
          "name": "E5",
          "midi": 76,
          "time": 49.545404999999874,
          "velocity": 0.6299212598425197,
          "duration": 0.0568181249999995
        },
        {
          "name": "E5",
          "midi": 76,
          "time": 49.99994999999987,
          "velocity": 0.6299212598425197,
          "duration": 0.0568181249999995
        },
        {
          "name": "D5",
          "midi": 74,
          "time": 50.454494999999866,
          "velocity": 0.6299212598425197,
          "duration": 0.0568181249999995
        },
        {
          "name": "C5",
          "midi": 72,
          "time": 50.90903999999986,
          "velocity": 0.6299212598425197,
          "duration": 0.0568181249999995
        },
        {
          "name": "F5",
          "midi": 77,
          "time": 51.81812999999986,
          "velocity": 0.7874015748031497,
          "duration": 0.0568181249999995
        },
        {
          "name": "E5",
          "midi": 76,
          "time": 52.272674999999865,
          "velocity": 0.7874015748031497,
          "duration": 0.0568181249999995
        },
        {
          "name": "E5",
          "midi": 76,
          "time": 52.72721999999986,
          "velocity": 0.7874015748031497,
          "duration": 0.0473484374999984
        },
        {
          "name": "D5",
          "midi": 74,
          "time": 53.18176499999986,
          "velocity": 0.7874015748031497,
          "duration": 0.0568181249999995
        },
        {
          "name": "D5",
          "midi": 74,
          "time": 53.63630999999985,
          "velocity": 0.7874015748031497,
          "duration": 0.0568181249999995
        },
        {
          "name": "C5",
          "midi": 72,
          "time": 54.09085499999985,
          "velocity": 0.7874015748031497,
          "duration": 0.0568181249999995
        },
        {
          "name": "F5",
          "midi": 77,
          "time": 55.45448999999985,
          "velocity": 0.7874015748031497,
          "duration": 0.0568181249999995
        },
        {
          "name": "E5",
          "midi": 76,
          "time": 55.90903499999985,
          "velocity": 0.7874015748031497,
          "duration": 0.0568181249999995
        },
        {
          "name": "D5",
          "midi": 74,
          "time": 56.36357999999984,
          "velocity": 0.7874015748031497,
          "duration": 0.0568181249999995
        },
        {
          "name": "E5",
          "midi": 76,
          "time": 57.045397499999844,
          "velocity": 0.6299212598425197,
          "duration": 0.0568181249999995
        },
        {
          "name": "E5",
          "midi": 76,
          "time": 57.27266999999984,
          "velocity": 0.6299212598425197,
          "duration": 0.0568181249999995
        },
        {
          "name": "C5",
          "midi": 72,
          "time": 57.49994249999984,
          "velocity": 0.6299212598425197,
          "duration": 0.0568181249999995
        },
        {
          "name": "C5",
          "midi": 72,
          "time": 58.18175999999984,
          "velocity": 0.6299212598425197,
          "duration": 0.0568181249999995
        },
        {
          "name": "F5",
          "midi": 77,
          "time": 59.09084999999984,
          "velocity": 0.7874015748031497,
          "duration": 0.0568181249999995
        },
        {
          "name": "E5",
          "midi": 76,
          "time": 59.54539499999984,
          "velocity": 0.7874015748031497,
          "duration": 0.0568181249999995
        },
        {
          "name": "E5",
          "midi": 76,
          "time": 59.99993999999984,
          "velocity": 0.7874015748031497,
          "duration": 0.0473484374999984
        },
        {
          "name": "D5",
          "midi": 74,
          "time": 60.454484999999835,
          "velocity": 0.7874015748031497,
          "duration": 0.0568181249999995
        },
        {
          "name": "D5",
          "midi": 74,
          "time": 60.90902999999983,
          "velocity": 0.7874015748031497,
          "duration": 0.0568181249999995
        },
        {
          "name": "C5",
          "midi": 72,
          "time": 61.36357499999983,
          "velocity": 0.7874015748031497,
          "duration": 0.0568181249999995
        },
        {
          "name": "F5",
          "midi": 77,
          "time": 61.81811999999982,
          "velocity": 0.7874015748031497,
          "duration": 0.0568181249999995
        },
        {
          "name": "D5",
          "midi": 74,
          "time": 62.04539249999982,
          "velocity": 0.7874015748031497,
          "duration": 0.0568181249999995
        },
        {
          "name": "F5",
          "midi": 77,
          "time": 62.49993749999982,
          "velocity": 0.7874015748031497,
          "duration": 0.0568181249999995
        },
        {
          "name": "F5",
          "midi": 77,
          "time": 62.727209999999815,
          "velocity": 0.7874015748031497,
          "duration": 0.0568181249999995
        },
        {
          "name": "E5",
          "midi": 76,
          "time": 62.95448249999981,
          "velocity": 0.7874015748031497,
          "duration": 0.0568181249999995
        },
        {
          "name": "E5",
          "midi": 76,
          "time": 63.18175499999981,
          "velocity": 0.7874015748031497,
          "duration": 0.0568181249999995
        },
        {
          "name": "F5",
          "midi": 77,
          "time": 63.63629999999981,
          "velocity": 0.7874015748031497,
          "duration": 0.0568181249999995
        },
        {
          "name": "E5",
          "midi": 76,
          "time": 64.0908449999998,
          "velocity": 0.6299212598425197,
          "duration": 0.0568181250000066
        },
        {
          "name": "E5",
          "midi": 76,
          "time": 64.54538999999981,
          "velocity": 0.6299212598425197,
          "duration": 0.0568181250000066
        },
        {
          "name": "D5",
          "midi": 74,
          "time": 64.99993499999982,
          "velocity": 0.6299212598425197,
          "duration": 0.0568181250000066
        },
        {
          "name": "C5",
          "midi": 72,
          "time": 65.45447999999983,
          "velocity": 0.7874015748031497,
          "duration": 0.0568181250000066
        },
        {
          "name": "D5",
          "midi": 74,
          "time": 65.68175249999985,
          "velocity": 0.7874015748031497,
          "duration": 0.0568181250000066
        },
        {
          "name": "E5",
          "midi": 76,
          "time": 65.90902499999986,
          "velocity": 0.7874015748031497,
          "duration": 0.0568181250000066
        },
        {
          "name": "E5",
          "midi": 76,
          "time": 66.81811499999986,
          "velocity": 0.7874015748031497,
          "duration": 0.0568181250000066
        },
        {
          "name": "D5",
          "midi": 74,
          "time": 67.04538749999988,
          "velocity": 0.7874015748031497,
          "duration": 0.0568181250000066
        },
        {
          "name": "C5",
          "midi": 72,
          "time": 67.27265999999989,
          "velocity": 0.7874015748031497,
          "duration": 0.0568181250000066
        },
        {
          "name": "F5",
          "midi": 77,
          "time": 67.4999324999999,
          "velocity": 0.7874015748031497,
          "duration": 0.0568181250000066
        },
        {
          "name": "E5",
          "midi": 76,
          "time": 67.72720499999991,
          "velocity": 0.7874015748031497,
          "duration": 0.0568181250000066
        },
        {
          "name": "F5",
          "midi": 77,
          "time": 68.86356749999992,
          "velocity": 0.7795275590551181,
          "duration": 0.0568181250000066
        },
        {
          "name": "C5",
          "midi": 72,
          "time": 69.09083999999993,
          "velocity": 0.7874015748031497,
          "duration": 0.0568181250000066
        },
        {
          "name": "D5",
          "midi": 74,
          "time": 69.54538499999994,
          "velocity": 0.7874015748031497,
          "duration": 0.0568181250000066
        },
        {
          "name": "E5",
          "midi": 76,
          "time": 69.99992999999995,
          "velocity": 0.7874015748031497,
          "duration": 0.0568181250000066
        },
        {
          "name": "D5",
          "midi": 74,
          "time": 70.45447499999996,
          "velocity": 0.7795275590551181,
          "duration": 0.0568181250000066
        },
        {
          "name": "F5",
          "midi": 77,
          "time": 70.90901999999997,
          "velocity": 0.7795275590551181,
          "duration": 0.0568181250000066
        },
        {
          "name": "C5",
          "midi": 72,
          "time": 72.72719999999998,
          "velocity": 0.7874015748031497,
          "duration": 0.0568181250000066
        },
        {
          "name": "D5",
          "midi": 74,
          "time": 72.9544725,
          "velocity": 0.7874015748031497,
          "duration": 0.0568181250000066
        },
        {
          "name": "E5",
          "midi": 76,
          "time": 73.181745,
          "velocity": 0.7874015748031497,
          "duration": 0.0568181250000066
        },
        {
          "name": "E5",
          "midi": 76,
          "time": 74.09083500000001,
          "velocity": 0.7874015748031497,
          "duration": 0.0568181250000066
        },
        {
          "name": "D5",
          "midi": 74,
          "time": 74.31810750000002,
          "velocity": 0.7874015748031497,
          "duration": 0.0568181250000066
        },
        {
          "name": "C5",
          "midi": 72,
          "time": 74.54538000000004,
          "velocity": 0.7874015748031497,
          "duration": 0.0568181250000066
        },
        {
          "name": "F5",
          "midi": 77,
          "time": 74.77265250000005,
          "velocity": 0.7874015748031497,
          "duration": 0.0568181250000066
        },
        {
          "name": "E5",
          "midi": 76,
          "time": 74.99992500000006,
          "velocity": 0.7874015748031497,
          "duration": 0.0568181250000066
        },
        {
          "name": "F5",
          "midi": 77,
          "time": 76.13628750000007,
          "velocity": 0.7795275590551181,
          "duration": 0.0568181250000066
        },
        {
          "name": "C5",
          "midi": 72,
          "time": 76.36356000000008,
          "velocity": 0.7874015748031497,
          "duration": 0.0568181250000066
        },
        {
          "name": "D5",
          "midi": 74,
          "time": 76.81810500000009,
          "velocity": 0.7874015748031497,
          "duration": 0.0568181250000066
        },
        {
          "name": "E5",
          "midi": 76,
          "time": 77.2726500000001,
          "velocity": 0.7874015748031497,
          "duration": 0.0568181250000066
        },
        {
          "name": "D5",
          "midi": 74,
          "time": 77.72719500000011,
          "velocity": 0.7795275590551181,
          "duration": 0.0568181250000066
        },
        {
          "name": "F5",
          "midi": 77,
          "time": 78.18174000000012,
          "velocity": 0.7795275590551181,
          "duration": 0.0568181250000066
        },
        {
          "name": "E5",
          "midi": 76,
          "time": 79.99992000000013,
          "velocity": 0.7874015748031497,
          "duration": 0.0568181250000066
        },
        {
          "name": "E5",
          "midi": 76,
          "time": 80.22719250000014,
          "velocity": 0.7874015748031497,
          "duration": 0.0568181250000066
        },
        {
          "name": "E5",
          "midi": 76,
          "time": 80.68173750000015,
          "velocity": 0.7874015748031497,
          "duration": 0.05208328125000605
        },
        {
          "name": "E5",
          "midi": 76,
          "time": 80.90901000000017,
          "velocity": 0.7874015748031497,
          "duration": 0.06155296874999294
        },
        {
          "name": "C5",
          "midi": 72,
          "time": 81.13628250000016,
          "velocity": 0.7874015748031497,
          "duration": 0.0568181250000066
        },
        {
          "name": "E5",
          "midi": 76,
          "time": 81.59082750000017,
          "velocity": 0.7874015748031497,
          "duration": 0.0568181250000066
        },
        {
          "name": "E5",
          "midi": 76,
          "time": 81.81810000000019,
          "velocity": 0.7874015748031497,
          "duration": 0.0568181250000066
        },
        {
          "name": "E5",
          "midi": 76,
          "time": 82.0453725000002,
          "velocity": 0.7874015748031497,
          "duration": 0.0568181250000066
        },
        {
          "name": "E5",
          "midi": 76,
          "time": 82.49991750000021,
          "velocity": 0.7874015748031497,
          "duration": 0.05208328125000605
        },
        {
          "name": "E5",
          "midi": 76,
          "time": 82.72719000000022,
          "velocity": 0.7874015748031497,
          "duration": 0.06155296874999294
        },
        {
          "name": "C5",
          "midi": 72,
          "time": 82.95446250000022,
          "velocity": 0.7874015748031497,
          "duration": 0.0568181250000066
        },
        {
          "name": "F5",
          "midi": 77,
          "time": 83.63628000000023,
          "velocity": 0.7874015748031497,
          "duration": 0.0568181250000066
        },
        {
          "name": "F5",
          "midi": 77,
          "time": 83.86355250000024,
          "velocity": 0.7874015748031497,
          "duration": 0.0568181250000066
        },
        {
          "name": "F5",
          "midi": 77,
          "time": 84.31809750000025,
          "velocity": 0.7874015748031497,
          "duration": 0.05208328125000605
        },
        {
          "name": "F5",
          "midi": 77,
          "time": 84.54537000000026,
          "velocity": 0.7874015748031497,
          "duration": 0.06155296874999294
        },
        {
          "name": "D5",
          "midi": 74,
          "time": 84.77264250000026,
          "velocity": 0.7874015748031497,
          "duration": 0.0568181250000066
        },
        {
          "name": "F5",
          "midi": 77,
          "time": 85.22718750000027,
          "velocity": 0.7874015748031497,
          "duration": 0.0568181250000066
        },
        {
          "name": "F5",
          "midi": 77,
          "time": 85.45446000000028,
          "velocity": 0.7874015748031497,
          "duration": 0.0568181250000066
        },
        {
          "name": "F5",
          "midi": 77,
          "time": 85.6817325000003,
          "velocity": 0.7874015748031497,
          "duration": 0.0568181250000066
        },
        {
          "name": "F5",
          "midi": 77,
          "time": 86.1362775000003,
          "velocity": 0.7874015748031497,
          "duration": 0.05208328125000605
        },
        {
          "name": "F5",
          "midi": 77,
          "time": 86.36355000000032,
          "velocity": 0.7874015748031497,
          "duration": 0.06155296874999294
        },
        {
          "name": "D5",
          "midi": 74,
          "time": 86.59082250000031,
          "velocity": 0.7874015748031497,
          "duration": 0.0568181250000066
        },
        {
          "name": "E5",
          "midi": 76,
          "time": 87.27264000000032,
          "velocity": 0.7874015748031497,
          "duration": 0.0568181250000066
        },
        {
          "name": "E5",
          "midi": 76,
          "time": 87.49991250000033,
          "velocity": 0.7874015748031497,
          "duration": 0.0568181250000066
        },
        {
          "name": "E5",
          "midi": 76,
          "time": 87.95445750000034,
          "velocity": 0.7874015748031497,
          "duration": 0.05208328125000605
        },
        {
          "name": "E5",
          "midi": 76,
          "time": 88.18173000000036,
          "velocity": 0.7874015748031497,
          "duration": 0.06155296874999294
        },
        {
          "name": "C5",
          "midi": 72,
          "time": 88.40900250000035,
          "velocity": 0.7874015748031497,
          "duration": 0.0568181250000066
        },
        {
          "name": "E5",
          "midi": 76,
          "time": 88.86354750000037,
          "velocity": 0.7874015748031497,
          "duration": 0.0568181250000066
        },
        {
          "name": "E5",
          "midi": 76,
          "time": 89.09082000000038,
          "velocity": 0.7874015748031497,
          "duration": 0.0568181250000066
        },
        {
          "name": "E5",
          "midi": 76,
          "time": 89.31809250000039,
          "velocity": 0.7874015748031497,
          "duration": 0.0568181250000066
        },
        {
          "name": "E5",
          "midi": 76,
          "time": 89.7726375000004,
          "velocity": 0.7874015748031497,
          "duration": 0.05208328125000605
        },
        {
          "name": "E5",
          "midi": 76,
          "time": 89.99991000000041,
          "velocity": 0.7874015748031497,
          "duration": 0.06155296874999294
        },
        {
          "name": "C5",
          "midi": 72,
          "time": 90.22718250000041,
          "velocity": 0.7874015748031497,
          "duration": 0.0568181250000066
        },
        {
          "name": "F5",
          "midi": 77,
          "time": 90.90900000000042,
          "velocity": 0.7874015748031497,
          "duration": 0.0568181250000066
        },
        {
          "name": "F5",
          "midi": 77,
          "time": 91.13627250000043,
          "velocity": 0.7874015748031497,
          "duration": 0.0568181250000066
        },
        {
          "name": "F5",
          "midi": 77,
          "time": 91.59081750000044,
          "velocity": 0.7874015748031497,
          "duration": 0.05208328125000605
        },
        {
          "name": "F5",
          "midi": 77,
          "time": 91.81809000000045,
          "velocity": 0.7874015748031497,
          "duration": 0.0568181250000066
        },
        {
          "name": "D5",
          "midi": 74,
          "time": 92.04536250000046,
          "velocity": 0.7874015748031497,
          "duration": 0.0568181250000066
        },
        {
          "name": "F5",
          "midi": 77,
          "time": 92.49990750000048,
          "velocity": 0.7874015748031497,
          "duration": 0.0568181250000066
        },
        {
          "name": "F5",
          "midi": 77,
          "time": 92.72718000000049,
          "velocity": 0.7874015748031497,
          "duration": 0.0568181250000066
        },
        {
          "name": "F5",
          "midi": 77,
          "time": 92.9544525000005,
          "velocity": 0.7874015748031497,
          "duration": 0.0568181250000066
        },
        {
          "name": "F5",
          "midi": 77,
          "time": 93.40899750000051,
          "velocity": 0.7874015748031497,
          "duration": 0.05208328125000605
        },
        {
          "name": "F5",
          "midi": 77,
          "time": 93.63627000000052,
          "velocity": 0.7874015748031497,
          "duration": 0.0568181250000066
        },
        {
          "name": "D5",
          "midi": 74,
          "time": 93.86354250000053,
          "velocity": 0.7874015748031497,
          "duration": 0.0568181250000066
        },
        {
          "name": "C5",
          "midi": 72,
          "time": 94.54536000000054,
          "velocity": 0.7874015748031497,
          "duration": 0.0568181250000066
        },
        {
          "name": "E5",
          "midi": 76,
          "time": 95.90899500000054,
          "velocity": 0.7874015748031497,
          "duration": 0.0568181250000066
        },
        {
          "name": "D5",
          "midi": 74,
          "time": 96.36354000000055,
          "velocity": 0.7874015748031497,
          "duration": 0.0568181250000066
        },
        {
          "name": "E5",
          "midi": 76,
          "time": 97.04535750000056,
          "velocity": 0.7874015748031497,
          "duration": 0.0568181250000066
        },
        {
          "name": "F5",
          "midi": 77,
          "time": 97.27263000000058,
          "velocity": 0.7874015748031497,
          "duration": 0.0568181250000066
        },
        {
          "name": "E5",
          "midi": 76,
          "time": 97.49990250000059,
          "velocity": 0.7874015748031497,
          "duration": 0.0568181250000066
        },
        {
          "name": "D5",
          "midi": 74,
          "time": 97.7271750000006,
          "velocity": 0.7874015748031497,
          "duration": 0.0568181250000066
        },
        {
          "name": "C5",
          "midi": 72,
          "time": 97.95444750000061,
          "velocity": 0.7874015748031497,
          "duration": 0.0568181250000066
        },
        {
          "name": "D5",
          "midi": 74,
          "time": 98.18172000000062,
          "velocity": 0.7874015748031497,
          "duration": 0.0568181250000066
        },
        {
          "name": "E5",
          "midi": 76,
          "time": 99.54535500000063,
          "velocity": 0.7874015748031497,
          "duration": 0.0568181250000066
        },
        {
          "name": "F5",
          "midi": 77,
          "time": 99.99990000000064,
          "velocity": 0.7874015748031497,
          "duration": 0.0568181250000066
        },
        {
          "name": "E5",
          "midi": 76,
          "time": 100.68171750000064,
          "velocity": 0.7874015748031497,
          "duration": 0.0568181250000066
        },
        {
          "name": "C5",
          "midi": 72,
          "time": 100.90899000000066,
          "velocity": 0.7874015748031497,
          "duration": 0.0568181250000066
        },
        {
          "name": "D5",
          "midi": 74,
          "time": 101.13626250000067,
          "velocity": 0.7874015748031497,
          "duration": 0.0568181250000066
        },
        {
          "name": "E5",
          "midi": 76,
          "time": 101.36353500000068,
          "velocity": 0.7874015748031497,
          "duration": 0.0568181250000066
        },
        {
          "name": "F5",
          "midi": 77,
          "time": 101.5908075000007,
          "velocity": 0.7874015748031497,
          "duration": 0.0568181250000066
        },
        {
          "name": "C5",
          "midi": 72,
          "time": 101.8180800000007,
          "velocity": 0.7874015748031497,
          "duration": 0.0568181250000066
        },
        {
          "name": "E5",
          "midi": 76,
          "time": 103.18171500000071,
          "velocity": 0.7874015748031497,
          "duration": 0.0568181250000066
        },
        {
          "name": "D5",
          "midi": 74,
          "time": 103.63626000000072,
          "velocity": 0.7874015748031497,
          "duration": 0.0568181250000066
        },
        {
          "name": "E5",
          "midi": 76,
          "time": 104.31807750000073,
          "velocity": 0.7874015748031497,
          "duration": 0.0568181250000066
        },
        {
          "name": "F5",
          "midi": 77,
          "time": 104.54535000000074,
          "velocity": 0.7874015748031497,
          "duration": 0.0568181250000066
        },
        {
          "name": "E5",
          "midi": 76,
          "time": 104.77262250000075,
          "velocity": 0.7874015748031497,
          "duration": 0.0568181250000066
        },
        {
          "name": "D5",
          "midi": 74,
          "time": 104.99989500000076,
          "velocity": 0.7874015748031497,
          "duration": 0.0568181250000066
        },
        {
          "name": "C5",
          "midi": 72,
          "time": 105.22716750000077,
          "velocity": 0.7874015748031497,
          "duration": 0.0568181250000066
        },
        {
          "name": "D5",
          "midi": 74,
          "time": 105.45444000000079,
          "velocity": 0.7874015748031497,
          "duration": 0.0568181250000066
        },
        {
          "name": "E5",
          "midi": 76,
          "time": 106.81807500000079,
          "velocity": 0.7874015748031497,
          "duration": 0.0568181250000066
        },
        {
          "name": "F5",
          "midi": 77,
          "time": 107.2726200000008,
          "velocity": 0.7874015748031497,
          "duration": 0.0568181250000066
        },
        {
          "name": "E5",
          "midi": 76,
          "time": 107.95443750000081,
          "velocity": 0.7874015748031497,
          "duration": 0.0568181250000066
        },
        {
          "name": "C5",
          "midi": 72,
          "time": 108.18171000000082,
          "velocity": 0.7874015748031497,
          "duration": 0.0568181250000066
        },
        {
          "name": "D5",
          "midi": 74,
          "time": 108.40898250000083,
          "velocity": 0.7874015748031497,
          "duration": 0.0568181250000066
        },
        {
          "name": "E5",
          "midi": 76,
          "time": 108.63625500000084,
          "velocity": 0.7874015748031497,
          "duration": 0.0568181250000066
        },
        {
          "name": "F5",
          "midi": 77,
          "time": 108.86352750000086,
          "velocity": 0.7874015748031497,
          "duration": 0.0568181250000066
        },
        {
          "name": "C5",
          "midi": 72,
          "time": 123.63624000000087,
          "velocity": 0.6299212598425197,
          "duration": 0.0568181250000066
        },
        {
          "name": "F5",
          "midi": 77,
          "time": 124.54533000000087,
          "velocity": 0.7874015748031497,
          "duration": 0.0568181250000066
        },
        {
          "name": "E5",
          "midi": 76,
          "time": 124.99987500000088,
          "velocity": 0.7874015748031497,
          "duration": 0.0568181250000066
        },
        {
          "name": "E5",
          "midi": 76,
          "time": 125.4544200000009,
          "velocity": 0.7874015748031497,
          "duration": 0.0473484375000055
        },
        {
          "name": "D5",
          "midi": 74,
          "time": 125.9089650000009,
          "velocity": 0.7874015748031497,
          "duration": 0.0568181250000066
        },
        {
          "name": "D5",
          "midi": 74,
          "time": 126.36351000000091,
          "velocity": 0.7874015748031497,
          "duration": 0.0568181250000066
        },
        {
          "name": "C5",
          "midi": 72,
          "time": 126.81805500000092,
          "velocity": 0.7874015748031497,
          "duration": 0.0568181250000066
        },
        {
          "name": "F5",
          "midi": 77,
          "time": 128.18169000000094,
          "velocity": 0.7874015748031497,
          "duration": 0.0568181250000066
        },
        {
          "name": "E5",
          "midi": 76,
          "time": 128.63623500000094,
          "velocity": 0.7874015748031497,
          "duration": 0.0568181250000066
        },
        {
          "name": "D5",
          "midi": 74,
          "time": 129.09078000000093,
          "velocity": 0.7874015748031497,
          "duration": 0.0568181250000066
        },
        {
          "name": "E5",
          "midi": 76,
          "time": 129.77259750000093,
          "velocity": 0.6299212598425197,
          "duration": 0.0568181250000066
        },
        {
          "name": "E5",
          "midi": 76,
          "time": 129.99987000000093,
          "velocity": 0.6299212598425197,
          "duration": 0.0568181250000066
        },
        {
          "name": "C5",
          "midi": 72,
          "time": 130.22714250000092,
          "velocity": 0.6299212598425197,
          "duration": 0.0568181250000066
        },
        {
          "name": "C5",
          "midi": 72,
          "time": 130.90896000000092,
          "velocity": 0.6299212598425197,
          "duration": 0.0568181250000066
        },
        {
          "name": "F5",
          "midi": 77,
          "time": 131.81805000000094,
          "velocity": 0.7874015748031497,
          "duration": 0.0568181250000066
        },
        {
          "name": "E5",
          "midi": 76,
          "time": 132.27259500000093,
          "velocity": 0.7874015748031497,
          "duration": 0.0568181250000066
        },
        {
          "name": "E5",
          "midi": 76,
          "time": 132.72714000000093,
          "velocity": 0.7874015748031497,
          "duration": 0.0473484375000055
        },
        {
          "name": "D5",
          "midi": 74,
          "time": 133.18168500000093,
          "velocity": 0.7874015748031497,
          "duration": 0.0568181250000066
        },
        {
          "name": "D5",
          "midi": 74,
          "time": 133.63623000000092,
          "velocity": 0.7874015748031497,
          "duration": 0.0568181250000066
        },
        {
          "name": "C5",
          "midi": 72,
          "time": 134.09077500000092,
          "velocity": 0.7874015748031497,
          "duration": 0.0568181250000066
        },
        {
          "name": "F5",
          "midi": 77,
          "time": 134.5453200000009,
          "velocity": 0.7874015748031497,
          "duration": 0.0568181250000066
        },
        {
          "name": "D5",
          "midi": 74,
          "time": 134.7725925000009,
          "velocity": 0.7874015748031497,
          "duration": 0.0568181250000066
        },
        {
          "name": "F5",
          "midi": 77,
          "time": 135.2271375000009,
          "velocity": 0.7874015748031497,
          "duration": 0.0568181250000066
        },
        {
          "name": "F5",
          "midi": 77,
          "time": 135.4544100000009,
          "velocity": 0.7874015748031497,
          "duration": 0.0568181250000066
        },
        {
          "name": "E5",
          "midi": 76,
          "time": 135.6816825000009,
          "velocity": 0.7874015748031497,
          "duration": 0.0568181250000066
        },
        {
          "name": "E5",
          "midi": 76,
          "time": 135.9089550000009,
          "velocity": 0.7874015748031497,
          "duration": 0.0568181250000066
        },
        {
          "name": "F5",
          "midi": 77,
          "time": 136.3635000000009,
          "velocity": 0.7874015748031497,
          "duration": 0.0568181250000066
        },
        {
          "name": "E5",
          "midi": 76,
          "time": 136.8180450000009,
          "velocity": 0.6299212598425197,
          "duration": 0.0568181250000066
        },
        {
          "name": "E5",
          "midi": 76,
          "time": 137.2725900000009,
          "velocity": 0.6299212598425197,
          "duration": 0.0568181250000066
        },
        {
          "name": "D5",
          "midi": 74,
          "time": 137.72713500000089,
          "velocity": 0.6299212598425197,
          "duration": 0.0568181250000066
        },
        {
          "name": "C5",
          "midi": 72,
          "time": 138.18168000000088,
          "velocity": 0.6299212598425197,
          "duration": 0.0568181250000066
        },
        {
          "name": "F5",
          "midi": 77,
          "time": 139.0907700000009,
          "velocity": 0.7874015748031497,
          "duration": 0.0568181250000066
        },
        {
          "name": "E5",
          "midi": 76,
          "time": 139.5453150000009,
          "velocity": 0.7874015748031497,
          "duration": 0.0568181250000066
        },
        {
          "name": "E5",
          "midi": 76,
          "time": 139.9998600000009,
          "velocity": 0.7874015748031497,
          "duration": 0.0473484375000055
        },
        {
          "name": "D5",
          "midi": 74,
          "time": 140.4544050000009,
          "velocity": 0.7874015748031497,
          "duration": 0.0568181250000066
        },
        {
          "name": "D5",
          "midi": 74,
          "time": 140.90895000000089,
          "velocity": 0.7874015748031497,
          "duration": 0.0568181250000066
        },
        {
          "name": "C5",
          "midi": 72,
          "time": 141.36349500000088,
          "velocity": 0.7874015748031497,
          "duration": 0.0568181250000066
        },
        {
          "name": "F5",
          "midi": 77,
          "time": 142.7271300000009,
          "velocity": 0.7874015748031497,
          "duration": 0.0568181250000066
        },
        {
          "name": "E5",
          "midi": 76,
          "time": 143.1816750000009,
          "velocity": 0.7874015748031497,
          "duration": 0.0568181250000066
        },
        {
          "name": "D5",
          "midi": 74,
          "time": 143.6362200000009,
          "velocity": 0.7874015748031497,
          "duration": 0.0568181250000066
        },
        {
          "name": "E5",
          "midi": 76,
          "time": 144.31803750000088,
          "velocity": 0.6299212598425197,
          "duration": 0.0568181250000066
        },
        {
          "name": "E5",
          "midi": 76,
          "time": 144.54531000000088,
          "velocity": 0.6299212598425197,
          "duration": 0.0568181250000066
        },
        {
          "name": "C5",
          "midi": 72,
          "time": 144.77258250000088,
          "velocity": 0.6299212598425197,
          "duration": 0.0568181250000066
        },
        {
          "name": "C5",
          "midi": 72,
          "time": 145.45440000000087,
          "velocity": 0.6299212598425197,
          "duration": 0.0568181250000066
        },
        {
          "name": "F5",
          "midi": 77,
          "time": 146.3634900000009,
          "velocity": 0.7874015748031497,
          "duration": 0.0568181250000066
        },
        {
          "name": "E5",
          "midi": 76,
          "time": 146.8180350000009,
          "velocity": 0.7874015748031497,
          "duration": 0.0568181250000066
        },
        {
          "name": "E5",
          "midi": 76,
          "time": 147.2725800000009,
          "velocity": 0.7874015748031497,
          "duration": 0.0473484375000055
        },
        {
          "name": "D5",
          "midi": 74,
          "time": 147.72712500000088,
          "velocity": 0.7874015748031497,
          "duration": 0.0568181250000066
        },
        {
          "name": "D5",
          "midi": 74,
          "time": 148.18167000000088,
          "velocity": 0.7874015748031497,
          "duration": 0.0568181250000066
        },
        {
          "name": "C5",
          "midi": 72,
          "time": 148.63621500000087,
          "velocity": 0.7874015748031497,
          "duration": 0.0568181250000066
        },
        {
          "name": "F5",
          "midi": 77,
          "time": 149.09076000000087,
          "velocity": 0.7874015748031497,
          "duration": 0.0568181250000066
        },
        {
          "name": "D5",
          "midi": 74,
          "time": 149.31803250000087,
          "velocity": 0.7874015748031497,
          "duration": 0.0568181250000066
        },
        {
          "name": "F5",
          "midi": 77,
          "time": 149.77257750000086,
          "velocity": 0.7874015748031497,
          "duration": 0.0568181250000066
        },
        {
          "name": "F5",
          "midi": 77,
          "time": 149.99985000000086,
          "velocity": 0.7874015748031497,
          "duration": 0.0568181250000066
        },
        {
          "name": "E5",
          "midi": 76,
          "time": 150.22712250000086,
          "velocity": 0.7874015748031497,
          "duration": 0.0568181250000066
        },
        {
          "name": "E5",
          "midi": 76,
          "time": 150.45439500000086,
          "velocity": 0.7874015748031497,
          "duration": 0.0568181250000066
        },
        {
          "name": "F5",
          "midi": 77,
          "time": 150.90894000000085,
          "velocity": 0.7874015748031497,
          "duration": 0.0568181250000066
        },
        {
          "name": "E5",
          "midi": 76,
          "time": 151.36348500000085,
          "velocity": 0.6299212598425197,
          "duration": 0.0568181250000066
        },
        {
          "name": "E5",
          "midi": 76,
          "time": 151.81803000000085,
          "velocity": 0.6299212598425197,
          "duration": 0.0568181250000066
        },
        {
          "name": "D5",
          "midi": 74,
          "time": 152.27257500000084,
          "velocity": 0.6299212598425197,
          "duration": 0.0568181250000066
        }
      ]
}