{
      "notes": [
        {
          "name": "C5",
          "midi": 72,
          "time": 7.2727200000000005,
          "velocity": 0.7874015748031497,
          "duration": 0.056818125000000386
        },
        {
          "name": "D5",
          "midi": 74,
          "time": 7.499992500000001,
          "velocity": 0.7874015748031497,
          "duration": 0.056818125000000386
        },
        {
          "name": "E5",
          "midi": 76,
          "time": 7.727265000000002,
          "velocity": 0.7874015748031497,
          "duration": 0.056818125000000386
        },
        {
          "name": "D5",
          "midi": 74,
          "time": 7.9545375000000025,
          "velocity": 0.7874015748031497,
          "duration": 0.0568181249999995
        },
        {
          "name": "F5",
          "midi": 77,
          "time": 8.181810000000002,
          "velocity": 0.7874015748031497,
          "duration": 0.0568181249999995
        },
        {
          "name": "E5",
          "midi": 76,
          "time": 8.409082500000002,
          "velocity": 0.7874015748031497,
          "duration": 0.0568181249999995
        },
        {
          "name": "D5",
          "midi": 74,
          "time": 8.636355000000002,
          "velocity": 0.7874015748031497,
          "duration": 0.0568181249999995
        },
        {
          "name": "C5",
          "midi": 72,
          "time": 8.863627500000002,
          "velocity": 0.7874015748031497,
          "duration": 0.0568181249999995
        },
        {
          "name": "F5",
          "midi": 77,
          "time": 9.090900000000001,
          "velocity": 0.7874015748031497,
          "duration": 0.0568181249999995
        },
        {
          "name": "E5",
          "midi": 76,
          "time": 9.318172500000001,
          "velocity": 0.7874015748031497,
          "duration": 0.0568181249999995
        },
        {
          "name": "D5",
          "midi": 74,
          "time": 9.545445,
          "velocity": 0.7874015748031497,
          "duration": 0.0568181249999995
        },
        {
          "name": "F5",
          "midi": 77,
          "time": 9.7727175,
          "velocity": 0.7874015748031497,
          "duration": 0.0568181249999995
        },
        {
          "name": "D5",
          "midi": 74,
          "time": 9.99999,
          "velocity": 0.7874015748031497,
          "duration": 0.0568181249999995
        },
        {
          "name": "F5",
          "midi": 77,
          "time": 10.90908,
          "velocity": 0.7874015748031497,
          "duration": 0.0568181249999995
        },
        {
          "name": "D5",
          "midi": 74,
          "time": 11.1363525,
          "velocity": 0.7874015748031497,
          "duration": 0.0568181249999995
        },
        {
          "name": "E5",
          "midi": 76,
          "time": 11.363624999999999,
          "velocity": 0.7874015748031497,
          "duration": 0.0568181249999995
        },
        {
          "name": "C5",
          "midi": 72,
          "time": 11.590897499999999,
          "velocity": 0.7874015748031497,
          "duration": 0.0568181249999995
        },
        {
          "name": "D5",
          "midi": 74,
          "time": 11.704533749999998,
          "velocity": 0.7874015748031497,
          "duration": 0.0568181249999995
        },
        {
          "name": "E5",
          "midi": 76,
          "time": 11.818169999999997,
          "velocity": 0.7874015748031497,
          "duration": 0.0568181249999995
        },
        {
          "name": "D5",
          "midi": 74,
          "time": 12.045442499999996,
          "velocity": 0.7874015748031497,
          "duration": 0.0568181249999995
        },
        {
          "name": "C5",
          "midi": 72,
          "time": 12.159078749999995,
          "velocity": 0.7874015748031497,
          "duration": 0.0568181249999995
        },
        {
          "name": "D5",
          "midi": 74,
          "time": 12.272714999999994,
          "velocity": 0.7874015748031497,
          "duration": 0.0568181249999995
        },
        {
          "name": "E5",
          "midi": 76,
          "time": 12.386351249999993,
          "velocity": 0.7874015748031497,
          "duration": 0.0568181249999995
        },
        {
          "name": "F5",
          "midi": 77,
          "time": 12.499987499999992,
          "velocity": 0.7874015748031497,
          "duration": 0.0568181249999995
        },
        {
          "name": "E5",
          "midi": 76,
          "time": 12.727259999999992,
          "velocity": 0.7874015748031497,
          "duration": 0.0568181249999995
        },
        {
          "name": "D5",
          "midi": 74,
          "time": 12.840896249999991,
          "velocity": 0.7874015748031497,
          "duration": 0.0568181249999995
        },
        {
          "name": "C5",
          "midi": 72,
          "time": 12.95453249999999,
          "velocity": 0.7874015748031497,
          "duration": 0.0568181249999995
        },
        {
          "name": "F5",
          "midi": 77,
          "time": 13.06816874999999,
          "velocity": 0.7874015748031497,
          "duration": 0.0568181249999995
        },
        {
          "name": "D5",
          "midi": 74,
          "time": 13.181804999999988,
          "velocity": 0.7874015748031497,
          "duration": 0.0568181249999995
        },
        {
          "name": "E5",
          "midi": 76,
          "time": 13.409077499999988,
          "velocity": 0.7874015748031497,
          "duration": 0.0568181249999995
        },
        {
          "name": "C5",
          "midi": 72,
          "time": 13.636349999999988,
          "velocity": 0.7874015748031497,
          "duration": 0.0568181249999995
        },
        {
          "name": "C5",
          "midi": 72,
          "time": 14.545439999999987,
          "velocity": 0.7874015748031497,
          "duration": 0.0568181249999995
        },
        {
          "name": "D5",
          "midi": 74,
          "time": 14.772712499999987,
          "velocity": 0.7874015748031497,
          "duration": 0.0568181249999995
        },
        {
          "name": "E5",
          "midi": 76,
          "time": 14.999984999999986,
          "velocity": 0.7874015748031497,
          "duration": 0.0568181249999995
        },
        {
          "name": "D5",
          "midi": 74,
          "time": 15.227257499999986,
          "velocity": 0.7874015748031497,
          "duration": 0.0568181249999995
        },
        {
          "name": "F5",
          "midi": 77,
          "time": 15.454529999999986,
          "velocity": 0.7874015748031497,
          "duration": 0.0568181249999995
        },
        {
          "name": "E5",
          "midi": 76,
          "time": 15.681802499999986,
          "velocity": 0.7874015748031497,
          "duration": 0.0568181249999995
        },
        {
          "name": "D5",
          "midi": 74,
          "time": 15.909074999999985,
          "velocity": 0.7874015748031497,
          "duration": 0.0568181249999995
        },
        {
          "name": "C5",
          "midi": 72,
          "time": 16.136347499999985,
          "velocity": 0.7874015748031497,
          "duration": 0.0568181249999995
        },
        {
          "name": "F5",
          "midi": 77,
          "time": 16.363619999999983,
          "velocity": 0.7874015748031497,
          "duration": 0.0568181249999995
        },
        {
          "name": "E5",
          "midi": 76,
          "time": 16.59089249999998,
          "velocity": 0.7874015748031497,
          "duration": 0.0568181249999995
        },
        {
          "name": "D5",
          "midi": 74,
          "time": 16.81816499999998,
          "velocity": 0.7874015748031497,
          "duration": 0.0568181249999995
        },
        {
          "name": "F5",
          "midi": 77,
          "time": 17.045437499999977,
          "velocity": 0.7874015748031497,
          "duration": 0.0568181249999995
        },
        {
          "name": "D5",
          "midi": 74,
          "time": 17.272709999999975,
          "velocity": 0.7874015748031497,
          "duration": 0.0568181249999995
        },
        {
          "name": "F5",
          "midi": 77,
          "time": 18.181799999999974,
          "velocity": 0.7874015748031497,
          "duration": 0.0568181249999995
        },
        {
          "name": "D5",
          "midi": 74,
          "time": 18.409072499999972,
          "velocity": 0.7874015748031497,
          "duration": 0.0568181249999995
        },
        {
          "name": "E5",
          "midi": 76,
          "time": 18.63634499999997,
          "velocity": 0.7874015748031497,
          "duration": 0.0568181249999995
        },
        {
          "name": "C5",
          "midi": 72,
          "time": 18.863617499999968,
          "velocity": 0.7874015748031497,
          "duration": 0.0568181249999995
        },
        {
          "name": "D5",
          "midi": 74,
          "time": 18.977253749999967,
          "velocity": 0.7874015748031497,
          "duration": 0.0568181249999995
        },
        {
          "name": "E5",
          "midi": 76,
          "time": 19.090889999999966,
          "velocity": 0.7874015748031497,
          "duration": 0.0568181249999995
        },
        {
          "name": "D5",
          "midi": 74,
          "time": 19.318162499999964,
          "velocity": 0.7874015748031497,
          "duration": 0.0568181249999995
        },
        {
          "name": "C5",
          "midi": 72,
          "time": 19.431798749999963,
          "velocity": 0.7874015748031497,
          "duration": 0.0568181249999995
        },
        {
          "name": "D5",
          "midi": 74,
          "time": 19.545434999999962,
          "velocity": 0.7874015748031497,
          "duration": 0.0568181249999995
        },
        {
          "name": "E5",
          "midi": 76,
          "time": 19.65907124999996,
          "velocity": 0.7874015748031497,
          "duration": 0.0568181249999995
        },
        {
          "name": "F5",
          "midi": 77,
          "time": 19.77270749999996,
          "velocity": 0.7874015748031497,
          "duration": 0.0568181249999995
        },
        {
          "name": "E5",
          "midi": 76,
          "time": 19.999979999999958,
          "velocity": 0.7874015748031497,
          "duration": 0.0568181249999995
        },
        {
          "name": "D5",
          "midi": 74,
          "time": 20.113616249999957,
          "velocity": 0.7874015748031497,
          "duration": 0.0568181249999995
        },
        {
          "name": "C5",
          "midi": 72,
          "time": 20.227252499999956,
          "velocity": 0.7874015748031497,
          "duration": 0.0568181249999995
        },
        {
          "name": "F5",
          "midi": 77,
          "time": 20.340888749999955,
          "velocity": 0.7874015748031497,
          "duration": 0.0568181249999995
        },
        {
          "name": "D5",
          "midi": 74,
          "time": 20.454524999999954,
          "velocity": 0.7874015748031497,
          "duration": 0.0568181249999995
        },
        {
          "name": "E5",
          "midi": 76,
          "time": 20.681797499999952,
          "velocity": 0.7874015748031497,
          "duration": 0.0568181249999995
        },
        {
          "name": "C5",
          "midi": 72,
          "time": 20.90906999999995,
          "velocity": 0.7874015748031497,
          "duration": 0.0568181249999995
        },
        {
          "name": "C5",
          "midi": 72,
          "time": 21.81815999999995,
          "velocity": 0.7874015748031497,
          "duration": 0.0568181249999995
        },
        {
          "name": "E5",
          "midi": 76,
          "time": 21.81815999999995,
          "velocity": 0.7874015748031497,
          "duration": 0.0568181249999995
        },
        {
          "name": "D5",
          "midi": 74,
          "time": 22.045432499999947,
          "velocity": 0.7874015748031497,
          "duration": 0.0568181249999995
        },
        {
          "name": "E5",
          "midi": 76,
          "time": 22.045432499999947,
          "velocity": 0.7874015748031497,
          "duration": 0.0568181249999995
        },
        {
          "name": "E5",
          "midi": 76,
          "time": 22.499977499999947,
          "velocity": 0.7874015748031497,
          "duration": 0.05208328124999895
        },
        {
          "name": "F5",
          "midi": 77,
          "time": 22.499977499999947,
          "velocity": 0.7874015748031497,
          "duration": 0.0568181249999995
        },
        {
          "name": "E5",
          "midi": 76,
          "time": 22.727249999999945,
          "velocity": 0.7874015748031497,
          "duration": 0.06155296875000005
        },
        {
          "name": "C5",
          "midi": 72,
          "time": 22.954522499999946,
          "velocity": 0.7874015748031497,
          "duration": 0.0568181249999995
        },
        {
          "name": "E5",
          "midi": 76,
          "time": 22.954522499999946,
          "velocity": 0.7874015748031497,
          "duration": 0.0568181249999995
        },
        {
          "name": "C5",
          "midi": 72,
          "time": 23.409067499999946,
          "velocity": 0.7874015748031497,
          "duration": 0.0568181249999995
        },
        {
          "name": "E5",
          "midi": 76,
          "time": 23.409067499999946,
          "velocity": 0.7874015748031497,
          "duration": 0.0568181249999995
        },
        {
          "name": "E5",
          "midi": 76,
          "time": 23.636339999999944,
          "velocity": 0.7874015748031497,
          "duration": 0.0568181249999995
        },
        {
          "name": "F5",
          "midi": 77,
          "time": 23.636339999999944,
          "velocity": 0.7874015748031497,
          "duration": 0.0568181249999995
        },
        {
          "name": "D5",
          "midi": 74,
          "time": 23.86361249999994,
          "velocity": 0.7874015748031497,
          "duration": 0.0568181249999995
        },
        {
          "name": "E5",
          "midi": 76,
          "time": 23.86361249999994,
          "velocity": 0.7874015748031497,
          "duration": 0.0568181249999995
        },
        {
          "name": "E5",
          "midi": 76,
          "time": 24.31815749999994,
          "velocity": 0.7874015748031497,
          "duration": 0.05208328124999895
        },
        {
          "name": "F5",
          "midi": 77,
          "time": 24.31815749999994,
          "velocity": 0.7874015748031497,
          "duration": 0.0568181249999995
        },
        {
          "name": "C5",
          "midi": 72,
          "time": 24.54542999999994,
          "velocity": 0.7874015748031497,
          "duration": 0.0568181249999995
        },
        {
          "name": "E5",
          "midi": 76,
          "time": 24.54542999999994,
          "velocity": 0.7874015748031497,
          "duration": 0.0568181249999995
        },
        {
          "name": "D5",
          "midi": 74,
          "time": 24.772702499999937,
          "velocity": 0.7874015748031497,
          "duration": 0.0568181249999995
        },
        {
          "name": "F5",
          "midi": 77,
          "time": 24.772702499999937,
          "velocity": 0.7874015748031497,
          "duration": 0.0568181249999995
        },
        {
          "name": "C5",
          "midi": 72,
          "time": 25.45451999999994,
          "velocity": 0.7874015748031497,
          "duration": 0.0568181249999995
        },
        {
          "name": "E5",
          "midi": 76,
          "time": 25.45451999999994,
          "velocity": 0.7874015748031497,
          "duration": 0.0568181249999995
        },
        {
          "name": "D5",
          "midi": 74,
          "time": 25.681792499999936,
          "velocity": 0.7874015748031497,
          "duration": 0.0568181249999995
        },
        {
          "name": "E5",
          "midi": 76,
          "time": 25.681792499999936,
          "velocity": 0.7874015748031497,
          "duration": 0.0568181249999995
        },
        {
          "name": "E5",
          "midi": 76,
          "time": 26.136337499999936,
          "velocity": 0.7874015748031497,
          "duration": 0.05208328124999895
        },
        {
          "name": "F5",
          "midi": 77,
          "time": 26.136337499999936,
          "velocity": 0.7874015748031497,
          "duration": 0.0568181249999995
        },
        {
          "name": "E5",
          "midi": 76,
          "time": 26.363609999999934,
          "velocity": 0.7874015748031497,
          "duration": 0.06155296875000005
        },
        {
          "name": "C5",
          "midi": 72,
          "time": 26.590882499999935,
          "velocity": 0.7874015748031497,
          "duration": 0.0568181249999995
        },
        {
          "name": "E5",
          "midi": 76,
          "time": 26.590882499999935,
          "velocity": 0.7874015748031497,
          "duration": 0.0568181249999995
        },
        {
          "name": "C5",
          "midi": 72,
          "time": 27.045427499999935,
          "velocity": 0.7874015748031497,
          "duration": 0.0568181249999995
        },
        {
          "name": "E5",
          "midi": 76,
          "time": 27.045427499999935,
          "velocity": 0.7874015748031497,
          "duration": 0.0568181249999995
        },
        {
          "name": "E5",
          "midi": 76,
          "time": 27.272699999999933,
          "velocity": 0.7874015748031497,
          "duration": 0.0568181249999995
        },
        {
          "name": "F5",
          "midi": 77,
          "time": 27.272699999999933,
          "velocity": 0.7874015748031497,
          "duration": 0.0568181249999995
        },
        {
          "name": "D5",
          "midi": 74,
          "time": 27.49997249999993,
          "velocity": 0.7874015748031497,
          "duration": 0.0568181249999995
        },
        {
          "name": "E5",
          "midi": 76,
          "time": 27.49997249999993,
          "velocity": 0.7874015748031497,
          "duration": 0.0568181249999995
        },
        {
          "name": "E5",
          "midi": 76,
          "time": 27.95451749999993,
          "velocity": 0.7874015748031497,
          "duration": 0.05208328124999895
        },
        {
          "name": "F5",
          "midi": 77,
          "time": 27.95451749999993,
          "velocity": 0.7874015748031497,
          "duration": 0.0568181249999995
        },
        {
          "name": "C5",
          "midi": 72,
          "time": 28.18178999999993,
          "velocity": 0.7874015748031497,
          "duration": 0.0568181249999995
        },
        {
          "name": "E5",
          "midi": 76,
          "time": 28.18178999999993,
          "velocity": 0.7874015748031497,
          "duration": 0.0568181249999995
        },
        {
          "name": "D5",
          "midi": 74,
          "time": 28.409062499999926,
          "velocity": 0.7874015748031497,
          "duration": 0.0568181249999995
        },
        {
          "name": "F5",
          "midi": 77,
          "time": 28.409062499999926,
          "velocity": 0.7874015748031497,
          "duration": 0.0568181249999995
        },
        {
          "name": "C5",
          "midi": 72,
          "time": 29.090879999999927,
          "velocity": 0.7874015748031497,
          "duration": 0.0568181249999995
        },
        {
          "name": "E5",
          "midi": 76,
          "time": 29.090879999999927,
          "velocity": 0.7874015748031497,
          "duration": 0.0568181249999995
        },
        {
          "name": "D5",
          "midi": 74,
          "time": 29.318152499999925,
          "velocity": 0.7874015748031497,
          "duration": 0.0568181249999995
        },
        {
          "name": "E5",
          "midi": 76,
          "time": 29.318152499999925,
          "velocity": 0.7874015748031497,
          "duration": 0.0568181249999995
        },
        {
          "name": "E5",
          "midi": 76,
          "time": 29.772697499999925,
          "velocity": 0.7874015748031497,
          "duration": 0.05208328124999895
        },
        {
          "name": "F5",
          "midi": 77,
          "time": 29.772697499999925,
          "velocity": 0.7874015748031497,
          "duration": 0.0568181249999995
        },
        {
          "name": "E5",
          "midi": 76,
          "time": 29.999969999999923,
          "velocity": 0.7874015748031497,
          "duration": 0.06155296875000005
        },
        {
          "name": "C5",
          "midi": 72,
          "time": 30.227242499999925,
          "velocity": 0.7874015748031497,
          "duration": 0.0568181249999995
        },
        {
          "name": "E5",
          "midi": 76,
          "time": 30.227242499999925,
          "velocity": 0.7874015748031497,
          "duration": 0.0568181249999995
        },
        {
          "name": "C5",
          "midi": 72,
          "time": 30.681787499999924,
          "velocity": 0.7874015748031497,
          "duration": 0.0568181249999995
        },
        {
          "name": "E5",
          "midi": 76,
          "time": 30.681787499999924,
          "velocity": 0.7874015748031497,
          "duration": 0.0568181249999995
        },
        {
          "name": "E5",
          "midi": 76,
          "time": 30.909059999999922,
          "velocity": 0.7874015748031497,
          "duration": 0.0568181249999995
        },
        {
          "name": "F5",
          "midi": 77,
          "time": 30.909059999999922,
          "velocity": 0.7874015748031497,
          "duration": 0.0568181249999995
        },
        {
          "name": "D5",
          "midi": 74,
          "time": 31.13633249999992,
          "velocity": 0.7874015748031497,
          "duration": 0.0568181249999995
        },
        {
          "name": "E5",
          "midi": 76,
          "time": 31.13633249999992,
          "velocity": 0.7874015748031497,
          "duration": 0.0568181249999995
        },
        {
          "name": "E5",
          "midi": 76,
          "time": 31.59087749999992,
          "velocity": 0.7874015748031497,
          "duration": 0.05208328124999895
        },
        {
          "name": "F5",
          "midi": 77,
          "time": 31.59087749999992,
          "velocity": 0.7874015748031497,
          "duration": 0.0568181249999995
        },
        {
          "name": "C5",
          "midi": 72,
          "time": 31.818149999999918,
          "velocity": 0.7874015748031497,
          "duration": 0.0568181249999995
        },
        {
          "name": "E5",
          "midi": 76,
          "time": 31.818149999999918,
          "velocity": 0.7874015748031497,
          "duration": 0.0568181249999995
        },
        {
          "name": "D5",
          "midi": 74,
          "time": 32.045422499999916,
          "velocity": 0.7874015748031497,
          "duration": 0.0568181249999995
        },
        {
          "name": "F5",
          "midi": 77,
          "time": 32.045422499999916,
          "velocity": 0.7874015748031497,
          "duration": 0.0568181249999995
        },
        {
          "name": "C5",
          "midi": 72,
          "time": 32.72723999999992,
          "velocity": 0.7874015748031497,
          "duration": 0.0568181249999995
        },
        {
          "name": "E5",
          "midi": 76,
          "time": 32.72723999999992,
          "velocity": 0.7874015748031497,
          "duration": 0.0568181249999995
        },
        {
          "name": "D5",
          "midi": 74,
          "time": 32.954512499999915,
          "velocity": 0.7874015748031497,
          "duration": 0.0568181249999995
        },
        {
          "name": "E5",
          "midi": 76,
          "time": 32.954512499999915,
          "velocity": 0.7874015748031497,
          "duration": 0.0568181249999995
        },
        {
          "name": "E5",
          "midi": 76,
          "time": 33.40905749999992,
          "velocity": 0.7874015748031497,
          "duration": 0.05208328124999895
        },
        {
          "name": "F5",
          "midi": 77,
          "time": 33.40905749999992,
          "velocity": 0.7874015748031497,
          "duration": 0.0568181249999995
        },
        {
          "name": "E5",
          "midi": 76,
          "time": 33.636329999999916,
          "velocity": 0.7874015748031497,
          "duration": 0.06155296875000005
        },
        {
          "name": "C5",
          "midi": 72,
          "time": 33.863602499999914,
          "velocity": 0.7874015748031497,
          "duration": 0.0568181249999995
        },
        {
          "name": "E5",
          "midi": 76,
          "time": 33.863602499999914,
          "velocity": 0.7874015748031497,
          "duration": 0.0568181249999995
        },
        {
          "name": "C5",
          "midi": 72,
          "time": 34.31814749999991,
          "velocity": 0.7874015748031497,
          "duration": 0.0568181249999995
        },
        {
          "name": "E5",
          "midi": 76,
          "time": 34.31814749999991,
          "velocity": 0.7874015748031497,
          "duration": 0.0568181249999995
        },
        {
          "name": "E5",
          "midi": 76,
          "time": 34.54541999999991,
          "velocity": 0.7874015748031497,
          "duration": 0.0568181249999995
        },
        {
          "name": "F5",
          "midi": 77,
          "time": 34.54541999999991,
          "velocity": 0.7874015748031497,
          "duration": 0.0568181249999995
        },
        {
          "name": "D5",
          "midi": 74,
          "time": 34.772692499999906,
          "velocity": 0.7874015748031497,
          "duration": 0.0568181249999995
        },
        {
          "name": "E5",
          "midi": 76,
          "time": 34.772692499999906,
          "velocity": 0.7874015748031497,
          "duration": 0.0568181249999995
        },
        {
          "name": "E5",
          "midi": 76,
          "time": 35.2272374999999,
          "velocity": 0.7874015748031497,
          "duration": 0.05208328124999895
        },
        {
          "name": "F5",
          "midi": 77,
          "time": 35.2272374999999,
          "velocity": 0.7874015748031497,
          "duration": 0.0568181249999995
        },
        {
          "name": "C5",
          "midi": 72,
          "time": 35.4545099999999,
          "velocity": 0.7874015748031497,
          "duration": 0.0568181249999995
        },
        {
          "name": "E5",
          "midi": 76,
          "time": 35.4545099999999,
          "velocity": 0.7874015748031497,
          "duration": 0.0568181249999995
        },
        {
          "name": "D5",
          "midi": 74,
          "time": 35.6817824999999,
          "velocity": 0.7874015748031497,
          "duration": 0.0568181249999995
        },
        {
          "name": "F5",
          "midi": 77,
          "time": 35.6817824999999,
          "velocity": 0.7874015748031497,
          "duration": 0.0568181249999995
        },
        {
          "name": "C5",
          "midi": 72,
          "time": 36.3635999999999,
          "velocity": 0.7874015748031497,
          "duration": 0.0568181249999995
        },
        {
          "name": "C5",
          "midi": 72,
          "time": 36.5908724999999,
          "velocity": 0.7874015748031497,
          "duration": 0.0568181249999995
        },
        {
          "name": "E5",
          "midi": 76,
          "time": 36.704508749999896,
          "velocity": 0.7874015748031497,
          "duration": 0.0568181249999995
        },
        {
          "name": "C5",
          "midi": 72,
          "time": 36.818144999999895,
          "velocity": 0.7874015748031497,
          "duration": 0.0568181249999995
        },
        {
          "name": "C5",
          "midi": 72,
          "time": 37.04541749999989,
          "velocity": 0.7874015748031497,
          "duration": 0.0568181249999995
        },
        {
          "name": "E5",
          "midi": 76,
          "time": 37.15905374999989,
          "velocity": 0.7874015748031497,
          "duration": 0.0568181249999995
        },
        {
          "name": "D5",
          "midi": 74,
          "time": 37.27268999999989,
          "velocity": 0.7874015748031497,
          "duration": 0.0568181249999995
        },
        {
          "name": "D5",
          "midi": 74,
          "time": 37.49996249999989,
          "velocity": 0.7874015748031497,
          "duration": 0.0568181249999995
        },
        {
          "name": "E5",
          "midi": 76,
          "time": 37.61359874999989,
          "velocity": 0.7874015748031497,
          "duration": 0.0568181249999995
        },
        {
          "name": "D5",
          "midi": 74,
          "time": 37.72723499999989,
          "velocity": 0.7874015748031497,
          "duration": 0.0568181249999995
        },
        {
          "name": "D5",
          "midi": 74,
          "time": 37.954507499999885,
          "velocity": 0.7874015748031497,
          "duration": 0.0568181249999995
        },
        {
          "name": "E5",
          "midi": 76,
          "time": 38.068143749999884,
          "velocity": 0.7874015748031497,
          "duration": 0.0568181249999995
        },
        {
          "name": "F5",
          "midi": 77,
          "time": 38.18177999999988,
          "velocity": 0.7874015748031497,
          "duration": 0.0568181249999995
        },
        {
          "name": "F5",
          "midi": 77,
          "time": 38.40905249999988,
          "velocity": 0.7874015748031497,
          "duration": 0.0568181249999995
        },
        {
          "name": "E5",
          "midi": 76,
          "time": 38.52268874999988,
          "velocity": 0.7874015748031497,
          "duration": 0.0568181249999995
        },
        {
          "name": "F5",
          "midi": 77,
          "time": 38.63632499999988,
          "velocity": 0.7874015748031497,
          "duration": 0.0568181249999995
        },
        {
          "name": "F5",
          "midi": 77,
          "time": 38.86359749999988,
          "velocity": 0.7874015748031497,
          "duration": 0.0568181249999995
        },
        {
          "name": "E5",
          "midi": 76,
          "time": 38.977233749999876,
          "velocity": 0.7874015748031497,
          "duration": 0.0568181249999995
        },
        {
          "name": "D5",
          "midi": 74,
          "time": 39.090869999999875,
          "velocity": 0.7874015748031497,
          "duration": 0.0568181249999995
        },
        {
          "name": "D5",
          "midi": 74,
          "time": 39.31814249999987,
          "velocity": 0.7874015748031497,
          "duration": 0.0568181249999995
        },
        {
          "name": "F5",
          "midi": 77,
          "time": 39.43177874999987,
          "velocity": 0.7874015748031497,
          "duration": 0.0568181249999995
        },
        {
          "name": "D5",
          "midi": 74,
          "time": 39.54541499999987,
          "velocity": 0.7874015748031497,
          "duration": 0.0568181249999995
        },
        {
          "name": "D5",
          "midi": 74,
          "time": 39.77268749999987,
          "velocity": 0.7874015748031497,
          "duration": 0.0568181249999995
        },
        {
          "name": "F5",
          "midi": 77,
          "time": 39.88632374999987,
          "velocity": 0.7874015748031497,
          "duration": 0.0568181249999995
        },
        {
          "name": "C5",
          "midi": 72,
          "time": 39.99995999999987,
          "velocity": 0.7874015748031497,
          "duration": 0.0568181249999995
        },
        {
          "name": "C5",
          "midi": 72,
          "time": 40.227232499999865,
          "velocity": 0.7874015748031497,
          "duration": 0.0568181249999995
        },
        {
          "name": "E5",
          "midi": 76,
          "time": 40.34086874999986,
          "velocity": 0.7874015748031497,
          "duration": 0.0568181249999995
        },
        {
          "name": "C5",
          "midi": 72,
          "time": 40.45450499999986,
          "velocity": 0.7874015748031497,
          "duration": 0.0568181249999995
        },
        {
          "name": "C5",
          "midi": 72,
          "time": 40.68177749999986,
          "velocity": 0.7874015748031497,
          "duration": 0.0568181249999995
        },
        {
          "name": "E5",
          "midi": 76,
          "time": 40.79541374999986,
          "velocity": 0.7874015748031497,
          "duration": 0.0568181249999995
        },
        {
          "name": "D5",
          "midi": 74,
          "time": 40.90904999999986,
          "velocity": 0.7874015748031497,
          "duration": 0.0568181249999995
        },
        {
          "name": "D5",
          "midi": 74,
          "time": 41.13632249999986,
          "velocity": 0.7874015748031497,
          "duration": 0.0568181249999995
        },
        {
          "name": "E5",
          "midi": 76,
          "time": 41.249958749999855,
          "velocity": 0.7874015748031497,
          "duration": 0.0568181249999995
        },
        {
          "name": "D5",
          "midi": 74,
          "time": 41.363594999999854,
          "velocity": 0.7874015748031497,
          "duration": 0.0568181249999995
        },
        {
          "name": "D5",
          "midi": 74,
          "time": 41.59086749999985,
          "velocity": 0.7874015748031497,
          "duration": 0.0568181249999995
        },
        {
          "name": "E5",
          "midi": 76,
          "time": 41.70450374999985,
          "velocity": 0.7874015748031497,
          "duration": 0.0568181249999995
        },
        {
          "name": "F5",
          "midi": 77,
          "time": 41.81813999999985,
          "velocity": 0.7874015748031497,
          "duration": 0.0568181249999995
        },
        {
          "name": "F5",
          "midi": 77,
          "time": 42.04541249999985,
          "velocity": 0.7874015748031497,
          "duration": 0.0568181249999995
        },
        {
          "name": "E5",
          "midi": 76,
          "time": 42.15904874999985,
          "velocity": 0.7874015748031497,
          "duration": 0.0568181249999995
        },
        {
          "name": "F5",
          "midi": 77,
          "time": 42.272684999999846,
          "velocity": 0.7874015748031497,
          "duration": 0.0568181249999995
        },
        {
          "name": "F5",
          "midi": 77,
          "time": 42.499957499999844,
          "velocity": 0.7874015748031497,
          "duration": 0.0568181249999995
        },
        {
          "name": "E5",
          "midi": 76,
          "time": 42.61359374999984,
          "velocity": 0.7874015748031497,
          "duration": 0.0568181249999995
        },
        {
          "name": "D5",
          "midi": 74,
          "time": 42.72722999999984,
          "velocity": 0.7874015748031497,
          "duration": 0.0568181249999995
        },
        {
          "name": "D5",
          "midi": 74,
          "time": 42.95450249999984,
          "velocity": 0.7874015748031497,
          "duration": 0.0568181249999995
        },
        {
          "name": "F5",
          "midi": 77,
          "time": 43.06813874999984,
          "velocity": 0.7874015748031497,
          "duration": 0.0568181249999995
        },
        {
          "name": "D5",
          "midi": 74,
          "time": 43.18177499999984,
          "velocity": 0.7874015748031497,
          "duration": 0.0568181249999995
        },
        {
          "name": "D5",
          "midi": 74,
          "time": 43.409047499999836,
          "velocity": 0.7874015748031497,
          "duration": 0.0568181249999995
        },
        {
          "name": "F5",
          "midi": 77,
          "time": 43.522683749999835,
          "velocity": 0.7874015748031497,
          "duration": 0.0568181249999995
        },
        {
          "name": "C5",
          "midi": 72,
          "time": 43.636319999999834,
          "velocity": 0.7874015748031497,
          "duration": 0.0568181249999995
        },
        {
          "name": "E5",
          "midi": 76,
          "time": 43.74995624999983,
          "velocity": 0.7795275590551181,
          "duration": 0.0568181249999995
        },
        {
          "name": "C5",
          "midi": 72,
          "time": 43.86359249999983,
          "velocity": 0.7874015748031497,
          "duration": 0.0568181249999995
        },
        {
          "name": "E5",
          "midi": 76,
          "time": 43.97722874999983,
          "velocity": 0.7874015748031497,
          "duration": 0.0568181249999995
        },
        {
          "name": "C5",
          "midi": 72,
          "time": 44.09086499999983,
          "velocity": 0.7874015748031497,
          "duration": 0.0568181249999995
        },
        {
          "name": "E5",
          "midi": 76,
          "time": 44.20450124999983,
          "velocity": 0.7795275590551181,
          "duration": 0.0568181249999995
        },
        {
          "name": "C5",
          "midi": 72,
          "time": 44.31813749999983,
          "velocity": 0.7874015748031497,
          "duration": 0.0568181249999995
        },
        {
          "name": "E5",
          "midi": 76,
          "time": 44.43177374999983,
          "velocity": 0.7874015748031497,
          "duration": 0.0568181249999995
        },
        {
          "name": "D5",
          "midi": 74,
          "time": 44.545409999999826,
          "velocity": 0.7874015748031497,
          "duration": 0.0568181249999995
        },
        {
          "name": "E5",
          "midi": 76,
          "time": 44.772682499999824,
          "velocity": 0.7795275590551181,
          "duration": 0.0568181249999995
        },
        {
          "name": "D5",
          "midi": 74,
          "time": 44.99995499999982,
          "velocity": 0.7874015748031497,
          "duration": 0.0568181249999995
        },
        {
          "name": "E5",
          "midi": 76,
          "time": 45.22722749999982,
          "velocity": 0.7874015748031497,
          "duration": 0.0568181249999995
        },
        {
          "name": "F5",
          "midi": 77,
          "time": 45.45449999999982,
          "velocity": 0.7874015748031497,
          "duration": 0.0568181249999995
        },
        {
          "name": "E5",
          "midi": 76,
          "time": 45.681772499999816,
          "velocity": 0.7795275590551181,
          "duration": 0.0568181249999995
        },
        {
          "name": "F5",
          "midi": 77,
          "time": 45.909044999999814,
          "velocity": 0.7874015748031497,
          "duration": 0.0568181249999995
        },
        {
          "name": "E5",
          "midi": 76,
          "time": 46.13631749999981,
          "velocity": 0.7874015748031497,
          "duration": 0.0568181249999995
        },
        {
          "name": "D5",
          "midi": 74,
          "time": 46.36358999999981,
          "velocity": 0.7874015748031497,
          "duration": 0.0568181249999995
        },
        {
          "name": "F5",
          "midi": 77,
          "time": 46.59086249999981,
          "velocity": 0.7874015748031497,
          "duration": 0.0568181249999995
        },
        {
          "name": "D5",
          "midi": 74,
          "time": 46.818134999999806,
          "velocity": 0.7874015748031497,
          "duration": 0.0568181249999995
        },
        {
          "name": "F5",
          "midi": 77,
          "time": 47.045407499999804,
          "velocity": 0.7874015748031497,
          "duration": 0.0568181249999995
        },
        {
          "name": "C5",
          "midi": 72,
          "time": 47.2726799999998,
          "velocity": 0.7874015748031497,
          "duration": 0.0568181249999995
        },
        {
          "name": "E5",
          "midi": 76,
          "time": 47.3863162499998,
          "velocity": 0.7874015748031497,
          "duration": 0.0568181249999995
        },
        {
          "name": "C5",
          "midi": 72,
          "time": 47.4999524999998,
          "velocity": 0.7874015748031497,
          "duration": 0.0568181249999995
        },
        {
          "name": "E5",
          "midi": 76,
          "time": 47.6135887499998,
          "velocity": 0.7874015748031497,
          "duration": 0.0568181249999995
        },
        {
          "name": "C5",
          "midi": 72,
          "time": 47.7272249999998,
          "velocity": 0.9448818897637795,
          "duration": 0.0568181249999995
        },
        {
          "name": "E5",
          "midi": 76,
          "time": 47.8408612499998,
          "velocity": 0.9448818897637795,
          "duration": 0.0568181249999995
        },
        {
          "name": "C5",
          "midi": 72,
          "time": 47.954497499999796,
          "velocity": 0.9448818897637795,
          "duration": 0.0568181249999995
        },
        {
          "name": "E5",
          "midi": 76,
          "time": 48.068133749999795,
          "velocity": 0.9448818897637795,
          "duration": 0.0568181249999995
        },
        {
          "name": "F5",
          "midi": 77,
          "time": 48.181769999999794,
          "velocity": 0.9448818897637795,
          "duration": 0.0568181249999995
        },
        {
          "name": "E5",
          "midi": 76,
          "time": 48.40904249999979,
          "velocity": 0.9448818897637795,
          "duration": 0.0568181249999995
        },
        {
          "name": "F5",
          "midi": 77,
          "time": 48.63631499999979,
          "velocity": 0.9448818897637795,
          "duration": 0.0568181249999995
        },
        {
          "name": "E5",
          "midi": 76,
          "time": 48.86358749999979,
          "velocity": 0.9448818897637795,
          "duration": 0.0568181249999995
        },
        {
          "name": "D5",
          "midi": 74,
          "time": 49.090859999999786,
          "velocity": 0.9448818897637795,
          "duration": 0.0568181249999995
        },
        {
          "name": "F5",
          "midi": 77,
          "time": 49.318132499999784,
          "velocity": 0.9448818897637795,
          "duration": 0.0568181249999995
        },
        {
          "name": "D5",
          "midi": 74,
          "time": 49.54540499999978,
          "velocity": 0.9448818897637795,
          "duration": 0.0568181249999995
        },
        {
          "name": "F5",
          "midi": 77,
          "time": 49.77267749999978,
          "velocity": 0.9448818897637795,
          "duration": 0.0568181249999995
        },
        {
          "name": "C5",
          "midi": 72,
          "time": 49.99994999999978,
          "velocity": 0.7874015748031497,
          "duration": 0.0568181249999995
        },
        {
          "name": "F5",
          "midi": 77,
          "time": 50.227222499999776,
          "velocity": 0.7874015748031497,
          "duration": 0.0568181249999995
        },
        {
          "name": "C5",
          "midi": 72,
          "time": 50.454494999999774,
          "velocity": 0.7874015748031497,
          "duration": 0.0568181249999995
        },
        {
          "name": "F5",
          "midi": 77,
          "time": 50.68176749999977,
          "velocity": 0.7874015748031497,
          "duration": 0.0568181249999995
        },
        {
          "name": "C5",
          "midi": 72,
          "time": 50.90903999999977,
          "velocity": 0.7874015748031497,
          "duration": 0.0568181249999995
        },
        {
          "name": "C5",
          "midi": 72,
          "time": 51.13631249999977,
          "velocity": 0.7874015748031497,
          "duration": 0.0568181249999995
        },
        {
          "name": "E5",
          "midi": 76,
          "time": 51.24994874999977,
          "velocity": 0.7874015748031497,
          "duration": 0.0568181249999995
        },
        {
          "name": "C5",
          "midi": 72,
          "time": 51.363584999999766,
          "velocity": 0.7874015748031497,
          "duration": 0.0568181249999995
        },
        {
          "name": "C5",
          "midi": 72,
          "time": 51.590857499999764,
          "velocity": 0.7874015748031497,
          "duration": 0.0568181249999995
        },
        {
          "name": "E5",
          "midi": 76,
          "time": 51.70449374999976,
          "velocity": 0.7874015748031497,
          "duration": 0.0568181249999995
        },
        {
          "name": "D5",
          "midi": 74,
          "time": 51.81812999999976,
          "velocity": 0.7874015748031497,
          "duration": 0.0568181249999995
        },
        {
          "name": "D5",
          "midi": 74,
          "time": 52.04540249999976,
          "velocity": 0.7874015748031497,
          "duration": 0.0568181249999995
        },
        {
          "name": "E5",
          "midi": 76,
          "time": 52.15903874999976,
          "velocity": 0.7874015748031497,
          "duration": 0.0568181249999995
        },
        {
          "name": "D5",
          "midi": 74,
          "time": 52.27267499999976,
          "velocity": 0.7874015748031497,
          "duration": 0.0568181249999995
        },
        {
          "name": "D5",
          "midi": 74,
          "time": 52.499947499999756,
          "velocity": 0.7874015748031497,
          "duration": 0.0568181249999995
        },
        {
          "name": "E5",
          "midi": 76,
          "time": 52.613583749999755,
          "velocity": 0.7874015748031497,
          "duration": 0.0568181249999995
        },
        {
          "name": "F5",
          "midi": 77,
          "time": 52.727219999999754,
          "velocity": 0.7874015748031497,
          "duration": 0.0568181249999995
        },
        {
          "name": "F5",
          "midi": 77,
          "time": 52.95449249999975,
          "velocity": 0.7874015748031497,
          "duration": 0.0568181249999995
        },
        {
          "name": "E5",
          "midi": 76,
          "time": 53.06812874999975,
          "velocity": 0.7874015748031497,
          "duration": 0.0568181249999995
        },
        {
          "name": "F5",
          "midi": 77,
          "time": 53.18176499999975,
          "velocity": 0.7874015748031497,
          "duration": 0.0568181249999995
        },
        {
          "name": "F5",
          "midi": 77,
          "time": 53.40903749999975,
          "velocity": 0.7874015748031497,
          "duration": 0.0568181249999995
        },
        {
          "name": "E5",
          "midi": 76,
          "time": 53.52267374999975,
          "velocity": 0.7874015748031497,
          "duration": 0.0568181249999995
        },
        {
          "name": "D5",
          "midi": 74,
          "time": 53.636309999999746,
          "velocity": 0.7874015748031497,
          "duration": 0.0568181249999995
        },
        {
          "name": "D5",
          "midi": 74,
          "time": 53.863582499999744,
          "velocity": 0.7874015748031497,
          "duration": 0.0568181249999995
        },
        {
          "name": "F5",
          "midi": 77,
          "time": 53.97721874999974,
          "velocity": 0.7874015748031497,
          "duration": 0.0568181249999995
        },
        {
          "name": "D5",
          "midi": 74,
          "time": 54.09085499999974,
          "velocity": 0.7874015748031497,
          "duration": 0.0568181249999995
        },
        {
          "name": "D5",
          "midi": 74,
          "time": 54.31812749999974,
          "velocity": 0.7874015748031497,
          "duration": 0.0568181249999995
        },
        {
          "name": "F5",
          "midi": 77,
          "time": 54.43176374999974,
          "velocity": 0.7874015748031497,
          "duration": 0.0568181249999995
        },
        {
          "name": "C5",
          "midi": 72,
          "time": 54.54539999999974,
          "velocity": 0.7874015748031497,
          "duration": 0.0568181249999995
        },
        {
          "name": "C5",
          "midi": 72,
          "time": 54.772672499999736,
          "velocity": 0.7874015748031497,
          "duration": 0.0568181249999995
        },
        {
          "name": "E5",
          "midi": 76,
          "time": 54.886308749999735,
          "velocity": 0.7874015748031497,
          "duration": 0.0568181249999995
        },
        {
          "name": "C5",
          "midi": 72,
          "time": 54.999944999999734,
          "velocity": 0.7874015748031497,
          "duration": 0.0568181249999995
        },
        {
          "name": "C5",
          "midi": 72,
          "time": 55.22721749999973,
          "velocity": 0.7874015748031497,
          "duration": 0.0568181249999995
        },
        {
          "name": "E5",
          "midi": 76,
          "time": 55.34085374999973,
          "velocity": 0.7874015748031497,
          "duration": 0.0568181249999995
        },
        {
          "name": "D5",
          "midi": 74,
          "time": 55.45448999999973,
          "velocity": 0.7874015748031497,
          "duration": 0.0568181249999995
        },
        {
          "name": "D5",
          "midi": 74,
          "time": 55.68176249999973,
          "velocity": 0.7874015748031497,
          "duration": 0.0568181249999995
        },
        {
          "name": "E5",
          "midi": 76,
          "time": 55.79539874999973,
          "velocity": 0.7874015748031497,
          "duration": 0.0568181249999995
        },
        {
          "name": "D5",
          "midi": 74,
          "time": 55.909034999999726,
          "velocity": 0.7874015748031497,
          "duration": 0.0568181249999995
        },
        {
          "name": "D5",
          "midi": 74,
          "time": 56.136307499999724,
          "velocity": 0.7874015748031497,
          "duration": 0.0568181249999995
        },
        {
          "name": "E5",
          "midi": 76,
          "time": 56.24994374999972,
          "velocity": 0.7874015748031497,
          "duration": 0.0568181249999995
        },
        {
          "name": "F5",
          "midi": 77,
          "time": 56.36357999999972,
          "velocity": 0.7874015748031497,
          "duration": 0.0568181249999995
        },
        {
          "name": "F5",
          "midi": 77,
          "time": 56.59085249999972,
          "velocity": 0.7874015748031497,
          "duration": 0.0568181249999995
        },
        {
          "name": "E5",
          "midi": 76,
          "time": 56.70448874999972,
          "velocity": 0.7874015748031497,
          "duration": 0.0568181249999995
        },
        {
          "name": "F5",
          "midi": 77,
          "time": 56.81812499999972,
          "velocity": 0.7874015748031497,
          "duration": 0.0568181249999995
        },
        {
          "name": "F5",
          "midi": 77,
          "time": 57.045397499999716,
          "velocity": 0.7874015748031497,
          "duration": 0.0568181249999995
        },
        {
          "name": "E5",
          "midi": 76,
          "time": 57.159033749999715,
          "velocity": 0.7874015748031497,
          "duration": 0.0568181249999995
        },
        {
          "name": "D5",
          "midi": 74,
          "time": 57.272669999999714,
          "velocity": 0.7874015748031497,
          "duration": 0.0568181249999995
        },
        {
          "name": "D5",
          "midi": 74,
          "time": 57.49994249999971,
          "velocity": 0.7874015748031497,
          "duration": 0.0568181249999995
        },
        {
          "name": "F5",
          "midi": 77,
          "time": 57.61357874999971,
          "velocity": 0.7874015748031497,
          "duration": 0.0568181249999995
        },
        {
          "name": "D5",
          "midi": 74,
          "time": 57.72721499999971,
          "velocity": 0.7874015748031497,
          "duration": 0.0568181249999995
        },
        {
          "name": "D5",
          "midi": 74,
          "time": 57.95448749999971,
          "velocity": 0.7874015748031497,
          "duration": 0.0568181249999995
        },
        {
          "name": "F5",
          "midi": 77,
          "time": 58.06812374999971,
          "velocity": 0.7874015748031497,
          "duration": 0.0568181249999995
        },
        {
          "name": "C5",
          "midi": 72,
          "time": 58.181759999999706,
          "velocity": 0.7874015748031497,
          "duration": 0.0568181249999995
        },
        {
          "name": "E5",
          "midi": 76,
          "time": 58.295396249999705,
          "velocity": 0.7795275590551181,
          "duration": 0.0568181249999995
        },
        {
          "name": "C5",
          "midi": 72,
          "time": 58.409032499999704,
          "velocity": 0.7874015748031497,
          "duration": 0.0568181249999995
        },
        {
          "name": "E5",
          "midi": 76,
          "time": 58.5226687499997,
          "velocity": 0.7874015748031497,
          "duration": 0.0568181249999995
        },
        {
          "name": "C5",
          "midi": 72,
          "time": 58.6363049999997,
          "velocity": 0.7874015748031497,
          "duration": 0.0568181249999995
        },
        {
          "name": "E5",
          "midi": 76,
          "time": 58.7499412499997,
          "velocity": 0.7795275590551181,
          "duration": 0.0568181249999995
        },
        {
          "name": "C5",
          "midi": 72,
          "time": 58.8635774999997,
          "velocity": 0.7874015748031497,
          "duration": 0.0568181249999995
        },
        {
          "name": "E5",
          "midi": 76,
          "time": 58.9772137499997,
          "velocity": 0.7874015748031497,
          "duration": 0.0568181249999995
        },
        {
          "name": "D5",
          "midi": 74,
          "time": 59.0908499999997,
          "velocity": 0.7874015748031497,
          "duration": 0.0568181249999995
        },
        {
          "name": "E5",
          "midi": 76,
          "time": 59.318122499999696,
          "velocity": 0.7795275590551181,
          "duration": 0.0568181249999995
        },
        {
          "name": "D5",
          "midi": 74,
          "time": 59.545394999999694,
          "velocity": 0.7874015748031497,
          "duration": 0.0568181249999995
        },
        {
          "name": "E5",
          "midi": 76,
          "time": 59.77266749999969,
          "velocity": 0.7874015748031497,
          "duration": 0.0568181249999995
        },
        {
          "name": "F5",
          "midi": 77,
          "time": 59.99993999999969,
          "velocity": 0.7874015748031497,
          "duration": 0.0568181249999995
        },
        {
          "name": "E5",
          "midi": 76,
          "time": 60.22721249999969,
          "velocity": 0.7795275590551181,
          "duration": 0.0568181249999995
        },
        {
          "name": "F5",
          "midi": 77,
          "time": 60.454484999999686,
          "velocity": 0.7874015748031497,
          "duration": 0.0568181249999995
        },
        {
          "name": "E5",
          "midi": 76,
          "time": 60.681757499999684,
          "velocity": 0.7874015748031497,
          "duration": 0.0568181249999995
        },
        {
          "name": "D5",
          "midi": 74,
          "time": 60.90902999999968,
          "velocity": 0.7874015748031497,
          "duration": 0.0568181249999995
        },
        {
          "name": "F5",
          "midi": 77,
          "time": 61.13630249999968,
          "velocity": 0.7874015748031497,
          "duration": 0.0568181249999995
        },
        {
          "name": "D5",
          "midi": 74,
          "time": 61.36357499999968,
          "velocity": 0.7874015748031497,
          "duration": 0.0568181249999995
        },
        {
          "name": "F5",
          "midi": 77,
          "time": 61.590847499999676,
          "velocity": 0.7874015748031497,
          "duration": 0.0568181249999995
        },
        {
          "name": "C5",
          "midi": 72,
          "time": 61.818119999999674,
          "velocity": 0.7874015748031497,
          "duration": 0.0568181249999995
        },
        {
          "name": "E5",
          "midi": 76,
          "time": 61.93175624999967,
          "velocity": 0.7874015748031497,
          "duration": 0.0568181249999995
        },
        {
          "name": "C5",
          "midi": 72,
          "time": 62.04539249999967,
          "velocity": 0.7874015748031497,
          "duration": 0.0568181249999995
        },
        {
          "name": "E5",
          "midi": 76,
          "time": 62.15902874999967,
          "velocity": 0.7874015748031497,
          "duration": 0.0568181249999995
        },
        {
          "name": "C5",
          "midi": 72,
          "time": 62.27266499999967,
          "velocity": 0.9448818897637795,
          "duration": 0.0568181249999995
        },
        {
          "name": "E5",
          "midi": 76,
          "time": 62.38630124999967,
          "velocity": 0.9448818897637795,
          "duration": 0.0568181249999995
        },
        {
          "name": "C5",
          "midi": 72,
          "time": 62.49993749999967,
          "velocity": 0.9448818897637795,
          "duration": 0.0568181249999995
        },
        {
          "name": "E5",
          "midi": 76,
          "time": 62.61357374999967,
          "velocity": 0.9448818897637795,
          "duration": 0.0568181249999995
        },
        {
          "name": "F5",
          "midi": 77,
          "time": 62.727209999999666,
          "velocity": 0.9448818897637795,
          "duration": 0.0568181249999995
        },
        {
          "name": "E5",
          "midi": 76,
          "time": 62.95448249999966,
          "velocity": 0.9448818897637795,
          "duration": 0.0568181249999995
        },
        {
          "name": "F5",
          "midi": 77,
          "time": 63.18175499999966,
          "velocity": 0.9448818897637795,
          "duration": 0.0568181249999995
        },
        {
          "name": "E5",
          "midi": 76,
          "time": 63.40902749999966,
          "velocity": 0.9448818897637795,
          "duration": 0.0568181249999995
        },
        {
          "name": "D5",
          "midi": 74,
          "time": 63.63629999999966,
          "velocity": 0.9448818897637795,
          "duration": 0.0568181249999995
        },
        {
          "name": "F5",
          "midi": 77,
          "time": 63.863572499999655,
          "velocity": 0.9448818897637795,
          "duration": 0.0568181249999995
        },
        {
          "name": "D5",
          "midi": 74,
          "time": 64.09084499999966,
          "velocity": 0.9448818897637795,
          "duration": 0.0568181250000066
        },
        {
          "name": "F5",
          "midi": 77,
          "time": 64.31811749999967,
          "velocity": 0.9448818897637795,
          "duration": 0.0568181250000066
        },
        {
          "name": "C5",
          "midi": 72,
          "time": 64.54538999999968,
          "velocity": 0.7874015748031497,
          "duration": 0.0568181250000066
        },
        {
          "name": "F5",
          "midi": 77,
          "time": 64.7726624999997,
          "velocity": 0.7874015748031497,
          "duration": 0.0568181250000066
        },
        {
          "name": "C5",
          "midi": 72,
          "time": 64.99993499999971,
          "velocity": 0.7874015748031497,
          "duration": 0.0568181250000066
        },
        {
          "name": "F5",
          "midi": 77,
          "time": 65.22720749999972,
          "velocity": 0.7874015748031497,
          "duration": 0.0568181250000066
        },
        {
          "name": "C5",
          "midi": 72,
          "time": 65.45447999999973,
          "velocity": 0.7874015748031497,
          "duration": 0.0568181250000066
        },
        {
          "name": "D5",
          "midi": 74,
          "time": 65.68175249999975,
          "velocity": 0.7874015748031497,
          "duration": 0.0568181250000066
        },
        {
          "name": "E5",
          "midi": 76,
          "time": 65.90902499999976,
          "velocity": 0.7874015748031497,
          "duration": 0.0568181250000066
        },
        {
          "name": "E5",
          "midi": 76,
          "time": 66.81811499999976,
          "velocity": 0.7874015748031497,
          "duration": 0.0568181250000066
        },
        {
          "name": "D5",
          "midi": 74,
          "time": 67.04538749999978,
          "velocity": 0.7874015748031497,
          "duration": 0.0568181250000066
        },
        {
          "name": "C5",
          "midi": 72,
          "time": 67.27265999999979,
          "velocity": 0.7874015748031497,
          "duration": 0.0568181250000066
        },
        {
          "name": "F5",
          "midi": 77,
          "time": 67.4999324999998,
          "velocity": 0.7874015748031497,
          "duration": 0.0568181250000066
        },
        {
          "name": "E5",
          "midi": 76,
          "time": 67.72720499999981,
          "velocity": 0.7874015748031497,
          "duration": 0.0568181250000066
        },
        {
          "name": "E5",
          "midi": 76,
          "time": 68.86356749999982,
          "velocity": 0.7874015748031497,
          "duration": 0.0568181250000066
        },
        {
          "name": "F5",
          "midi": 77,
          "time": 68.97720374999983,
          "velocity": 0.7874015748031497,
          "duration": 0.0568181250000066
        },
        {
          "name": "C5",
          "midi": 72,
          "time": 69.09083999999984,
          "velocity": 0.7874015748031497,
          "duration": 0.0568181250000066
        },
        {
          "name": "D5",
          "midi": 74,
          "time": 69.54538499999985,
          "velocity": 0.7874015748031497,
          "duration": 0.0568181250000066
        },
        {
          "name": "E5",
          "midi": 76,
          "time": 69.99992999999986,
          "velocity": 0.7874015748031497,
          "duration": 0.0568181250000066
        },
        {
          "name": "C5",
          "midi": 72,
          "time": 70.45447499999987,
          "velocity": 0.7874015748031497,
          "duration": 0.0568181250000066
        },
        {
          "name": "E5",
          "midi": 76,
          "time": 70.68174749999989,
          "velocity": 0.7874015748031497,
          "duration": 0.0568181250000066
        },
        {
          "name": "F5",
          "midi": 77,
          "time": 70.7953837499999,
          "velocity": 0.7874015748031497,
          "duration": 0.0568181250000066
        },
        {
          "name": "D5",
          "midi": 74,
          "time": 70.90901999999991,
          "velocity": 0.7874015748031497,
          "duration": 0.0568181250000066
        },
        {
          "name": "F5",
          "midi": 77,
          "time": 71.02265624999993,
          "velocity": 0.7874015748031497,
          "duration": 0.0568181250000066
        },
        {
          "name": "C5",
          "midi": 72,
          "time": 72.72719999999994,
          "velocity": 0.7874015748031497,
          "duration": 0.0568181250000066
        },
        {
          "name": "D5",
          "midi": 74,
          "time": 72.95447249999995,
          "velocity": 0.7874015748031497,
          "duration": 0.0568181250000066
        },
        {
          "name": "E5",
          "midi": 76,
          "time": 73.18174499999996,
          "velocity": 0.7874015748031497,
          "duration": 0.0568181250000066
        },
        {
          "name": "E5",
          "midi": 76,
          "time": 74.09083499999997,
          "velocity": 0.7874015748031497,
          "duration": 0.0568181250000066
        },
        {
          "name": "D5",
          "midi": 74,
          "time": 74.31810749999998,
          "velocity": 0.7874015748031497,
          "duration": 0.0568181250000066
        },
        {
          "name": "C5",
          "midi": 72,
          "time": 74.54538,
          "velocity": 0.7874015748031497,
          "duration": 0.0568181250000066
        },
        {
          "name": "F5",
          "midi": 77,
          "time": 74.7726525,
          "velocity": 0.7874015748031497,
          "duration": 0.0568181250000066
        },
        {
          "name": "E5",
          "midi": 76,
          "time": 74.99992500000002,
          "velocity": 0.7874015748031497,
          "duration": 0.0568181250000066
        },
        {
          "name": "E5",
          "midi": 76,
          "time": 76.13628750000002,
          "velocity": 0.7874015748031497,
          "duration": 0.0568181250000066
        },
        {
          "name": "F5",
          "midi": 77,
          "time": 76.24992375000004,
          "velocity": 0.7874015748031497,
          "duration": 0.0568181250000066
        },
        {
          "name": "C5",
          "midi": 72,
          "time": 76.36356000000005,
          "velocity": 0.7874015748031497,
          "duration": 0.0568181250000066
        },
        {
          "name": "D5",
          "midi": 74,
          "time": 76.81810500000006,
          "velocity": 0.7874015748031497,
          "duration": 0.0568181250000066
        },
        {
          "name": "E5",
          "midi": 76,
          "time": 77.27265000000007,
          "velocity": 0.7874015748031497,
          "duration": 0.0568181250000066
        },
        {
          "name": "C5",
          "midi": 72,
          "time": 77.72719500000008,
          "velocity": 0.7874015748031497,
          "duration": 0.0568181250000066
        },
        {
          "name": "E5",
          "midi": 76,
          "time": 77.95446750000009,
          "velocity": 0.7874015748031497,
          "duration": 0.0568181250000066
        },
        {
          "name": "F5",
          "midi": 77,
          "time": 78.0681037500001,
          "velocity": 0.7874015748031497,
          "duration": 0.0568181250000066
        },
        {
          "name": "D5",
          "midi": 74,
          "time": 78.18174000000012,
          "velocity": 0.7874015748031497,
          "duration": 0.0568181250000066
        },
        {
          "name": "F5",
          "midi": 77,
          "time": 78.29537625000013,
          "velocity": 0.7874015748031497,
          "duration": 0.0568181250000066
        },
        {
          "name": "C5",
          "midi": 72,
          "time": 79.99992000000015,
          "velocity": 0.7874015748031497,
          "duration": 0.0568181250000066
        },
        {
          "name": "D5",
          "midi": 74,
          "time": 80.22719250000016,
          "velocity": 0.7874015748031497,
          "duration": 0.0568181250000066
        },
        {
          "name": "E5",
          "midi": 76,
          "time": 80.45446500000017,
          "velocity": 0.7874015748031497,
          "duration": 0.0568181250000066
        },
        {
          "name": "F5",
          "midi": 77,
          "time": 80.68173750000018,
          "velocity": 0.7874015748031497,
          "duration": 0.0568181250000066
        },
        {
          "name": "E5",
          "midi": 76,
          "time": 80.9090100000002,
          "velocity": 0.7795275590551181,
          "duration": 0.0568181250000066
        },
        {
          "name": "F5",
          "midi": 77,
          "time": 80.9090100000002,
          "velocity": 0.7795275590551181,
          "duration": 0.0568181250000066
        },
        {
          "name": "F5",
          "midi": 77,
          "time": 81.1362825000002,
          "velocity": 0.7795275590551181,
          "duration": 0.0568181250000066
        },
        {
          "name": "E5",
          "midi": 76,
          "time": 81.36355500000022,
          "velocity": 0.7874015748031497,
          "duration": 0.0568181250000066
        },
        {
          "name": "D5",
          "midi": 74,
          "time": 81.59082750000023,
          "velocity": 0.7874015748031497,
          "duration": 0.0568181250000066
        },
        {
          "name": "C5",
          "midi": 72,
          "time": 81.81810000000024,
          "velocity": 0.7874015748031497,
          "duration": 0.0568181250000066
        },
        {
          "name": "F5",
          "midi": 77,
          "time": 82.04537250000025,
          "velocity": 0.7874015748031497,
          "duration": 0.0568181250000066
        },
        {
          "name": "E5",
          "midi": 76,
          "time": 82.27264500000027,
          "velocity": 0.7874015748031497,
          "duration": 0.0568181250000066
        },
        {
          "name": "D5",
          "midi": 74,
          "time": 82.49991750000028,
          "velocity": 0.7795275590551181,
          "duration": 0.0568181250000066
        },
        {
          "name": "C5",
          "midi": 72,
          "time": 82.72719000000029,
          "velocity": 0.7795275590551181,
          "duration": 0.0568181250000066
        },
        {
          "name": "D5",
          "midi": 74,
          "time": 82.72719000000029,
          "velocity": 0.7795275590551181,
          "duration": 0.0568181250000066
        },
        {
          "name": "C5",
          "midi": 72,
          "time": 82.9544625000003,
          "velocity": 0.7795275590551181,
          "duration": 0.0568181250000066
        },
        {
          "name": "E5",
          "midi": 76,
          "time": 82.9544625000003,
          "velocity": 0.7795275590551181,
          "duration": 0.0568181250000066
        },
        {
          "name": "E5",
          "midi": 76,
          "time": 83.40900750000031,
          "velocity": 0.7874015748031497,
          "duration": 0.0568181250000066
        },
        {
          "name": "F5",
          "midi": 77,
          "time": 83.52264375000033,
          "velocity": 0.7874015748031497,
          "duration": 0.0568181250000066
        },
        {
          "name": "C5",
          "midi": 72,
          "time": 83.63628000000034,
          "velocity": 0.7874015748031497,
          "duration": 0.0568181250000066
        },
        {
          "name": "D5",
          "midi": 74,
          "time": 84.09082500000035,
          "velocity": 0.7874015748031497,
          "duration": 0.0568181250000066
        },
        {
          "name": "E5",
          "midi": 76,
          "time": 84.54537000000036,
          "velocity": 0.7874015748031497,
          "duration": 0.0568181250000066
        },
        {
          "name": "C5",
          "midi": 72,
          "time": 84.99991500000037,
          "velocity": 0.7874015748031497,
          "duration": 0.0568181250000066
        },
        {
          "name": "E5",
          "midi": 76,
          "time": 85.22718750000038,
          "velocity": 0.7874015748031497,
          "duration": 0.0568181250000066
        },
        {
          "name": "F5",
          "midi": 77,
          "time": 85.3408237500004,
          "velocity": 0.7874015748031497,
          "duration": 0.0568181250000066
        },
        {
          "name": "E5",
          "midi": 76,
          "time": 85.45446000000041,
          "velocity": 0.7874015748031497,
          "duration": 0.0568181250000066
        },
        {
          "name": "F5",
          "midi": 77,
          "time": 85.56809625000042,
          "velocity": 0.7874015748031497,
          "duration": 0.0568181250000066
        },
        {
          "name": "C5",
          "midi": 72,
          "time": 86.13627750000043,
          "velocity": 0.7795275590551181,
          "duration": 0.0568181250000066
        },
        {
          "name": "C5",
          "midi": 72,
          "time": 86.36355000000044,
          "velocity": 0.7795275590551181,
          "duration": 0.0568181250000066
        },
        {
          "name": "E5",
          "midi": 76,
          "time": 86.36355000000044,
          "velocity": 0.7795275590551181,
          "duration": 0.0568181250000066
        },
        {
          "name": "D5",
          "midi": 74,
          "time": 86.59082250000046,
          "velocity": 0.7795275590551181,
          "duration": 0.0568181250000066
        },
        {
          "name": "F5",
          "midi": 77,
          "time": 86.59082250000046,
          "velocity": 0.7795275590551181,
          "duration": 0.0568181250000066
        },
        {
          "name": "C5",
          "midi": 72,
          "time": 87.27264000000046,
          "velocity": 0.7874015748031497,
          "duration": 0.0568181250000066
        },
        {
          "name": "D5",
          "midi": 74,
          "time": 87.49991250000048,
          "velocity": 0.7874015748031497,
          "duration": 0.0568181250000066
        },
        {
          "name": "E5",
          "midi": 76,
          "time": 87.72718500000049,
          "velocity": 0.7874015748031497,
          "duration": 0.0568181250000066
        },
        {
          "name": "F5",
          "midi": 77,
          "time": 87.9544575000005,
          "velocity": 0.7874015748031497,
          "duration": 0.0568181250000066
        },
        {
          "name": "E5",
          "midi": 76,
          "time": 88.18173000000051,
          "velocity": 0.7795275590551181,
          "duration": 0.0568181250000066
        },
        {
          "name": "F5",
          "midi": 77,
          "time": 88.18173000000051,
          "velocity": 0.7795275590551181,
          "duration": 0.0568181250000066
        },
        {
          "name": "F5",
          "midi": 77,
          "time": 88.40900250000053,
          "velocity": 0.7795275590551181,
          "duration": 0.0568181250000066
        },
        {
          "name": "E5",
          "midi": 76,
          "time": 88.63627500000054,
          "velocity": 0.7874015748031497,
          "duration": 0.0568181250000066
        },
        {
          "name": "D5",
          "midi": 74,
          "time": 88.86354750000055,
          "velocity": 0.7874015748031497,
          "duration": 0.0568181250000066
        },
        {
          "name": "C5",
          "midi": 72,
          "time": 89.09082000000056,
          "velocity": 0.7874015748031497,
          "duration": 0.0568181250000066
        },
        {
          "name": "F5",
          "midi": 77,
          "time": 89.31809250000057,
          "velocity": 0.7874015748031497,
          "duration": 0.0568181250000066
        },
        {
          "name": "E5",
          "midi": 76,
          "time": 89.54536500000059,
          "velocity": 0.7874015748031497,
          "duration": 0.0568181250000066
        },
        {
          "name": "D5",
          "midi": 74,
          "time": 89.7726375000006,
          "velocity": 0.7795275590551181,
          "duration": 0.0568181250000066
        },
        {
          "name": "C5",
          "midi": 72,
          "time": 89.99991000000061,
          "velocity": 0.7795275590551181,
          "duration": 0.0568181250000066
        },
        {
          "name": "D5",
          "midi": 74,
          "time": 89.99991000000061,
          "velocity": 0.7795275590551181,
          "duration": 0.0568181250000066
        },
        {
          "name": "C5",
          "midi": 72,
          "time": 90.22718250000062,
          "velocity": 0.7795275590551181,
          "duration": 0.0568181250000066
        },
        {
          "name": "E5",
          "midi": 76,
          "time": 90.22718250000062,
          "velocity": 0.7795275590551181,
          "duration": 0.0568181250000066
        },
        {
          "name": "E5",
          "midi": 76,
          "time": 90.68172750000063,
          "velocity": 0.7874015748031497,
          "duration": 0.0568181250000066
        },
        {
          "name": "F5",
          "midi": 77,
          "time": 90.79536375000065,
          "velocity": 0.7874015748031497,
          "duration": 0.0568181250000066
        },
        {
          "name": "C5",
          "midi": 72,
          "time": 90.90900000000066,
          "velocity": 0.7874015748031497,
          "duration": 0.0568181250000066
        },
        {
          "name": "D5",
          "midi": 74,
          "time": 91.36354500000067,
          "velocity": 0.7874015748031497,
          "duration": 0.0568181250000066
        },
        {
          "name": "E5",
          "midi": 76,
          "time": 91.81809000000068,
          "velocity": 0.7874015748031497,
          "duration": 0.0568181250000066
        },
        {
          "name": "C5",
          "midi": 72,
          "time": 92.27263500000069,
          "velocity": 0.7874015748031497,
          "duration": 0.0568181250000066
        },
        {
          "name": "E5",
          "midi": 76,
          "time": 92.4999075000007,
          "velocity": 0.7874015748031497,
          "duration": 0.0568181250000066
        },
        {
          "name": "F5",
          "midi": 77,
          "time": 92.61354375000072,
          "velocity": 0.7874015748031497,
          "duration": 0.0568181250000066
        },
        {
          "name": "D#5",
          "midi": 75,
          "time": 92.72718000000073,
          "velocity": 0.7874015748031497,
          "duration": 0.0568181250000066
        },
        {
          "name": "F5",
          "midi": 77,
          "time": 92.84081625000074,
          "velocity": 0.7874015748031497,
          "duration": 0.0568181250000066
        },
        {
          "name": "C5",
          "midi": 72,
          "time": 93.40899750000075,
          "velocity": 0.7795275590551181,
          "duration": 0.0568181250000066
        },
        {
          "name": "C5",
          "midi": 72,
          "time": 93.63627000000076,
          "velocity": 0.7795275590551181,
          "duration": 0.0568181250000066
        },
        {
          "name": "E5",
          "midi": 76,
          "time": 93.63627000000076,
          "velocity": 0.7795275590551181,
          "duration": 0.0568181250000066
        },
        {
          "name": "D5",
          "midi": 74,
          "time": 93.86354250000078,
          "velocity": 0.7795275590551181,
          "duration": 0.0568181250000066
        },
        {
          "name": "F5",
          "midi": 77,
          "time": 93.86354250000078,
          "velocity": 0.7795275590551181,
          "duration": 0.0568181250000066
        },
        {
          "name": "C5",
          "midi": 72,
          "time": 94.54536000000078,
          "velocity": 0.7874015748031497,
          "duration": 0.0568181250000066
        },
        {
          "name": "E5",
          "midi": 76,
          "time": 94.54536000000078,
          "velocity": 0.7795275590551181,
          "duration": 0.0568181250000066
        },
        {
          "name": "F5",
          "midi": 77,
          "time": 95.90899500000079,
          "velocity": 0.7795275590551181,
          "duration": 0.0568181250000066
        },
        {
          "name": "D5",
          "midi": 74,
          "time": 96.3635400000008,
          "velocity": 0.7795275590551181,
          "duration": 0.0568181250000066
        },
        {
          "name": "F5",
          "midi": 77,
          "time": 96.3635400000008,
          "velocity": 0.7795275590551181,
          "duration": 0.0568181250000066
        },
        {
          "name": "F5",
          "midi": 77,
          "time": 97.0453575000008,
          "velocity": 0.7795275590551181,
          "duration": 0.0568181250000066
        },
        {
          "name": "E5",
          "midi": 76,
          "time": 97.15899375000082,
          "velocity": 0.7795275590551181,
          "duration": 0.0568181250000066
        },
        {
          "name": "F5",
          "midi": 77,
          "time": 97.27263000000083,
          "velocity": 0.7795275590551181,
          "duration": 0.0568181250000066
        },
        {
          "name": "E5",
          "midi": 76,
          "time": 97.49990250000084,
          "velocity": 0.7795275590551181,
          "duration": 0.0568181250000066
        },
        {
          "name": "D5",
          "midi": 74,
          "time": 97.72717500000086,
          "velocity": 0.7795275590551181,
          "duration": 0.0568181250000066
        },
        {
          "name": "F5",
          "midi": 77,
          "time": 97.95444750000087,
          "velocity": 0.7795275590551181,
          "duration": 0.0568181250000066
        },
        {
          "name": "C5",
          "midi": 72,
          "time": 98.18172000000088,
          "velocity": 0.7874015748031497,
          "duration": 0.0568181250000066
        },
        {
          "name": "F5",
          "midi": 77,
          "time": 98.18172000000088,
          "velocity": 0.7795275590551181,
          "duration": 0.0568181250000066
        },
        {
          "name": "F5",
          "midi": 77,
          "time": 99.54535500000088,
          "velocity": 0.7795275590551181,
          "duration": 0.0568181250000066
        },
        {
          "name": "D5",
          "midi": 74,
          "time": 99.99990000000089,
          "velocity": 0.7795275590551181,
          "duration": 0.0568181250000066
        },
        {
          "name": "E5",
          "midi": 76,
          "time": 99.99990000000089,
          "velocity": 0.7795275590551181,
          "duration": 0.0568181250000066
        },
        {
          "name": "C5",
          "midi": 72,
          "time": 100.6817175000009,
          "velocity": 0.7795275590551181,
          "duration": 0.0568181250000066
        },
        {
          "name": "D5",
          "midi": 74,
          "time": 100.79535375000091,
          "velocity": 0.7795275590551181,
          "duration": 0.0568181250000066
        },
        {
          "name": "E5",
          "midi": 76,
          "time": 100.90899000000093,
          "velocity": 0.7795275590551181,
          "duration": 0.0568181250000066
        },
        {
          "name": "C5",
          "midi": 72,
          "time": 101.13626250000094,
          "velocity": 0.7795275590551181,
          "duration": 0.0568181250000066
        },
        {
          "name": "F5",
          "midi": 77,
          "time": 101.36353500000095,
          "velocity": 0.7795275590551181,
          "duration": 0.0568181250000066
        },
        {
          "name": "D5",
          "midi": 74,
          "time": 101.59080750000096,
          "velocity": 0.7795275590551181,
          "duration": 0.0568181250000066
        },
        {
          "name": "C5",
          "midi": 72,
          "time": 101.81808000000098,
          "velocity": 0.7874015748031497,
          "duration": 0.0568181250000066
        },
        {
          "name": "E5",
          "midi": 76,
          "time": 101.81808000000098,
          "velocity": 0.7795275590551181,
          "duration": 0.0568181250000066
        },
        {
          "name": "F5",
          "midi": 77,
          "time": 103.18171500000098,
          "velocity": 0.7795275590551181,
          "duration": 0.0568181250000066
        },
        {
          "name": "D5",
          "midi": 74,
          "time": 103.63626000000099,
          "velocity": 0.7795275590551181,
          "duration": 0.0568181250000066
        },
        {
          "name": "F5",
          "midi": 77,
          "time": 103.63626000000099,
          "velocity": 0.7795275590551181,
          "duration": 0.0568181250000066
        },
        {
          "name": "F5",
          "midi": 77,
          "time": 104.318077500001,
          "velocity": 0.7795275590551181,
          "duration": 0.0568181250000066
        },
        {
          "name": "E5",
          "midi": 76,
          "time": 104.43171375000101,
          "velocity": 0.7795275590551181,
          "duration": 0.0568181250000066
        },
        {
          "name": "F5",
          "midi": 77,
          "time": 104.54535000000102,
          "velocity": 0.7795275590551181,
          "duration": 0.0568181250000066
        },
        {
          "name": "E5",
          "midi": 76,
          "time": 104.77262250000103,
          "velocity": 0.7795275590551181,
          "duration": 0.0568181250000066
        },
        {
          "name": "D5",
          "midi": 74,
          "time": 104.99989500000105,
          "velocity": 0.7795275590551181,
          "duration": 0.0568181250000066
        },
        {
          "name": "F5",
          "midi": 77,
          "time": 105.22716750000106,
          "velocity": 0.7795275590551181,
          "duration": 0.0568181250000066
        },
        {
          "name": "C5",
          "midi": 72,
          "time": 105.45444000000107,
          "velocity": 0.7874015748031497,
          "duration": 0.0568181250000066
        },
        {
          "name": "F5",
          "midi": 77,
          "time": 105.45444000000107,
          "velocity": 0.7795275590551181,
          "duration": 0.0568181250000066
        },
        {
          "name": "F5",
          "midi": 77,
          "time": 106.81807500000107,
          "velocity": 0.7795275590551181,
          "duration": 0.0568181250000066
        },
        {
          "name": "D5",
          "midi": 74,
          "time": 107.27262000000108,
          "velocity": 0.7795275590551181,
          "duration": 0.0568181250000066
        },
        {
          "name": "E5",
          "midi": 76,
          "time": 107.27262000000108,
          "velocity": 0.7795275590551181,
          "duration": 0.0568181250000066
        },
        {
          "name": "C5",
          "midi": 72,
          "time": 107.95443750000109,
          "velocity": 0.7795275590551181,
          "duration": 0.0568181250000066
        },
        {
          "name": "D5",
          "midi": 74,
          "time": 108.0680737500011,
          "velocity": 0.7795275590551181,
          "duration": 0.0568181250000066
        },
        {
          "name": "E5",
          "midi": 76,
          "time": 108.18171000000112,
          "velocity": 0.7795275590551181,
          "duration": 0.0568181250000066
        },
        {
          "name": "C5",
          "midi": 72,
          "time": 108.40898250000113,
          "velocity": 0.7795275590551181,
          "duration": 0.0568181250000066
        },
        {
          "name": "F5",
          "midi": 77,
          "time": 108.63625500000114,
          "velocity": 0.7795275590551181,
          "duration": 0.0568181250000066
        },
        {
          "name": "D5",
          "midi": 74,
          "time": 108.86352750000115,
          "velocity": 0.7795275590551181,
          "duration": 0.0568181250000066
        },
        {
          "name": "C5",
          "midi": 72,
          "time": 123.63624000000117,
          "velocity": 0.7874015748031497,
          "duration": 0.0568181250000066
        },
        {
          "name": "D5",
          "midi": 74,
          "time": 123.86351250000118,
          "velocity": 0.7874015748031497,
          "duration": 0.0568181250000066
        },
        {
          "name": "E5",
          "midi": 76,
          "time": 124.09078500000119,
          "velocity": 0.7874015748031497,
          "duration": 0.0568181250000066
        },
        {
          "name": "D5",
          "midi": 74,
          "time": 124.3180575000012,
          "velocity": 0.7874015748031497,
          "duration": 0.0568181250000066
        },
        {
          "name": "F5",
          "midi": 77,
          "time": 124.54533000000121,
          "velocity": 0.7874015748031497,
          "duration": 0.0568181250000066
        },
        {
          "name": "E5",
          "midi": 76,
          "time": 124.77260250000123,
          "velocity": 0.7874015748031497,
          "duration": 0.0568181250000066
        },
        {
          "name": "D5",
          "midi": 74,
          "time": 124.99987500000124,
          "velocity": 0.7874015748031497,
          "duration": 0.0568181250000066
        },
        {
          "name": "C5",
          "midi": 72,
          "time": 125.22714750000125,
          "velocity": 0.7874015748031497,
          "duration": 0.0568181250000066
        },
        {
          "name": "F5",
          "midi": 77,
          "time": 125.45442000000126,
          "velocity": 0.7874015748031497,
          "duration": 0.0568181250000066
        },
        {
          "name": "E5",
          "midi": 76,
          "time": 125.68169250000128,
          "velocity": 0.7874015748031497,
          "duration": 0.0568181250000066
        },
        {
          "name": "D5",
          "midi": 74,
          "time": 125.90896500000129,
          "velocity": 0.7874015748031497,
          "duration": 0.0568181250000066
        },
        {
          "name": "F5",
          "midi": 77,
          "time": 126.1362375000013,
          "velocity": 0.7874015748031497,
          "duration": 0.0568181250000066
        },
        {
          "name": "D5",
          "midi": 74,
          "time": 126.36351000000131,
          "velocity": 0.7874015748031497,
          "duration": 0.0568181250000066
        },
        {
          "name": "F5",
          "midi": 77,
          "time": 127.27260000000132,
          "velocity": 0.7874015748031497,
          "duration": 0.0568181250000066
        },
        {
          "name": "D5",
          "midi": 74,
          "time": 127.49987250000133,
          "velocity": 0.7874015748031497,
          "duration": 0.0568181250000066
        },
        {
          "name": "E5",
          "midi": 76,
          "time": 127.72714500000134,
          "velocity": 0.7874015748031497,
          "duration": 0.0568181250000066
        },
        {
          "name": "C5",
          "midi": 72,
          "time": 127.95441750000136,
          "velocity": 0.7874015748031497,
          "duration": 0.05681812499999239
        },
        {
          "name": "D5",
          "midi": 74,
          "time": 128.06805375000135,
          "velocity": 0.7874015748031497,
          "duration": 0.0568181250000066
        },
        {
          "name": "E5",
          "midi": 76,
          "time": 128.18169000000137,
          "velocity": 0.7874015748031497,
          "duration": 0.0568181250000066
        },
        {
          "name": "D5",
          "midi": 74,
          "time": 128.40896250000137,
          "velocity": 0.7874015748031497,
          "duration": 0.0568181250000066
        },
        {
          "name": "C5",
          "midi": 72,
          "time": 128.52259875000138,
          "velocity": 0.7874015748031497,
          "duration": 0.0568181250000066
        },
        {
          "name": "D5",
          "midi": 74,
          "time": 128.6362350000014,
          "velocity": 0.7874015748031497,
          "duration": 0.0568181250000066
        },
        {
          "name": "E5",
          "midi": 76,
          "time": 128.7498712500014,
          "velocity": 0.7874015748031497,
          "duration": 0.0568181250000066
        },
        {
          "name": "F5",
          "midi": 77,
          "time": 128.86350750000142,
          "velocity": 0.7874015748031497,
          "duration": 0.0568181250000066
        },
        {
          "name": "E5",
          "midi": 76,
          "time": 129.09078000000142,
          "velocity": 0.7874015748031497,
          "duration": 0.0568181250000066
        },
        {
          "name": "D5",
          "midi": 74,
          "time": 129.20441625000143,
          "velocity": 0.7874015748031497,
          "duration": 0.0568181250000066
        },
        {
          "name": "C5",
          "midi": 72,
          "time": 129.31805250000144,
          "velocity": 0.7874015748031497,
          "duration": 0.0568181250000066
        },
        {
          "name": "F5",
          "midi": 77,
          "time": 129.43168875000146,
          "velocity": 0.7874015748031497,
          "duration": 0.0568181250000066
        },
        {
          "name": "D5",
          "midi": 74,
          "time": 129.54532500000147,
          "velocity": 0.7874015748031497,
          "duration": 0.0568181250000066
        },
        {
          "name": "E5",
          "midi": 76,
          "time": 129.77259750000147,
          "velocity": 0.7874015748031497,
          "duration": 0.0568181250000066
        },
        {
          "name": "D5",
          "midi": 74,
          "time": 129.99987000000147,
          "velocity": 0.9448818897637795,
          "duration": 0.0568181250000066
        },
        {
          "name": "D5",
          "midi": 74,
          "time": 130.30290000000147,
          "velocity": 0.9448818897637795,
          "duration": 0.0568181250000066
        },
        {
          "name": "E5",
          "midi": 76,
          "time": 130.30290000000147,
          "velocity": 0.7795275590551181,
          "duration": 0.0568181250000066
        },
        {
          "name": "D5",
          "midi": 74,
          "time": 130.61066484375147,
          "velocity": 0.9448818897637795,
          "duration": 0.0568181250000066
        },
        {
          "name": "F5",
          "midi": 77,
          "time": 130.61066484375147,
          "velocity": 0.7795275590551181,
          "duration": 0.0568181250000066
        },
        {
          "name": "C5",
          "midi": 72,
          "time": 130.90896000000149,
          "velocity": 0.7874015748031497,
          "duration": 0.0568181250000066
        },
        {
          "name": "D5",
          "midi": 74,
          "time": 131.13623250000148,
          "velocity": 0.7874015748031497,
          "duration": 0.0568181250000066
        },
        {
          "name": "C5",
          "midi": 72,
          "time": 131.36350500000148,
          "velocity": 0.7874015748031497,
          "duration": 0.0568181250000066
        },
        {
          "name": "E5",
          "midi": 76,
          "time": 131.36350500000148,
          "velocity": 0.7874015748031497,
          "duration": 0.0568181250000066
        },
        {
          "name": "D5",
          "midi": 74,
          "time": 131.59077750000148,
          "velocity": 0.7874015748031497,
          "duration": 0.0568181250000066
        },
        {
          "name": "F5",
          "midi": 77,
          "time": 131.81805000000148,
          "velocity": 0.7874015748031497,
          "duration": 0.0568181250000066
        },
        {
          "name": "E5",
          "midi": 76,
          "time": 132.04532250000148,
          "velocity": 0.7874015748031497,
          "duration": 0.0568181250000066
        },
        {
          "name": "D5",
          "midi": 74,
          "time": 132.27259500000147,
          "velocity": 0.7874015748031497,
          "duration": 0.0568181250000066
        },
        {
          "name": "E5",
          "midi": 76,
          "time": 132.27259500000147,
          "velocity": 0.7874015748031497,
          "duration": 0.0568181250000066
        },
        {
          "name": "C5",
          "midi": 72,
          "time": 132.49986750000147,
          "velocity": 0.7874015748031497,
          "duration": 0.0568181250000066
        },
        {
          "name": "F5",
          "midi": 77,
          "time": 132.72714000000147,
          "velocity": 0.7874015748031497,
          "duration": 0.0568181250000066
        },
        {
          "name": "E5",
          "midi": 76,
          "time": 132.95441250000147,
          "velocity": 0.7874015748031497,
          "duration": 0.0568181250000066
        },
        {
          "name": "D5",
          "midi": 74,
          "time": 133.18168500000147,
          "velocity": 0.7874015748031497,
          "duration": 0.0568181250000066
        },
        {
          "name": "E5",
          "midi": 76,
          "time": 133.40895750000146,
          "velocity": 0.7874015748031497,
          "duration": 0.0568181250000066
        },
        {
          "name": "C5",
          "midi": 72,
          "time": 133.63623000000146,
          "velocity": 0.7795275590551181,
          "duration": 0.0568181250000066
        },
        {
          "name": "D5",
          "midi": 74,
          "time": 133.63623000000146,
          "velocity": 0.7874015748031497,
          "duration": 0.0568181250000066
        },
        {
          "name": "E5",
          "midi": 76,
          "time": 134.03395687500148,
          "velocity": 0.7795275590551181,
          "duration": 0.0568181250000066
        },
        {
          "name": "D5",
          "midi": 74,
          "time": 134.09077500000149,
          "velocity": 0.7795275590551181,
          "duration": 0.0568181250000066
        },
        {
          "name": "E5",
          "midi": 76,
          "time": 134.31804750000148,
          "velocity": 0.7795275590551181,
          "duration": 0.0568181250000066
        },
        {
          "name": "F5",
          "midi": 77,
          "time": 134.54532000000148,
          "velocity": 0.7874015748031497,
          "duration": 0.0568181250000066
        },
        {
          "name": "D5",
          "midi": 74,
          "time": 134.77259250000148,
          "velocity": 0.7874015748031497,
          "duration": 0.0568181250000066
        },
        {
          "name": "C5",
          "midi": 72,
          "time": 134.99986500000148,
          "velocity": 0.7795275590551181,
          "duration": 0.0568181250000066
        },
        {
          "name": "E5",
          "midi": 76,
          "time": 134.99986500000148,
          "velocity": 0.7874015748031497,
          "duration": 0.0568181250000066
        },
        {
          "name": "C5",
          "midi": 72,
          "time": 135.22713750000148,
          "velocity": 0.7874015748031497,
          "duration": 0.0568181250000066
        },
        {
          "name": "D5",
          "midi": 74,
          "time": 135.3407737500015,
          "velocity": 0.7874015748031497,
          "duration": 0.0568181250000066
        },
        {
          "name": "E5",
          "midi": 76,
          "time": 135.4544100000015,
          "velocity": 0.7874015748031497,
          "duration": 0.0568181250000066
        },
        {
          "name": "D5",
          "midi": 74,
          "time": 135.6816825000015,
          "velocity": 0.7874015748031497,
          "duration": 0.0568181250000066
        },
        {
          "name": "C5",
          "midi": 72,
          "time": 135.7953187500015,
          "velocity": 0.7874015748031497,
          "duration": 0.0568181250000066
        },
        {
          "name": "D5",
          "midi": 74,
          "time": 135.90895500000153,
          "velocity": 0.7874015748031497,
          "duration": 0.0568181250000066
        },
        {
          "name": "E5",
          "midi": 76,
          "time": 136.02259125000154,
          "velocity": 0.7874015748031497,
          "duration": 0.0568181250000066
        },
        {
          "name": "F5",
          "midi": 77,
          "time": 136.13622750000155,
          "velocity": 0.7874015748031497,
          "duration": 0.0568181250000066
        },
        {
          "name": "E5",
          "midi": 76,
          "time": 136.36350000000155,
          "velocity": 0.7874015748031497,
          "duration": 0.0568181250000066
        },
        {
          "name": "D5",
          "midi": 74,
          "time": 136.47713625000156,
          "velocity": 0.7874015748031497,
          "duration": 0.0568181250000066
        },
        {
          "name": "C5",
          "midi": 72,
          "time": 136.59077250000158,
          "velocity": 0.7874015748031497,
          "duration": 0.0568181250000066
        },
        {
          "name": "F5",
          "midi": 77,
          "time": 136.7044087500016,
          "velocity": 0.7874015748031497,
          "duration": 0.0568181250000066
        },
        {
          "name": "D5",
          "midi": 74,
          "time": 136.8180450000016,
          "velocity": 0.7874015748031497,
          "duration": 0.0568181250000066
        },
        {
          "name": "E5",
          "midi": 76,
          "time": 137.0453175000016,
          "velocity": 0.7874015748031497,
          "duration": 0.0568181250000066
        },
        {
          "name": "C5",
          "midi": 72,
          "time": 137.2725900000016,
          "velocity": 0.9448818897637795,
          "duration": 0.0568181250000066
        },
        {
          "name": "C5",
          "midi": 72,
          "time": 137.5756200000016,
          "velocity": 0.9448818897637795,
          "duration": 0.0568181250000066
        },
        {
          "name": "F5",
          "midi": 77,
          "time": 137.5756200000016,
          "velocity": 0.7795275590551181,
          "duration": 0.0568181250000066
        },
        {
          "name": "C5",
          "midi": 72,
          "time": 137.8833848437516,
          "velocity": 0.9448818897637795,
          "duration": 0.0568181250000066
        },
        {
          "name": "E5",
          "midi": 76,
          "time": 137.8833848437516,
          "velocity": 0.7795275590551181,
          "duration": 0.0568181250000066
        },
        {
          "name": "C5",
          "midi": 72,
          "time": 138.18168000000162,
          "velocity": 0.7874015748031497,
          "duration": 0.0568181250000066
        },
        {
          "name": "D5",
          "midi": 74,
          "time": 138.40895250000162,
          "velocity": 0.7874015748031497,
          "duration": 0.0568181250000066
        },
        {
          "name": "E5",
          "midi": 76,
          "time": 138.63622500000162,
          "velocity": 0.7874015748031497,
          "duration": 0.0568181250000066
        },
        {
          "name": "D5",
          "midi": 74,
          "time": 138.8634975000016,
          "velocity": 0.7874015748031497,
          "duration": 0.0568181250000066
        },
        {
          "name": "F5",
          "midi": 77,
          "time": 139.0907700000016,
          "velocity": 0.7874015748031497,
          "duration": 0.0568181250000066
        },
        {
          "name": "E5",
          "midi": 76,
          "time": 139.3180425000016,
          "velocity": 0.7874015748031497,
          "duration": 0.0568181250000066
        },
        {
          "name": "D5",
          "midi": 74,
          "time": 139.5453150000016,
          "velocity": 0.7874015748031497,
          "duration": 0.0568181250000066
        },
        {
          "name": "C5",
          "midi": 72,
          "time": 139.7725875000016,
          "velocity": 0.7874015748031497,
          "duration": 0.0568181250000066
        },
        {
          "name": "F5",
          "midi": 77,
          "time": 139.9998600000016,
          "velocity": 0.7874015748031497,
          "duration": 0.0568181250000066
        },
        {
          "name": "E5",
          "midi": 76,
          "time": 140.2271325000016,
          "velocity": 0.7874015748031497,
          "duration": 0.0568181250000066
        },
        {
          "name": "D5",
          "midi": 74,
          "time": 140.4544050000016,
          "velocity": 0.7874015748031497,
          "duration": 0.0568181250000066
        },
        {
          "name": "F5",
          "midi": 77,
          "time": 140.6816775000016,
          "velocity": 0.7874015748031497,
          "duration": 0.0568181250000066
        },
        {
          "name": "D5",
          "midi": 74,
          "time": 140.9089500000016,
          "velocity": 0.7874015748031497,
          "duration": 0.0568181250000066
        },
        {
          "name": "F5",
          "midi": 77,
          "time": 141.81804000000162,
          "velocity": 0.7874015748031497,
          "duration": 0.0568181250000066
        },
        {
          "name": "D5",
          "midi": 74,
          "time": 142.04531250000161,
          "velocity": 0.7874015748031497,
          "duration": 0.0568181250000066
        },
        {
          "name": "E5",
          "midi": 76,
          "time": 142.2725850000016,
          "velocity": 0.7874015748031497,
          "duration": 0.0568181250000066
        },
        {
          "name": "C5",
          "midi": 72,
          "time": 142.4998575000016,
          "velocity": 0.7874015748031497,
          "duration": 0.0568181250000066
        },
        {
          "name": "D5",
          "midi": 74,
          "time": 142.61349375000162,
          "velocity": 0.7874015748031497,
          "duration": 0.0568181250000066
        },
        {
          "name": "E5",
          "midi": 76,
          "time": 142.72713000000164,
          "velocity": 0.7874015748031497,
          "duration": 0.0568181250000066
        },
        {
          "name": "D5",
          "midi": 74,
          "time": 142.95440250000163,
          "velocity": 0.7874015748031497,
          "duration": 0.0568181250000066
        },
        {
          "name": "C5",
          "midi": 72,
          "time": 143.06803875000165,
          "velocity": 0.7874015748031497,
          "duration": 0.0568181250000066
        },
        {
          "name": "D5",
          "midi": 74,
          "time": 143.18167500000166,
          "velocity": 0.7874015748031497,
          "duration": 0.0568181250000066
        },
        {
          "name": "E5",
          "midi": 76,
          "time": 143.29531125000167,
          "velocity": 0.7874015748031497,
          "duration": 0.0568181250000066
        },
        {
          "name": "F5",
          "midi": 77,
          "time": 143.4089475000017,
          "velocity": 0.7874015748031497,
          "duration": 0.0568181250000066
        },
        {
          "name": "E5",
          "midi": 76,
          "time": 143.63622000000169,
          "velocity": 0.7874015748031497,
          "duration": 0.0568181250000066
        },
        {
          "name": "D5",
          "midi": 74,
          "time": 143.7498562500017,
          "velocity": 0.7874015748031497,
          "duration": 0.0568181250000066
        },
        {
          "name": "C5",
          "midi": 72,
          "time": 143.8634925000017,
          "velocity": 0.7874015748031497,
          "duration": 0.0568181250000066
        },
        {
          "name": "F5",
          "midi": 77,
          "time": 143.97712875000173,
          "velocity": 0.7874015748031497,
          "duration": 0.0568181250000066
        },
        {
          "name": "D5",
          "midi": 74,
          "time": 144.09076500000174,
          "velocity": 0.7874015748031497,
          "duration": 0.0568181250000066
        },
        {
          "name": "E5",
          "midi": 76,
          "time": 144.31803750000174,
          "velocity": 0.7874015748031497,
          "duration": 0.0568181250000066
        },
        {
          "name": "F5",
          "midi": 77,
          "time": 144.54531000000173,
          "velocity": 0.9448818897637795,
          "duration": 0.0568181250000066
        },
        {
          "name": "C5",
          "midi": 72,
          "time": 144.84834000000174,
          "velocity": 0.9448818897637795,
          "duration": 0.0568181250000066
        },
        {
          "name": "F5",
          "midi": 77,
          "time": 144.84834000000174,
          "velocity": 0.7795275590551181,
          "duration": 0.0568181250000066
        },
        {
          "name": "D5",
          "midi": 74,
          "time": 145.15610484375173,
          "velocity": 0.9448818897637795,
          "duration": 0.0568181250000066
        },
        {
          "name": "F5",
          "midi": 77,
          "time": 145.15610484375173,
          "velocity": 0.7795275590551181,
          "duration": 0.0568181250000066
        },
        {
          "name": "C5",
          "midi": 72,
          "time": 145.45440000000175,
          "velocity": 0.7874015748031497,
          "duration": 0.0568181250000066
        },
        {
          "name": "D5",
          "midi": 74,
          "time": 145.68167250000175,
          "velocity": 0.7874015748031497,
          "duration": 0.0568181250000066
        },
        {
          "name": "C5",
          "midi": 72,
          "time": 145.90894500000175,
          "velocity": 0.7874015748031497,
          "duration": 0.0568181250000066
        },
        {
          "name": "E5",
          "midi": 76,
          "time": 145.90894500000175,
          "velocity": 0.7874015748031497,
          "duration": 0.0568181250000066
        },
        {
          "name": "D5",
          "midi": 74,
          "time": 146.13621750000175,
          "velocity": 0.7874015748031497,
          "duration": 0.0568181250000066
        },
        {
          "name": "F5",
          "midi": 77,
          "time": 146.36349000000175,
          "velocity": 0.7874015748031497,
          "duration": 0.0568181250000066
        },
        {
          "name": "E5",
          "midi": 76,
          "time": 146.59076250000174,
          "velocity": 0.7874015748031497,
          "duration": 0.0568181250000066
        },
        {
          "name": "D5",
          "midi": 74,
          "time": 146.81803500000174,
          "velocity": 0.7874015748031497,
          "duration": 0.0568181250000066
        },
        {
          "name": "E5",
          "midi": 76,
          "time": 146.81803500000174,
          "velocity": 0.7874015748031497,
          "duration": 0.0568181250000066
        },
        {
          "name": "C5",
          "midi": 72,
          "time": 147.04530750000174,
          "velocity": 0.7874015748031497,
          "duration": 0.0568181250000066
        },
        {
          "name": "F5",
          "midi": 77,
          "time": 147.27258000000174,
          "velocity": 0.7874015748031497,
          "duration": 0.0568181250000066
        },
        {
          "name": "E5",
          "midi": 76,
          "time": 147.49985250000174,
          "velocity": 0.7874015748031497,
          "duration": 0.0568181250000066
        },
        {
          "name": "D5",
          "midi": 74,
          "time": 147.72712500000173,
          "velocity": 0.7874015748031497,
          "duration": 0.0568181250000066
        },
        {
          "name": "E5",
          "midi": 76,
          "time": 147.95439750000173,
          "velocity": 0.7874015748031497,
          "duration": 0.0568181250000066
        },
        {
          "name": "C5",
          "midi": 72,
          "time": 148.18167000000173,
          "velocity": 0.7795275590551181,
          "duration": 0.0568181250000066
        },
        {
          "name": "D5",
          "midi": 74,
          "time": 148.18167000000173,
          "velocity": 0.7874015748031497,
          "duration": 0.0568181250000066
        },
        {
          "name": "E5",
          "midi": 76,
          "time": 148.57939687500175,
          "velocity": 0.7795275590551181,
          "duration": 0.0568181250000066
        },
        {
          "name": "D5",
          "midi": 74,
          "time": 148.63621500000176,
          "velocity": 0.7795275590551181,
          "duration": 0.0568181250000066
        },
        {
          "name": "E5",
          "midi": 76,
          "time": 148.86348750000175,
          "velocity": 0.7795275590551181,
          "duration": 0.0568181250000066
        },
        {
          "name": "F5",
          "midi": 77,
          "time": 149.09076000000175,
          "velocity": 0.7874015748031497,
          "duration": 0.0568181250000066
        },
        {
          "name": "D5",
          "midi": 74,
          "time": 149.31803250000175,
          "velocity": 0.7874015748031497,
          "duration": 0.0568181250000066
        },
        {
          "name": "C5",
          "midi": 72,
          "time": 149.54530500000175,
          "velocity": 0.7795275590551181,
          "duration": 0.0568181250000066
        },
        {
          "name": "E5",
          "midi": 76,
          "time": 149.54530500000175,
          "velocity": 0.7874015748031497,
          "duration": 0.0568181250000066
        },
        {
          "name": "C5",
          "midi": 72,
          "time": 149.77257750000174,
          "velocity": 0.7874015748031497,
          "duration": 0.0568181250000066
        },
        {
          "name": "D5",
          "midi": 74,
          "time": 149.88621375000176,
          "velocity": 0.7874015748031497,
          "duration": 0.0568181250000066
        },
        {
          "name": "E5",
          "midi": 76,
          "time": 149.99985000000177,
          "velocity": 0.7874015748031497,
          "duration": 0.0568181250000066
        },
        {
          "name": "D5",
          "midi": 74,
          "time": 150.22712250000177,
          "velocity": 0.7874015748031497,
          "duration": 0.0568181250000066
        },
        {
          "name": "C5",
          "midi": 72,
          "time": 150.34075875000178,
          "velocity": 0.7874015748031497,
          "duration": 0.0568181250000066
        },
        {
          "name": "D5",
          "midi": 74,
          "time": 150.4543950000018,
          "velocity": 0.7874015748031497,
          "duration": 0.0568181250000066
        },
        {
          "name": "E5",
          "midi": 76,
          "time": 150.5680312500018,
          "velocity": 0.7874015748031497,
          "duration": 0.0568181250000066
        },
        {
          "name": "F5",
          "midi": 77,
          "time": 150.68166750000182,
          "velocity": 0.7874015748031497,
          "duration": 0.0568181250000066
        },
        {
          "name": "E5",
          "midi": 76,
          "time": 150.90894000000182,
          "velocity": 0.7874015748031497,
          "duration": 0.0568181250000066
        },
        {
          "name": "D5",
          "midi": 74,
          "time": 151.02257625000183,
          "velocity": 0.7874015748031497,
          "duration": 0.0568181250000066
        },
        {
          "name": "C5",
          "midi": 72,
          "time": 151.13621250000185,
          "velocity": 0.7874015748031497,
          "duration": 0.0568181250000066
        },
        {
          "name": "F5",
          "midi": 77,
          "time": 151.24984875000186,
          "velocity": 0.7874015748031497,
          "duration": 0.0568181250000066
        },
        {
          "name": "D5",
          "midi": 74,
          "time": 151.36348500000187,
          "velocity": 0.7874015748031497,
          "duration": 0.0568181250000066
        },
        {
          "name": "E5",
          "midi": 76,
          "time": 151.59075750000187,
          "velocity": 0.7874015748031497,
          "duration": 0.0568181250000066
        },
        {
          "name": "E5",
          "midi": 76,
          "time": 151.81803000000187,
          "velocity": 0.9448818897637795,
          "duration": 0.0568181250000066
        },
        {
          "name": "E5",
          "midi": 76,
          "time": 152.12106000000188,
          "velocity": 0.9448818897637795,
          "duration": 0.0568181250000066
        },
        {
          "name": "F5",
          "midi": 77,
          "time": 152.12106000000188,
          "velocity": 0.7795275590551181,
          "duration": 0.0568181250000066
        },
        {
          "name": "D5",
          "midi": 74,
          "time": 152.42882484375187,
          "velocity": 0.9448818897637795,
          "duration": 0.0568181250000066
        },
        {
          "name": "E5",
          "midi": 76,
          "time": 152.42882484375187,
          "velocity": 0.7795275590551181,
          "duration": 0.0568181250000066
        },
        {
          "name": "C5",
          "midi": 72,
          "time": 152.7271200000019,
          "velocity": 0.7874015748031497,
          "duration": 0.0568181250000066
        },
        {
          "name": "E5",
          "midi": 76,
          "time": 152.7271200000019,
          "velocity": 0.7874015748031497,
          "duration": 0.0568181250000066
        }
      ]
}