{
      "notes": [
        {
          "name": "C5",
          "midi": 72,
          "time": 5.68048,
          "velocity": 0.6299212598425197,
          "duration": 0.04437874999999991
        },
        {
          "name": "C5",
          "midi": 72,
          "time": 6.74557,
          "velocity": 0.6299212598425197,
          "duration": 0.04437874999999991
        },
        {
          "name": "D5",
          "midi": 74,
          "time": 6.9230849999999995,
          "velocity": 0.6299212598425197,
          "duration": 0.04437874999999991
        },
        {
          "name": "E5",
          "midi": 76,
          "time": 7.100599999999999,
          "velocity": 0.6299212598425197,
          "duration": 0.040680520833332956
        },
        {
          "name": "F5",
          "midi": 77,
          "time": 7.455629999999998,
          "velocity": 0.6299212598425197,
          "duration": 0.04437874999999991
        },
        {
          "name": "E5",
          "midi": 76,
          "time": 7.633144999999998,
          "velocity": 0.6299212598425197,
          "duration": 0.04437874999999991
        },
        {
          "name": "D5",
          "midi": 74,
          "time": 7.810659999999998,
          "velocity": 0.6299212598425197,
          "duration": 0.04437874999999991
        },
        {
          "name": "F5",
          "midi": 77,
          "time": 8.165689999999998,
          "velocity": 0.6299212598425197,
          "duration": 0.04437874999999991
        },
        {
          "name": "C5",
          "midi": 72,
          "time": 8.520719999999997,
          "velocity": 0.6299212598425197,
          "duration": 0.04437874999999991
        },
        {
          "name": "E5",
          "midi": 76,
          "time": 9.585809999999997,
          "velocity": 0.6299212598425197,
          "duration": 0.04437874999999991
        },
        {
          "name": "D5",
          "midi": 74,
          "time": 9.940839999999996,
          "velocity": 0.6299212598425197,
          "duration": 0.04437874999999991
        },
        {
          "name": "F5",
          "midi": 77,
          "time": 10.650899999999996,
          "velocity": 0.6299212598425197,
          "duration": 0.04437874999999991
        },
        {
          "name": "E5",
          "midi": 76,
          "time": 10.828414999999996,
          "velocity": 0.6299212598425197,
          "duration": 0.04437874999999991
        },
        {
          "name": "C5",
          "midi": 72,
          "time": 11.183444999999995,
          "velocity": 0.6299212598425197,
          "duration": 0.04437874999999991
        },
        {
          "name": "F5",
          "midi": 77,
          "time": 11.272202499999995,
          "velocity": 0.6299212598425197,
          "duration": 0.04437874999999991
        },
        {
          "name": "C5",
          "midi": 72,
          "time": 11.360959999999995,
          "velocity": 0.6299212598425197,
          "duration": 0.04437874999999991
        },
        {
          "name": "C5",
          "midi": 72,
          "time": 12.426049999999995,
          "velocity": 0.6299212598425197,
          "duration": 0.04437874999999991
        },
        {
          "name": "D5",
          "midi": 74,
          "time": 12.603564999999994,
          "velocity": 0.6299212598425197,
          "duration": 0.04437874999999991
        },
        {
          "name": "E5",
          "midi": 76,
          "time": 12.781079999999994,
          "velocity": 0.6299212598425197,
          "duration": 0.040680520833333844
        },
        {
          "name": "F5",
          "midi": 77,
          "time": 13.136109999999995,
          "velocity": 0.6299212598425197,
          "duration": 0.04437874999999991
        },
        {
          "name": "E5",
          "midi": 76,
          "time": 13.313624999999995,
          "velocity": 0.6299212598425197,
          "duration": 0.04437874999999991
        },
        {
          "name": "D5",
          "midi": 74,
          "time": 13.491139999999994,
          "velocity": 0.6299212598425197,
          "duration": 0.04437874999999991
        },
        {
          "name": "F5",
          "midi": 77,
          "time": 13.846169999999994,
          "velocity": 0.6299212598425197,
          "duration": 0.04437874999999991
        },
        {
          "name": "E5",
          "midi": 76,
          "time": 14.201199999999993,
          "velocity": 0.6299212598425197,
          "duration": 0.04437874999999991
        },
        {
          "name": "D5",
          "midi": 74,
          "time": 15.266289999999993,
          "velocity": 0.6299212598425197,
          "duration": 0.04437874999999991
        },
        {
          "name": "C5",
          "midi": 72,
          "time": 15.621319999999992,
          "velocity": 0.6299212598425197,
          "duration": 0.04437874999999991
        },
        {
          "name": "E5",
          "midi": 76,
          "time": 15.976349999999991,
          "velocity": 0.6299212598425197,
          "duration": 0.04437875000000169
        },
        {
          "name": "D5",
          "midi": 74,
          "time": 16.331379999999992,
          "velocity": 0.6299212598425197,
          "duration": 0.04437874999999991
        },
        {
          "name": "F5",
          "midi": 77,
          "time": 16.68640999999999,
          "velocity": 0.6299212598425197,
          "duration": 0.04437874999999991
        },
        {
          "name": "C5",
          "midi": 72,
          "time": 17.04143999999999,
          "velocity": 0.6299212598425197,
          "duration": 0.04437874999999991
        },
        {
          "name": "F5",
          "midi": 77,
          "time": 17.04143999999999,
          "velocity": 0.7716535433070866,
          "duration": 0.04437874999999991
        },
        {
          "name": "F5",
          "midi": 77,
          "time": 17.39646999999999,
          "velocity": 0.7874015748031497,
          "duration": 0.04437874999999991
        },
        {
          "name": "F5",
          "midi": 77,
          "time": 17.75149999999999,
          "velocity": 0.7874015748031497,
          "duration": 0.04437874999999991
        },
        {
          "name": "C5",
          "midi": 72,
          "time": 18.10652999999999,
          "velocity": 0.6299212598425197,
          "duration": 0.04437874999999991
        },
        {
          "name": "D5",
          "midi": 74,
          "time": 18.28404499999999,
          "velocity": 0.6299212598425197,
          "duration": 0.04437874999999991
        },
        {
          "name": "E5",
          "midi": 76,
          "time": 18.461559999999988,
          "velocity": 0.6299212598425197,
          "duration": 0.040680520833333844
        },
        {
          "name": "F5",
          "midi": 77,
          "time": 18.816589999999987,
          "velocity": 0.6299212598425197,
          "duration": 0.04437874999999991
        },
        {
          "name": "E5",
          "midi": 76,
          "time": 18.994104999999987,
          "velocity": 0.6299212598425197,
          "duration": 0.04437874999999991
        },
        {
          "name": "D5",
          "midi": 74,
          "time": 19.171619999999987,
          "velocity": 0.6299212598425197,
          "duration": 0.04437874999999991
        },
        {
          "name": "F5",
          "midi": 77,
          "time": 19.526649999999986,
          "velocity": 0.6299212598425197,
          "duration": 0.04437874999999991
        },
        {
          "name": "C5",
          "midi": 72,
          "time": 19.881679999999985,
          "velocity": 0.6299212598425197,
          "duration": 0.04437874999999991
        },
        {
          "name": "F5",
          "midi": 77,
          "time": 19.881679999999985,
          "velocity": 0.7716535433070866,
          "duration": 0.04437874999999991
        },
        {
          "name": "F5",
          "midi": 77,
          "time": 20.236709999999984,
          "velocity": 0.7874015748031497,
          "duration": 0.04437874999999991
        },
        {
          "name": "F5",
          "midi": 77,
          "time": 20.591739999999984,
          "velocity": 0.7874015748031497,
          "duration": 0.04437874999999991
        },
        {
          "name": "C5",
          "midi": 72,
          "time": 20.946769999999983,
          "velocity": 0.7716535433070866,
          "duration": 0.04437874999999991
        },
        {
          "name": "E5",
          "midi": 76,
          "time": 20.946769999999983,
          "velocity": 0.6299212598425197,
          "duration": 0.04437874999999991
        },
        {
          "name": "D5",
          "midi": 74,
          "time": 21.301799999999982,
          "velocity": 0.6299212598425197,
          "duration": 0.04437874999999991
        },
        {
          "name": "D5",
          "midi": 74,
          "time": 21.65682999999998,
          "velocity": 0.7874015748031497,
          "duration": 0.04437874999999991
        },
        {
          "name": "F5",
          "midi": 77,
          "time": 22.01185999999998,
          "velocity": 0.6299212598425197,
          "duration": 0.04437874999999991
        },
        {
          "name": "E5",
          "midi": 76,
          "time": 22.18937499999998,
          "velocity": 0.6299212598425197,
          "duration": 0.04437874999999991
        },
        {
          "name": "C5",
          "midi": 72,
          "time": 22.54440499999998,
          "velocity": 0.6299212598425197,
          "duration": 0.04437874999999991
        },
        {
          "name": "F5",
          "midi": 77,
          "time": 22.63316249999998,
          "velocity": 0.6299212598425197,
          "duration": 0.04437874999999991
        },
        {
          "name": "C5",
          "midi": 72,
          "time": 22.72191999999998,
          "velocity": 0.6299212598425197,
          "duration": 0.04437874999999991
        },
        {
          "name": "E5",
          "midi": 76,
          "time": 22.72191999999998,
          "velocity": 0.7716535433070866,
          "duration": 0.04437874999999991
        },
        {
          "name": "E5",
          "midi": 76,
          "time": 23.07694999999998,
          "velocity": 0.7874015748031497,
          "duration": 0.04437874999999991
        },
        {
          "name": "E5",
          "midi": 76,
          "time": 23.431979999999978,
          "velocity": 0.7874015748031497,
          "duration": 0.04437874999999991
        },
        {
          "name": "C5",
          "midi": 72,
          "time": 23.787009999999977,
          "velocity": 0.6299212598425197,
          "duration": 0.04437874999999991
        },
        {
          "name": "D5",
          "midi": 74,
          "time": 23.964524999999977,
          "velocity": 0.6299212598425197,
          "duration": 0.04437874999999991
        },
        {
          "name": "E5",
          "midi": 76,
          "time": 24.142039999999977,
          "velocity": 0.6299212598425197,
          "duration": 0.040680520833333844
        },
        {
          "name": "F5",
          "midi": 77,
          "time": 24.497069999999976,
          "velocity": 0.6299212598425197,
          "duration": 0.04437874999999991
        },
        {
          "name": "E5",
          "midi": 76,
          "time": 24.674584999999976,
          "velocity": 0.6299212598425197,
          "duration": 0.04437874999999991
        },
        {
          "name": "D5",
          "midi": 74,
          "time": 24.852099999999975,
          "velocity": 0.6299212598425197,
          "duration": 0.04437874999999991
        },
        {
          "name": "F5",
          "midi": 77,
          "time": 25.207129999999975,
          "velocity": 0.6299212598425197,
          "duration": 0.04437874999999991
        },
        {
          "name": "D5",
          "midi": 74,
          "time": 25.562159999999974,
          "velocity": 0.7716535433070866,
          "duration": 0.03698229166666778
        },
        {
          "name": "E5",
          "midi": 76,
          "time": 25.562159999999974,
          "velocity": 0.6299212598425197,
          "duration": 0.04437874999999991
        },
        {
          "name": "E5",
          "midi": 76,
          "time": 25.917189999999973,
          "velocity": 0.7874015748031497,
          "duration": 0.04437874999999991
        },
        {
          "name": "E5",
          "midi": 76,
          "time": 26.272219999999972,
          "velocity": 0.7874015748031497,
          "duration": 0.04437874999999991
        },
        {
          "name": "D5",
          "midi": 74,
          "time": 26.62724999999997,
          "velocity": 0.6299212598425197,
          "duration": 0.04437874999999991
        },
        {
          "name": "C5",
          "midi": 72,
          "time": 26.98227999999997,
          "velocity": 0.6299212598425197,
          "duration": 0.04437874999999991
        },
        {
          "name": "D5",
          "midi": 74,
          "time": 26.98227999999997,
          "velocity": 0.7716535433070866,
          "duration": 0.03698229166666778
        },
        {
          "name": "E5",
          "midi": 76,
          "time": 27.33730999999997,
          "velocity": 0.6299212598425197,
          "duration": 0.04437874999999991
        },
        {
          "name": "D5",
          "midi": 74,
          "time": 27.69233999999997,
          "velocity": 0.6299212598425197,
          "duration": 0.04437874999999991
        },
        {
          "name": "F5",
          "midi": 77,
          "time": 28.04736999999997,
          "velocity": 0.6299212598425197,
          "duration": 0.04437874999999991
        },
        {
          "name": "F5",
          "midi": 77,
          "time": 28.402399999999968,
          "velocity": 0.6299212598425197,
          "duration": 0.04437874999999991
        },
        {
          "name": "E5",
          "midi": 76,
          "time": 28.668672499999968,
          "velocity": 0.6299212598425197,
          "duration": 0.04437874999999991
        },
        {
          "name": "F5",
          "midi": 77,
          "time": 28.668672499999968,
          "velocity": 0.6299212598425197,
          "duration": 0.04437874999999991
        },
        {
          "name": "D5",
          "midi": 74,
          "time": 28.934944999999967,
          "velocity": 0.6299212598425197,
          "duration": 0.040680520833333844
        },
        {
          "name": "E5",
          "midi": 76,
          "time": 28.934944999999967,
          "velocity": 0.6299212598425197,
          "duration": 0.04437874999999991
        },
        {
          "name": "C5",
          "midi": 72,
          "time": 29.201217499999967,
          "velocity": 0.6299212598425197,
          "duration": 0.040680520833333844
        },
        {
          "name": "E5",
          "midi": 76,
          "time": 29.201217499999967,
          "velocity": 0.6299212598425197,
          "duration": 0.04437874999999991
        },
        {
          "name": "E5",
          "midi": 76,
          "time": 29.822519999999965,
          "velocity": 0.7874015748031497,
          "duration": 0.04437874999999991
        },
        {
          "name": "F5",
          "midi": 77,
          "time": 30.000034999999965,
          "velocity": 0.7874015748031497,
          "duration": 0.04437874999999991
        },
        {
          "name": "C5",
          "midi": 72,
          "time": 30.177549999999965,
          "velocity": 0.7874015748031497,
          "duration": 0.04437874999999991
        },
        {
          "name": "F5",
          "midi": 77,
          "time": 30.355064999999964,
          "velocity": 0.7874015748031497,
          "duration": 0.04437874999999991
        },
        {
          "name": "E5",
          "midi": 76,
          "time": 30.443822499999964,
          "velocity": 0.7874015748031497,
          "duration": 0.04437874999999991
        },
        {
          "name": "E5",
          "midi": 76,
          "time": 30.621337499999964,
          "velocity": 0.7874015748031497,
          "duration": 0.04437874999999991
        },
        {
          "name": "F5",
          "midi": 77,
          "time": 30.710094999999964,
          "velocity": 0.7874015748031497,
          "duration": 0.04437874999999991
        },
        {
          "name": "C5",
          "midi": 72,
          "time": 30.887609999999963,
          "velocity": 0.7874015748031497,
          "duration": 0.04437874999999991
        },
        {
          "name": "E5",
          "midi": 76,
          "time": 31.065124999999963,
          "velocity": 0.7874015748031497,
          "duration": 0.04437874999999991
        },
        {
          "name": "D5",
          "midi": 74,
          "time": 31.242639999999962,
          "velocity": 0.7874015748031497,
          "duration": 0.04437874999999991
        },
        {
          "name": "C5",
          "midi": 72,
          "time": 31.420154999999962,
          "velocity": 0.7874015748031497,
          "duration": 0.04437874999999991
        },
        {
          "name": "C5",
          "midi": 72,
          "time": 31.59766999999996,
          "velocity": 0.7874015748031497,
          "duration": 0.04437874999999991
        },
        {
          "name": "D5",
          "midi": 74,
          "time": 31.68642749999996,
          "velocity": 0.7874015748031497,
          "duration": 0.04437874999999991
        },
        {
          "name": "E5",
          "midi": 76,
          "time": 31.86394249999996,
          "velocity": 0.7874015748031497,
          "duration": 0.04437874999999991
        },
        {
          "name": "E5",
          "midi": 76,
          "time": 32.66275999999996,
          "velocity": 0.7874015748031497,
          "duration": 0.04437874999999991
        },
        {
          "name": "F5",
          "midi": 77,
          "time": 32.75151749999996,
          "velocity": 0.7874015748031497,
          "duration": 0.04437874999999991
        },
        {
          "name": "E5",
          "midi": 76,
          "time": 32.84027499999996,
          "velocity": 0.7874015748031497,
          "duration": 0.04437874999999991
        },
        {
          "name": "D5",
          "midi": 74,
          "time": 33.01778999999996,
          "velocity": 0.7874015748031497,
          "duration": 0.04437874999999991
        },
        {
          "name": "E5",
          "midi": 76,
          "time": 33.37281999999996,
          "velocity": 0.7874015748031497,
          "duration": 0.04437874999999991
        },
        {
          "name": "F5",
          "midi": 77,
          "time": 33.46157749999996,
          "velocity": 0.7874015748031497,
          "duration": 0.04437874999999991
        },
        {
          "name": "E5",
          "midi": 76,
          "time": 33.55033499999996,
          "velocity": 0.7874015748031497,
          "duration": 0.04437874999999991
        },
        {
          "name": "D5",
          "midi": 74,
          "time": 33.63909249999996,
          "velocity": 0.7874015748031497,
          "duration": 0.04437874999999991
        },
        {
          "name": "D5",
          "midi": 74,
          "time": 34.08287999999996,
          "velocity": 0.7874015748031497,
          "duration": 0.04437874999999991
        },
        {
          "name": "C5",
          "midi": 72,
          "time": 34.17163749999996,
          "velocity": 0.7795275590551181,
          "duration": 0.04437874999999991
        },
        {
          "name": "D5",
          "midi": 74,
          "time": 34.26039499999996,
          "velocity": 0.7874015748031497,
          "duration": 0.04437874999999991
        },
        {
          "name": "E5",
          "midi": 76,
          "time": 34.43790999999996,
          "velocity": 0.7874015748031497,
          "duration": 0.04437874999999991
        },
        {
          "name": "D5",
          "midi": 74,
          "time": 34.79293999999996,
          "velocity": 0.7874015748031497,
          "duration": 0.04437874999999991
        },
        {
          "name": "C5",
          "midi": 72,
          "time": 34.88169749999996,
          "velocity": 0.7795275590551181,
          "duration": 0.04437874999999991
        },
        {
          "name": "D5",
          "midi": 74,
          "time": 34.97045499999996,
          "velocity": 0.7874015748031497,
          "duration": 0.04437874999999991
        },
        {
          "name": "E5",
          "midi": 76,
          "time": 35.14796999999996,
          "velocity": 0.7874015748031497,
          "duration": 0.04437874999999991
        },
        {
          "name": "E5",
          "midi": 76,
          "time": 35.50299999999996,
          "velocity": 0.7874015748031497,
          "duration": 0.04437874999999991
        },
        {
          "name": "F5",
          "midi": 77,
          "time": 35.68051499999996,
          "velocity": 0.7874015748031497,
          "duration": 0.04437874999999991
        },
        {
          "name": "C5",
          "midi": 72,
          "time": 35.85802999999996,
          "velocity": 0.7874015748031497,
          "duration": 0.04437874999999991
        },
        {
          "name": "F5",
          "midi": 77,
          "time": 36.035544999999956,
          "velocity": 0.7874015748031497,
          "duration": 0.04437874999999991
        },
        {
          "name": "E5",
          "midi": 76,
          "time": 36.124302499999956,
          "velocity": 0.7874015748031497,
          "duration": 0.04437874999999991
        },
        {
          "name": "E5",
          "midi": 76,
          "time": 36.301817499999956,
          "velocity": 0.7874015748031497,
          "duration": 0.04437874999999991
        },
        {
          "name": "F5",
          "midi": 77,
          "time": 36.390574999999956,
          "velocity": 0.7874015748031497,
          "duration": 0.04437874999999991
        },
        {
          "name": "C5",
          "midi": 72,
          "time": 36.568089999999955,
          "velocity": 0.7874015748031497,
          "duration": 0.04437874999999991
        },
        {
          "name": "E5",
          "midi": 76,
          "time": 36.745604999999955,
          "velocity": 0.7874015748031497,
          "duration": 0.04437874999999991
        },
        {
          "name": "D5",
          "midi": 74,
          "time": 36.923119999999955,
          "velocity": 0.7874015748031497,
          "duration": 0.04437874999999991
        },
        {
          "name": "C5",
          "midi": 72,
          "time": 37.100634999999954,
          "velocity": 0.7874015748031497,
          "duration": 0.04437874999999991
        },
        {
          "name": "C5",
          "midi": 72,
          "time": 37.278149999999954,
          "velocity": 0.7874015748031497,
          "duration": 0.04437874999999991
        },
        {
          "name": "D5",
          "midi": 74,
          "time": 37.366907499999954,
          "velocity": 0.7874015748031497,
          "duration": 0.04437874999999991
        },
        {
          "name": "E5",
          "midi": 76,
          "time": 37.54442249999995,
          "velocity": 0.7874015748031497,
          "duration": 0.04437874999999991
        },
        {
          "name": "E5",
          "midi": 76,
          "time": 38.34323999999995,
          "velocity": 0.7874015748031497,
          "duration": 0.04437874999999991
        },
        {
          "name": "F5",
          "midi": 77,
          "time": 38.43199749999995,
          "velocity": 0.7874015748031497,
          "duration": 0.04437874999999991
        },
        {
          "name": "E5",
          "midi": 76,
          "time": 38.52075499999995,
          "velocity": 0.7874015748031497,
          "duration": 0.04437874999999991
        },
        {
          "name": "D5",
          "midi": 74,
          "time": 38.69826999999995,
          "velocity": 0.7874015748031497,
          "duration": 0.04437874999999991
        },
        {
          "name": "E5",
          "midi": 76,
          "time": 39.05329999999995,
          "velocity": 0.7874015748031497,
          "duration": 0.04437874999999991
        },
        {
          "name": "F5",
          "midi": 77,
          "time": 39.14205749999995,
          "velocity": 0.7874015748031497,
          "duration": 0.04437874999999991
        },
        {
          "name": "E5",
          "midi": 76,
          "time": 39.23081499999995,
          "velocity": 0.7874015748031497,
          "duration": 0.04437874999999991
        },
        {
          "name": "D5",
          "midi": 74,
          "time": 39.31957249999995,
          "velocity": 0.7874015748031497,
          "duration": 0.04437874999999991
        },
        {
          "name": "D5",
          "midi": 74,
          "time": 39.76335999999995,
          "velocity": 0.7874015748031497,
          "duration": 0.04437874999999991
        },
        {
          "name": "C5",
          "midi": 72,
          "time": 39.85211749999995,
          "velocity": 0.7795275590551181,
          "duration": 0.04437874999999991
        },
        {
          "name": "D5",
          "midi": 74,
          "time": 39.94087499999995,
          "velocity": 0.7874015748031497,
          "duration": 0.04437874999999991
        },
        {
          "name": "E5",
          "midi": 76,
          "time": 40.11838999999995,
          "velocity": 0.7874015748031497,
          "duration": 0.04437874999999991
        },
        {
          "name": "D5",
          "midi": 74,
          "time": 40.47341999999995,
          "velocity": 0.7874015748031497,
          "duration": 0.04437874999999991
        },
        {
          "name": "C5",
          "midi": 72,
          "time": 40.56217749999995,
          "velocity": 0.7795275590551181,
          "duration": 0.04437874999999991
        },
        {
          "name": "D5",
          "midi": 74,
          "time": 40.65093499999995,
          "velocity": 0.7874015748031497,
          "duration": 0.04437874999999991
        },
        {
          "name": "E5",
          "midi": 76,
          "time": 40.82844999999995,
          "velocity": 0.7874015748031497,
          "duration": 0.04437874999999991
        },
        {
          "name": "C5",
          "midi": 72,
          "time": 41.183479999999946,
          "velocity": 0.7874015748031497,
          "duration": 0.04437874999999991
        },
        {
          "name": "F5",
          "midi": 77,
          "time": 41.183479999999946,
          "velocity": 0.6299212598425197,
          "duration": 0.04437874999999991
        },
        {
          "name": "F5",
          "midi": 77,
          "time": 41.538509999999945,
          "velocity": 0.7874015748031497,
          "duration": 0.051775208333332046
        },
        {
          "name": "F5",
          "midi": 77,
          "time": 41.893539999999945,
          "velocity": 0.7874015748031497,
          "duration": 0.051775208333332046
        },
        {
          "name": "C5",
          "midi": 72,
          "time": 42.071054999999944,
          "velocity": 0.7874015748031497,
          "duration": 0.04437874999999991
        },
        {
          "name": "F5",
          "midi": 77,
          "time": 42.248569999999944,
          "velocity": 0.7874015748031497,
          "duration": 0.051775208333332046
        },
        {
          "name": "C5",
          "midi": 72,
          "time": 42.426084999999944,
          "velocity": 0.7874015748031497,
          "duration": 0.04437874999999991
        },
        {
          "name": "F5",
          "midi": 77,
          "time": 42.60359999999994,
          "velocity": 0.7874015748031497,
          "duration": 0.051775208333332046
        },
        {
          "name": "F5",
          "midi": 77,
          "time": 42.95862999999994,
          "velocity": 0.7874015748031497,
          "duration": 0.051775208333332046
        },
        {
          "name": "F5",
          "midi": 77,
          "time": 43.31365999999994,
          "velocity": 0.7874015748031497,
          "duration": 0.04437874999999991
        },
        {
          "name": "C5",
          "midi": 72,
          "time": 43.66868999999994,
          "velocity": 0.7874015748031497,
          "duration": 0.04437874999999991
        },
        {
          "name": "E5",
          "midi": 76,
          "time": 43.66868999999994,
          "velocity": 0.6299212598425197,
          "duration": 0.04437874999999991
        },
        {
          "name": "C5",
          "midi": 72,
          "time": 44.02371999999994,
          "velocity": 0.7874015748031497,
          "duration": 0.04437874999999991
        },
        {
          "name": "F5",
          "midi": 77,
          "time": 44.02371999999994,
          "velocity": 0.6299212598425197,
          "duration": 0.04437874999999991
        },
        {
          "name": "F5",
          "midi": 77,
          "time": 44.37874999999994,
          "velocity": 0.7874015748031497,
          "duration": 0.04437874999999991
        },
        {
          "name": "F5",
          "midi": 77,
          "time": 44.73377999999994,
          "velocity": 0.7874015748031497,
          "duration": 0.04437874999999991
        },
        {
          "name": "C5",
          "midi": 72,
          "time": 44.91129499999994,
          "velocity": 0.7874015748031497,
          "duration": 0.04437874999999991
        },
        {
          "name": "F5",
          "midi": 77,
          "time": 45.08880999999994,
          "velocity": 0.7874015748031497,
          "duration": 0.011094687499998201
        },
        {
          "name": "C5",
          "midi": 72,
          "time": 45.26632499999994,
          "velocity": 0.7874015748031497,
          "duration": 0.04437874999999991
        },
        {
          "name": "F5",
          "midi": 77,
          "time": 45.44383999999994,
          "velocity": 0.7874015748031497,
          "duration": 0.04437874999999991
        },
        {
          "name": "F5",
          "midi": 77,
          "time": 45.79886999999994,
          "velocity": 0.7874015748031497,
          "duration": 0.04437874999999991
        },
        {
          "name": "F5",
          "midi": 77,
          "time": 46.153899999999936,
          "velocity": 0.7874015748031497,
          "duration": 0.04437874999999991
        },
        {
          "name": "C5",
          "midi": 72,
          "time": 46.508929999999935,
          "velocity": 0.7874015748031497,
          "duration": 0.04437874999999991
        },
        {
          "name": "E5",
          "midi": 76,
          "time": 46.508929999999935,
          "velocity": 0.6299212598425197,
          "duration": 0.04437874999999991
        },
        {
          "name": "D5",
          "midi": 74,
          "time": 46.863959999999935,
          "velocity": 0.6299212598425197,
          "duration": 0.04807697916666598
        },
        {
          "name": "E5",
          "midi": 76,
          "time": 46.863959999999935,
          "velocity": 0.7874015748031497,
          "duration": 0.04437874999999991
        },
        {
          "name": "D5",
          "midi": 74,
          "time": 47.218989999999934,
          "velocity": 0.7874015748031497,
          "duration": 0.04437874999999991
        },
        {
          "name": "D5",
          "midi": 74,
          "time": 47.57401999999993,
          "velocity": 0.7874015748031497,
          "duration": 0.04437874999999991
        },
        {
          "name": "E5",
          "midi": 76,
          "time": 47.75153499999993,
          "velocity": 0.7874015748031497,
          "duration": 0.04437874999999991
        },
        {
          "name": "D5",
          "midi": 74,
          "time": 47.92904999999993,
          "velocity": 0.7874015748031497,
          "duration": 0.04437874999999991
        },
        {
          "name": "E5",
          "midi": 76,
          "time": 48.10656499999993,
          "velocity": 0.7874015748031497,
          "duration": 0.04437874999999991
        },
        {
          "name": "D5",
          "midi": 74,
          "time": 48.28407999999993,
          "velocity": 0.7874015748031497,
          "duration": 0.04437874999999991
        },
        {
          "name": "D5",
          "midi": 74,
          "time": 48.63910999999993,
          "velocity": 0.7716535433070866,
          "duration": 0.04437874999999991
        },
        {
          "name": "D5",
          "midi": 74,
          "time": 48.99413999999993,
          "velocity": 0.7716535433070866,
          "duration": 0.04437874999999991
        },
        {
          "name": "D5",
          "midi": 74,
          "time": 49.34916999999993,
          "velocity": 0.6299212598425197,
          "duration": 0.04437874999999991
        },
        {
          "name": "F5",
          "midi": 77,
          "time": 49.34916999999993,
          "velocity": 0.7874015748031497,
          "duration": 0.04437874999999991
        },
        {
          "name": "C5",
          "midi": 72,
          "time": 49.70419999999993,
          "velocity": 0.6299212598425197,
          "duration": 0.04437874999999991
        },
        {
          "name": "D5",
          "midi": 74,
          "time": 49.70419999999993,
          "velocity": 0.7874015748031497,
          "duration": 0.04437874999999991
        },
        {
          "name": "C5",
          "midi": 72,
          "time": 50.05922999999993,
          "velocity": 0.7716535433070866,
          "duration": 0.04437874999999991
        },
        {
          "name": "C5",
          "midi": 72,
          "time": 50.41425999999993,
          "velocity": 0.7716535433070866,
          "duration": 0.04437874999999991
        },
        {
          "name": "D5",
          "midi": 74,
          "time": 50.59177499999993,
          "velocity": 0.7874015748031497,
          "duration": 0.04437874999999991
        },
        {
          "name": "C5",
          "midi": 72,
          "time": 50.76928999999993,
          "velocity": 0.7716535433070866,
          "duration": 0.04437874999999991
        },
        {
          "name": "D5",
          "midi": 74,
          "time": 50.94680499999993,
          "velocity": 0.7874015748031497,
          "duration": 0.04437874999999991
        },
        {
          "name": "D5",
          "midi": 74,
          "time": 51.124319999999926,
          "velocity": 0.7874015748031497,
          "duration": 0.04437874999999991
        },
        {
          "name": "F5",
          "midi": 77,
          "time": 51.124319999999926,
          "velocity": 0.6299212598425197,
          "duration": 0.04437874999999991
        },
        {
          "name": "D5",
          "midi": 74,
          "time": 51.479349999999926,
          "velocity": 0.7874015748031497,
          "duration": 0.04437874999999991
        },
        {
          "name": "F5",
          "midi": 77,
          "time": 51.479349999999926,
          "velocity": 0.7716535433070866,
          "duration": 0.04437874999999991
        },
        {
          "name": "D5",
          "midi": 74,
          "time": 51.834379999999925,
          "velocity": 0.7874015748031497,
          "duration": 0.04437874999999991
        },
        {
          "name": "F5",
          "midi": 77,
          "time": 51.834379999999925,
          "velocity": 0.7716535433070866,
          "duration": 0.04437874999999991
        },
        {
          "name": "D5",
          "midi": 74,
          "time": 52.189409999999924,
          "velocity": 0.7874015748031497,
          "duration": 0.04437874999999991
        },
        {
          "name": "F5",
          "midi": 77,
          "time": 52.189409999999924,
          "velocity": 0.7716535433070866,
          "duration": 0.04437874999999991
        },
        {
          "name": "F5",
          "midi": 77,
          "time": 52.54443999999992,
          "velocity": 0.6299212598425197,
          "duration": 0.04437874999999991
        },
        {
          "name": "D5",
          "midi": 74,
          "time": 52.72195499999992,
          "velocity": 0.7874015748031497,
          "duration": 0.04437874999999991
        },
        {
          "name": "F5",
          "midi": 77,
          "time": 52.81071249999992,
          "velocity": 0.6299212598425197,
          "duration": 0.04437874999999991
        },
        {
          "name": "E5",
          "midi": 76,
          "time": 53.07698499999992,
          "velocity": 0.6299212598425197,
          "duration": 0.040680520833333844
        },
        {
          "name": "F5",
          "midi": 77,
          "time": 53.25449999999992,
          "velocity": 0.6299212598425197,
          "duration": 0.040680520833333844
        },
        {
          "name": "C5",
          "midi": 72,
          "time": 53.43201499999992,
          "velocity": 0.7874015748031497,
          "duration": 0.04437874999999991
        },
        {
          "name": "D5",
          "midi": 74,
          "time": 53.43201499999992,
          "velocity": 0.7716535433070866,
          "duration": 0.04437874999999991
        },
        {
          "name": "C5",
          "midi": 72,
          "time": 53.60952999999992,
          "velocity": 0.7874015748031497,
          "duration": 0.04437874999999991
        },
        {
          "name": "F5",
          "midi": 77,
          "time": 53.60952999999992,
          "velocity": 0.7716535433070866,
          "duration": 0.04437874999999991
        },
        {
          "name": "C5",
          "midi": 72,
          "time": 53.96455999999992,
          "velocity": 0.6299212598425197,
          "duration": 0.04437874999999991
        },
        {
          "name": "D5",
          "midi": 74,
          "time": 54.14207499999992,
          "velocity": 0.6299212598425197,
          "duration": 0.04437874999999991
        },
        {
          "name": "C5",
          "midi": 72,
          "time": 54.23083249999992,
          "velocity": 0.7874015748031497,
          "duration": 0.04437874999999991
        },
        {
          "name": "E5",
          "midi": 76,
          "time": 54.31958999999992,
          "velocity": 0.7874015748031497,
          "duration": 0.04437874999999991
        },
        {
          "name": "E5",
          "midi": 76,
          "time": 54.49710499999992,
          "velocity": 0.6299212598425197,
          "duration": 0.04437874999999991
        },
        {
          "name": "E5",
          "midi": 76,
          "time": 54.67461999999992,
          "velocity": 0.6299212598425197,
          "duration": 0.04437874999999991
        },
        {
          "name": "D5",
          "midi": 74,
          "time": 54.94089249999992,
          "velocity": 0.7874015748031497,
          "duration": 0.04437874999999991
        },
        {
          "name": "C5",
          "midi": 72,
          "time": 55.02964999999992,
          "velocity": 0.7716535433070866,
          "duration": 0.04437874999999991
        },
        {
          "name": "E5",
          "midi": 76,
          "time": 55.20716499999992,
          "velocity": 0.7716535433070866,
          "duration": 0.04437874999999991
        },
        {
          "name": "D5",
          "midi": 74,
          "time": 55.38467999999992,
          "velocity": 0.6299212598425197,
          "duration": 0.04437874999999991
        },
        {
          "name": "E5",
          "midi": 76,
          "time": 55.56219499999992,
          "velocity": 0.7874015748031497,
          "duration": 0.04437874999999991
        },
        {
          "name": "D5",
          "midi": 74,
          "time": 55.65095249999992,
          "velocity": 0.6299212598425197,
          "duration": 0.04437874999999991
        },
        {
          "name": "C5",
          "midi": 72,
          "time": 55.91722499999992,
          "velocity": 0.6299212598425197,
          "duration": 0.040680520833333844
        },
        {
          "name": "D5",
          "midi": 74,
          "time": 56.094739999999916,
          "velocity": 0.6299212598425197,
          "duration": 0.040680520833333844
        },
        {
          "name": "C5",
          "midi": 72,
          "time": 56.272254999999916,
          "velocity": 0.7874015748031497,
          "duration": 0.04437874999999991
        },
        {
          "name": "E5",
          "midi": 76,
          "time": 56.272254999999916,
          "velocity": 0.7716535433070866,
          "duration": 0.04437874999999991
        },
        {
          "name": "C5",
          "midi": 72,
          "time": 56.449769999999916,
          "velocity": 0.7874015748031497,
          "duration": 0.04437874999999991
        },
        {
          "name": "D5",
          "midi": 74,
          "time": 56.449769999999916,
          "velocity": 0.7716535433070866,
          "duration": 0.04437874999999991
        },
        {
          "name": "F5",
          "midi": 77,
          "time": 56.804799999999915,
          "velocity": 0.6299212598425197,
          "duration": 0.04437874999999991
        },
        {
          "name": "C5",
          "midi": 72,
          "time": 56.982314999999915,
          "velocity": 0.6299212598425197,
          "duration": 0.04437874999999991
        },
        {
          "name": "E5",
          "midi": 76,
          "time": 57.071072499999914,
          "velocity": 0.7874015748031497,
          "duration": 0.04437874999999991
        },
        {
          "name": "F5",
          "midi": 77,
          "time": 57.159829999999914,
          "velocity": 0.7874015748031497,
          "duration": 0.04437874999999991
        },
        {
          "name": "E5",
          "midi": 76,
          "time": 57.248587499999914,
          "velocity": 0.7874015748031497,
          "duration": 0.04437874999999991
        },
        {
          "name": "F5",
          "midi": 77,
          "time": 57.337344999999914,
          "velocity": 0.6299212598425197,
          "duration": 0.04437874999999991
        },
        {
          "name": "F5",
          "midi": 77,
          "time": 57.51485999999991,
          "velocity": 0.6299212598425197,
          "duration": 0.04437874999999991
        },
        {
          "name": "C5",
          "midi": 72,
          "time": 57.78113249999991,
          "velocity": 0.7874015748031497,
          "duration": 0.04437874999999991
        },
        {
          "name": "E5",
          "midi": 76,
          "time": 57.86988999999991,
          "velocity": 0.7716535433070866,
          "duration": 0.04437874999999991
        },
        {
          "name": "F5",
          "midi": 77,
          "time": 58.04740499999991,
          "velocity": 0.7716535433070866,
          "duration": 0.04437874999999991
        },
        {
          "name": "C5",
          "midi": 72,
          "time": 58.22491999999991,
          "velocity": 0.6299212598425197,
          "duration": 0.04437874999999991
        },
        {
          "name": "D5",
          "midi": 74,
          "time": 58.40243499999991,
          "velocity": 0.7874015748031497,
          "duration": 0.04437874999999991
        },
        {
          "name": "C5",
          "midi": 72,
          "time": 58.49119249999991,
          "velocity": 0.6299212598425197,
          "duration": 0.04437874999999991
        },
        {
          "name": "F5",
          "midi": 77,
          "time": 58.75746499999991,
          "velocity": 0.6299212598425197,
          "duration": 0.040680520833333844
        },
        {
          "name": "C5",
          "midi": 72,
          "time": 58.93497999999991,
          "velocity": 0.6299212598425197,
          "duration": 0.040680520833333844
        },
        {
          "name": "C5",
          "midi": 72,
          "time": 59.11249499999991,
          "velocity": 0.7874015748031497,
          "duration": 0.040680520833333844
        },
        {
          "name": "D5",
          "midi": 74,
          "time": 59.11249499999991,
          "velocity": 0.7716535433070866,
          "duration": 0.04437874999999991
        },
        {
          "name": "C5",
          "midi": 72,
          "time": 59.29000999999991,
          "velocity": 0.7716535433070866,
          "duration": 0.04437874999999991
        },
        {
          "name": "E5",
          "midi": 76,
          "time": 59.29000999999991,
          "velocity": 0.7874015748031497,
          "duration": 0.04437874999999991
        },
        {
          "name": "C5",
          "midi": 72,
          "time": 59.64503999999991,
          "velocity": 0.6299212598425197,
          "duration": 0.04437874999999991
        },
        {
          "name": "D5",
          "midi": 74,
          "time": 59.82255499999991,
          "velocity": 0.6299212598425197,
          "duration": 0.04437874999999991
        },
        {
          "name": "C5",
          "midi": 72,
          "time": 59.91131249999991,
          "velocity": 0.7874015748031497,
          "duration": 0.04437874999999991
        },
        {
          "name": "E5",
          "midi": 76,
          "time": 60.00006999999991,
          "velocity": 0.7874015748031497,
          "duration": 0.04437874999999991
        },
        {
          "name": "E5",
          "midi": 76,
          "time": 60.17758499999991,
          "velocity": 0.6299212598425197,
          "duration": 0.04437874999999991
        },
        {
          "name": "E5",
          "midi": 76,
          "time": 60.35509999999991,
          "velocity": 0.6299212598425197,
          "duration": 0.04437874999999991
        },
        {
          "name": "D5",
          "midi": 74,
          "time": 60.62137249999991,
          "velocity": 0.7874015748031497,
          "duration": 0.04437874999999991
        },
        {
          "name": "C5",
          "midi": 72,
          "time": 60.71012999999991,
          "velocity": 0.7716535433070866,
          "duration": 0.04437874999999991
        },
        {
          "name": "E5",
          "midi": 76,
          "time": 60.88764499999991,
          "velocity": 0.7716535433070866,
          "duration": 0.04437874999999991
        },
        {
          "name": "E5",
          "midi": 76,
          "time": 61.065159999999906,
          "velocity": 0.6299212598425197,
          "duration": 0.04437874999999991
        },
        {
          "name": "C5",
          "midi": 72,
          "time": 61.242674999999906,
          "velocity": 0.7874015748031497,
          "duration": 0.04437874999999991
        },
        {
          "name": "E5",
          "midi": 76,
          "time": 61.331432499999906,
          "velocity": 0.6299212598425197,
          "duration": 0.04437874999999991
        },
        {
          "name": "D5",
          "midi": 74,
          "time": 61.597704999999905,
          "velocity": 0.6299212598425197,
          "duration": 0.040680520833333844
        },
        {
          "name": "E5",
          "midi": 76,
          "time": 61.775219999999905,
          "velocity": 0.6299212598425197,
          "duration": 0.040680520833333844
        },
        {
          "name": "C5",
          "midi": 72,
          "time": 61.952734999999905,
          "velocity": 0.7874015748031497,
          "duration": 0.04437874999999991
        },
        {
          "name": "D5",
          "midi": 74,
          "time": 61.952734999999905,
          "velocity": 0.7716535433070866,
          "duration": 0.04437874999999991
        },
        {
          "name": "C5",
          "midi": 72,
          "time": 62.130249999999904,
          "velocity": 0.7874015748031497,
          "duration": 0.04437874999999991
        },
        {
          "name": "E5",
          "midi": 76,
          "time": 62.130249999999904,
          "velocity": 0.7716535433070866,
          "duration": 0.04437874999999991
        },
        {
          "name": "F5",
          "midi": 77,
          "time": 62.485279999999904,
          "velocity": 0.6299212598425197,
          "duration": 0.04437874999999991
        },
        {
          "name": "C5",
          "midi": 72,
          "time": 62.6627949999999,
          "velocity": 0.6299212598425197,
          "duration": 0.04437874999999991
        },
        {
          "name": "E5",
          "midi": 76,
          "time": 62.7515524999999,
          "velocity": 0.7874015748031497,
          "duration": 0.04437874999999991
        },
        {
          "name": "F5",
          "midi": 77,
          "time": 62.8403099999999,
          "velocity": 0.7874015748031497,
          "duration": 0.04437874999999991
        },
        {
          "name": "E5",
          "midi": 76,
          "time": 62.9290674999999,
          "velocity": 0.7874015748031497,
          "duration": 0.04437874999999991
        },
        {
          "name": "F5",
          "midi": 77,
          "time": 63.0178249999999,
          "velocity": 0.6299212598425197,
          "duration": 0.04437874999999991
        },
        {
          "name": "F5",
          "midi": 77,
          "time": 63.1953399999999,
          "velocity": 0.6299212598425197,
          "duration": 0.04437874999999991
        },
        {
          "name": "C5",
          "midi": 72,
          "time": 63.4616124999999,
          "velocity": 0.7874015748031497,
          "duration": 0.04437874999999991
        },
        {
          "name": "E5",
          "midi": 76,
          "time": 63.5503699999999,
          "velocity": 0.7716535433070866,
          "duration": 0.04437874999999991
        },
        {
          "name": "F5",
          "midi": 77,
          "time": 63.7278849999999,
          "velocity": 0.7716535433070866,
          "duration": 0.04437874999999991
        },
        {
          "name": "C5",
          "midi": 72,
          "time": 63.9053999999999,
          "velocity": 0.6299212598425197,
          "duration": 0.04437874999999991
        },
        {
          "name": "F5",
          "midi": 77,
          "time": 63.9053999999999,
          "velocity": 0.7716535433070866,
          "duration": 0.04437874999999991
        },
        {
          "name": "C5",
          "midi": 72,
          "time": 64.9704899999999,
          "velocity": 0.6299212598425197,
          "duration": 0.04437875000000702
        },
        {
          "name": "D5",
          "midi": 74,
          "time": 65.14800499999991,
          "velocity": 0.6299212598425197,
          "duration": 0.04437875000000702
        },
        {
          "name": "E5",
          "midi": 76,
          "time": 65.32551999999993,
          "velocity": 0.6299212598425197,
          "duration": 0.040680520833333844
        },
        {
          "name": "F5",
          "midi": 77,
          "time": 65.68054999999993,
          "velocity": 0.6299212598425197,
          "duration": 0.04437875000000702
        },
        {
          "name": "E5",
          "midi": 76,
          "time": 65.85806499999994,
          "velocity": 0.6299212598425197,
          "duration": 0.04437875000000702
        },
        {
          "name": "D5",
          "midi": 74,
          "time": 66.03557999999995,
          "velocity": 0.6299212598425197,
          "duration": 0.04437875000000702
        },
        {
          "name": "F5",
          "midi": 77,
          "time": 66.39060999999997,
          "velocity": 0.6299212598425197,
          "duration": 0.04437875000000702
        },
        {
          "name": "C5",
          "midi": 72,
          "time": 66.74563999999998,
          "velocity": 0.6299212598425197,
          "duration": 0.04437875000000702
        },
        {
          "name": "F5",
          "midi": 77,
          "time": 66.74563999999998,
          "velocity": 0.7716535433070866,
          "duration": 0.04437875000000702
        },
        {
          "name": "C5",
          "midi": 72,
          "time": 67.81072999999999,
          "velocity": 0.7716535433070866,
          "duration": 0.04437875000000702
        },
        {
          "name": "E5",
          "midi": 76,
          "time": 67.81072999999999,
          "velocity": 0.6299212598425197,
          "duration": 0.04437875000000702
        },
        {
          "name": "D5",
          "midi": 74,
          "time": 68.16576,
          "velocity": 0.6299212598425197,
          "duration": 0.04437875000000702
        },
        {
          "name": "F5",
          "midi": 77,
          "time": 68.87582000000002,
          "velocity": 0.6299212598425197,
          "duration": 0.04437875000000702
        },
        {
          "name": "E5",
          "midi": 76,
          "time": 69.05333500000003,
          "velocity": 0.6299212598425197,
          "duration": 0.04437875000000702
        },
        {
          "name": "C5",
          "midi": 72,
          "time": 69.40836500000005,
          "velocity": 0.6299212598425197,
          "duration": 0.04437875000000702
        },
        {
          "name": "F5",
          "midi": 77,
          "time": 69.49712250000006,
          "velocity": 0.6299212598425197,
          "duration": 0.04437875000000702
        },
        {
          "name": "C5",
          "midi": 72,
          "time": 69.58588000000007,
          "velocity": 0.6299212598425197,
          "duration": 0.04437875000000702
        },
        {
          "name": "E5",
          "midi": 76,
          "time": 69.58588000000007,
          "velocity": 0.7716535433070866,
          "duration": 0.04437875000000702
        },
        {
          "name": "C5",
          "midi": 72,
          "time": 70.65097000000009,
          "velocity": 0.6299212598425197,
          "duration": 0.04437875000000702
        },
        {
          "name": "D5",
          "midi": 74,
          "time": 70.8284850000001,
          "velocity": 0.6299212598425197,
          "duration": 0.04437875000000702
        },
        {
          "name": "E5",
          "midi": 76,
          "time": 71.00600000000011,
          "velocity": 0.6299212598425197,
          "duration": 0.040680520833333844
        },
        {
          "name": "F5",
          "midi": 77,
          "time": 71.36103000000011,
          "velocity": 0.6299212598425197,
          "duration": 0.04437875000000702
        },
        {
          "name": "E5",
          "midi": 76,
          "time": 71.53854500000013,
          "velocity": 0.6299212598425197,
          "duration": 0.04437875000000702
        },
        {
          "name": "D5",
          "midi": 74,
          "time": 71.71606000000014,
          "velocity": 0.6299212598425197,
          "duration": 0.04437875000000702
        },
        {
          "name": "F5",
          "midi": 77,
          "time": 72.07109000000015,
          "velocity": 0.6299212598425197,
          "duration": 0.04437875000000702
        },
        {
          "name": "D5",
          "midi": 74,
          "time": 72.42612000000017,
          "velocity": 0.7716535433070866,
          "duration": 0.03698229166666067
        },
        {
          "name": "E5",
          "midi": 76,
          "time": 72.42612000000017,
          "velocity": 0.6299212598425197,
          "duration": 0.044378749999992806
        },
        {
          "name": "D5",
          "midi": 74,
          "time": 73.49121000000017,
          "velocity": 0.6299212598425197,
          "duration": 0.04437875000000702
        },
        {
          "name": "C5",
          "midi": 72,
          "time": 73.84624000000018,
          "velocity": 0.6299212598425197,
          "duration": 0.044378749999992806
        },
        {
          "name": "D5",
          "midi": 74,
          "time": 73.84624000000018,
          "velocity": 0.7716535433070866,
          "duration": 0.03698229166666067
        },
        {
          "name": "E5",
          "midi": 76,
          "time": 74.20127000000018,
          "velocity": 0.6299212598425197,
          "duration": 0.04437875000000702
        },
        {
          "name": "D5",
          "midi": 74,
          "time": 74.55630000000019,
          "velocity": 0.6299212598425197,
          "duration": 0.04437875000000702
        },
        {
          "name": "F5",
          "midi": 77,
          "time": 74.9113300000002,
          "velocity": 0.6299212598425197,
          "duration": 0.04437875000000702
        },
        {
          "name": "C5",
          "midi": 72,
          "time": 75.26636000000022,
          "velocity": 0.6299212598425197,
          "duration": 0.04437875000000702
        },
        {
          "name": "F5",
          "midi": 77,
          "time": 75.26636000000022,
          "velocity": 0.7716535433070866,
          "duration": 0.04437875000000702
        },
        {
          "name": "F5",
          "midi": 77,
          "time": 75.62139000000023,
          "velocity": 0.7874015748031497,
          "duration": 0.04437875000000702
        },
        {
          "name": "F5",
          "midi": 77,
          "time": 75.97642000000025,
          "velocity": 0.7874015748031497,
          "duration": 0.04437875000000702
        },
        {
          "name": "C5",
          "midi": 72,
          "time": 76.33145000000026,
          "velocity": 0.6299212598425197,
          "duration": 0.04437875000000702
        },
        {
          "name": "D5",
          "midi": 74,
          "time": 76.50896500000027,
          "velocity": 0.6299212598425197,
          "duration": 0.04437875000000702
        },
        {
          "name": "E5",
          "midi": 76,
          "time": 76.68648000000029,
          "velocity": 0.6299212598425197,
          "duration": 0.040680520833333844
        },
        {
          "name": "F5",
          "midi": 77,
          "time": 77.04151000000029,
          "velocity": 0.6299212598425197,
          "duration": 0.04437875000000702
        },
        {
          "name": "E5",
          "midi": 76,
          "time": 77.2190250000003,
          "velocity": 0.6299212598425197,
          "duration": 0.04437875000000702
        },
        {
          "name": "D5",
          "midi": 74,
          "time": 77.39654000000031,
          "velocity": 0.6299212598425197,
          "duration": 0.04437875000000702
        },
        {
          "name": "F5",
          "midi": 77,
          "time": 77.75157000000033,
          "velocity": 0.6299212598425197,
          "duration": 0.04437875000000702
        },
        {
          "name": "C5",
          "midi": 72,
          "time": 78.10660000000034,
          "velocity": 0.6299212598425197,
          "duration": 0.04437875000000702
        },
        {
          "name": "F5",
          "midi": 77,
          "time": 78.10660000000034,
          "velocity": 0.7716535433070866,
          "duration": 0.04437875000000702
        },
        {
          "name": "F5",
          "midi": 77,
          "time": 78.46163000000035,
          "velocity": 0.7874015748031497,
          "duration": 0.04437875000000702
        },
        {
          "name": "F5",
          "midi": 77,
          "time": 78.81666000000037,
          "velocity": 0.7874015748031497,
          "duration": 0.04437875000000702
        },
        {
          "name": "C5",
          "midi": 72,
          "time": 79.17169000000038,
          "velocity": 0.7716535433070866,
          "duration": 0.04437875000000702
        },
        {
          "name": "E5",
          "midi": 76,
          "time": 79.17169000000038,
          "velocity": 0.6299212598425197,
          "duration": 0.04437875000000702
        },
        {
          "name": "D5",
          "midi": 74,
          "time": 79.5267200000004,
          "velocity": 0.6299212598425197,
          "duration": 0.04437875000000702
        },
        {
          "name": "D5",
          "midi": 74,
          "time": 79.88175000000041,
          "velocity": 0.7874015748031497,
          "duration": 0.04437875000000702
        },
        {
          "name": "F5",
          "midi": 77,
          "time": 80.23678000000042,
          "velocity": 0.6299212598425197,
          "duration": 0.04437875000000702
        },
        {
          "name": "E5",
          "midi": 76,
          "time": 80.41429500000044,
          "velocity": 0.6299212598425197,
          "duration": 0.04437875000000702
        },
        {
          "name": "C5",
          "midi": 72,
          "time": 80.76932500000045,
          "velocity": 0.6299212598425197,
          "duration": 0.04437875000000702
        },
        {
          "name": "F5",
          "midi": 77,
          "time": 80.85808250000046,
          "velocity": 0.6299212598425197,
          "duration": 0.04437875000000702
        },
        {
          "name": "C5",
          "midi": 72,
          "time": 80.94684000000048,
          "velocity": 0.6299212598425197,
          "duration": 0.04437875000000702
        },
        {
          "name": "E5",
          "midi": 76,
          "time": 80.94684000000048,
          "velocity": 0.7716535433070866,
          "duration": 0.04437875000000702
        },
        {
          "name": "E5",
          "midi": 76,
          "time": 81.30187000000049,
          "velocity": 0.7874015748031497,
          "duration": 0.04437875000000702
        },
        {
          "name": "E5",
          "midi": 76,
          "time": 81.6569000000005,
          "velocity": 0.7874015748031497,
          "duration": 0.04437875000000702
        },
        {
          "name": "C5",
          "midi": 72,
          "time": 82.01193000000052,
          "velocity": 0.6299212598425197,
          "duration": 0.04437875000000702
        },
        {
          "name": "D5",
          "midi": 74,
          "time": 82.18944500000053,
          "velocity": 0.6299212598425197,
          "duration": 0.04437875000000702
        },
        {
          "name": "E5",
          "midi": 76,
          "time": 82.36696000000055,
          "velocity": 0.6299212598425197,
          "duration": 0.040680520833333844
        },
        {
          "name": "F5",
          "midi": 77,
          "time": 82.72199000000055,
          "velocity": 0.6299212598425197,
          "duration": 0.04437875000000702
        },
        {
          "name": "E5",
          "midi": 76,
          "time": 82.89950500000056,
          "velocity": 0.6299212598425197,
          "duration": 0.04437875000000702
        },
        {
          "name": "D5",
          "midi": 74,
          "time": 83.07702000000057,
          "velocity": 0.6299212598425197,
          "duration": 0.04437875000000702
        },
        {
          "name": "F5",
          "midi": 77,
          "time": 83.43205000000059,
          "velocity": 0.6299212598425197,
          "duration": 0.04437875000000702
        },
        {
          "name": "D5",
          "midi": 74,
          "time": 83.7870800000006,
          "velocity": 0.7716535433070866,
          "duration": 0.03698229166666067
        },
        {
          "name": "E5",
          "midi": 76,
          "time": 83.7870800000006,
          "velocity": 0.6299212598425197,
          "duration": 0.044378749999992806
        },
        {
          "name": "E5",
          "midi": 76,
          "time": 84.1421100000006,
          "velocity": 0.7874015748031497,
          "duration": 0.04437875000000702
        },
        {
          "name": "E5",
          "midi": 76,
          "time": 84.49714000000061,
          "velocity": 0.7874015748031497,
          "duration": 0.04437875000000702
        },
        {
          "name": "D5",
          "midi": 74,
          "time": 84.85217000000063,
          "velocity": 0.6299212598425197,
          "duration": 0.04437875000000702
        },
        {
          "name": "C5",
          "midi": 72,
          "time": 85.20720000000064,
          "velocity": 0.6299212598425197,
          "duration": 0.044378749999992806
        },
        {
          "name": "D5",
          "midi": 74,
          "time": 85.20720000000064,
          "velocity": 0.7716535433070866,
          "duration": 0.03698229166666067
        },
        {
          "name": "E5",
          "midi": 76,
          "time": 85.56223000000064,
          "velocity": 0.6299212598425197,
          "duration": 0.04437875000000702
        },
        {
          "name": "D5",
          "midi": 74,
          "time": 85.91726000000065,
          "velocity": 0.6299212598425197,
          "duration": 0.04437875000000702
        },
        {
          "name": "F5",
          "midi": 77,
          "time": 86.27229000000067,
          "velocity": 0.6299212598425197,
          "duration": 0.04437875000000702
        },
        {
          "name": "E5",
          "midi": 76,
          "time": 86.62732000000068,
          "velocity": 0.7874015748031497,
          "duration": 0.04437875000000702
        },
        {
          "name": "F5",
          "midi": 77,
          "time": 86.8048350000007,
          "velocity": 0.7874015748031497,
          "duration": 0.04437875000000702
        },
        {
          "name": "C5",
          "midi": 72,
          "time": 86.98235000000071,
          "velocity": 0.7874015748031497,
          "duration": 0.04437875000000702
        },
        {
          "name": "F5",
          "midi": 77,
          "time": 87.15986500000072,
          "velocity": 0.7874015748031497,
          "duration": 0.04437875000000702
        },
        {
          "name": "E5",
          "midi": 76,
          "time": 87.24862250000074,
          "velocity": 0.7874015748031497,
          "duration": 0.04437875000000702
        },
        {
          "name": "E5",
          "midi": 76,
          "time": 87.42613750000075,
          "velocity": 0.7874015748031497,
          "duration": 0.04437875000000702
        },
        {
          "name": "F5",
          "midi": 77,
          "time": 87.51489500000076,
          "velocity": 0.7874015748031497,
          "duration": 0.04437875000000702
        },
        {
          "name": "C5",
          "midi": 72,
          "time": 87.69241000000078,
          "velocity": 0.7874015748031497,
          "duration": 0.04437875000000702
        },
        {
          "name": "E5",
          "midi": 76,
          "time": 87.86992500000079,
          "velocity": 0.7874015748031497,
          "duration": 0.04437875000000702
        },
        {
          "name": "D5",
          "midi": 74,
          "time": 88.0474400000008,
          "velocity": 0.7874015748031497,
          "duration": 0.04437875000000702
        },
        {
          "name": "C5",
          "midi": 72,
          "time": 88.22495500000082,
          "velocity": 0.7874015748031497,
          "duration": 0.04437875000000702
        },
        {
          "name": "C5",
          "midi": 72,
          "time": 88.40247000000083,
          "velocity": 0.7874015748031497,
          "duration": 0.04437875000000702
        },
        {
          "name": "D5",
          "midi": 74,
          "time": 88.49122750000085,
          "velocity": 0.7874015748031497,
          "duration": 0.04437875000000702
        },
        {
          "name": "E5",
          "midi": 76,
          "time": 88.66874250000086,
          "velocity": 0.7874015748031497,
          "duration": 0.04437875000000702
        },
        {
          "name": "D5",
          "midi": 74,
          "time": 89.02377250000087,
          "velocity": 0.7874015748031497,
          "duration": 0.04437875000000702
        },
        {
          "name": "C5",
          "midi": 72,
          "time": 89.11253000000089,
          "velocity": 0.7874015748031497,
          "duration": 0.04437875000000702
        },
        {
          "name": "E5",
          "midi": 76,
          "time": 89.2900450000009,
          "velocity": 0.7874015748031497,
          "duration": 0.04437875000000702
        },
        {
          "name": "E5",
          "midi": 76,
          "time": 89.46756000000092,
          "velocity": 0.7874015748031497,
          "duration": 0.04437875000000702
        },
        {
          "name": "F5",
          "midi": 77,
          "time": 89.55631750000093,
          "velocity": 0.7874015748031497,
          "duration": 0.04437875000000702
        },
        {
          "name": "E5",
          "midi": 76,
          "time": 89.64507500000094,
          "velocity": 0.7874015748031497,
          "duration": 0.04437875000000702
        },
        {
          "name": "D5",
          "midi": 74,
          "time": 89.82259000000096,
          "velocity": 0.7874015748031497,
          "duration": 0.04437875000000702
        },
        {
          "name": "E5",
          "midi": 76,
          "time": 90.17762000000097,
          "velocity": 0.7874015748031497,
          "duration": 0.04437875000000702
        },
        {
          "name": "F5",
          "midi": 77,
          "time": 90.26637750000098,
          "velocity": 0.7874015748031497,
          "duration": 0.04437875000000702
        },
        {
          "name": "E5",
          "midi": 76,
          "time": 90.355135000001,
          "velocity": 0.7874015748031497,
          "duration": 0.04437875000000702
        },
        {
          "name": "D5",
          "midi": 74,
          "time": 90.44389250000101,
          "velocity": 0.7874015748031497,
          "duration": 0.04437875000000702
        },
        {
          "name": "D5",
          "midi": 74,
          "time": 90.88768000000103,
          "velocity": 0.7874015748031497,
          "duration": 0.04437875000000702
        },
        {
          "name": "C5",
          "midi": 72,
          "time": 90.97643750000104,
          "velocity": 0.7795275590551181,
          "duration": 0.04437875000000702
        },
        {
          "name": "D5",
          "midi": 74,
          "time": 91.06519500000105,
          "velocity": 0.7874015748031497,
          "duration": 0.04437875000000702
        },
        {
          "name": "E5",
          "midi": 76,
          "time": 91.24271000000107,
          "velocity": 0.7874015748031497,
          "duration": 0.04437875000000702
        },
        {
          "name": "D5",
          "midi": 74,
          "time": 91.59774000000108,
          "velocity": 0.7874015748031497,
          "duration": 0.04437875000000702
        },
        {
          "name": "C5",
          "midi": 72,
          "time": 91.6864975000011,
          "velocity": 0.7795275590551181,
          "duration": 0.04437875000000702
        },
        {
          "name": "D5",
          "midi": 74,
          "time": 91.77525500000111,
          "velocity": 0.7874015748031497,
          "duration": 0.04437875000000702
        },
        {
          "name": "E5",
          "midi": 76,
          "time": 91.95277000000112,
          "velocity": 0.7874015748031497,
          "duration": 0.04437875000000702
        },
        {
          "name": "E5",
          "midi": 76,
          "time": 92.30780000000114,
          "velocity": 0.7874015748031497,
          "duration": 0.04437875000000702
        },
        {
          "name": "F5",
          "midi": 77,
          "time": 92.48531500000115,
          "velocity": 0.7874015748031497,
          "duration": 0.04437875000000702
        },
        {
          "name": "C5",
          "midi": 72,
          "time": 92.66283000000116,
          "velocity": 0.7874015748031497,
          "duration": 0.04437875000000702
        },
        {
          "name": "F5",
          "midi": 77,
          "time": 92.84034500000118,
          "velocity": 0.7874015748031497,
          "duration": 0.04437875000000702
        },
        {
          "name": "E5",
          "midi": 76,
          "time": 92.92910250000119,
          "velocity": 0.7874015748031497,
          "duration": 0.04437875000000702
        },
        {
          "name": "E5",
          "midi": 76,
          "time": 93.1066175000012,
          "velocity": 0.7874015748031497,
          "duration": 0.04437875000000702
        },
        {
          "name": "F5",
          "midi": 77,
          "time": 93.19537500000122,
          "velocity": 0.7874015748031497,
          "duration": 0.04437875000000702
        },
        {
          "name": "C5",
          "midi": 72,
          "time": 93.37289000000123,
          "velocity": 0.7874015748031497,
          "duration": 0.04437875000000702
        },
        {
          "name": "E5",
          "midi": 76,
          "time": 93.55040500000125,
          "velocity": 0.7874015748031497,
          "duration": 0.04437875000000702
        },
        {
          "name": "D5",
          "midi": 74,
          "time": 93.72792000000126,
          "velocity": 0.7874015748031497,
          "duration": 0.04437875000000702
        },
        {
          "name": "C5",
          "midi": 72,
          "time": 93.90543500000128,
          "velocity": 0.7874015748031497,
          "duration": 0.04437875000000702
        },
        {
          "name": "C5",
          "midi": 72,
          "time": 94.08295000000129,
          "velocity": 0.7874015748031497,
          "duration": 0.04437875000000702
        },
        {
          "name": "D5",
          "midi": 74,
          "time": 94.1717075000013,
          "velocity": 0.7874015748031497,
          "duration": 0.04437875000000702
        },
        {
          "name": "E5",
          "midi": 76,
          "time": 94.34922250000132,
          "velocity": 0.7874015748031497,
          "duration": 0.04437875000000702
        },
        {
          "name": "D5",
          "midi": 74,
          "time": 94.70425250000133,
          "velocity": 0.7874015748031497,
          "duration": 0.04437875000000702
        },
        {
          "name": "C5",
          "midi": 72,
          "time": 94.79301000000135,
          "velocity": 0.7874015748031497,
          "duration": 0.04437875000000702
        },
        {
          "name": "E5",
          "midi": 76,
          "time": 94.97052500000136,
          "velocity": 0.7874015748031497,
          "duration": 0.04437875000000702
        },
        {
          "name": "E5",
          "midi": 76,
          "time": 95.14804000000137,
          "velocity": 0.7874015748031497,
          "duration": 0.04437875000000702
        },
        {
          "name": "F5",
          "midi": 77,
          "time": 95.23679750000139,
          "velocity": 0.7874015748031497,
          "duration": 0.04437875000000702
        },
        {
          "name": "E5",
          "midi": 76,
          "time": 95.3255550000014,
          "velocity": 0.7874015748031497,
          "duration": 0.04437875000000702
        },
        {
          "name": "D5",
          "midi": 74,
          "time": 95.50307000000141,
          "velocity": 0.7874015748031497,
          "duration": 0.04437875000000702
        },
        {
          "name": "E5",
          "midi": 76,
          "time": 95.85810000000143,
          "velocity": 0.7874015748031497,
          "duration": 0.04437875000000702
        },
        {
          "name": "F5",
          "midi": 77,
          "time": 95.94685750000144,
          "velocity": 0.7874015748031497,
          "duration": 0.04437875000000702
        },
        {
          "name": "E5",
          "midi": 76,
          "time": 96.03561500000146,
          "velocity": 0.7874015748031497,
          "duration": 0.04437875000000702
        },
        {
          "name": "D5",
          "midi": 74,
          "time": 96.12437250000147,
          "velocity": 0.7874015748031497,
          "duration": 0.04437875000000702
        },
        {
          "name": "D5",
          "midi": 74,
          "time": 96.56816000000148,
          "velocity": 0.7874015748031497,
          "duration": 0.04437875000000702
        },
        {
          "name": "C5",
          "midi": 72,
          "time": 96.6569175000015,
          "velocity": 0.7795275590551181,
          "duration": 0.04437875000000702
        },
        {
          "name": "D5",
          "midi": 74,
          "time": 96.74567500000151,
          "velocity": 0.7874015748031497,
          "duration": 0.04437875000000702
        },
        {
          "name": "E5",
          "midi": 76,
          "time": 96.92319000000153,
          "velocity": 0.7874015748031497,
          "duration": 0.04437875000000702
        },
        {
          "name": "D5",
          "midi": 74,
          "time": 97.27822000000154,
          "velocity": 0.7874015748031497,
          "duration": 0.04437875000000702
        },
        {
          "name": "C5",
          "midi": 72,
          "time": 97.36697750000155,
          "velocity": 0.7795275590551181,
          "duration": 0.04437875000000702
        },
        {
          "name": "D5",
          "midi": 74,
          "time": 97.45573500000157,
          "velocity": 0.7874015748031497,
          "duration": 0.04437875000000702
        },
        {
          "name": "E5",
          "midi": 76,
          "time": 97.63325000000158,
          "velocity": 0.7874015748031497,
          "duration": 0.04437875000000702
        },
        {
          "name": "E5",
          "midi": 76,
          "time": 97.9882800000016,
          "velocity": 0.7874015748031497,
          "duration": 0.04437875000000702
        },
        {
          "name": "F5",
          "midi": 77,
          "time": 98.16579500000161,
          "velocity": 0.7874015748031497,
          "duration": 0.04437875000000702
        },
        {
          "name": "C5",
          "midi": 72,
          "time": 98.34331000000162,
          "velocity": 0.7874015748031497,
          "duration": 0.04437875000000702
        },
        {
          "name": "F5",
          "midi": 77,
          "time": 98.52082500000164,
          "velocity": 0.7874015748031497,
          "duration": 0.04437875000000702
        },
        {
          "name": "E5",
          "midi": 76,
          "time": 98.60958250000165,
          "velocity": 0.7874015748031497,
          "duration": 0.04437875000000702
        },
        {
          "name": "E5",
          "midi": 76,
          "time": 98.78709750000166,
          "velocity": 0.7874015748031497,
          "duration": 0.04437875000000702
        },
        {
          "name": "F5",
          "midi": 77,
          "time": 98.87585500000168,
          "velocity": 0.7874015748031497,
          "duration": 0.04437875000000702
        },
        {
          "name": "C5",
          "midi": 72,
          "time": 99.05337000000169,
          "velocity": 0.7874015748031497,
          "duration": 0.04437875000000702
        },
        {
          "name": "E5",
          "midi": 76,
          "time": 99.2308850000017,
          "velocity": 0.7874015748031497,
          "duration": 0.04437875000000702
        },
        {
          "name": "C5",
          "midi": 72,
          "time": 99.40840000000172,
          "velocity": 0.7874015748031497,
          "duration": 0.04437875000000702
        },
        {
          "name": "E5",
          "midi": 76,
          "time": 99.40840000000172,
          "velocity": 0.7874015748031497,
          "duration": 0.04437875000000702
        },
        {
          "name": "F5",
          "midi": 77,
          "time": 99.58591500000173,
          "velocity": 0.7874015748031497,
          "duration": 0.04437875000000702
        },
        {
          "name": "C5",
          "midi": 72,
          "time": 99.67467250000175,
          "velocity": 0.7874015748031497,
          "duration": 0.04437875000000702
        },
        {
          "name": "F5",
          "midi": 77,
          "time": 99.76343000000176,
          "velocity": 0.7874015748031497,
          "duration": 0.04437875000000702
        },
        {
          "name": "E5",
          "midi": 76,
          "time": 99.85218750000178,
          "velocity": 0.7874015748031497,
          "duration": 0.04437875000000702
        },
        {
          "name": "C5",
          "midi": 72,
          "time": 99.94094500000179,
          "velocity": 0.7874015748031497,
          "duration": 0.04437875000000702
        },
        {
          "name": "F5",
          "midi": 77,
          "time": 100.1184600000018,
          "velocity": 0.7874015748031497,
          "duration": 0.04437875000000702
        },
        {
          "name": "C5",
          "midi": 72,
          "time": 100.38473250000182,
          "velocity": 0.7874015748031497,
          "duration": 0.04437875000000702
        },
        {
          "name": "D5",
          "midi": 74,
          "time": 100.47349000000183,
          "velocity": 0.7874015748031497,
          "duration": 0.04437875000000702
        },
        {
          "name": "E5",
          "midi": 76,
          "time": 100.47349000000183,
          "velocity": 0.7874015748031497,
          "duration": 0.04437875000000702
        },
        {
          "name": "C5",
          "midi": 72,
          "time": 100.65100500000185,
          "velocity": 0.7874015748031497,
          "duration": 0.04437875000000702
        },
        {
          "name": "C5",
          "midi": 72,
          "time": 100.82852000000186,
          "velocity": 0.7874015748031497,
          "duration": 0.04437875000000702
        },
        {
          "name": "E5",
          "midi": 76,
          "time": 100.82852000000186,
          "velocity": 0.7874015748031497,
          "duration": 0.04437875000000702
        },
        {
          "name": "D5",
          "midi": 74,
          "time": 101.00603500000187,
          "velocity": 0.7874015748031497,
          "duration": 0.04437875000000702
        },
        {
          "name": "E5",
          "midi": 76,
          "time": 101.18355000000189,
          "velocity": 0.7874015748031497,
          "duration": 0.04437875000000702
        },
        {
          "name": "D5",
          "midi": 74,
          "time": 101.3610650000019,
          "velocity": 0.7874015748031497,
          "duration": 0.04437875000000702
        },
        {
          "name": "C5",
          "midi": 72,
          "time": 101.44982250000191,
          "velocity": 0.7874015748031497,
          "duration": 0.04437875000000702
        },
        {
          "name": "C5",
          "midi": 72,
          "time": 101.62733750000193,
          "velocity": 0.7874015748031497,
          "duration": 0.04437875000000702
        },
        {
          "name": "D5",
          "midi": 74,
          "time": 101.71609500000194,
          "velocity": 0.7874015748031497,
          "duration": 0.04437875000000702
        },
        {
          "name": "E5",
          "midi": 76,
          "time": 101.89361000000196,
          "velocity": 0.7874015748031497,
          "duration": 0.04437875000000702
        },
        {
          "name": "C5",
          "midi": 72,
          "time": 102.07112500000197,
          "velocity": 0.7874015748031497,
          "duration": 0.04437875000000702
        },
        {
          "name": "E5",
          "midi": 76,
          "time": 102.07112500000197,
          "velocity": 0.7874015748031497,
          "duration": 0.04437875000000702
        },
        {
          "name": "C5",
          "midi": 72,
          "time": 102.24864000000198,
          "velocity": 0.7874015748031497,
          "duration": 0.04437875000000702
        },
        {
          "name": "E5",
          "midi": 76,
          "time": 102.24864000000198,
          "velocity": 0.7874015748031497,
          "duration": 0.04437875000000702
        },
        {
          "name": "F5",
          "midi": 77,
          "time": 102.426155000002,
          "velocity": 0.7874015748031497,
          "duration": 0.04437875000000702
        },
        {
          "name": "C5",
          "midi": 72,
          "time": 102.51491250000201,
          "velocity": 0.7874015748031497,
          "duration": 0.04437875000000702
        },
        {
          "name": "F5",
          "midi": 77,
          "time": 102.60367000000203,
          "velocity": 0.7874015748031497,
          "duration": 0.04437875000000702
        },
        {
          "name": "E5",
          "midi": 76,
          "time": 102.69242750000204,
          "velocity": 0.7874015748031497,
          "duration": 0.04437875000000702
        },
        {
          "name": "C5",
          "midi": 72,
          "time": 102.78118500000205,
          "velocity": 0.7874015748031497,
          "duration": 0.04437875000000702
        },
        {
          "name": "F5",
          "midi": 77,
          "time": 102.95870000000207,
          "velocity": 0.7874015748031497,
          "duration": 0.04437875000000702
        },
        {
          "name": "C5",
          "midi": 72,
          "time": 103.22497250000208,
          "velocity": 0.7874015748031497,
          "duration": 0.04437875000000702
        },
        {
          "name": "D5",
          "midi": 74,
          "time": 103.3137300000021,
          "velocity": 0.7874015748031497,
          "duration": 0.04437875000000702
        },
        {
          "name": "E5",
          "midi": 76,
          "time": 103.3137300000021,
          "velocity": 0.7874015748031497,
          "duration": 0.04437875000000702
        },
        {
          "name": "C5",
          "midi": 72,
          "time": 103.49124500000211,
          "velocity": 0.7874015748031497,
          "duration": 0.04437875000000702
        },
        {
          "name": "D5",
          "midi": 74,
          "time": 103.66876000000212,
          "velocity": 0.7874015748031497,
          "duration": 0.04437875000000702
        },
        {
          "name": "E5",
          "midi": 76,
          "time": 103.84627500000214,
          "velocity": 0.7874015748031497,
          "duration": 0.04437875000000702
        },
        {
          "name": "E5",
          "midi": 76,
          "time": 104.02379000000215,
          "velocity": 0.7874015748031497,
          "duration": 0.04437875000000702
        },
        {
          "name": "F5",
          "midi": 77,
          "time": 104.02379000000215,
          "velocity": 0.7874015748031497,
          "duration": 0.04437875000000702
        },
        {
          "name": "E5",
          "midi": 76,
          "time": 104.20130500000217,
          "velocity": 0.7874015748031497,
          "duration": 0.04437875000000702
        },
        {
          "name": "D5",
          "midi": 74,
          "time": 104.29006250000218,
          "velocity": 0.7874015748031497,
          "duration": 0.04437875000000702
        },
        {
          "name": "D5",
          "midi": 74,
          "time": 104.46757750000219,
          "velocity": 0.7874015748031497,
          "duration": 0.04437875000000702
        },
        {
          "name": "E5",
          "midi": 76,
          "time": 104.5563350000022,
          "velocity": 0.7874015748031497,
          "duration": 0.04437875000000702
        },
        {
          "name": "E5",
          "midi": 76,
          "time": 104.73385000000222,
          "velocity": 0.7874015748031497,
          "duration": 0.04437875000000702
        },
        {
          "name": "F5",
          "midi": 77,
          "time": 104.73385000000222,
          "velocity": 0.7874015748031497,
          "duration": 0.04437875000000702
        },
        {
          "name": "E5",
          "midi": 76,
          "time": 104.91136500000223,
          "velocity": 0.7874015748031497,
          "duration": 0.04437875000000702
        },
        {
          "name": "C5",
          "midi": 72,
          "time": 105.08888000000225,
          "velocity": 0.7874015748031497,
          "duration": 0.04437875000000702
        },
        {
          "name": "E5",
          "midi": 76,
          "time": 105.08888000000225,
          "velocity": 0.7874015748031497,
          "duration": 0.04437875000000702
        },
        {
          "name": "F5",
          "midi": 77,
          "time": 105.26639500000226,
          "velocity": 0.7874015748031497,
          "duration": 0.04437875000000702
        },
        {
          "name": "C5",
          "midi": 72,
          "time": 105.35515250000228,
          "velocity": 0.7874015748031497,
          "duration": 0.04437875000000702
        },
        {
          "name": "F5",
          "midi": 77,
          "time": 105.44391000000229,
          "velocity": 0.7874015748031497,
          "duration": 0.04437875000000702
        },
        {
          "name": "E5",
          "midi": 76,
          "time": 105.5326675000023,
          "velocity": 0.7874015748031497,
          "duration": 0.04437875000000702
        },
        {
          "name": "C5",
          "midi": 72,
          "time": 105.62142500000232,
          "velocity": 0.7874015748031497,
          "duration": 0.04437875000000702
        },
        {
          "name": "F5",
          "midi": 77,
          "time": 105.79894000000233,
          "velocity": 0.7874015748031497,
          "duration": 0.04437875000000702
        },
        {
          "name": "C5",
          "midi": 72,
          "time": 106.06521250000235,
          "velocity": 0.7874015748031497,
          "duration": 0.04437875000000702
        },
        {
          "name": "D5",
          "midi": 74,
          "time": 106.15397000000236,
          "velocity": 0.7874015748031497,
          "duration": 0.04437875000000702
        },
        {
          "name": "E5",
          "midi": 76,
          "time": 106.15397000000236,
          "velocity": 0.7874015748031497,
          "duration": 0.04437875000000702
        },
        {
          "name": "C5",
          "midi": 72,
          "time": 106.33148500000237,
          "velocity": 0.7874015748031497,
          "duration": 0.04437875000000702
        },
        {
          "name": "E5",
          "midi": 76,
          "time": 106.50900000000239,
          "velocity": 0.7874015748031497,
          "duration": 0.04437875000000702
        },
        {
          "name": "F5",
          "midi": 77,
          "time": 106.6865150000024,
          "velocity": 0.7874015748031497,
          "duration": 0.04437875000000702
        },
        {
          "name": "C5",
          "midi": 72,
          "time": 106.86403000000242,
          "velocity": 0.7874015748031497,
          "duration": 0.04437875000000702
        },
        {
          "name": "E5",
          "midi": 76,
          "time": 106.86403000000242,
          "velocity": 0.7874015748031497,
          "duration": 0.04437875000000702
        },
        {
          "name": "F5",
          "midi": 77,
          "time": 107.04154500000243,
          "velocity": 0.7874015748031497,
          "duration": 0.04437875000000702
        },
        {
          "name": "E5",
          "midi": 76,
          "time": 107.13030250000244,
          "velocity": 0.7874015748031497,
          "duration": 0.04437875000000702
        },
        {
          "name": "E5",
          "midi": 76,
          "time": 107.30781750000246,
          "velocity": 0.7874015748031497,
          "duration": 0.04437875000000702
        },
        {
          "name": "F5",
          "midi": 77,
          "time": 107.39657500000247,
          "velocity": 0.7874015748031497,
          "duration": 0.04437875000000702
        },
        {
          "name": "C5",
          "midi": 72,
          "time": 107.57409000000249,
          "velocity": 0.7874015748031497,
          "duration": 0.04437875000000702
        },
        {
          "name": "E5",
          "midi": 76,
          "time": 107.57409000000249,
          "velocity": 0.7874015748031497,
          "duration": 0.04437875000000702
        },
        {
          "name": "E5",
          "midi": 76,
          "time": 107.7516050000025,
          "velocity": 0.7874015748031497,
          "duration": 0.04437875000000702
        },
        {
          "name": "C5",
          "midi": 72,
          "time": 107.92912000000251,
          "velocity": 0.7874015748031497,
          "duration": 0.04437875000000702
        },
        {
          "name": "D5",
          "midi": 74,
          "time": 107.92912000000251,
          "velocity": 0.7874015748031497,
          "duration": 0.04437875000000702
        },
        {
          "name": "E5",
          "midi": 76,
          "time": 108.10663500000253,
          "velocity": 0.7874015748031497,
          "duration": 0.04437875000000702
        },
        {
          "name": "C5",
          "midi": 72,
          "time": 108.28415000000254,
          "velocity": 0.7874015748031497,
          "duration": 0.04437875000000702
        },
        {
          "name": "F5",
          "midi": 77,
          "time": 108.28415000000254,
          "velocity": 0.7874015748031497,
          "duration": 0.04437875000000702
        },
        {
          "name": "E5",
          "midi": 76,
          "time": 108.37290750000255,
          "velocity": 0.7874015748031497,
          "duration": 0.04437875000000702
        },
        {
          "name": "C5",
          "midi": 72,
          "time": 108.55042250000257,
          "velocity": 0.7874015748031497,
          "duration": 0.04437875000000702
        },
        {
          "name": "D5",
          "midi": 74,
          "time": 108.55042250000257,
          "velocity": 0.7874015748031497,
          "duration": 0.04437875000000702
        },
        {
          "name": "C5",
          "midi": 72,
          "time": 108.90545250000258,
          "velocity": 0.7874015748031497,
          "duration": 0.04437875000000702
        },
        {
          "name": "D5",
          "midi": 74,
          "time": 108.9942100000026,
          "velocity": 0.7874015748031497,
          "duration": 0.04437875000000702
        },
        {
          "name": "E5",
          "midi": 76,
          "time": 108.9942100000026,
          "velocity": 0.7874015748031497,
          "duration": 0.04437875000000702
        },
        {
          "name": "C5",
          "midi": 72,
          "time": 109.17172500000261,
          "velocity": 0.7874015748031497,
          "duration": 0.04437875000000702
        },
        {
          "name": "F5",
          "midi": 77,
          "time": 109.34924000000262,
          "velocity": 0.6299212598425197,
          "duration": 0.04437875000000702
        },
        {
          "name": "E5",
          "midi": 76,
          "time": 109.61551250000264,
          "velocity": 0.6299212598425197,
          "duration": 0.04437875000000702
        },
        {
          "name": "D5",
          "midi": 74,
          "time": 109.88178500000265,
          "velocity": 0.6299212598425197,
          "duration": 0.06286989583333025
        },
        {
          "name": "C5",
          "midi": 72,
          "time": 110.14805750000265,
          "velocity": 0.6299212598425197,
          "duration": 0.06286989583333025
        },
        {
          "name": "F5",
          "midi": 77,
          "time": 110.32557250000265,
          "velocity": 0.6299212598425197,
          "duration": 0.04437875000000702
        },
        {
          "name": "F5",
          "midi": 77,
          "time": 110.41433000000266,
          "velocity": 0.6299212598425197,
          "duration": 0.04437875000000702
        },
        {
          "name": "D5",
          "midi": 74,
          "time": 110.59184500000268,
          "velocity": 0.6299212598425197,
          "duration": 0.04437875000000702
        },
        {
          "name": "C5",
          "midi": 72,
          "time": 110.76936000000269,
          "velocity": 0.6299212598425197,
          "duration": 0.04437875000000702
        },
        {
          "name": "E5",
          "midi": 76,
          "time": 110.76936000000269,
          "velocity": 0.6299212598425197,
          "duration": 0.04437875000000702
        }
      ]
}