{
      "notes": [
        {
          "name": "C5",
          "midi": 72,
          "time": 8,
          "velocity": 0.6299212598425197,
          "duration": 0.0625
        },
        {
          "name": "C5",
          "midi": 72,
          "time": 9.5,
          "velocity": 0.6299212598425197,
          "duration": 0.0625
        },
        {
          "name": "D5",
          "midi": 74,
          "time": 9.75,
          "velocity": 0.6299212598425197,
          "duration": 0.0625
        },
        {
          "name": "E5",
          "midi": 76,
          "time": 10,
          "velocity": 0.6299212598425197,
          "duration": 0.057291666666666075
        },
        {
          "name": "F5",
          "midi": 77,
          "time": 10.5,
          "velocity": 0.6299212598425197,
          "duration": 0.0625
        },
        {
          "name": "E5",
          "midi": 76,
          "time": 10.75,
          "velocity": 0.6299212598425197,
          "duration": 0.0625
        },
        {
          "name": "D5",
          "midi": 74,
          "time": 11,
          "velocity": 0.6299212598425197,
          "duration": 0.0625
        },
        {
          "name": "F5",
          "midi": 77,
          "time": 11.5,
          "velocity": 0.6299212598425197,
          "duration": 0.0625
        },
        {
          "name": "C5",
          "midi": 72,
          "time": 12,
          "velocity": 0.6299212598425197,
          "duration": 0.0625
        },
        {
          "name": "E5",
          "midi": 76,
          "time": 13.5,
          "velocity": 0.6299212598425197,
          "duration": 0.0625
        },
        {
          "name": "D5",
          "midi": 74,
          "time": 14,
          "velocity": 0.6299212598425197,
          "duration": 0.0625
        },
        {
          "name": "F5",
          "midi": 77,
          "time": 15,
          "velocity": 0.6299212598425197,
          "duration": 0.0625
        },
        {
          "name": "E5",
          "midi": 76,
          "time": 15.25,
          "velocity": 0.6299212598425197,
          "duration": 0.0625
        },
        {
          "name": "C5",
          "midi": 72,
          "time": 15.75,
          "velocity": 0.6299212598425197,
          "duration": 0.0625
        },
        {
          "name": "F5",
          "midi": 77,
          "time": 15.875,
          "velocity": 0.6299212598425197,
          "duration": 0.0625
        },
        {
          "name": "C5",
          "midi": 72,
          "time": 16,
          "velocity": 0.6299212598425197,
          "duration": 0.0625
        },
        {
          "name": "C5",
          "midi": 72,
          "time": 17.5,
          "velocity": 0.6299212598425197,
          "duration": 0.0625
        },
        {
          "name": "D5",
          "midi": 74,
          "time": 17.75,
          "velocity": 0.6299212598425197,
          "duration": 0.0625
        },
        {
          "name": "E5",
          "midi": 76,
          "time": 18,
          "velocity": 0.6299212598425197,
          "duration": 0.05729166666666785
        },
        {
          "name": "F5",
          "midi": 77,
          "time": 18.5,
          "velocity": 0.6299212598425197,
          "duration": 0.0625
        },
        {
          "name": "E5",
          "midi": 76,
          "time": 18.75,
          "velocity": 0.6299212598425197,
          "duration": 0.0625
        },
        {
          "name": "D5",
          "midi": 74,
          "time": 19,
          "velocity": 0.6299212598425197,
          "duration": 0.0625
        },
        {
          "name": "F5",
          "midi": 77,
          "time": 19.5,
          "velocity": 0.6299212598425197,
          "duration": 0.0625
        },
        {
          "name": "E5",
          "midi": 76,
          "time": 20,
          "velocity": 0.6299212598425197,
          "duration": 0.0625
        },
        {
          "name": "D5",
          "midi": 74,
          "time": 21.5,
          "velocity": 0.6299212598425197,
          "duration": 0.0625
        },
        {
          "name": "C5",
          "midi": 72,
          "time": 22,
          "velocity": 0.6299212598425197,
          "duration": 0.0625
        },
        {
          "name": "E5",
          "midi": 76,
          "time": 22.5,
          "velocity": 0.6299212598425197,
          "duration": 0.0625
        },
        {
          "name": "D5",
          "midi": 74,
          "time": 23,
          "velocity": 0.6299212598425197,
          "duration": 0.0625
        },
        {
          "name": "F5",
          "midi": 77,
          "time": 23.5,
          "velocity": 0.6299212598425197,
          "duration": 0.0625
        },
        {
          "name": "C5",
          "midi": 72,
          "time": 24,
          "velocity": 0.6299212598425197,
          "duration": 0.0625
        },
        {
          "name": "F5",
          "midi": 77,
          "time": 24,
          "velocity": 0.7716535433070866,
          "duration": 0.0625
        },
        {
          "name": "F5",
          "midi": 77,
          "time": 24.5,
          "velocity": 0.7874015748031497,
          "duration": 0.0625
        },
        {
          "name": "F5",
          "midi": 77,
          "time": 25,
          "velocity": 0.7874015748031497,
          "duration": 0.0625
        },
        {
          "name": "C5",
          "midi": 72,
          "time": 25.5,
          "velocity": 0.6299212598425197,
          "duration": 0.0625
        },
        {
          "name": "D5",
          "midi": 74,
          "time": 25.75,
          "velocity": 0.6299212598425197,
          "duration": 0.0625
        },
        {
          "name": "E5",
          "midi": 76,
          "time": 26,
          "velocity": 0.6299212598425197,
          "duration": 0.05729166666666785
        },
        {
          "name": "F5",
          "midi": 77,
          "time": 26.5,
          "velocity": 0.6299212598425197,
          "duration": 0.0625
        },
        {
          "name": "E5",
          "midi": 76,
          "time": 26.75,
          "velocity": 0.6299212598425197,
          "duration": 0.0625
        },
        {
          "name": "D5",
          "midi": 74,
          "time": 27,
          "velocity": 0.6299212598425197,
          "duration": 0.0625
        },
        {
          "name": "F5",
          "midi": 77,
          "time": 27.5,
          "velocity": 0.6299212598425197,
          "duration": 0.0625
        },
        {
          "name": "C5",
          "midi": 72,
          "time": 28,
          "velocity": 0.6299212598425197,
          "duration": 0.0625
        },
        {
          "name": "F5",
          "midi": 77,
          "time": 28,
          "velocity": 0.7716535433070866,
          "duration": 0.0625
        },
        {
          "name": "F5",
          "midi": 77,
          "time": 28.5,
          "velocity": 0.7874015748031497,
          "duration": 0.0625
        },
        {
          "name": "F5",
          "midi": 77,
          "time": 29,
          "velocity": 0.7874015748031497,
          "duration": 0.0625
        },
        {
          "name": "C5",
          "midi": 72,
          "time": 29.5,
          "velocity": 0.7716535433070866,
          "duration": 0.0625
        },
        {
          "name": "E5",
          "midi": 76,
          "time": 29.5,
          "velocity": 0.6299212598425197,
          "duration": 0.0625
        },
        {
          "name": "D5",
          "midi": 74,
          "time": 30,
          "velocity": 0.6299212598425197,
          "duration": 0.0625
        },
        {
          "name": "D5",
          "midi": 74,
          "time": 30.5,
          "velocity": 0.7874015748031497,
          "duration": 0.0625
        },
        {
          "name": "F5",
          "midi": 77,
          "time": 31,
          "velocity": 0.6299212598425197,
          "duration": 0.0625
        },
        {
          "name": "E5",
          "midi": 76,
          "time": 31.25,
          "velocity": 0.6299212598425197,
          "duration": 0.0625
        },
        {
          "name": "C5",
          "midi": 72,
          "time": 31.75,
          "velocity": 0.6299212598425197,
          "duration": 0.0625
        },
        {
          "name": "F5",
          "midi": 77,
          "time": 31.875,
          "velocity": 0.6299212598425197,
          "duration": 0.0625
        },
        {
          "name": "C5",
          "midi": 72,
          "time": 32,
          "velocity": 0.6299212598425197,
          "duration": 0.0625
        },
        {
          "name": "E5",
          "midi": 76,
          "time": 32,
          "velocity": 0.7716535433070866,
          "duration": 0.0625
        },
        {
          "name": "E5",
          "midi": 76,
          "time": 32.5,
          "velocity": 0.7874015748031497,
          "duration": 0.0625
        },
        {
          "name": "E5",
          "midi": 76,
          "time": 33,
          "velocity": 0.7874015748031497,
          "duration": 0.0625
        },
        {
          "name": "C5",
          "midi": 72,
          "time": 33.5,
          "velocity": 0.6299212598425197,
          "duration": 0.0625
        },
        {
          "name": "D5",
          "midi": 74,
          "time": 33.75,
          "velocity": 0.6299212598425197,
          "duration": 0.0625
        },
        {
          "name": "E5",
          "midi": 76,
          "time": 34,
          "velocity": 0.6299212598425197,
          "duration": 0.0572916666666643
        },
        {
          "name": "F5",
          "midi": 77,
          "time": 34.5,
          "velocity": 0.6299212598425197,
          "duration": 0.0625
        },
        {
          "name": "E5",
          "midi": 76,
          "time": 34.75,
          "velocity": 0.6299212598425197,
          "duration": 0.0625
        },
        {
          "name": "D5",
          "midi": 74,
          "time": 35,
          "velocity": 0.6299212598425197,
          "duration": 0.0625
        },
        {
          "name": "F5",
          "midi": 77,
          "time": 35.5,
          "velocity": 0.6299212598425197,
          "duration": 0.0625
        },
        {
          "name": "D5",
          "midi": 74,
          "time": 36,
          "velocity": 0.7716535433070866,
          "duration": 0.0520833333333357
        },
        {
          "name": "E5",
          "midi": 76,
          "time": 36,
          "velocity": 0.6299212598425197,
          "duration": 0.0625
        },
        {
          "name": "E5",
          "midi": 76,
          "time": 36.5,
          "velocity": 0.7874015748031497,
          "duration": 0.0625
        },
        {
          "name": "E5",
          "midi": 76,
          "time": 37,
          "velocity": 0.7874015748031497,
          "duration": 0.0625
        },
        {
          "name": "D5",
          "midi": 74,
          "time": 37.5,
          "velocity": 0.6299212598425197,
          "duration": 0.0625
        },
        {
          "name": "C5",
          "midi": 72,
          "time": 38,
          "velocity": 0.6299212598425197,
          "duration": 0.0625
        },
        {
          "name": "D5",
          "midi": 74,
          "time": 38,
          "velocity": 0.7716535433070866,
          "duration": 0.0520833333333357
        },
        {
          "name": "E5",
          "midi": 76,
          "time": 38.5,
          "velocity": 0.6299212598425197,
          "duration": 0.0625
        },
        {
          "name": "D5",
          "midi": 74,
          "time": 39,
          "velocity": 0.6299212598425197,
          "duration": 0.0625
        },
        {
          "name": "F5",
          "midi": 77,
          "time": 39.5,
          "velocity": 0.6299212598425197,
          "duration": 0.0625
        },
        {
          "name": "F5",
          "midi": 77,
          "time": 40,
          "velocity": 0.6299212598425197,
          "duration": 0.0625
        },
        {
          "name": "E5",
          "midi": 76,
          "time": 40.375,
          "velocity": 0.6299212598425197,
          "duration": 0.0625
        },
        {
          "name": "F5",
          "midi": 77,
          "time": 40.375,
          "velocity": 0.6299212598425197,
          "duration": 0.0625
        },
        {
          "name": "D5",
          "midi": 74,
          "time": 40.75,
          "velocity": 0.6299212598425197,
          "duration": 0.0572916666666643
        },
        {
          "name": "E5",
          "midi": 76,
          "time": 40.75,
          "velocity": 0.6299212598425197,
          "duration": 0.0625
        },
        {
          "name": "C5",
          "midi": 72,
          "time": 41.125,
          "velocity": 0.6299212598425197,
          "duration": 0.0572916666666643
        },
        {
          "name": "E5",
          "midi": 76,
          "time": 41.125,
          "velocity": 0.6299212598425197,
          "duration": 0.0625
        },
        {
          "name": "E5",
          "midi": 76,
          "time": 42,
          "velocity": 0.7874015748031497,
          "duration": 0.0625
        },
        {
          "name": "F5",
          "midi": 77,
          "time": 42.25,
          "velocity": 0.7874015748031497,
          "duration": 0.0625
        },
        {
          "name": "C5",
          "midi": 72,
          "time": 42.5,
          "velocity": 0.7874015748031497,
          "duration": 0.0625
        },
        {
          "name": "F5",
          "midi": 77,
          "time": 42.75,
          "velocity": 0.7874015748031497,
          "duration": 0.0625
        },
        {
          "name": "E5",
          "midi": 76,
          "time": 42.875,
          "velocity": 0.7874015748031497,
          "duration": 0.0625
        },
        {
          "name": "E5",
          "midi": 76,
          "time": 43.125,
          "velocity": 0.7874015748031497,
          "duration": 0.0625
        },
        {
          "name": "F5",
          "midi": 77,
          "time": 43.25,
          "velocity": 0.7874015748031497,
          "duration": 0.0625
        },
        {
          "name": "C5",
          "midi": 72,
          "time": 43.5,
          "velocity": 0.7874015748031497,
          "duration": 0.0625
        },
        {
          "name": "E5",
          "midi": 76,
          "time": 43.75,
          "velocity": 0.7874015748031497,
          "duration": 0.0625
        },
        {
          "name": "D5",
          "midi": 74,
          "time": 44,
          "velocity": 0.7874015748031497,
          "duration": 0.0625
        },
        {
          "name": "C5",
          "midi": 72,
          "time": 44.25,
          "velocity": 0.7874015748031497,
          "duration": 0.0625
        },
        {
          "name": "C5",
          "midi": 72,
          "time": 44.5,
          "velocity": 0.7874015748031497,
          "duration": 0.0625
        },
        {
          "name": "D5",
          "midi": 74,
          "time": 44.625,
          "velocity": 0.7874015748031497,
          "duration": 0.0625
        },
        {
          "name": "E5",
          "midi": 76,
          "time": 44.875,
          "velocity": 0.7874015748031497,
          "duration": 0.0625
        },
        {
          "name": "E5",
          "midi": 76,
          "time": 46,
          "velocity": 0.7874015748031497,
          "duration": 0.0625
        },
        {
          "name": "F5",
          "midi": 77,
          "time": 46.125,
          "velocity": 0.7874015748031497,
          "duration": 0.0625
        },
        {
          "name": "E5",
          "midi": 76,
          "time": 46.25,
          "velocity": 0.7874015748031497,
          "duration": 0.0625
        },
        {
          "name": "D5",
          "midi": 74,
          "time": 46.5,
          "velocity": 0.7874015748031497,
          "duration": 0.0625
        },
        {
          "name": "E5",
          "midi": 76,
          "time": 47,
          "velocity": 0.7874015748031497,
          "duration": 0.0625
        },
        {
          "name": "F5",
          "midi": 77,
          "time": 47.125,
          "velocity": 0.7874015748031497,
          "duration": 0.0625
        },
        {
          "name": "E5",
          "midi": 76,
          "time": 47.25,
          "velocity": 0.7874015748031497,
          "duration": 0.0625
        },
        {
          "name": "D5",
          "midi": 74,
          "time": 47.375,
          "velocity": 0.7874015748031497,
          "duration": 0.0625
        },
        {
          "name": "D5",
          "midi": 74,
          "time": 48,
          "velocity": 0.7874015748031497,
          "duration": 0.0625
        },
        {
          "name": "C5",
          "midi": 72,
          "time": 48.125,
          "velocity": 0.7795275590551181,
          "duration": 0.0625
        },
        {
          "name": "D5",
          "midi": 74,
          "time": 48.25,
          "velocity": 0.7874015748031497,
          "duration": 0.0625
        },
        {
          "name": "E5",
          "midi": 76,
          "time": 48.5,
          "velocity": 0.7874015748031497,
          "duration": 0.0625
        },
        {
          "name": "D5",
          "midi": 74,
          "time": 49,
          "velocity": 0.7874015748031497,
          "duration": 0.0625
        },
        {
          "name": "C5",
          "midi": 72,
          "time": 49.125,
          "velocity": 0.7795275590551181,
          "duration": 0.0625
        },
        {
          "name": "D5",
          "midi": 74,
          "time": 49.25,
          "velocity": 0.7874015748031497,
          "duration": 0.0625
        },
        {
          "name": "E5",
          "midi": 76,
          "time": 49.5,
          "velocity": 0.7874015748031497,
          "duration": 0.0625
        },
        {
          "name": "E5",
          "midi": 76,
          "time": 50,
          "velocity": 0.7874015748031497,
          "duration": 0.0625
        },
        {
          "name": "F5",
          "midi": 77,
          "time": 50.25,
          "velocity": 0.7874015748031497,
          "duration": 0.0625
        },
        {
          "name": "C5",
          "midi": 72,
          "time": 50.5,
          "velocity": 0.7874015748031497,
          "duration": 0.0625
        },
        {
          "name": "F5",
          "midi": 77,
          "time": 50.75,
          "velocity": 0.7874015748031497,
          "duration": 0.0625
        },
        {
          "name": "E5",
          "midi": 76,
          "time": 50.875,
          "velocity": 0.7874015748031497,
          "duration": 0.0625
        },
        {
          "name": "E5",
          "midi": 76,
          "time": 51.125,
          "velocity": 0.7874015748031497,
          "duration": 0.0625
        },
        {
          "name": "F5",
          "midi": 77,
          "time": 51.25,
          "velocity": 0.7874015748031497,
          "duration": 0.0625
        },
        {
          "name": "C5",
          "midi": 72,
          "time": 51.5,
          "velocity": 0.7874015748031497,
          "duration": 0.0625
        },
        {
          "name": "E5",
          "midi": 76,
          "time": 51.75,
          "velocity": 0.7874015748031497,
          "duration": 0.0625
        },
        {
          "name": "D5",
          "midi": 74,
          "time": 52,
          "velocity": 0.7874015748031497,
          "duration": 0.0625
        },
        {
          "name": "C5",
          "midi": 72,
          "time": 52.25,
          "velocity": 0.7874015748031497,
          "duration": 0.0625
        },
        {
          "name": "C5",
          "midi": 72,
          "time": 52.5,
          "velocity": 0.7874015748031497,
          "duration": 0.0625
        },
        {
          "name": "D5",
          "midi": 74,
          "time": 52.625,
          "velocity": 0.7874015748031497,
          "duration": 0.0625
        },
        {
          "name": "E5",
          "midi": 76,
          "time": 52.875,
          "velocity": 0.7874015748031497,
          "duration": 0.0625
        },
        {
          "name": "E5",
          "midi": 76,
          "time": 54,
          "velocity": 0.7874015748031497,
          "duration": 0.0625
        },
        {
          "name": "F5",
          "midi": 77,
          "time": 54.125,
          "velocity": 0.7874015748031497,
          "duration": 0.0625
        },
        {
          "name": "E5",
          "midi": 76,
          "time": 54.25,
          "velocity": 0.7874015748031497,
          "duration": 0.0625
        },
        {
          "name": "D5",
          "midi": 74,
          "time": 54.5,
          "velocity": 0.7874015748031497,
          "duration": 0.0625
        },
        {
          "name": "E5",
          "midi": 76,
          "time": 55,
          "velocity": 0.7874015748031497,
          "duration": 0.0625
        },
        {
          "name": "F5",
          "midi": 77,
          "time": 55.125,
          "velocity": 0.7874015748031497,
          "duration": 0.0625
        },
        {
          "name": "E5",
          "midi": 76,
          "time": 55.25,
          "velocity": 0.7874015748031497,
          "duration": 0.0625
        },
        {
          "name": "D5",
          "midi": 74,
          "time": 55.375,
          "velocity": 0.7874015748031497,
          "duration": 0.0625
        },
        {
          "name": "D5",
          "midi": 74,
          "time": 56,
          "velocity": 0.7874015748031497,
          "duration": 0.0625
        },
        {
          "name": "C5",
          "midi": 72,
          "time": 56.125,
          "velocity": 0.7795275590551181,
          "duration": 0.0625
        },
        {
          "name": "D5",
          "midi": 74,
          "time": 56.25,
          "velocity": 0.7874015748031497,
          "duration": 0.0625
        },
        {
          "name": "E5",
          "midi": 76,
          "time": 56.5,
          "velocity": 0.7874015748031497,
          "duration": 0.0625
        },
        {
          "name": "D5",
          "midi": 74,
          "time": 57,
          "velocity": 0.7874015748031497,
          "duration": 0.0625
        },
        {
          "name": "C5",
          "midi": 72,
          "time": 57.125,
          "velocity": 0.7795275590551181,
          "duration": 0.0625
        },
        {
          "name": "D5",
          "midi": 74,
          "time": 57.25,
          "velocity": 0.7874015748031497,
          "duration": 0.0625
        },
        {
          "name": "E5",
          "midi": 76,
          "time": 57.5,
          "velocity": 0.7874015748031497,
          "duration": 0.0625
        },
        {
          "name": "C5",
          "midi": 72,
          "time": 58,
          "velocity": 0.7874015748031497,
          "duration": 0.0625
        },
        {
          "name": "F5",
          "midi": 77,
          "time": 58,
          "velocity": 0.6299212598425197,
          "duration": 0.0625
        },
        {
          "name": "F5",
          "midi": 77,
          "time": 58.5,
          "velocity": 0.7874015748031497,
          "duration": 0.0729166666666643
        },
        {
          "name": "F5",
          "midi": 77,
          "time": 59,
          "velocity": 0.7874015748031497,
          "duration": 0.0729166666666643
        },
        {
          "name": "C5",
          "midi": 72,
          "time": 59.25,
          "velocity": 0.7874015748031497,
          "duration": 0.0625
        },
        {
          "name": "F5",
          "midi": 77,
          "time": 59.5,
          "velocity": 0.7874015748031497,
          "duration": 0.0729166666666643
        },
        {
          "name": "C5",
          "midi": 72,
          "time": 59.75,
          "velocity": 0.7874015748031497,
          "duration": 0.0625
        },
        {
          "name": "F5",
          "midi": 77,
          "time": 60,
          "velocity": 0.7874015748031497,
          "duration": 0.0729166666666643
        },
        {
          "name": "F5",
          "midi": 77,
          "time": 60.5,
          "velocity": 0.7874015748031497,
          "duration": 0.0729166666666643
        },
        {
          "name": "F5",
          "midi": 77,
          "time": 61,
          "velocity": 0.7874015748031497,
          "duration": 0.0625
        },
        {
          "name": "C5",
          "midi": 72,
          "time": 61.5,
          "velocity": 0.7874015748031497,
          "duration": 0.0625
        },
        {
          "name": "E5",
          "midi": 76,
          "time": 61.5,
          "velocity": 0.6299212598425197,
          "duration": 0.0625
        },
        {
          "name": "C5",
          "midi": 72,
          "time": 62,
          "velocity": 0.7874015748031497,
          "duration": 0.0625
        },
        {
          "name": "F5",
          "midi": 77,
          "time": 62,
          "velocity": 0.6299212598425197,
          "duration": 0.0625
        },
        {
          "name": "F5",
          "midi": 77,
          "time": 62.5,
          "velocity": 0.7874015748031497,
          "duration": 0.0625
        },
        {
          "name": "F5",
          "midi": 77,
          "time": 63,
          "velocity": 0.7874015748031497,
          "duration": 0.0625
        },
        {
          "name": "C5",
          "midi": 72,
          "time": 63.25,
          "velocity": 0.7874015748031497,
          "duration": 0.0625
        },
        {
          "name": "F5",
          "midi": 77,
          "time": 63.5,
          "velocity": 0.7874015748031497,
          "duration": 0.015625
        },
        {
          "name": "C5",
          "midi": 72,
          "time": 63.75,
          "velocity": 0.7874015748031497,
          "duration": 0.0625
        },
        {
          "name": "F5",
          "midi": 77,
          "time": 64,
          "velocity": 0.7874015748031497,
          "duration": 0.0625
        },
        {
          "name": "F5",
          "midi": 77,
          "time": 64.5,
          "velocity": 0.7874015748031497,
          "duration": 0.0625
        },
        {
          "name": "F5",
          "midi": 77,
          "time": 65,
          "velocity": 0.7874015748031497,
          "duration": 0.0625
        },
        {
          "name": "C5",
          "midi": 72,
          "time": 65.5,
          "velocity": 0.7874015748031497,
          "duration": 0.0625
        },
        {
          "name": "E5",
          "midi": 76,
          "time": 65.5,
          "velocity": 0.6299212598425197,
          "duration": 0.0625
        },
        {
          "name": "D5",
          "midi": 74,
          "time": 66,
          "velocity": 0.6299212598425197,
          "duration": 0.0677083333333286
        },
        {
          "name": "E5",
          "midi": 76,
          "time": 66,
          "velocity": 0.7874015748031497,
          "duration": 0.0625
        },
        {
          "name": "D5",
          "midi": 74,
          "time": 66.5,
          "velocity": 0.7874015748031497,
          "duration": 0.0625
        },
        {
          "name": "D5",
          "midi": 74,
          "time": 67,
          "velocity": 0.7874015748031497,
          "duration": 0.0625
        },
        {
          "name": "E5",
          "midi": 76,
          "time": 67.25,
          "velocity": 0.7874015748031497,
          "duration": 0.0625
        },
        {
          "name": "D5",
          "midi": 74,
          "time": 67.5,
          "velocity": 0.7874015748031497,
          "duration": 0.0625
        },
        {
          "name": "E5",
          "midi": 76,
          "time": 67.75,
          "velocity": 0.7874015748031497,
          "duration": 0.0625
        },
        {
          "name": "D5",
          "midi": 74,
          "time": 68,
          "velocity": 0.7874015748031497,
          "duration": 0.0625
        },
        {
          "name": "D5",
          "midi": 74,
          "time": 68.5,
          "velocity": 0.7716535433070866,
          "duration": 0.0625
        },
        {
          "name": "D5",
          "midi": 74,
          "time": 69,
          "velocity": 0.7716535433070866,
          "duration": 0.0625
        },
        {
          "name": "D5",
          "midi": 74,
          "time": 69.5,
          "velocity": 0.6299212598425197,
          "duration": 0.0625
        },
        {
          "name": "F5",
          "midi": 77,
          "time": 69.5,
          "velocity": 0.7874015748031497,
          "duration": 0.0625
        },
        {
          "name": "C5",
          "midi": 72,
          "time": 70,
          "velocity": 0.6299212598425197,
          "duration": 0.0625
        },
        {
          "name": "D5",
          "midi": 74,
          "time": 70,
          "velocity": 0.7874015748031497,
          "duration": 0.0625
        },
        {
          "name": "C5",
          "midi": 72,
          "time": 70.5,
          "velocity": 0.7716535433070866,
          "duration": 0.0625
        },
        {
          "name": "C5",
          "midi": 72,
          "time": 71,
          "velocity": 0.7716535433070866,
          "duration": 0.0625
        },
        {
          "name": "D5",
          "midi": 74,
          "time": 71.25,
          "velocity": 0.7874015748031497,
          "duration": 0.0625
        },
        {
          "name": "C5",
          "midi": 72,
          "time": 71.5,
          "velocity": 0.7716535433070866,
          "duration": 0.0625
        },
        {
          "name": "D5",
          "midi": 74,
          "time": 71.75,
          "velocity": 0.7874015748031497,
          "duration": 0.0625
        },
        {
          "name": "D5",
          "midi": 74,
          "time": 72,
          "velocity": 0.7874015748031497,
          "duration": 0.0625
        },
        {
          "name": "F5",
          "midi": 77,
          "time": 72,
          "velocity": 0.6299212598425197,
          "duration": 0.0625
        },
        {
          "name": "D5",
          "midi": 74,
          "time": 72.5,
          "velocity": 0.7874015748031497,
          "duration": 0.0625
        },
        {
          "name": "F5",
          "midi": 77,
          "time": 72.5,
          "velocity": 0.7716535433070866,
          "duration": 0.0625
        },
        {
          "name": "D5",
          "midi": 74,
          "time": 73,
          "velocity": 0.7874015748031497,
          "duration": 0.0625
        },
        {
          "name": "F5",
          "midi": 77,
          "time": 73,
          "velocity": 0.7716535433070866,
          "duration": 0.0625
        },
        {
          "name": "D5",
          "midi": 74,
          "time": 73.5,
          "velocity": 0.7874015748031497,
          "duration": 0.0625
        },
        {
          "name": "F5",
          "midi": 77,
          "time": 73.5,
          "velocity": 0.7716535433070866,
          "duration": 0.0625
        },
        {
          "name": "F5",
          "midi": 77,
          "time": 74,
          "velocity": 0.6299212598425197,
          "duration": 0.0625
        },
        {
          "name": "D5",
          "midi": 74,
          "time": 74.25,
          "velocity": 0.7874015748031497,
          "duration": 0.0625
        },
        {
          "name": "F5",
          "midi": 77,
          "time": 74.375,
          "velocity": 0.6299212598425197,
          "duration": 0.0625
        },
        {
          "name": "E5",
          "midi": 76,
          "time": 74.75,
          "velocity": 0.6299212598425197,
          "duration": 0.057291666666671404
        },
        {
          "name": "F5",
          "midi": 77,
          "time": 75,
          "velocity": 0.6299212598425197,
          "duration": 0.057291666666671404
        },
        {
          "name": "C5",
          "midi": 72,
          "time": 75.25,
          "velocity": 0.7874015748031497,
          "duration": 0.0625
        },
        {
          "name": "D5",
          "midi": 74,
          "time": 75.25,
          "velocity": 0.7716535433070866,
          "duration": 0.0625
        },
        {
          "name": "C5",
          "midi": 72,
          "time": 75.5,
          "velocity": 0.7874015748031497,
          "duration": 0.0625
        },
        {
          "name": "F5",
          "midi": 77,
          "time": 75.5,
          "velocity": 0.7716535433070866,
          "duration": 0.0625
        },
        {
          "name": "C5",
          "midi": 72,
          "time": 76,
          "velocity": 0.6299212598425197,
          "duration": 0.0625
        },
        {
          "name": "D5",
          "midi": 74,
          "time": 76.25,
          "velocity": 0.6299212598425197,
          "duration": 0.0625
        },
        {
          "name": "C5",
          "midi": 72,
          "time": 76.375,
          "velocity": 0.7874015748031497,
          "duration": 0.0625
        },
        {
          "name": "E5",
          "midi": 76,
          "time": 76.5,
          "velocity": 0.7874015748031497,
          "duration": 0.0625
        },
        {
          "name": "E5",
          "midi": 76,
          "time": 76.75,
          "velocity": 0.6299212598425197,
          "duration": 0.0625
        },
        {
          "name": "E5",
          "midi": 76,
          "time": 77,
          "velocity": 0.6299212598425197,
          "duration": 0.0625
        },
        {
          "name": "D5",
          "midi": 74,
          "time": 77.375,
          "velocity": 0.7874015748031497,
          "duration": 0.0625
        },
        {
          "name": "C5",
          "midi": 72,
          "time": 77.5,
          "velocity": 0.7716535433070866,
          "duration": 0.0625
        },
        {
          "name": "E5",
          "midi": 76,
          "time": 77.75,
          "velocity": 0.7716535433070866,
          "duration": 0.0625
        },
        {
          "name": "D5",
          "midi": 74,
          "time": 78,
          "velocity": 0.6299212598425197,
          "duration": 0.0625
        },
        {
          "name": "E5",
          "midi": 76,
          "time": 78.25,
          "velocity": 0.7874015748031497,
          "duration": 0.0625
        },
        {
          "name": "D5",
          "midi": 74,
          "time": 78.375,
          "velocity": 0.6299212598425197,
          "duration": 0.0625
        },
        {
          "name": "C5",
          "midi": 72,
          "time": 78.75,
          "velocity": 0.6299212598425197,
          "duration": 0.057291666666671404
        },
        {
          "name": "D5",
          "midi": 74,
          "time": 79,
          "velocity": 0.6299212598425197,
          "duration": 0.057291666666671404
        },
        {
          "name": "C5",
          "midi": 72,
          "time": 79.25,
          "velocity": 0.7874015748031497,
          "duration": 0.0625
        },
        {
          "name": "E5",
          "midi": 76,
          "time": 79.25,
          "velocity": 0.7716535433070866,
          "duration": 0.0625
        },
        {
          "name": "C5",
          "midi": 72,
          "time": 79.5,
          "velocity": 0.7874015748031497,
          "duration": 0.0625
        },
        {
          "name": "D5",
          "midi": 74,
          "time": 79.5,
          "velocity": 0.7716535433070866,
          "duration": 0.0625
        },
        {
          "name": "F5",
          "midi": 77,
          "time": 80,
          "velocity": 0.6299212598425197,
          "duration": 0.0625
        },
        {
          "name": "C5",
          "midi": 72,
          "time": 80.25,
          "velocity": 0.6299212598425197,
          "duration": 0.0625
        },
        {
          "name": "E5",
          "midi": 76,
          "time": 80.375,
          "velocity": 0.7874015748031497,
          "duration": 0.0625
        },
        {
          "name": "F5",
          "midi": 77,
          "time": 80.5,
          "velocity": 0.7874015748031497,
          "duration": 0.0625
        },
        {
          "name": "E5",
          "midi": 76,
          "time": 80.625,
          "velocity": 0.7874015748031497,
          "duration": 0.0625
        },
        {
          "name": "F5",
          "midi": 77,
          "time": 80.75,
          "velocity": 0.6299212598425197,
          "duration": 0.0625
        },
        {
          "name": "F5",
          "midi": 77,
          "time": 81,
          "velocity": 0.6299212598425197,
          "duration": 0.0625
        },
        {
          "name": "C5",
          "midi": 72,
          "time": 81.375,
          "velocity": 0.7874015748031497,
          "duration": 0.0625
        },
        {
          "name": "E5",
          "midi": 76,
          "time": 81.5,
          "velocity": 0.7716535433070866,
          "duration": 0.0625
        },
        {
          "name": "F5",
          "midi": 77,
          "time": 81.75,
          "velocity": 0.7716535433070866,
          "duration": 0.0625
        },
        {
          "name": "C5",
          "midi": 72,
          "time": 82,
          "velocity": 0.6299212598425197,
          "duration": 0.0625
        },
        {
          "name": "D5",
          "midi": 74,
          "time": 82.25,
          "velocity": 0.7874015748031497,
          "duration": 0.0625
        },
        {
          "name": "C5",
          "midi": 72,
          "time": 82.375,
          "velocity": 0.6299212598425197,
          "duration": 0.0625
        },
        {
          "name": "F5",
          "midi": 77,
          "time": 82.75,
          "velocity": 0.6299212598425197,
          "duration": 0.057291666666671404
        },
        {
          "name": "C5",
          "midi": 72,
          "time": 83,
          "velocity": 0.6299212598425197,
          "duration": 0.057291666666671404
        },
        {
          "name": "C5",
          "midi": 72,
          "time": 83.25,
          "velocity": 0.7874015748031497,
          "duration": 0.057291666666671404
        },
        {
          "name": "D5",
          "midi": 74,
          "time": 83.25,
          "velocity": 0.7716535433070866,
          "duration": 0.0625
        },
        {
          "name": "C5",
          "midi": 72,
          "time": 83.5,
          "velocity": 0.7716535433070866,
          "duration": 0.0625
        },
        {
          "name": "E5",
          "midi": 76,
          "time": 83.5,
          "velocity": 0.7874015748031497,
          "duration": 0.0625
        },
        {
          "name": "C5",
          "midi": 72,
          "time": 84,
          "velocity": 0.6299212598425197,
          "duration": 0.0625
        },
        {
          "name": "D5",
          "midi": 74,
          "time": 84.25,
          "velocity": 0.6299212598425197,
          "duration": 0.0625
        },
        {
          "name": "C5",
          "midi": 72,
          "time": 84.375,
          "velocity": 0.7874015748031497,
          "duration": 0.0625
        },
        {
          "name": "E5",
          "midi": 76,
          "time": 84.5,
          "velocity": 0.7874015748031497,
          "duration": 0.0625
        },
        {
          "name": "E5",
          "midi": 76,
          "time": 84.75,
          "velocity": 0.6299212598425197,
          "duration": 0.0625
        },
        {
          "name": "E5",
          "midi": 76,
          "time": 85,
          "velocity": 0.6299212598425197,
          "duration": 0.0625
        },
        {
          "name": "D5",
          "midi": 74,
          "time": 85.375,
          "velocity": 0.7874015748031497,
          "duration": 0.0625
        },
        {
          "name": "C5",
          "midi": 72,
          "time": 85.5,
          "velocity": 0.7716535433070866,
          "duration": 0.0625
        },
        {
          "name": "E5",
          "midi": 76,
          "time": 85.75,
          "velocity": 0.7716535433070866,
          "duration": 0.0625
        },
        {
          "name": "E5",
          "midi": 76,
          "time": 86,
          "velocity": 0.6299212598425197,
          "duration": 0.0625
        },
        {
          "name": "C5",
          "midi": 72,
          "time": 86.25,
          "velocity": 0.7874015748031497,
          "duration": 0.0625
        },
        {
          "name": "E5",
          "midi": 76,
          "time": 86.375,
          "velocity": 0.6299212598425197,
          "duration": 0.0625
        },
        {
          "name": "D5",
          "midi": 74,
          "time": 86.75,
          "velocity": 0.6299212598425197,
          "duration": 0.057291666666671404
        },
        {
          "name": "E5",
          "midi": 76,
          "time": 87,
          "velocity": 0.6299212598425197,
          "duration": 0.057291666666671404
        },
        {
          "name": "C5",
          "midi": 72,
          "time": 87.25,
          "velocity": 0.7874015748031497,
          "duration": 0.0625
        },
        {
          "name": "D5",
          "midi": 74,
          "time": 87.25,
          "velocity": 0.7716535433070866,
          "duration": 0.0625
        },
        {
          "name": "C5",
          "midi": 72,
          "time": 87.5,
          "velocity": 0.7874015748031497,
          "duration": 0.0625
        },
        {
          "name": "E5",
          "midi": 76,
          "time": 87.5,
          "velocity": 0.7716535433070866,
          "duration": 0.0625
        },
        {
          "name": "F5",
          "midi": 77,
          "time": 88,
          "velocity": 0.6299212598425197,
          "duration": 0.0625
        },
        {
          "name": "C5",
          "midi": 72,
          "time": 88.25,
          "velocity": 0.6299212598425197,
          "duration": 0.0625
        },
        {
          "name": "E5",
          "midi": 76,
          "time": 88.375,
          "velocity": 0.7874015748031497,
          "duration": 0.0625
        },
        {
          "name": "F5",
          "midi": 77,
          "time": 88.5,
          "velocity": 0.7874015748031497,
          "duration": 0.0625
        },
        {
          "name": "E5",
          "midi": 76,
          "time": 88.625,
          "velocity": 0.7874015748031497,
          "duration": 0.0625
        },
        {
          "name": "F5",
          "midi": 77,
          "time": 88.75,
          "velocity": 0.6299212598425197,
          "duration": 0.0625
        },
        {
          "name": "F5",
          "midi": 77,
          "time": 89,
          "velocity": 0.6299212598425197,
          "duration": 0.0625
        },
        {
          "name": "C5",
          "midi": 72,
          "time": 89.375,
          "velocity": 0.7874015748031497,
          "duration": 0.0625
        },
        {
          "name": "E5",
          "midi": 76,
          "time": 89.5,
          "velocity": 0.7716535433070866,
          "duration": 0.0625
        },
        {
          "name": "F5",
          "midi": 77,
          "time": 89.75,
          "velocity": 0.7716535433070866,
          "duration": 0.0625
        },
        {
          "name": "C5",
          "midi": 72,
          "time": 90,
          "velocity": 0.6299212598425197,
          "duration": 0.0625
        },
        {
          "name": "F5",
          "midi": 77,
          "time": 90,
          "velocity": 0.7716535433070866,
          "duration": 0.0625
        },
        {
          "name": "C5",
          "midi": 72,
          "time": 91.5,
          "velocity": 0.6299212598425197,
          "duration": 0.0625
        },
        {
          "name": "D5",
          "midi": 74,
          "time": 91.75,
          "velocity": 0.6299212598425197,
          "duration": 0.0625
        },
        {
          "name": "E5",
          "midi": 76,
          "time": 92,
          "velocity": 0.6299212598425197,
          "duration": 0.057291666666671404
        },
        {
          "name": "F5",
          "midi": 77,
          "time": 92.5,
          "velocity": 0.6299212598425197,
          "duration": 0.0625
        },
        {
          "name": "E5",
          "midi": 76,
          "time": 92.75,
          "velocity": 0.6299212598425197,
          "duration": 0.0625
        },
        {
          "name": "D5",
          "midi": 74,
          "time": 93,
          "velocity": 0.6299212598425197,
          "duration": 0.0625
        },
        {
          "name": "F5",
          "midi": 77,
          "time": 93.5,
          "velocity": 0.6299212598425197,
          "duration": 0.0625
        },
        {
          "name": "C5",
          "midi": 72,
          "time": 94,
          "velocity": 0.6299212598425197,
          "duration": 0.0625
        },
        {
          "name": "F5",
          "midi": 77,
          "time": 94,
          "velocity": 0.7716535433070866,
          "duration": 0.0625
        },
        {
          "name": "C5",
          "midi": 72,
          "time": 95.5,
          "velocity": 0.7716535433070866,
          "duration": 0.0625
        },
        {
          "name": "E5",
          "midi": 76,
          "time": 95.5,
          "velocity": 0.6299212598425197,
          "duration": 0.0625
        },
        {
          "name": "D5",
          "midi": 74,
          "time": 96,
          "velocity": 0.6299212598425197,
          "duration": 0.0625
        },
        {
          "name": "F5",
          "midi": 77,
          "time": 97,
          "velocity": 0.6299212598425197,
          "duration": 0.0625
        },
        {
          "name": "E5",
          "midi": 76,
          "time": 97.25,
          "velocity": 0.6299212598425197,
          "duration": 0.0625
        },
        {
          "name": "C5",
          "midi": 72,
          "time": 97.75,
          "velocity": 0.6299212598425197,
          "duration": 0.0625
        },
        {
          "name": "F5",
          "midi": 77,
          "time": 97.875,
          "velocity": 0.6299212598425197,
          "duration": 0.0625
        },
        {
          "name": "C5",
          "midi": 72,
          "time": 98,
          "velocity": 0.6299212598425197,
          "duration": 0.0625
        },
        {
          "name": "E5",
          "midi": 76,
          "time": 98,
          "velocity": 0.7716535433070866,
          "duration": 0.0625
        },
        {
          "name": "C5",
          "midi": 72,
          "time": 99.5,
          "velocity": 0.6299212598425197,
          "duration": 0.0625
        },
        {
          "name": "D5",
          "midi": 74,
          "time": 99.75,
          "velocity": 0.6299212598425197,
          "duration": 0.0625
        },
        {
          "name": "E5",
          "midi": 76,
          "time": 100,
          "velocity": 0.6299212598425197,
          "duration": 0.057291666666671404
        },
        {
          "name": "F5",
          "midi": 77,
          "time": 100.5,
          "velocity": 0.6299212598425197,
          "duration": 0.0625
        },
        {
          "name": "E5",
          "midi": 76,
          "time": 100.75,
          "velocity": 0.6299212598425197,
          "duration": 0.0625
        },
        {
          "name": "D5",
          "midi": 74,
          "time": 101,
          "velocity": 0.6299212598425197,
          "duration": 0.0625
        },
        {
          "name": "F5",
          "midi": 77,
          "time": 101.5,
          "velocity": 0.6299212598425197,
          "duration": 0.0625
        },
        {
          "name": "D5",
          "midi": 74,
          "time": 102,
          "velocity": 0.7716535433070866,
          "duration": 0.052083333333328596
        },
        {
          "name": "E5",
          "midi": 76,
          "time": 102,
          "velocity": 0.6299212598425197,
          "duration": 0.0625
        },
        {
          "name": "D5",
          "midi": 74,
          "time": 103.5,
          "velocity": 0.6299212598425197,
          "duration": 0.0625
        },
        {
          "name": "C5",
          "midi": 72,
          "time": 104,
          "velocity": 0.6299212598425197,
          "duration": 0.0625
        },
        {
          "name": "D5",
          "midi": 74,
          "time": 104,
          "velocity": 0.7716535433070866,
          "duration": 0.052083333333328596
        },
        {
          "name": "E5",
          "midi": 76,
          "time": 104.5,
          "velocity": 0.6299212598425197,
          "duration": 0.0625
        },
        {
          "name": "D5",
          "midi": 74,
          "time": 105,
          "velocity": 0.6299212598425197,
          "duration": 0.0625
        },
        {
          "name": "F5",
          "midi": 77,
          "time": 105.5,
          "velocity": 0.6299212598425197,
          "duration": 0.0625
        },
        {
          "name": "C5",
          "midi": 72,
          "time": 106,
          "velocity": 0.6299212598425197,
          "duration": 0.0625
        },
        {
          "name": "F5",
          "midi": 77,
          "time": 106,
          "velocity": 0.7716535433070866,
          "duration": 0.0625
        },
        {
          "name": "F5",
          "midi": 77,
          "time": 106.5,
          "velocity": 0.7874015748031497,
          "duration": 0.0625
        },
        {
          "name": "F5",
          "midi": 77,
          "time": 107,
          "velocity": 0.7874015748031497,
          "duration": 0.0625
        },
        {
          "name": "C5",
          "midi": 72,
          "time": 107.5,
          "velocity": 0.6299212598425197,
          "duration": 0.0625
        },
        {
          "name": "D5",
          "midi": 74,
          "time": 107.75,
          "velocity": 0.6299212598425197,
          "duration": 0.0625
        },
        {
          "name": "E5",
          "midi": 76,
          "time": 108,
          "velocity": 0.6299212598425197,
          "duration": 0.057291666666671404
        },
        {
          "name": "F5",
          "midi": 77,
          "time": 108.5,
          "velocity": 0.6299212598425197,
          "duration": 0.0625
        },
        {
          "name": "E5",
          "midi": 76,
          "time": 108.75,
          "velocity": 0.6299212598425197,
          "duration": 0.0625
        },
        {
          "name": "D5",
          "midi": 74,
          "time": 109,
          "velocity": 0.6299212598425197,
          "duration": 0.0625
        },
        {
          "name": "F5",
          "midi": 77,
          "time": 109.5,
          "velocity": 0.6299212598425197,
          "duration": 0.0625
        },
        {
          "name": "C5",
          "midi": 72,
          "time": 110,
          "velocity": 0.6299212598425197,
          "duration": 0.0625
        },
        {
          "name": "F5",
          "midi": 77,
          "time": 110,
          "velocity": 0.7716535433070866,
          "duration": 0.0625
        },
        {
          "name": "F5",
          "midi": 77,
          "time": 110.5,
          "velocity": 0.7874015748031497,
          "duration": 0.0625
        },
        {
          "name": "F5",
          "midi": 77,
          "time": 111,
          "velocity": 0.7874015748031497,
          "duration": 0.0625
        },
        {
          "name": "C5",
          "midi": 72,
          "time": 111.5,
          "velocity": 0.7716535433070866,
          "duration": 0.0625
        },
        {
          "name": "E5",
          "midi": 76,
          "time": 111.5,
          "velocity": 0.6299212598425197,
          "duration": 0.0625
        },
        {
          "name": "D5",
          "midi": 74,
          "time": 112,
          "velocity": 0.6299212598425197,
          "duration": 0.0625
        },
        {
          "name": "D5",
          "midi": 74,
          "time": 112.5,
          "velocity": 0.7874015748031497,
          "duration": 0.0625
        },
        {
          "name": "F5",
          "midi": 77,
          "time": 113,
          "velocity": 0.6299212598425197,
          "duration": 0.0625
        },
        {
          "name": "E5",
          "midi": 76,
          "time": 113.25,
          "velocity": 0.6299212598425197,
          "duration": 0.0625
        },
        {
          "name": "C5",
          "midi": 72,
          "time": 113.75,
          "velocity": 0.6299212598425197,
          "duration": 0.0625
        },
        {
          "name": "F5",
          "midi": 77,
          "time": 113.875,
          "velocity": 0.6299212598425197,
          "duration": 0.0625
        },
        {
          "name": "C5",
          "midi": 72,
          "time": 114,
          "velocity": 0.6299212598425197,
          "duration": 0.0625
        },
        {
          "name": "E5",
          "midi": 76,
          "time": 114,
          "velocity": 0.7716535433070866,
          "duration": 0.0625
        },
        {
          "name": "E5",
          "midi": 76,
          "time": 114.5,
          "velocity": 0.7874015748031497,
          "duration": 0.0625
        },
        {
          "name": "E5",
          "midi": 76,
          "time": 115,
          "velocity": 0.7874015748031497,
          "duration": 0.0625
        },
        {
          "name": "C5",
          "midi": 72,
          "time": 115.5,
          "velocity": 0.6299212598425197,
          "duration": 0.0625
        },
        {
          "name": "D5",
          "midi": 74,
          "time": 115.75,
          "velocity": 0.6299212598425197,
          "duration": 0.0625
        },
        {
          "name": "E5",
          "midi": 76,
          "time": 116,
          "velocity": 0.6299212598425197,
          "duration": 0.057291666666671404
        },
        {
          "name": "F5",
          "midi": 77,
          "time": 116.5,
          "velocity": 0.6299212598425197,
          "duration": 0.0625
        },
        {
          "name": "E5",
          "midi": 76,
          "time": 116.75,
          "velocity": 0.6299212598425197,
          "duration": 0.0625
        },
        {
          "name": "D5",
          "midi": 74,
          "time": 117,
          "velocity": 0.6299212598425197,
          "duration": 0.0625
        },
        {
          "name": "F5",
          "midi": 77,
          "time": 117.5,
          "velocity": 0.6299212598425197,
          "duration": 0.0625
        },
        {
          "name": "D5",
          "midi": 74,
          "time": 118,
          "velocity": 0.7716535433070866,
          "duration": 0.052083333333328596
        },
        {
          "name": "E5",
          "midi": 76,
          "time": 118,
          "velocity": 0.6299212598425197,
          "duration": 0.0625
        },
        {
          "name": "E5",
          "midi": 76,
          "time": 118.5,
          "velocity": 0.7874015748031497,
          "duration": 0.0625
        },
        {
          "name": "E5",
          "midi": 76,
          "time": 119,
          "velocity": 0.7874015748031497,
          "duration": 0.0625
        },
        {
          "name": "D5",
          "midi": 74,
          "time": 119.5,
          "velocity": 0.6299212598425197,
          "duration": 0.0625
        },
        {
          "name": "C5",
          "midi": 72,
          "time": 120,
          "velocity": 0.6299212598425197,
          "duration": 0.0625
        },
        {
          "name": "D5",
          "midi": 74,
          "time": 120,
          "velocity": 0.7716535433070866,
          "duration": 0.052083333333328596
        },
        {
          "name": "E5",
          "midi": 76,
          "time": 120.5,
          "velocity": 0.6299212598425197,
          "duration": 0.0625
        },
        {
          "name": "D5",
          "midi": 74,
          "time": 121,
          "velocity": 0.6299212598425197,
          "duration": 0.0625
        },
        {
          "name": "F5",
          "midi": 77,
          "time": 121.5,
          "velocity": 0.6299212598425197,
          "duration": 0.0625
        },
        {
          "name": "E5",
          "midi": 76,
          "time": 122,
          "velocity": 0.7874015748031497,
          "duration": 0.0625
        },
        {
          "name": "F5",
          "midi": 77,
          "time": 122.25,
          "velocity": 0.7874015748031497,
          "duration": 0.0625
        },
        {
          "name": "C5",
          "midi": 72,
          "time": 122.5,
          "velocity": 0.7874015748031497,
          "duration": 0.0625
        },
        {
          "name": "F5",
          "midi": 77,
          "time": 122.75,
          "velocity": 0.7874015748031497,
          "duration": 0.0625
        },
        {
          "name": "E5",
          "midi": 76,
          "time": 122.875,
          "velocity": 0.7874015748031497,
          "duration": 0.0625
        },
        {
          "name": "E5",
          "midi": 76,
          "time": 123.125,
          "velocity": 0.7874015748031497,
          "duration": 0.0625
        },
        {
          "name": "F5",
          "midi": 77,
          "time": 123.25,
          "velocity": 0.7874015748031497,
          "duration": 0.0625
        },
        {
          "name": "C5",
          "midi": 72,
          "time": 123.5,
          "velocity": 0.7874015748031497,
          "duration": 0.0625
        },
        {
          "name": "E5",
          "midi": 76,
          "time": 123.75,
          "velocity": 0.7874015748031497,
          "duration": 0.0625
        },
        {
          "name": "D5",
          "midi": 74,
          "time": 124,
          "velocity": 0.7874015748031497,
          "duration": 0.0625
        },
        {
          "name": "C5",
          "midi": 72,
          "time": 124.25,
          "velocity": 0.7874015748031497,
          "duration": 0.0625
        },
        {
          "name": "C5",
          "midi": 72,
          "time": 124.5,
          "velocity": 0.7874015748031497,
          "duration": 0.0625
        },
        {
          "name": "D5",
          "midi": 74,
          "time": 124.625,
          "velocity": 0.7874015748031497,
          "duration": 0.0625
        },
        {
          "name": "E5",
          "midi": 76,
          "time": 124.875,
          "velocity": 0.7874015748031497,
          "duration": 0.0625
        },
        {
          "name": "D5",
          "midi": 74,
          "time": 125.375,
          "velocity": 0.7874015748031497,
          "duration": 0.0625
        },
        {
          "name": "C5",
          "midi": 72,
          "time": 125.5,
          "velocity": 0.7874015748031497,
          "duration": 0.0625
        },
        {
          "name": "E5",
          "midi": 76,
          "time": 125.75,
          "velocity": 0.7874015748031497,
          "duration": 0.0625
        },
        {
          "name": "E5",
          "midi": 76,
          "time": 126,
          "velocity": 0.7874015748031497,
          "duration": 0.0625
        },
        {
          "name": "F5",
          "midi": 77,
          "time": 126.125,
          "velocity": 0.7874015748031497,
          "duration": 0.0625
        },
        {
          "name": "E5",
          "midi": 76,
          "time": 126.25,
          "velocity": 0.7874015748031497,
          "duration": 0.0625
        },
        {
          "name": "D5",
          "midi": 74,
          "time": 126.5,
          "velocity": 0.7874015748031497,
          "duration": 0.0625
        },
        {
          "name": "E5",
          "midi": 76,
          "time": 127,
          "velocity": 0.7874015748031497,
          "duration": 0.0625
        },
        {
          "name": "F5",
          "midi": 77,
          "time": 127.125,
          "velocity": 0.7874015748031497,
          "duration": 0.0625
        },
        {
          "name": "E5",
          "midi": 76,
          "time": 127.25,
          "velocity": 0.7874015748031497,
          "duration": 0.0625
        },
        {
          "name": "D5",
          "midi": 74,
          "time": 127.375,
          "velocity": 0.7874015748031497,
          "duration": 0.0625
        },
        {
          "name": "D5",
          "midi": 74,
          "time": 128,
          "velocity": 0.7874015748031497,
          "duration": 0.0625
        },
        {
          "name": "C5",
          "midi": 72,
          "time": 128.125,
          "velocity": 0.7795275590551181,
          "duration": 0.0625
        },
        {
          "name": "D5",
          "midi": 74,
          "time": 128.25,
          "velocity": 0.7874015748031497,
          "duration": 0.0625
        },
        {
          "name": "E5",
          "midi": 76,
          "time": 128.5,
          "velocity": 0.7874015748031497,
          "duration": 0.0625
        },
        {
          "name": "D5",
          "midi": 74,
          "time": 129,
          "velocity": 0.7874015748031497,
          "duration": 0.0625
        },
        {
          "name": "C5",
          "midi": 72,
          "time": 129.125,
          "velocity": 0.7795275590551181,
          "duration": 0.0625
        },
        {
          "name": "D5",
          "midi": 74,
          "time": 129.25,
          "velocity": 0.7874015748031497,
          "duration": 0.0625
        },
        {
          "name": "E5",
          "midi": 76,
          "time": 129.5,
          "velocity": 0.7874015748031497,
          "duration": 0.0625
        },
        {
          "name": "E5",
          "midi": 76,
          "time": 130,
          "velocity": 0.7874015748031497,
          "duration": 0.0625
        },
        {
          "name": "F5",
          "midi": 77,
          "time": 130.25,
          "velocity": 0.7874015748031497,
          "duration": 0.0625
        },
        {
          "name": "C5",
          "midi": 72,
          "time": 130.5,
          "velocity": 0.7874015748031497,
          "duration": 0.0625
        },
        {
          "name": "F5",
          "midi": 77,
          "time": 130.75,
          "velocity": 0.7874015748031497,
          "duration": 0.0625
        },
        {
          "name": "E5",
          "midi": 76,
          "time": 130.875,
          "velocity": 0.7874015748031497,
          "duration": 0.0625
        },
        {
          "name": "E5",
          "midi": 76,
          "time": 131.125,
          "velocity": 0.7874015748031497,
          "duration": 0.0625
        },
        {
          "name": "F5",
          "midi": 77,
          "time": 131.25,
          "velocity": 0.7874015748031497,
          "duration": 0.0625
        },
        {
          "name": "C5",
          "midi": 72,
          "time": 131.5,
          "velocity": 0.7874015748031497,
          "duration": 0.0625
        },
        {
          "name": "E5",
          "midi": 76,
          "time": 131.75,
          "velocity": 0.7874015748031497,
          "duration": 0.0625
        },
        {
          "name": "D5",
          "midi": 74,
          "time": 132,
          "velocity": 0.7874015748031497,
          "duration": 0.0625
        },
        {
          "name": "C5",
          "midi": 72,
          "time": 132.25,
          "velocity": 0.7874015748031497,
          "duration": 0.0625
        },
        {
          "name": "C5",
          "midi": 72,
          "time": 132.5,
          "velocity": 0.7874015748031497,
          "duration": 0.0625
        },
        {
          "name": "D5",
          "midi": 74,
          "time": 132.625,
          "velocity": 0.7874015748031497,
          "duration": 0.0625
        },
        {
          "name": "E5",
          "midi": 76,
          "time": 132.875,
          "velocity": 0.7874015748031497,
          "duration": 0.0625
        },
        {
          "name": "D5",
          "midi": 74,
          "time": 133.375,
          "velocity": 0.7874015748031497,
          "duration": 0.0625
        },
        {
          "name": "C5",
          "midi": 72,
          "time": 133.5,
          "velocity": 0.7874015748031497,
          "duration": 0.0625
        },
        {
          "name": "E5",
          "midi": 76,
          "time": 133.75,
          "velocity": 0.7874015748031497,
          "duration": 0.0625
        },
        {
          "name": "E5",
          "midi": 76,
          "time": 134,
          "velocity": 0.7874015748031497,
          "duration": 0.0625
        },
        {
          "name": "F5",
          "midi": 77,
          "time": 134.125,
          "velocity": 0.7874015748031497,
          "duration": 0.0625
        },
        {
          "name": "E5",
          "midi": 76,
          "time": 134.25,
          "velocity": 0.7874015748031497,
          "duration": 0.0625
        },
        {
          "name": "D5",
          "midi": 74,
          "time": 134.5,
          "velocity": 0.7874015748031497,
          "duration": 0.0625
        },
        {
          "name": "E5",
          "midi": 76,
          "time": 135,
          "velocity": 0.7874015748031497,
          "duration": 0.0625
        },
        {
          "name": "F5",
          "midi": 77,
          "time": 135.125,
          "velocity": 0.7874015748031497,
          "duration": 0.0625
        },
        {
          "name": "E5",
          "midi": 76,
          "time": 135.25,
          "velocity": 0.7874015748031497,
          "duration": 0.0625
        },
        {
          "name": "D5",
          "midi": 74,
          "time": 135.375,
          "velocity": 0.7874015748031497,
          "duration": 0.0625
        },
        {
          "name": "D5",
          "midi": 74,
          "time": 136,
          "velocity": 0.7874015748031497,
          "duration": 0.0625
        },
        {
          "name": "C5",
          "midi": 72,
          "time": 136.125,
          "velocity": 0.7795275590551181,
          "duration": 0.0625
        },
        {
          "name": "D5",
          "midi": 74,
          "time": 136.25,
          "velocity": 0.7874015748031497,
          "duration": 0.0625
        },
        {
          "name": "E5",
          "midi": 76,
          "time": 136.5,
          "velocity": 0.7874015748031497,
          "duration": 0.0625
        },
        {
          "name": "D5",
          "midi": 74,
          "time": 137,
          "velocity": 0.7874015748031497,
          "duration": 0.0625
        },
        {
          "name": "C5",
          "midi": 72,
          "time": 137.125,
          "velocity": 0.7795275590551181,
          "duration": 0.0625
        },
        {
          "name": "D5",
          "midi": 74,
          "time": 137.25,
          "velocity": 0.7874015748031497,
          "duration": 0.0625
        },
        {
          "name": "E5",
          "midi": 76,
          "time": 137.5,
          "velocity": 0.7874015748031497,
          "duration": 0.0625
        },
        {
          "name": "E5",
          "midi": 76,
          "time": 138,
          "velocity": 0.7874015748031497,
          "duration": 0.0625
        },
        {
          "name": "F5",
          "midi": 77,
          "time": 138.25,
          "velocity": 0.7874015748031497,
          "duration": 0.0625
        },
        {
          "name": "C5",
          "midi": 72,
          "time": 138.5,
          "velocity": 0.7874015748031497,
          "duration": 0.0625
        },
        {
          "name": "F5",
          "midi": 77,
          "time": 138.75,
          "velocity": 0.7874015748031497,
          "duration": 0.0625
        },
        {
          "name": "E5",
          "midi": 76,
          "time": 138.875,
          "velocity": 0.7874015748031497,
          "duration": 0.0625
        },
        {
          "name": "E5",
          "midi": 76,
          "time": 139.125,
          "velocity": 0.7874015748031497,
          "duration": 0.0625
        },
        {
          "name": "F5",
          "midi": 77,
          "time": 139.25,
          "velocity": 0.7874015748031497,
          "duration": 0.0625
        },
        {
          "name": "C5",
          "midi": 72,
          "time": 139.5,
          "velocity": 0.7874015748031497,
          "duration": 0.0625
        },
        {
          "name": "E5",
          "midi": 76,
          "time": 139.75,
          "velocity": 0.7874015748031497,
          "duration": 0.0625
        },
        {
          "name": "C5",
          "midi": 72,
          "time": 140,
          "velocity": 0.7874015748031497,
          "duration": 0.0625
        },
        {
          "name": "E5",
          "midi": 76,
          "time": 140,
          "velocity": 0.7874015748031497,
          "duration": 0.0625
        },
        {
          "name": "F5",
          "midi": 77,
          "time": 140.25,
          "velocity": 0.7874015748031497,
          "duration": 0.0625
        },
        {
          "name": "C5",
          "midi": 72,
          "time": 140.375,
          "velocity": 0.7874015748031497,
          "duration": 0.0625
        },
        {
          "name": "F5",
          "midi": 77,
          "time": 140.5,
          "velocity": 0.7874015748031497,
          "duration": 0.0625
        },
        {
          "name": "E5",
          "midi": 76,
          "time": 140.625,
          "velocity": 0.7874015748031497,
          "duration": 0.0625
        },
        {
          "name": "C5",
          "midi": 72,
          "time": 140.75,
          "velocity": 0.7874015748031497,
          "duration": 0.0625
        },
        {
          "name": "F5",
          "midi": 77,
          "time": 141,
          "velocity": 0.7874015748031497,
          "duration": 0.0625
        },
        {
          "name": "C5",
          "midi": 72,
          "time": 141.375,
          "velocity": 0.7874015748031497,
          "duration": 0.0625
        },
        {
          "name": "D5",
          "midi": 74,
          "time": 141.5,
          "velocity": 0.7874015748031497,
          "duration": 0.0625
        },
        {
          "name": "E5",
          "midi": 76,
          "time": 141.5,
          "velocity": 0.7874015748031497,
          "duration": 0.0625
        },
        {
          "name": "C5",
          "midi": 72,
          "time": 141.75,
          "velocity": 0.7874015748031497,
          "duration": 0.0625
        },
        {
          "name": "C5",
          "midi": 72,
          "time": 142,
          "velocity": 0.7874015748031497,
          "duration": 0.0625
        },
        {
          "name": "E5",
          "midi": 76,
          "time": 142,
          "velocity": 0.7874015748031497,
          "duration": 0.0625
        },
        {
          "name": "D5",
          "midi": 74,
          "time": 142.25,
          "velocity": 0.7874015748031497,
          "duration": 0.0625
        },
        {
          "name": "E5",
          "midi": 76,
          "time": 142.5,
          "velocity": 0.7874015748031497,
          "duration": 0.0625
        },
        {
          "name": "D5",
          "midi": 74,
          "time": 142.75,
          "velocity": 0.7874015748031497,
          "duration": 0.0625
        },
        {
          "name": "C5",
          "midi": 72,
          "time": 142.875,
          "velocity": 0.7874015748031497,
          "duration": 0.0625
        },
        {
          "name": "C5",
          "midi": 72,
          "time": 143.125,
          "velocity": 0.7874015748031497,
          "duration": 0.0625
        },
        {
          "name": "D5",
          "midi": 74,
          "time": 143.25,
          "velocity": 0.7874015748031497,
          "duration": 0.0625
        },
        {
          "name": "E5",
          "midi": 76,
          "time": 143.5,
          "velocity": 0.7874015748031497,
          "duration": 0.0625
        },
        {
          "name": "C5",
          "midi": 72,
          "time": 143.75,
          "velocity": 0.7874015748031497,
          "duration": 0.0625
        },
        {
          "name": "E5",
          "midi": 76,
          "time": 143.75,
          "velocity": 0.7874015748031497,
          "duration": 0.0625
        },
        {
          "name": "C5",
          "midi": 72,
          "time": 144,
          "velocity": 0.7874015748031497,
          "duration": 0.0625
        },
        {
          "name": "E5",
          "midi": 76,
          "time": 144,
          "velocity": 0.7874015748031497,
          "duration": 0.0625
        },
        {
          "name": "F5",
          "midi": 77,
          "time": 144.25,
          "velocity": 0.7874015748031497,
          "duration": 0.0625
        },
        {
          "name": "C5",
          "midi": 72,
          "time": 144.375,
          "velocity": 0.7874015748031497,
          "duration": 0.0625
        },
        {
          "name": "F5",
          "midi": 77,
          "time": 144.5,
          "velocity": 0.7874015748031497,
          "duration": 0.0625
        },
        {
          "name": "E5",
          "midi": 76,
          "time": 144.625,
          "velocity": 0.7874015748031497,
          "duration": 0.0625
        },
        {
          "name": "C5",
          "midi": 72,
          "time": 144.75,
          "velocity": 0.7874015748031497,
          "duration": 0.0625
        },
        {
          "name": "F5",
          "midi": 77,
          "time": 145,
          "velocity": 0.7874015748031497,
          "duration": 0.0625
        },
        {
          "name": "C5",
          "midi": 72,
          "time": 145.375,
          "velocity": 0.7874015748031497,
          "duration": 0.0625
        },
        {
          "name": "D5",
          "midi": 74,
          "time": 145.5,
          "velocity": 0.7874015748031497,
          "duration": 0.0625
        },
        {
          "name": "E5",
          "midi": 76,
          "time": 145.5,
          "velocity": 0.7874015748031497,
          "duration": 0.0625
        },
        {
          "name": "C5",
          "midi": 72,
          "time": 145.75,
          "velocity": 0.7874015748031497,
          "duration": 0.0625
        },
        {
          "name": "D5",
          "midi": 74,
          "time": 146,
          "velocity": 0.7874015748031497,
          "duration": 0.0625
        },
        {
          "name": "E5",
          "midi": 76,
          "time": 146.25,
          "velocity": 0.7874015748031497,
          "duration": 0.0625
        },
        {
          "name": "E5",
          "midi": 76,
          "time": 146.5,
          "velocity": 0.7874015748031497,
          "duration": 0.0625
        },
        {
          "name": "F5",
          "midi": 77,
          "time": 146.5,
          "velocity": 0.7874015748031497,
          "duration": 0.0625
        },
        {
          "name": "E5",
          "midi": 76,
          "time": 146.75,
          "velocity": 0.7874015748031497,
          "duration": 0.0625
        },
        {
          "name": "D5",
          "midi": 74,
          "time": 146.875,
          "velocity": 0.7874015748031497,
          "duration": 0.0625
        },
        {
          "name": "D5",
          "midi": 74,
          "time": 147.125,
          "velocity": 0.7874015748031497,
          "duration": 0.0625
        },
        {
          "name": "E5",
          "midi": 76,
          "time": 147.25,
          "velocity": 0.7874015748031497,
          "duration": 0.0625
        },
        {
          "name": "E5",
          "midi": 76,
          "time": 147.5,
          "velocity": 0.7874015748031497,
          "duration": 0.0625
        },
        {
          "name": "F5",
          "midi": 77,
          "time": 147.5,
          "velocity": 0.7874015748031497,
          "duration": 0.0625
        },
        {
          "name": "E5",
          "midi": 76,
          "time": 147.75,
          "velocity": 0.7874015748031497,
          "duration": 0.0625
        },
        {
          "name": "C5",
          "midi": 72,
          "time": 148,
          "velocity": 0.7874015748031497,
          "duration": 0.0625
        },
        {
          "name": "E5",
          "midi": 76,
          "time": 148,
          "velocity": 0.7874015748031497,
          "duration": 0.0625
        },
        {
          "name": "F5",
          "midi": 77,
          "time": 148.25,
          "velocity": 0.7874015748031497,
          "duration": 0.0625
        },
        {
          "name": "C5",
          "midi": 72,
          "time": 148.375,
          "velocity": 0.7874015748031497,
          "duration": 0.0625
        },
        {
          "name": "F5",
          "midi": 77,
          "time": 148.5,
          "velocity": 0.7874015748031497,
          "duration": 0.0625
        },
        {
          "name": "E5",
          "midi": 76,
          "time": 148.625,
          "velocity": 0.7874015748031497,
          "duration": 0.0625
        },
        {
          "name": "C5",
          "midi": 72,
          "time": 148.75,
          "velocity": 0.7874015748031497,
          "duration": 0.0625
        },
        {
          "name": "F5",
          "midi": 77,
          "time": 149,
          "velocity": 0.7874015748031497,
          "duration": 0.0625
        },
        {
          "name": "C5",
          "midi": 72,
          "time": 149.375,
          "velocity": 0.7874015748031497,
          "duration": 0.0625
        },
        {
          "name": "D5",
          "midi": 74,
          "time": 149.5,
          "velocity": 0.7874015748031497,
          "duration": 0.0625
        },
        {
          "name": "E5",
          "midi": 76,
          "time": 149.5,
          "velocity": 0.7874015748031497,
          "duration": 0.0625
        },
        {
          "name": "C5",
          "midi": 72,
          "time": 149.75,
          "velocity": 0.7874015748031497,
          "duration": 0.0625
        },
        {
          "name": "E5",
          "midi": 76,
          "time": 150,
          "velocity": 0.7874015748031497,
          "duration": 0.0625
        },
        {
          "name": "F5",
          "midi": 77,
          "time": 150.25,
          "velocity": 0.7874015748031497,
          "duration": 0.0625
        },
        {
          "name": "C5",
          "midi": 72,
          "time": 150.5,
          "velocity": 0.7874015748031497,
          "duration": 0.0625
        },
        {
          "name": "E5",
          "midi": 76,
          "time": 150.5,
          "velocity": 0.7874015748031497,
          "duration": 0.0625
        },
        {
          "name": "F5",
          "midi": 77,
          "time": 150.75,
          "velocity": 0.7874015748031497,
          "duration": 0.0625
        },
        {
          "name": "E5",
          "midi": 76,
          "time": 150.875,
          "velocity": 0.7874015748031497,
          "duration": 0.0625
        },
        {
          "name": "E5",
          "midi": 76,
          "time": 151.125,
          "velocity": 0.7874015748031497,
          "duration": 0.0625
        },
        {
          "name": "F5",
          "midi": 77,
          "time": 151.25,
          "velocity": 0.7874015748031497,
          "duration": 0.0625
        },
        {
          "name": "C5",
          "midi": 72,
          "time": 151.5,
          "velocity": 0.7874015748031497,
          "duration": 0.0625
        },
        {
          "name": "E5",
          "midi": 76,
          "time": 151.5,
          "velocity": 0.7874015748031497,
          "duration": 0.0625
        },
        {
          "name": "E5",
          "midi": 76,
          "time": 151.75,
          "velocity": 0.7874015748031497,
          "duration": 0.0625
        },
        {
          "name": "C5",
          "midi": 72,
          "time": 152,
          "velocity": 0.7874015748031497,
          "duration": 0.0625
        },
        {
          "name": "D5",
          "midi": 74,
          "time": 152,
          "velocity": 0.7874015748031497,
          "duration": 0.0625
        },
        {
          "name": "E5",
          "midi": 76,
          "time": 152.25,
          "velocity": 0.7874015748031497,
          "duration": 0.0625
        },
        {
          "name": "C5",
          "midi": 72,
          "time": 152.5,
          "velocity": 0.7874015748031497,
          "duration": 0.0625
        },
        {
          "name": "F5",
          "midi": 77,
          "time": 152.5,
          "velocity": 0.7874015748031497,
          "duration": 0.0625
        },
        {
          "name": "E5",
          "midi": 76,
          "time": 152.625,
          "velocity": 0.7874015748031497,
          "duration": 0.0625
        },
        {
          "name": "C5",
          "midi": 72,
          "time": 152.875,
          "velocity": 0.7874015748031497,
          "duration": 0.0625
        },
        {
          "name": "D5",
          "midi": 74,
          "time": 152.875,
          "velocity": 0.7874015748031497,
          "duration": 0.0625
        },
        {
          "name": "C5",
          "midi": 72,
          "time": 153.375,
          "velocity": 0.7874015748031497,
          "duration": 0.0625
        },
        {
          "name": "D5",
          "midi": 74,
          "time": 153.5,
          "velocity": 0.7874015748031497,
          "duration": 0.0625
        },
        {
          "name": "E5",
          "midi": 76,
          "time": 153.5,
          "velocity": 0.7874015748031497,
          "duration": 0.0625
        },
        {
          "name": "C5",
          "midi": 72,
          "time": 153.75,
          "velocity": 0.7874015748031497,
          "duration": 0.0625
        },
        {
          "name": "F5",
          "midi": 77,
          "time": 154,
          "velocity": 0.6299212598425197,
          "duration": 0.0625
        },
        {
          "name": "E5",
          "midi": 76,
          "time": 154.375,
          "velocity": 0.6299212598425197,
          "duration": 0.0625
        },
        {
          "name": "D5",
          "midi": 74,
          "time": 154.75,
          "velocity": 0.6299212598425197,
          "duration": 0.08854166666665719
        },
        {
          "name": "C5",
          "midi": 72,
          "time": 155.125,
          "velocity": 0.6299212598425197,
          "duration": 0.08854166666665719
        },
        {
          "name": "F5",
          "midi": 77,
          "time": 155.375,
          "velocity": 0.6299212598425197,
          "duration": 0.0625
        },
        {
          "name": "F5",
          "midi": 77,
          "time": 155.5,
          "velocity": 0.6299212598425197,
          "duration": 0.0625
        },
        {
          "name": "D5",
          "midi": 74,
          "time": 155.75,
          "velocity": 0.6299212598425197,
          "duration": 0.0625
        },
        {
          "name": "C5",
          "midi": 72,
          "time": 156,
          "velocity": 0.6299212598425197,
          "duration": 0.0625
        },
        {
          "name": "E5",
          "midi": 76,
          "time": 156,
          "velocity": 0.6299212598425197,
          "duration": 0.0625
        }
      ]
}