{
      "notes": [
        {
          "name": "F5",
          "midi": 77,
          "time": 8,
          "velocity": 0.6299212598425197,
          "duration": 0.125
        },
        {
          "name": "E5",
          "midi": 76,
          "time": 11.5,
          "velocity": 0.6299212598425197,
          "duration": 0.14583333333333393
        },
        {
          "name": "F5",
          "midi": 77,
          "time": 12,
          "velocity": 0.6299212598425197,
          "duration": 0.140625
        },
        {
          "name": "E5",
          "midi": 76,
          "time": 15.5,
          "velocity": 0.6299212598425197,
          "duration": 0.140625
        },
        {
          "name": "D5",
          "midi": 74,
          "time": 16,
          "velocity": 0.6299212598425197,
          "duration": 0.13020833333333215
        },
        {
          "name": "D5",
          "midi": 74,
          "time": 19.5,
          "velocity": 0.6299212598425197,
          "duration": 0.125
        },
        {
          "name": "C5",
          "midi": 72,
          "time": 20,
          "velocity": 0.6299212598425197,
          "duration": 0.125
        },
        {
          "name": "F5",
          "midi": 77,
          "time": 22,
          "velocity": 0.6299212598425197,
          "duration": 0.125
        },
        {
          "name": "F5",
          "midi": 77,
          "time": 24,
          "velocity": 0.6299212598425197,
          "duration": 0.125
        },
        {
          "name": "F5",
          "midi": 77,
          "time": 24.5,
          "velocity": 0.7874015748031497,
          "duration": 0.13541666666666785
        },
        {
          "name": "F5",
          "midi": 77,
          "time": 25,
          "velocity": 0.7874015748031497,
          "duration": 0.13541666666666785
        },
        {
          "name": "F5",
          "midi": 77,
          "time": 25.5,
          "velocity": 0.7874015748031497,
          "duration": 0.13541666666666785
        },
        {
          "name": "F5",
          "midi": 77,
          "time": 26,
          "velocity": 0.7874015748031497,
          "duration": 0.13541666666666785
        },
        {
          "name": "F5",
          "midi": 77,
          "time": 26.5,
          "velocity": 0.7874015748031497,
          "duration": 0.13541666666666785
        },
        {
          "name": "F5",
          "midi": 77,
          "time": 27,
          "velocity": 0.7874015748031497,
          "duration": 0.125
        },
        {
          "name": "E5",
          "midi": 76,
          "time": 27.5,
          "velocity": 0.6299212598425197,
          "duration": 0.125
        },
        {
          "name": "F5",
          "midi": 77,
          "time": 28,
          "velocity": 0.6299212598425197,
          "duration": 0.125
        },
        {
          "name": "F5",
          "midi": 77,
          "time": 28.5,
          "velocity": 0.7874015748031497,
          "duration": 0.125
        },
        {
          "name": "F5",
          "midi": 77,
          "time": 29,
          "velocity": 0.7874015748031497,
          "duration": 0.125
        },
        {
          "name": "F5",
          "midi": 77,
          "time": 29.5,
          "velocity": 0.7874015748031497,
          "duration": 0.078125
        },
        {
          "name": "F5",
          "midi": 77,
          "time": 30,
          "velocity": 0.7874015748031497,
          "duration": 0.125
        },
        {
          "name": "F5",
          "midi": 77,
          "time": 30.5,
          "velocity": 0.7874015748031497,
          "duration": 0.125
        },
        {
          "name": "F5",
          "midi": 77,
          "time": 31,
          "velocity": 0.7874015748031497,
          "duration": 0.125
        },
        {
          "name": "E5",
          "midi": 76,
          "time": 31.5,
          "velocity": 0.6299212598425197,
          "duration": 0.125
        },
        {
          "name": "D5",
          "midi": 74,
          "time": 32,
          "velocity": 0.6299212598425197,
          "duration": 0.1302083333333357
        },
        {
          "name": "D5",
          "midi": 74,
          "time": 32.5,
          "velocity": 0.7874015748031497,
          "duration": 0.125
        },
        {
          "name": "D5",
          "midi": 74,
          "time": 33,
          "velocity": 0.7874015748031497,
          "duration": 0.125
        },
        {
          "name": "D5",
          "midi": 74,
          "time": 33.5,
          "velocity": 0.7874015748031497,
          "duration": 0.125
        },
        {
          "name": "D5",
          "midi": 74,
          "time": 34,
          "velocity": 0.7874015748031497,
          "duration": 0.125
        },
        {
          "name": "D5",
          "midi": 74,
          "time": 34.5,
          "velocity": 0.7716535433070866,
          "duration": 0.125
        },
        {
          "name": "D5",
          "midi": 74,
          "time": 35,
          "velocity": 0.7716535433070866,
          "duration": 0.125
        },
        {
          "name": "D5",
          "midi": 74,
          "time": 35.5,
          "velocity": 0.6299212598425197,
          "duration": 0.125
        },
        {
          "name": "C5",
          "midi": 72,
          "time": 36,
          "velocity": 0.6299212598425197,
          "duration": 0.125
        },
        {
          "name": "C5",
          "midi": 72,
          "time": 36.5,
          "velocity": 0.7716535433070866,
          "duration": 0.125
        },
        {
          "name": "C5",
          "midi": 72,
          "time": 37,
          "velocity": 0.7716535433070866,
          "duration": 0.125
        },
        {
          "name": "C5",
          "midi": 72,
          "time": 37.5,
          "velocity": 0.7716535433070866,
          "duration": 0.125
        },
        {
          "name": "F5",
          "midi": 77,
          "time": 38,
          "velocity": 0.6299212598425197,
          "duration": 0.125
        },
        {
          "name": "F5",
          "midi": 77,
          "time": 38.5,
          "velocity": 0.7716535433070866,
          "duration": 0.125
        },
        {
          "name": "F5",
          "midi": 77,
          "time": 39,
          "velocity": 0.7716535433070866,
          "duration": 0.125
        },
        {
          "name": "F5",
          "midi": 77,
          "time": 39.5,
          "velocity": 0.7716535433070866,
          "duration": 0.125
        },
        {
          "name": "F5",
          "midi": 77,
          "time": 40,
          "velocity": 0.6299212598425197,
          "duration": 0.125
        },
        {
          "name": "E5",
          "midi": 76,
          "time": 40.375,
          "velocity": 0.6299212598425197,
          "duration": 0.125
        },
        {
          "name": "D5",
          "midi": 74,
          "time": 40.75,
          "velocity": 0.6299212598425197,
          "duration": 0.0885416666666643
        },
        {
          "name": "C5",
          "midi": 72,
          "time": 41.125,
          "velocity": 0.6299212598425197,
          "duration": 0.0885416666666643
        },
        {
          "name": "F5",
          "midi": 77,
          "time": 42,
          "velocity": 0.6299212598425197,
          "duration": 0.0625
        },
        {
          "name": "D5",
          "midi": 74,
          "time": 42.375,
          "velocity": 0.6299212598425197,
          "duration": 0.0625
        },
        {
          "name": "F5",
          "midi": 77,
          "time": 42.75,
          "velocity": 0.6299212598425197,
          "duration": 0.0885416666666643
        },
        {
          "name": "F5",
          "midi": 77,
          "time": 43,
          "velocity": 0.6299212598425197,
          "duration": 0.0885416666666643
        },
        {
          "name": "E5",
          "midi": 76,
          "time": 43.25,
          "velocity": 0.7716535433070866,
          "duration": 0.0625
        },
        {
          "name": "C5",
          "midi": 72,
          "time": 43.5,
          "velocity": 0.7716535433070866,
          "duration": 0.0625
        },
        {
          "name": "F5",
          "midi": 77,
          "time": 44,
          "velocity": 0.6299212598425197,
          "duration": 0.0625
        },
        {
          "name": "D5",
          "midi": 74,
          "time": 44.375,
          "velocity": 0.6299212598425197,
          "duration": 0.0625
        },
        {
          "name": "F5",
          "midi": 77,
          "time": 44.75,
          "velocity": 0.6299212598425197,
          "duration": 0.0885416666666643
        },
        {
          "name": "F5",
          "midi": 77,
          "time": 45,
          "velocity": 0.6299212598425197,
          "duration": 0.0885416666666643
        },
        {
          "name": "E5",
          "midi": 76,
          "time": 45.5,
          "velocity": 0.7716535433070866,
          "duration": 0.0625
        },
        {
          "name": "C5",
          "midi": 72,
          "time": 45.75,
          "velocity": 0.7716535433070866,
          "duration": 0.0625
        },
        {
          "name": "D5",
          "midi": 74,
          "time": 46,
          "velocity": 0.6299212598425197,
          "duration": 0.0625
        },
        {
          "name": "E5",
          "midi": 76,
          "time": 46.375,
          "velocity": 0.6299212598425197,
          "duration": 0.0625
        },
        {
          "name": "D5",
          "midi": 74,
          "time": 46.75,
          "velocity": 0.6299212598425197,
          "duration": 0.0885416666666643
        },
        {
          "name": "D5",
          "midi": 74,
          "time": 47,
          "velocity": 0.6299212598425197,
          "duration": 0.0885416666666643
        },
        {
          "name": "C5",
          "midi": 72,
          "time": 47.25,
          "velocity": 0.7716535433070866,
          "duration": 0.0625
        },
        {
          "name": "F5",
          "midi": 77,
          "time": 47.5,
          "velocity": 0.7716535433070866,
          "duration": 0.0625
        },
        {
          "name": "D5",
          "midi": 74,
          "time": 48,
          "velocity": 0.6299212598425197,
          "duration": 0.0625
        },
        {
          "name": "E5",
          "midi": 76,
          "time": 48.375,
          "velocity": 0.6299212598425197,
          "duration": 0.0625
        },
        {
          "name": "D5",
          "midi": 74,
          "time": 48.75,
          "velocity": 0.6299212598425197,
          "duration": 0.0885416666666643
        },
        {
          "name": "D5",
          "midi": 74,
          "time": 49,
          "velocity": 0.6299212598425197,
          "duration": 0.0885416666666643
        },
        {
          "name": "E5",
          "midi": 76,
          "time": 49.5,
          "velocity": 0.7716535433070866,
          "duration": 0.0625
        },
        {
          "name": "C5",
          "midi": 72,
          "time": 49.75,
          "velocity": 0.7716535433070866,
          "duration": 0.0625
        },
        {
          "name": "F5",
          "midi": 77,
          "time": 50,
          "velocity": 0.6299212598425197,
          "duration": 0.0625
        },
        {
          "name": "D5",
          "midi": 74,
          "time": 50.375,
          "velocity": 0.6299212598425197,
          "duration": 0.0625
        },
        {
          "name": "F5",
          "midi": 77,
          "time": 50.75,
          "velocity": 0.6299212598425197,
          "duration": 0.0885416666666643
        },
        {
          "name": "F5",
          "midi": 77,
          "time": 51,
          "velocity": 0.6299212598425197,
          "duration": 0.0885416666666643
        },
        {
          "name": "E5",
          "midi": 76,
          "time": 51.25,
          "velocity": 0.7716535433070866,
          "duration": 0.0625
        },
        {
          "name": "C5",
          "midi": 72,
          "time": 51.5,
          "velocity": 0.7716535433070866,
          "duration": 0.0625
        },
        {
          "name": "F5",
          "midi": 77,
          "time": 52,
          "velocity": 0.6299212598425197,
          "duration": 0.0625
        },
        {
          "name": "D5",
          "midi": 74,
          "time": 52.375,
          "velocity": 0.6299212598425197,
          "duration": 0.0625
        },
        {
          "name": "F5",
          "midi": 77,
          "time": 52.75,
          "velocity": 0.6299212598425197,
          "duration": 0.0885416666666643
        },
        {
          "name": "F5",
          "midi": 77,
          "time": 53,
          "velocity": 0.6299212598425197,
          "duration": 0.0885416666666643
        },
        {
          "name": "E5",
          "midi": 76,
          "time": 53.5,
          "velocity": 0.7716535433070866,
          "duration": 0.0625
        },
        {
          "name": "C5",
          "midi": 72,
          "time": 53.75,
          "velocity": 0.7716535433070866,
          "duration": 0.0625
        },
        {
          "name": "D5",
          "midi": 74,
          "time": 54,
          "velocity": 0.6299212598425197,
          "duration": 0.0625
        },
        {
          "name": "E5",
          "midi": 76,
          "time": 54.375,
          "velocity": 0.6299212598425197,
          "duration": 0.0625
        },
        {
          "name": "D5",
          "midi": 74,
          "time": 54.75,
          "velocity": 0.6299212598425197,
          "duration": 0.0885416666666643
        },
        {
          "name": "D5",
          "midi": 74,
          "time": 55,
          "velocity": 0.6299212598425197,
          "duration": 0.0885416666666643
        },
        {
          "name": "C5",
          "midi": 72,
          "time": 55.25,
          "velocity": 0.7716535433070866,
          "duration": 0.0625
        },
        {
          "name": "F5",
          "midi": 77,
          "time": 55.5,
          "velocity": 0.7716535433070866,
          "duration": 0.0625
        },
        {
          "name": "D5",
          "midi": 74,
          "time": 56,
          "velocity": 0.6299212598425197,
          "duration": 0.0625
        },
        {
          "name": "E5",
          "midi": 76,
          "time": 56.375,
          "velocity": 0.6299212598425197,
          "duration": 0.0625
        },
        {
          "name": "D5",
          "midi": 74,
          "time": 56.75,
          "velocity": 0.6299212598425197,
          "duration": 0.0885416666666643
        },
        {
          "name": "D5",
          "midi": 74,
          "time": 57,
          "velocity": 0.6299212598425197,
          "duration": 0.0885416666666643
        },
        {
          "name": "E5",
          "midi": 76,
          "time": 57.5,
          "velocity": 0.7716535433070866,
          "duration": 0.0625
        },
        {
          "name": "C5",
          "midi": 72,
          "time": 57.75,
          "velocity": 0.7716535433070866,
          "duration": 0.0625
        },
        {
          "name": "C5",
          "midi": 72,
          "time": 58,
          "velocity": 0.7874015748031497,
          "duration": 0.125
        },
        {
          "name": "D5",
          "midi": 74,
          "time": 58.25,
          "velocity": 0.7874015748031497,
          "duration": 0.109375
        },
        {
          "name": "E5",
          "midi": 76,
          "time": 58.5,
          "velocity": 0.7874015748031497,
          "duration": 0.125
        },
        {
          "name": "C5",
          "midi": 72,
          "time": 58.75,
          "velocity": 0.7874015748031497,
          "duration": 0.109375
        },
        {
          "name": "D5",
          "midi": 74,
          "time": 58.875,
          "velocity": 0.7874015748031497,
          "duration": 0.125
        },
        {
          "name": "E5",
          "midi": 76,
          "time": 59.5,
          "velocity": 0.7874015748031497,
          "duration": 0.15625
        },
        {
          "name": "C5",
          "midi": 72,
          "time": 59.75,
          "velocity": 0.7874015748031497,
          "duration": 0.1302083333333357
        },
        {
          "name": "C5",
          "midi": 72,
          "time": 60,
          "velocity": 0.7874015748031497,
          "duration": 0.125
        },
        {
          "name": "D5",
          "midi": 74,
          "time": 60.25,
          "velocity": 0.7874015748031497,
          "duration": 0.109375
        },
        {
          "name": "E5",
          "midi": 76,
          "time": 60.5,
          "velocity": 0.7874015748031497,
          "duration": 0.125
        },
        {
          "name": "C5",
          "midi": 72,
          "time": 60.625,
          "velocity": 0.7874015748031497,
          "duration": 0.109375
        },
        {
          "name": "D5",
          "midi": 74,
          "time": 60.875,
          "velocity": 0.7874015748031497,
          "duration": 0.125
        },
        {
          "name": "E5",
          "midi": 76,
          "time": 61.5,
          "velocity": 0.7874015748031497,
          "duration": 0.15625
        },
        {
          "name": "C5",
          "midi": 72,
          "time": 61.75,
          "velocity": 0.7874015748031497,
          "duration": 0.1302083333333357
        },
        {
          "name": "F5",
          "midi": 77,
          "time": 62,
          "velocity": 0.7874015748031497,
          "duration": 0.125
        },
        {
          "name": "E5",
          "midi": 76,
          "time": 62.25,
          "velocity": 0.7874015748031497,
          "duration": 0.109375
        },
        {
          "name": "D5",
          "midi": 74,
          "time": 62.5,
          "velocity": 0.7874015748031497,
          "duration": 0.125
        },
        {
          "name": "D5",
          "midi": 74,
          "time": 63,
          "velocity": 0.7874015748031497,
          "duration": 0.125
        },
        {
          "name": "E5",
          "midi": 76,
          "time": 63.25,
          "velocity": 0.7874015748031497,
          "duration": 0.109375
        },
        {
          "name": "F5",
          "midi": 77,
          "time": 63.5,
          "velocity": 0.7874015748031497,
          "duration": 0.125
        },
        {
          "name": "C5",
          "midi": 72,
          "time": 64,
          "velocity": 0.7874015748031497,
          "duration": 0.125
        },
        {
          "name": "F5",
          "midi": 77,
          "time": 64.25,
          "velocity": 0.7874015748031497,
          "duration": 0.109375
        },
        {
          "name": "E5",
          "midi": 76,
          "time": 64.5,
          "velocity": 0.7874015748031497,
          "duration": 0.125
        },
        {
          "name": "E5",
          "midi": 76,
          "time": 65,
          "velocity": 0.7874015748031497,
          "duration": 0.125
        },
        {
          "name": "F5",
          "midi": 77,
          "time": 65.25,
          "velocity": 0.7874015748031497,
          "duration": 0.125
        },
        {
          "name": "C5",
          "midi": 72,
          "time": 65.5,
          "velocity": 0.7874015748031497,
          "duration": 0.1302083333333286
        },
        {
          "name": "C5",
          "midi": 72,
          "time": 66,
          "velocity": 0.7874015748031497,
          "duration": 0.125
        },
        {
          "name": "D5",
          "midi": 74,
          "time": 66.25,
          "velocity": 0.7874015748031497,
          "duration": 0.109375
        },
        {
          "name": "E5",
          "midi": 76,
          "time": 66.5,
          "velocity": 0.7874015748031497,
          "duration": 0.125
        },
        {
          "name": "C5",
          "midi": 72,
          "time": 66.75,
          "velocity": 0.7874015748031497,
          "duration": 0.109375
        },
        {
          "name": "D5",
          "midi": 74,
          "time": 66.875,
          "velocity": 0.7874015748031497,
          "duration": 0.125
        },
        {
          "name": "E5",
          "midi": 76,
          "time": 67.5,
          "velocity": 0.7874015748031497,
          "duration": 0.15625
        },
        {
          "name": "C5",
          "midi": 72,
          "time": 67.75,
          "velocity": 0.7874015748031497,
          "duration": 0.1302083333333286
        },
        {
          "name": "C5",
          "midi": 72,
          "time": 68,
          "velocity": 0.7874015748031497,
          "duration": 0.125
        },
        {
          "name": "D5",
          "midi": 74,
          "time": 68.25,
          "velocity": 0.7874015748031497,
          "duration": 0.109375
        },
        {
          "name": "E5",
          "midi": 76,
          "time": 68.5,
          "velocity": 0.7874015748031497,
          "duration": 0.125
        },
        {
          "name": "C5",
          "midi": 72,
          "time": 68.625,
          "velocity": 0.7874015748031497,
          "duration": 0.109375
        },
        {
          "name": "D5",
          "midi": 74,
          "time": 68.875,
          "velocity": 0.7874015748031497,
          "duration": 0.125
        },
        {
          "name": "E5",
          "midi": 76,
          "time": 69.5,
          "velocity": 0.7874015748031497,
          "duration": 0.15625
        },
        {
          "name": "C5",
          "midi": 72,
          "time": 69.75,
          "velocity": 0.7874015748031497,
          "duration": 0.1302083333333286
        },
        {
          "name": "F5",
          "midi": 77,
          "time": 70,
          "velocity": 0.7874015748031497,
          "duration": 0.125
        },
        {
          "name": "C5",
          "midi": 72,
          "time": 70.25,
          "velocity": 0.7874015748031497,
          "duration": 0.109375
        },
        {
          "name": "D5",
          "midi": 74,
          "time": 70.5,
          "velocity": 0.7874015748031497,
          "duration": 0.125
        },
        {
          "name": "D5",
          "midi": 74,
          "time": 71,
          "velocity": 0.7874015748031497,
          "duration": 0.125
        },
        {
          "name": "C5",
          "midi": 72,
          "time": 71.25,
          "velocity": 0.7874015748031497,
          "duration": 0.109375
        },
        {
          "name": "F5",
          "midi": 77,
          "time": 71.5,
          "velocity": 0.7874015748031497,
          "duration": 0.125
        },
        {
          "name": "E5",
          "midi": 76,
          "time": 72,
          "velocity": 0.7874015748031497,
          "duration": 0.125
        },
        {
          "name": "D5",
          "midi": 74,
          "time": 72.25,
          "velocity": 0.7874015748031497,
          "duration": 0.109375
        },
        {
          "name": "C5",
          "midi": 72,
          "time": 72.5,
          "velocity": 0.7874015748031497,
          "duration": 0.125
        },
        {
          "name": "C5",
          "midi": 72,
          "time": 73,
          "velocity": 0.7874015748031497,
          "duration": 0.125
        },
        {
          "name": "D5",
          "midi": 74,
          "time": 73.25,
          "velocity": 0.7874015748031497,
          "duration": 0.125
        },
        {
          "name": "E5",
          "midi": 76,
          "time": 73.5,
          "velocity": 0.7874015748031497,
          "duration": 0.1302083333333286
        },
        {
          "name": "F5",
          "midi": 77,
          "time": 74,
          "velocity": 0.6299212598425197,
          "duration": 0.125
        },
        {
          "name": "E5",
          "midi": 76,
          "time": 74.375,
          "velocity": 0.6299212598425197,
          "duration": 0.125
        },
        {
          "name": "D5",
          "midi": 74,
          "time": 74.75,
          "velocity": 0.6299212598425197,
          "duration": 0.1510416666666714
        },
        {
          "name": "C5",
          "midi": 72,
          "time": 75.125,
          "velocity": 0.6299212598425197,
          "duration": 0.1510416666666714
        },
        {
          "name": "C5",
          "midi": 72,
          "time": 76,
          "velocity": 0.6299212598425197,
          "duration": 0.125
        },
        {
          "name": "D5",
          "midi": 74,
          "time": 76.375,
          "velocity": 0.6299212598425197,
          "duration": 0.125
        },
        {
          "name": "E5",
          "midi": 76,
          "time": 76.75,
          "velocity": 0.6299212598425197,
          "duration": 0.1510416666666714
        },
        {
          "name": "F5",
          "midi": 77,
          "time": 77.125,
          "velocity": 0.6299212598425197,
          "duration": 0.1510416666666714
        },
        {
          "name": "D5",
          "midi": 74,
          "time": 78,
          "velocity": 0.6299212598425197,
          "duration": 0.125
        },
        {
          "name": "F5",
          "midi": 77,
          "time": 78.375,
          "velocity": 0.6299212598425197,
          "duration": 0.125
        },
        {
          "name": "E5",
          "midi": 76,
          "time": 78.75,
          "velocity": 0.6299212598425197,
          "duration": 0.1510416666666714
        },
        {
          "name": "C5",
          "midi": 72,
          "time": 79.125,
          "velocity": 0.6299212598425197,
          "duration": 0.1510416666666714
        },
        {
          "name": "D5",
          "midi": 74,
          "time": 80,
          "velocity": 0.6299212598425197,
          "duration": 0.125
        },
        {
          "name": "C5",
          "midi": 72,
          "time": 80.375,
          "velocity": 0.6299212598425197,
          "duration": 0.125
        },
        {
          "name": "D5",
          "midi": 74,
          "time": 80.75,
          "velocity": 0.6299212598425197,
          "duration": 0.1510416666666714
        },
        {
          "name": "E5",
          "midi": 76,
          "time": 81.125,
          "velocity": 0.6299212598425197,
          "duration": 0.1510416666666714
        },
        {
          "name": "F5",
          "midi": 77,
          "time": 82,
          "velocity": 0.6299212598425197,
          "duration": 0.125
        },
        {
          "name": "E5",
          "midi": 76,
          "time": 82.375,
          "velocity": 0.6299212598425197,
          "duration": 0.125
        },
        {
          "name": "D5",
          "midi": 74,
          "time": 82.75,
          "velocity": 0.6299212598425197,
          "duration": 0.1510416666666714
        },
        {
          "name": "C5",
          "midi": 72,
          "time": 83.125,
          "velocity": 0.6299212598425197,
          "duration": 0.1510416666666714
        },
        {
          "name": "E5",
          "midi": 76,
          "time": 84,
          "velocity": 0.6299212598425197,
          "duration": 0.125
        },
        {
          "name": "D5",
          "midi": 74,
          "time": 84.375,
          "velocity": 0.6299212598425197,
          "duration": 0.125
        },
        {
          "name": "C5",
          "midi": 72,
          "time": 84.75,
          "velocity": 0.6299212598425197,
          "duration": 0.1510416666666714
        },
        {
          "name": "F5",
          "midi": 77,
          "time": 85.125,
          "velocity": 0.6299212598425197,
          "duration": 0.1510416666666714
        },
        {
          "name": "D5",
          "midi": 74,
          "time": 86,
          "velocity": 0.6299212598425197,
          "duration": 0.125
        },
        {
          "name": "F5",
          "midi": 77,
          "time": 86.375,
          "velocity": 0.6299212598425197,
          "duration": 0.125
        },
        {
          "name": "C5",
          "midi": 72,
          "time": 86.75,
          "velocity": 0.6299212598425197,
          "duration": 0.1510416666666714
        },
        {
          "name": "D5",
          "midi": 74,
          "time": 87.125,
          "velocity": 0.6299212598425197,
          "duration": 0.1510416666666714
        },
        {
          "name": "C5",
          "midi": 72,
          "time": 88,
          "velocity": 0.6299212598425197,
          "duration": 0.125
        },
        {
          "name": "E5",
          "midi": 76,
          "time": 88.375,
          "velocity": 0.6299212598425197,
          "duration": 0.125
        },
        {
          "name": "D5",
          "midi": 74,
          "time": 88.75,
          "velocity": 0.6299212598425197,
          "duration": 0.1510416666666714
        },
        {
          "name": "F5",
          "midi": 77,
          "time": 89.125,
          "velocity": 0.6299212598425197,
          "duration": 0.1510416666666714
        },
        {
          "name": "F5",
          "midi": 77,
          "time": 90,
          "velocity": 0.6299212598425197,
          "duration": 0.125
        },
        {
          "name": "E5",
          "midi": 76,
          "time": 93.5,
          "velocity": 0.6299212598425197,
          "duration": 0.1458333333333286
        },
        {
          "name": "F5",
          "midi": 77,
          "time": 94,
          "velocity": 0.6299212598425197,
          "duration": 0.140625
        },
        {
          "name": "E5",
          "midi": 76,
          "time": 97.5,
          "velocity": 0.6299212598425197,
          "duration": 0.140625
        },
        {
          "name": "D5",
          "midi": 74,
          "time": 98,
          "velocity": 0.6299212598425197,
          "duration": 0.1302083333333286
        },
        {
          "name": "D5",
          "midi": 74,
          "time": 101.5,
          "velocity": 0.6299212598425197,
          "duration": 0.125
        },
        {
          "name": "C5",
          "midi": 72,
          "time": 102,
          "velocity": 0.6299212598425197,
          "duration": 0.125
        },
        {
          "name": "F5",
          "midi": 77,
          "time": 104,
          "velocity": 0.6299212598425197,
          "duration": 0.125
        },
        {
          "name": "F5",
          "midi": 77,
          "time": 106,
          "velocity": 0.6299212598425197,
          "duration": 0.125
        },
        {
          "name": "F5",
          "midi": 77,
          "time": 106.5,
          "velocity": 0.7874015748031497,
          "duration": 0.1354166666666714
        },
        {
          "name": "F5",
          "midi": 77,
          "time": 107,
          "velocity": 0.7874015748031497,
          "duration": 0.1354166666666714
        },
        {
          "name": "F5",
          "midi": 77,
          "time": 107.5,
          "velocity": 0.7874015748031497,
          "duration": 0.1354166666666714
        },
        {
          "name": "F5",
          "midi": 77,
          "time": 108,
          "velocity": 0.7874015748031497,
          "duration": 0.1354166666666714
        },
        {
          "name": "F5",
          "midi": 77,
          "time": 108.5,
          "velocity": 0.7874015748031497,
          "duration": 0.1354166666666714
        },
        {
          "name": "F5",
          "midi": 77,
          "time": 109,
          "velocity": 0.7874015748031497,
          "duration": 0.125
        },
        {
          "name": "E5",
          "midi": 76,
          "time": 109.5,
          "velocity": 0.6299212598425197,
          "duration": 0.125
        },
        {
          "name": "F5",
          "midi": 77,
          "time": 110,
          "velocity": 0.6299212598425197,
          "duration": 0.125
        },
        {
          "name": "F5",
          "midi": 77,
          "time": 110.5,
          "velocity": 0.7874015748031497,
          "duration": 0.125
        },
        {
          "name": "F5",
          "midi": 77,
          "time": 111,
          "velocity": 0.7874015748031497,
          "duration": 0.125
        },
        {
          "name": "F5",
          "midi": 77,
          "time": 111.5,
          "velocity": 0.7874015748031497,
          "duration": 0.078125
        },
        {
          "name": "F5",
          "midi": 77,
          "time": 112,
          "velocity": 0.7874015748031497,
          "duration": 0.125
        },
        {
          "name": "F5",
          "midi": 77,
          "time": 112.5,
          "velocity": 0.7874015748031497,
          "duration": 0.125
        },
        {
          "name": "F5",
          "midi": 77,
          "time": 113,
          "velocity": 0.7874015748031497,
          "duration": 0.125
        },
        {
          "name": "E5",
          "midi": 76,
          "time": 113.5,
          "velocity": 0.6299212598425197,
          "duration": 0.125
        },
        {
          "name": "D5",
          "midi": 74,
          "time": 114,
          "velocity": 0.6299212598425197,
          "duration": 0.1302083333333286
        },
        {
          "name": "D5",
          "midi": 74,
          "time": 114.5,
          "velocity": 0.7874015748031497,
          "duration": 0.125
        },
        {
          "name": "D5",
          "midi": 74,
          "time": 115,
          "velocity": 0.7874015748031497,
          "duration": 0.125
        },
        {
          "name": "D5",
          "midi": 74,
          "time": 115.5,
          "velocity": 0.7874015748031497,
          "duration": 0.125
        },
        {
          "name": "D5",
          "midi": 74,
          "time": 116,
          "velocity": 0.7874015748031497,
          "duration": 0.125
        },
        {
          "name": "D5",
          "midi": 74,
          "time": 116.5,
          "velocity": 0.7716535433070866,
          "duration": 0.125
        },
        {
          "name": "D5",
          "midi": 74,
          "time": 117,
          "velocity": 0.7716535433070866,
          "duration": 0.125
        },
        {
          "name": "D5",
          "midi": 74,
          "time": 117.5,
          "velocity": 0.6299212598425197,
          "duration": 0.125
        },
        {
          "name": "C5",
          "midi": 72,
          "time": 118,
          "velocity": 0.6299212598425197,
          "duration": 0.125
        },
        {
          "name": "C5",
          "midi": 72,
          "time": 118.5,
          "velocity": 0.7716535433070866,
          "duration": 0.125
        },
        {
          "name": "C5",
          "midi": 72,
          "time": 119,
          "velocity": 0.7716535433070866,
          "duration": 0.125
        },
        {
          "name": "C5",
          "midi": 72,
          "time": 119.5,
          "velocity": 0.7716535433070866,
          "duration": 0.125
        },
        {
          "name": "F5",
          "midi": 77,
          "time": 120,
          "velocity": 0.6299212598425197,
          "duration": 0.125
        },
        {
          "name": "F5",
          "midi": 77,
          "time": 120.5,
          "velocity": 0.7716535433070866,
          "duration": 0.125
        },
        {
          "name": "F5",
          "midi": 77,
          "time": 121,
          "velocity": 0.7716535433070866,
          "duration": 0.125
        },
        {
          "name": "F5",
          "midi": 77,
          "time": 121.5,
          "velocity": 0.7716535433070866,
          "duration": 0.125
        },
        {
          "name": "C5",
          "midi": 72,
          "time": 122,
          "velocity": 0.6299212598425197,
          "duration": 0.125
        },
        {
          "name": "F5",
          "midi": 77,
          "time": 122,
          "velocity": 0.6299212598425197,
          "duration": 0.125
        },
        {
          "name": "F5",
          "midi": 77,
          "time": 122.5,
          "velocity": 0.7874015748031497,
          "duration": 0.1354166666666714
        },
        {
          "name": "F5",
          "midi": 77,
          "time": 123,
          "velocity": 0.7874015748031497,
          "duration": 0.1354166666666714
        },
        {
          "name": "F5",
          "midi": 77,
          "time": 123.5,
          "velocity": 0.7874015748031497,
          "duration": 0.1354166666666714
        },
        {
          "name": "F5",
          "midi": 77,
          "time": 124,
          "velocity": 0.7874015748031497,
          "duration": 0.1354166666666714
        },
        {
          "name": "F5",
          "midi": 77,
          "time": 124.5,
          "velocity": 0.7874015748031497,
          "duration": 0.1354166666666714
        },
        {
          "name": "F5",
          "midi": 77,
          "time": 125,
          "velocity": 0.7874015748031497,
          "duration": 0.125
        },
        {
          "name": "E5",
          "midi": 76,
          "time": 125.5,
          "velocity": 0.6299212598425197,
          "duration": 0.125
        },
        {
          "name": "C5",
          "midi": 72,
          "time": 126,
          "velocity": 0.6299212598425197,
          "duration": 0.125
        },
        {
          "name": "F5",
          "midi": 77,
          "time": 126,
          "velocity": 0.6299212598425197,
          "duration": 0.125
        },
        {
          "name": "F5",
          "midi": 77,
          "time": 126.5,
          "velocity": 0.7874015748031497,
          "duration": 0.125
        },
        {
          "name": "F5",
          "midi": 77,
          "time": 127,
          "velocity": 0.7874015748031497,
          "duration": 0.125
        },
        {
          "name": "F5",
          "midi": 77,
          "time": 127.5,
          "velocity": 0.7874015748031497,
          "duration": 0.078125
        },
        {
          "name": "F5",
          "midi": 77,
          "time": 128,
          "velocity": 0.7874015748031497,
          "duration": 0.125
        },
        {
          "name": "F5",
          "midi": 77,
          "time": 128.5,
          "velocity": 0.7874015748031497,
          "duration": 0.125
        },
        {
          "name": "F5",
          "midi": 77,
          "time": 129,
          "velocity": 0.7874015748031497,
          "duration": 0.125
        },
        {
          "name": "E5",
          "midi": 76,
          "time": 129.5,
          "velocity": 0.6299212598425197,
          "duration": 0.125
        },
        {
          "name": "C5",
          "midi": 72,
          "time": 130,
          "velocity": 0.6299212598425197,
          "duration": 0.125
        },
        {
          "name": "D5",
          "midi": 74,
          "time": 130,
          "velocity": 0.6299212598425197,
          "duration": 0.1302083333333428
        },
        {
          "name": "D5",
          "midi": 74,
          "time": 130.5,
          "velocity": 0.7874015748031497,
          "duration": 0.026041666666657193
        },
        {
          "name": "D5",
          "midi": 74,
          "time": 131,
          "velocity": 0.7874015748031497,
          "duration": 0.125
        },
        {
          "name": "D5",
          "midi": 74,
          "time": 131.5,
          "velocity": 0.7874015748031497,
          "duration": 0.125
        },
        {
          "name": "D5",
          "midi": 74,
          "time": 132,
          "velocity": 0.7874015748031497,
          "duration": 0.125
        },
        {
          "name": "D5",
          "midi": 74,
          "time": 132.5,
          "velocity": 0.7716535433070866,
          "duration": 0.125
        },
        {
          "name": "D5",
          "midi": 74,
          "time": 133,
          "velocity": 0.7716535433070866,
          "duration": 0.125
        },
        {
          "name": "D5",
          "midi": 74,
          "time": 133.5,
          "velocity": 0.6299212598425197,
          "duration": 0.125
        },
        {
          "name": "C5",
          "midi": 72,
          "time": 134,
          "velocity": 0.6299212598425197,
          "duration": 0.125
        },
        {
          "name": "E5",
          "midi": 76,
          "time": 134,
          "velocity": 0.6299212598425197,
          "duration": 0.125
        },
        {
          "name": "C5",
          "midi": 72,
          "time": 134.5,
          "velocity": 0.7716535433070866,
          "duration": 0.125
        },
        {
          "name": "C5",
          "midi": 72,
          "time": 135,
          "velocity": 0.7716535433070866,
          "duration": 0.125
        },
        {
          "name": "C5",
          "midi": 72,
          "time": 135.5,
          "velocity": 0.7716535433070866,
          "duration": 0.125
        },
        {
          "name": "E5",
          "midi": 76,
          "time": 136,
          "velocity": 0.6299212598425197,
          "duration": 0.125
        },
        {
          "name": "F5",
          "midi": 77,
          "time": 136,
          "velocity": 0.6299212598425197,
          "duration": 0.125
        },
        {
          "name": "F5",
          "midi": 77,
          "time": 136.5,
          "velocity": 0.7716535433070866,
          "duration": 0.125
        },
        {
          "name": "F5",
          "midi": 77,
          "time": 137,
          "velocity": 0.7716535433070866,
          "duration": 0.125
        },
        {
          "name": "F5",
          "midi": 77,
          "time": 137.5,
          "velocity": 0.7716535433070866,
          "duration": 0.125
        },
        {
          "name": "C5",
          "midi": 72,
          "time": 138,
          "velocity": 0.6299212598425197,
          "duration": 0.125
        },
        {
          "name": "E5",
          "midi": 76,
          "time": 138,
          "velocity": 0.6299212598425197,
          "duration": 0.125
        },
        {
          "name": "F5",
          "midi": 77,
          "time": 138.75,
          "velocity": 0.7716535433070866,
          "duration": 0.125
        },
        {
          "name": "F5",
          "midi": 77,
          "time": 139,
          "velocity": 0.7716535433070866,
          "duration": 0.125
        },
        {
          "name": "F5",
          "midi": 77,
          "time": 139.25,
          "velocity": 0.7716535433070866,
          "duration": 0.125
        },
        {
          "name": "E5",
          "midi": 76,
          "time": 139.5,
          "velocity": 0.7716535433070866,
          "duration": 0.125
        },
        {
          "name": "D5",
          "midi": 74,
          "time": 140,
          "velocity": 0.7716535433070866,
          "duration": 0.125
        },
        {
          "name": "D5",
          "midi": 74,
          "time": 140.5,
          "velocity": 0.7716535433070866,
          "duration": 0.125
        },
        {
          "name": "D5",
          "midi": 74,
          "time": 141,
          "velocity": 0.7716535433070866,
          "duration": 0.125
        },
        {
          "name": "F5",
          "midi": 77,
          "time": 141.5,
          "velocity": 0.6299212598425197,
          "duration": 0.125
        },
        {
          "name": "C5",
          "midi": 72,
          "time": 142,
          "velocity": 0.6299212598425197,
          "duration": 0.125
        },
        {
          "name": "E5",
          "midi": 76,
          "time": 142,
          "velocity": 0.6299212598425197,
          "duration": 0.125
        },
        {
          "name": "D5",
          "midi": 74,
          "time": 142.75,
          "velocity": 0.7716535433070866,
          "duration": 0.125
        },
        {
          "name": "D5",
          "midi": 74,
          "time": 143,
          "velocity": 0.7716535433070866,
          "duration": 0.125
        },
        {
          "name": "D5",
          "midi": 74,
          "time": 143.25,
          "velocity": 0.7716535433070866,
          "duration": 0.125
        },
        {
          "name": "E5",
          "midi": 76,
          "time": 143.5,
          "velocity": 0.7716535433070866,
          "duration": 0.125
        },
        {
          "name": "F5",
          "midi": 77,
          "time": 144,
          "velocity": 0.7716535433070866,
          "duration": 0.125
        },
        {
          "name": "F5",
          "midi": 77,
          "time": 144.5,
          "velocity": 0.7716535433070866,
          "duration": 0.125
        },
        {
          "name": "F5",
          "midi": 77,
          "time": 145,
          "velocity": 0.7716535433070866,
          "duration": 0.125
        },
        {
          "name": "E5",
          "midi": 76,
          "time": 145.5,
          "velocity": 0.6299212598425197,
          "duration": 0.125
        },
        {
          "name": "C5",
          "midi": 72,
          "time": 146,
          "velocity": 0.6299212598425197,
          "duration": 0.125
        },
        {
          "name": "D5",
          "midi": 74,
          "time": 146,
          "velocity": 0.6299212598425197,
          "duration": 0.1302083333333428
        },
        {
          "name": "F5",
          "midi": 77,
          "time": 146.75,
          "velocity": 0.7716535433070866,
          "duration": 0.125
        },
        {
          "name": "F5",
          "midi": 77,
          "time": 147,
          "velocity": 0.7716535433070866,
          "duration": 0.125
        },
        {
          "name": "F5",
          "midi": 77,
          "time": 147.25,
          "velocity": 0.7716535433070866,
          "duration": 0.125
        },
        {
          "name": "E5",
          "midi": 76,
          "time": 147.5,
          "velocity": 0.7716535433070866,
          "duration": 0.125
        },
        {
          "name": "D5",
          "midi": 74,
          "time": 148,
          "velocity": 0.7716535433070866,
          "duration": 0.125
        },
        {
          "name": "D5",
          "midi": 74,
          "time": 148.5,
          "velocity": 0.7716535433070866,
          "duration": 0.125
        },
        {
          "name": "D5",
          "midi": 74,
          "time": 149,
          "velocity": 0.7716535433070866,
          "duration": 0.125
        },
        {
          "name": "F5",
          "midi": 77,
          "time": 149.5,
          "velocity": 0.6299212598425197,
          "duration": 0.125
        },
        {
          "name": "C5",
          "midi": 72,
          "time": 150,
          "velocity": 0.6299212598425197,
          "duration": 0.125
        },
        {
          "name": "E5",
          "midi": 76,
          "time": 150,
          "velocity": 0.6299212598425197,
          "duration": 0.125
        },
        {
          "name": "C5",
          "midi": 72,
          "time": 150.75,
          "velocity": 0.7716535433070866,
          "duration": 0.125
        },
        {
          "name": "C5",
          "midi": 72,
          "time": 151,
          "velocity": 0.7716535433070866,
          "duration": 0.125
        },
        {
          "name": "C5",
          "midi": 72,
          "time": 151.25,
          "velocity": 0.7716535433070866,
          "duration": 0.125
        },
        {
          "name": "E5",
          "midi": 76,
          "time": 151.5,
          "velocity": 0.7716535433070866,
          "duration": 0.125
        },
        {
          "name": "E5",
          "midi": 76,
          "time": 152,
          "velocity": 0.6299212598425197,
          "duration": 0.125
        },
        {
          "name": "F5",
          "midi": 77,
          "time": 152,
          "velocity": 0.6299212598425197,
          "duration": 0.125
        },
        {
          "name": "C5",
          "midi": 72,
          "time": 153,
          "velocity": 0.6299212598425197,
          "duration": 0.125
        },
        {
          "name": "E5",
          "midi": 76,
          "time": 153,
          "velocity": 0.6299212598425197,
          "duration": 0.125
        },
        {
          "name": "F5",
          "midi": 77,
          "time": 154,
          "velocity": 0.6299212598425197,
          "duration": 0.0625
        },
        {
          "name": "E5",
          "midi": 76,
          "time": 154.375,
          "velocity": 0.6299212598425197,
          "duration": 0.0625
        },
        {
          "name": "D5",
          "midi": 74,
          "time": 154.75,
          "velocity": 0.6299212598425197,
          "duration": 0.08854166666665719
        },
        {
          "name": "C5",
          "midi": 72,
          "time": 155.125,
          "velocity": 0.6299212598425197,
          "duration": 0.08854166666665719
        },
        {
          "name": "E5",
          "midi": 76,
          "time": 155.5,
          "velocity": 0.6299212598425197,
          "duration": 0.0625
        },
        {
          "name": "D5",
          "midi": 74,
          "time": 155.75,
          "velocity": 0.6299212598425197,
          "duration": 0.0625
        },
        {
          "name": "C5",
          "midi": 72,
          "time": 156,
          "velocity": 0.6299212598425197,
          "duration": 0.0625
        }
      ]
}