{
      "notes": [
        {
          "name": "D4",
          "midi": 62,
          "time": 4.26036,
          "velocity": 0.7874015748031497,
          "duration": 0.1553256249999997
        },
        {
          "name": "D4",
          "midi": 62,
          "time": 4.61539,
          "velocity": 0.7874015748031497,
          "duration": 0.1812132291666666
        },
        {
          "name": "E4",
          "midi": 64,
          "time": 4.97042,
          "velocity": 0.7874015748031497,
          "duration": 0.16642031249999967
        },
        {
          "name": "F4",
          "midi": 65,
          "time": 5.325449999999999,
          "velocity": 0.7874015748031497,
          "duration": 0.15162739583333362
        },
        {
          "name": "E4",
          "midi": 64,
          "time": 5.680479999999999,
          "velocity": 0.7874015748031497,
          "duration": 0.15162739583333362
        },
        {
          "name": "D4",
          "midi": 62,
          "time": 6.0355099999999995,
          "velocity": 0.7874015748031497,
          "duration": 0.15902385416666664
        },
        {
          "name": "C4",
          "midi": 60,
          "time": 6.39054,
          "velocity": 0.7874015748031497,
          "duration": 0.17751499999999965
        },
        {
          "name": "C4",
          "midi": 60,
          "time": 6.745569999999999,
          "velocity": 0.7874015748031497,
          "duration": 0.1812132291666666
        },
        {
          "name": "E4",
          "midi": 64,
          "time": 7.100599999999999,
          "velocity": 0.7874015748031497,
          "duration": 0.1442309374999997
        },
        {
          "name": "D4",
          "midi": 62,
          "time": 7.455629999999998,
          "velocity": 0.7874015748031497,
          "duration": 0.14053270833333364
        },
        {
          "name": "D4",
          "midi": 62,
          "time": 8.520719999999999,
          "velocity": 0.7874015748031497,
          "duration": 0.17751499999999965
        },
        {
          "name": "E4",
          "midi": 64,
          "time": 9.23078,
          "velocity": 0.7874015748031497,
          "duration": 0.17751499999999965
        },
        {
          "name": "C4",
          "midi": 60,
          "time": 9.408294999999999,
          "velocity": 0.7874015748031497,
          "duration": 0.17751499999999965
        },
        {
          "name": "D4",
          "midi": 62,
          "time": 9.585809999999999,
          "velocity": 0.7874015748031497,
          "duration": 0.17751499999999965
        },
        {
          "name": "E4",
          "midi": 64,
          "time": 9.940839999999998,
          "velocity": 0.7874015748031497,
          "duration": 0.17751499999999965
        },
        {
          "name": "C4",
          "midi": 60,
          "time": 10.118354999999998,
          "velocity": 0.7874015748031497,
          "duration": 0.17751499999999965
        },
        {
          "name": "D4",
          "midi": 62,
          "time": 10.650899999999996,
          "velocity": 0.7874015748031497,
          "duration": 0.17751499999999965
        },
        {
          "name": "E4",
          "midi": 64,
          "time": 11.360959999999997,
          "velocity": 0.7874015748031497,
          "duration": 0.17751499999999965
        },
        {
          "name": "C4",
          "midi": 60,
          "time": 11.538474999999996,
          "velocity": 0.7874015748031497,
          "duration": 0.17751499999999965
        },
        {
          "name": "D4",
          "midi": 62,
          "time": 11.715989999999996,
          "velocity": 0.7874015748031497,
          "duration": 0.17751499999999965
        },
        {
          "name": "E4",
          "midi": 64,
          "time": 12.071019999999995,
          "velocity": 0.7874015748031497,
          "duration": 0.17751499999999965
        },
        {
          "name": "C4",
          "midi": 60,
          "time": 12.248534999999995,
          "velocity": 0.7874015748031497,
          "duration": 0.17751499999999965
        },
        {
          "name": "D4",
          "midi": 62,
          "time": 12.781079999999994,
          "velocity": 0.7874015748031497,
          "duration": 0.1553256249999997
        },
        {
          "name": "D4",
          "midi": 62,
          "time": 13.136109999999993,
          "velocity": 0.7874015748031497,
          "duration": 0.1812132291666675
        },
        {
          "name": "E4",
          "midi": 64,
          "time": 13.491139999999994,
          "velocity": 0.7874015748031497,
          "duration": 0.16642031249999967
        },
        {
          "name": "F4",
          "midi": 65,
          "time": 13.846169999999994,
          "velocity": 0.7874015748031497,
          "duration": 0.15162739583333362
        },
        {
          "name": "E4",
          "midi": 64,
          "time": 14.201199999999995,
          "velocity": 0.7874015748031497,
          "duration": 0.15162739583333362
        },
        {
          "name": "D4",
          "midi": 62,
          "time": 14.556229999999996,
          "velocity": 0.7874015748031497,
          "duration": 0.15902385416666753
        },
        {
          "name": "C4",
          "midi": 60,
          "time": 14.911259999999997,
          "velocity": 0.7874015748031497,
          "duration": 0.17751499999999965
        },
        {
          "name": "C4",
          "midi": 60,
          "time": 15.266289999999996,
          "velocity": 0.7874015748031497,
          "duration": 0.1812132291666675
        },
        {
          "name": "E4",
          "midi": 64,
          "time": 15.621319999999997,
          "velocity": 0.7874015748031497,
          "duration": 0.1442309374999997
        },
        {
          "name": "D4",
          "midi": 62,
          "time": 15.976349999999996,
          "velocity": 0.7874015748031497,
          "duration": 0.14053270833333187
        },
        {
          "name": "D4",
          "midi": 62,
          "time": 17.041439999999994,
          "velocity": 0.7874015748031497,
          "duration": 0.17751499999999965
        },
        {
          "name": "E4",
          "midi": 64,
          "time": 17.751499999999993,
          "velocity": 0.7874015748031497,
          "duration": 0.17751499999999965
        },
        {
          "name": "C4",
          "midi": 60,
          "time": 17.929014999999993,
          "velocity": 0.7874015748031497,
          "duration": 0.17751499999999965
        },
        {
          "name": "D4",
          "midi": 62,
          "time": 18.106529999999992,
          "velocity": 0.7874015748031497,
          "duration": 0.17751499999999965
        },
        {
          "name": "E4",
          "midi": 64,
          "time": 18.46155999999999,
          "velocity": 0.7874015748031497,
          "duration": 0.17751499999999965
        },
        {
          "name": "C4",
          "midi": 60,
          "time": 18.63907499999999,
          "velocity": 0.7874015748031497,
          "duration": 0.17751499999999965
        },
        {
          "name": "D4",
          "midi": 62,
          "time": 19.17161999999999,
          "velocity": 0.7874015748031497,
          "duration": 0.17751499999999965
        },
        {
          "name": "E4",
          "midi": 64,
          "time": 19.88167999999999,
          "velocity": 0.7874015748031497,
          "duration": 0.17751499999999965
        },
        {
          "name": "C4",
          "midi": 60,
          "time": 20.05919499999999,
          "velocity": 0.7874015748031497,
          "duration": 0.17751499999999965
        },
        {
          "name": "D4",
          "midi": 62,
          "time": 20.236709999999988,
          "velocity": 0.7874015748031497,
          "duration": 0.17751499999999965
        },
        {
          "name": "E4",
          "midi": 64,
          "time": 20.591739999999987,
          "velocity": 0.7874015748031497,
          "duration": 0.17751499999999965
        },
        {
          "name": "C4",
          "midi": 60,
          "time": 20.769254999999987,
          "velocity": 0.7874015748031497,
          "duration": 0.17751499999999965
        },
        {
          "name": "C4",
          "midi": 60,
          "time": 21.301799999999986,
          "velocity": 0.7874015748031497,
          "duration": 0.17751499999999965
        },
        {
          "name": "D4",
          "midi": 62,
          "time": 21.301799999999986,
          "velocity": 0.7874015748031497,
          "duration": 0.1553256249999997
        },
        {
          "name": "D4",
          "midi": 62,
          "time": 21.656829999999985,
          "velocity": 0.7874015748031497,
          "duration": 0.1812132291666657
        },
        {
          "name": "E4",
          "midi": 64,
          "time": 22.011859999999984,
          "velocity": 0.7874015748031497,
          "duration": 0.16642031250000144
        },
        {
          "name": "E4",
          "midi": 64,
          "time": 22.366889999999987,
          "velocity": 0.7874015748031497,
          "duration": 0.17751499999999965
        },
        {
          "name": "F4",
          "midi": 65,
          "time": 22.366889999999987,
          "velocity": 0.7874015748031497,
          "duration": 0.15162739583333362
        },
        {
          "name": "E4",
          "midi": 64,
          "time": 22.721919999999987,
          "velocity": 0.7874015748031497,
          "duration": 0.15162739583333362
        },
        {
          "name": "D4",
          "midi": 62,
          "time": 23.076949999999986,
          "velocity": 0.7874015748031497,
          "duration": 0.15902385416666576
        },
        {
          "name": "C4",
          "midi": 60,
          "time": 23.431979999999985,
          "velocity": 0.7874015748031497,
          "duration": 0.17751499999999965
        },
        {
          "name": "D4",
          "midi": 62,
          "time": 23.431979999999985,
          "velocity": 0.7874015748031497,
          "duration": 0.17751499999999965
        },
        {
          "name": "C4",
          "midi": 60,
          "time": 23.787009999999984,
          "velocity": 0.7874015748031497,
          "duration": 0.1812132291666657
        },
        {
          "name": "E4",
          "midi": 64,
          "time": 24.142039999999984,
          "velocity": 0.7874015748031497,
          "duration": 0.1442309375000015
        },
        {
          "name": "C4",
          "midi": 60,
          "time": 24.497069999999987,
          "velocity": 0.7874015748031497,
          "duration": 0.17751499999999965
        },
        {
          "name": "D4",
          "midi": 62,
          "time": 24.497069999999987,
          "velocity": 0.7874015748031497,
          "duration": 0.14053270833333187
        },
        {
          "name": "C4",
          "midi": 60,
          "time": 25.562159999999984,
          "velocity": 0.7874015748031497,
          "duration": 0.17751499999999965
        },
        {
          "name": "D4",
          "midi": 62,
          "time": 25.562159999999984,
          "velocity": 0.7874015748031497,
          "duration": 0.17751499999999965
        },
        {
          "name": "E4",
          "midi": 64,
          "time": 26.272219999999983,
          "velocity": 0.7874015748031497,
          "duration": 0.17751499999999965
        },
        {
          "name": "C4",
          "midi": 60,
          "time": 26.449734999999983,
          "velocity": 0.7874015748031497,
          "duration": 0.17751499999999965
        },
        {
          "name": "D4",
          "midi": 62,
          "time": 26.627249999999982,
          "velocity": 0.7874015748031497,
          "duration": 0.17751499999999965
        },
        {
          "name": "E4",
          "midi": 64,
          "time": 26.98227999999998,
          "velocity": 0.7874015748031497,
          "duration": 0.17751499999999965
        },
        {
          "name": "C4",
          "midi": 60,
          "time": 27.15979499999998,
          "velocity": 0.7874015748031497,
          "duration": 0.17751499999999965
        },
        {
          "name": "C4",
          "midi": 60,
          "time": 27.69233999999998,
          "velocity": 0.7874015748031497,
          "duration": 0.17751499999999965
        },
        {
          "name": "D4",
          "midi": 62,
          "time": 27.69233999999998,
          "velocity": 0.7874015748031497,
          "duration": 0.17751499999999965
        },
        {
          "name": "E4",
          "midi": 64,
          "time": 28.40239999999998,
          "velocity": 0.7874015748031497,
          "duration": 0.17751499999999965
        },
        {
          "name": "C4",
          "midi": 60,
          "time": 28.57991499999998,
          "velocity": 0.7874015748031497,
          "duration": 0.17751499999999965
        },
        {
          "name": "D4",
          "midi": 62,
          "time": 28.757429999999978,
          "velocity": 0.7874015748031497,
          "duration": 0.17751499999999965
        },
        {
          "name": "E4",
          "midi": 64,
          "time": 29.112459999999977,
          "velocity": 0.7874015748031497,
          "duration": 0.17751499999999965
        },
        {
          "name": "C4",
          "midi": 60,
          "time": 29.289974999999977,
          "velocity": 0.7874015748031497,
          "duration": 0.17751499999999965
        },
        {
          "name": "C4",
          "midi": 60,
          "time": 29.822519999999976,
          "velocity": 0.7874015748031497,
          "duration": 0.17751499999999965
        },
        {
          "name": "D4",
          "midi": 62,
          "time": 29.822519999999976,
          "velocity": 0.7874015748031497,
          "duration": 0.1553256249999997
        },
        {
          "name": "D4",
          "midi": 62,
          "time": 30.177549999999975,
          "velocity": 0.7874015748031497,
          "duration": 0.1812132291666657
        },
        {
          "name": "E4",
          "midi": 64,
          "time": 30.532579999999975,
          "velocity": 0.7874015748031497,
          "duration": 0.16642031250000144
        },
        {
          "name": "E4",
          "midi": 64,
          "time": 30.887609999999977,
          "velocity": 0.7874015748031497,
          "duration": 0.17751499999999965
        },
        {
          "name": "F4",
          "midi": 65,
          "time": 30.887609999999977,
          "velocity": 0.7874015748031497,
          "duration": 0.15162739583333362
        },
        {
          "name": "E4",
          "midi": 64,
          "time": 31.242639999999977,
          "velocity": 0.7874015748031497,
          "duration": 0.15162739583333362
        },
        {
          "name": "D4",
          "midi": 62,
          "time": 31.597669999999976,
          "velocity": 0.7874015748031497,
          "duration": 0.15902385416666576
        },
        {
          "name": "C4",
          "midi": 60,
          "time": 31.952699999999975,
          "velocity": 0.7874015748031497,
          "duration": 0.1775150000000032
        },
        {
          "name": "D4",
          "midi": 62,
          "time": 31.952699999999975,
          "velocity": 0.7874015748031497,
          "duration": 0.1775150000000032
        },
        {
          "name": "C4",
          "midi": 60,
          "time": 32.30772999999998,
          "velocity": 0.7874015748031497,
          "duration": 0.1812132291666657
        },
        {
          "name": "E4",
          "midi": 64,
          "time": 32.66275999999998,
          "velocity": 0.7874015748031497,
          "duration": 0.14423093749999794
        },
        {
          "name": "C4",
          "midi": 60,
          "time": 33.01778999999998,
          "velocity": 0.7874015748031497,
          "duration": 0.17751499999999965
        },
        {
          "name": "D4",
          "midi": 62,
          "time": 33.01778999999998,
          "velocity": 0.7874015748031497,
          "duration": 0.14053270833333187
        },
        {
          "name": "C4",
          "midi": 60,
          "time": 34.082879999999975,
          "velocity": 0.7874015748031497,
          "duration": 0.17751499999999965
        },
        {
          "name": "D4",
          "midi": 62,
          "time": 34.082879999999975,
          "velocity": 0.7874015748031497,
          "duration": 0.17751499999999965
        },
        {
          "name": "E4",
          "midi": 64,
          "time": 34.79293999999997,
          "velocity": 0.7874015748031497,
          "duration": 0.17751499999999965
        },
        {
          "name": "C4",
          "midi": 60,
          "time": 34.97045499999997,
          "velocity": 0.7874015748031497,
          "duration": 0.17751499999999965
        },
        {
          "name": "D4",
          "midi": 62,
          "time": 35.14796999999997,
          "velocity": 0.7874015748031497,
          "duration": 0.17751499999999965
        },
        {
          "name": "E4",
          "midi": 64,
          "time": 35.50299999999997,
          "velocity": 0.7874015748031497,
          "duration": 0.17751499999999965
        },
        {
          "name": "C4",
          "midi": 60,
          "time": 35.68051499999997,
          "velocity": 0.7874015748031497,
          "duration": 0.17751499999999965
        },
        {
          "name": "C4",
          "midi": 60,
          "time": 36.21305999999997,
          "velocity": 0.7874015748031497,
          "duration": 0.17751499999999965
        },
        {
          "name": "D4",
          "midi": 62,
          "time": 36.21305999999997,
          "velocity": 0.7874015748031497,
          "duration": 0.17751499999999965
        },
        {
          "name": "E4",
          "midi": 64,
          "time": 36.92311999999997,
          "velocity": 0.7874015748031497,
          "duration": 0.17751499999999965
        },
        {
          "name": "C4",
          "midi": 60,
          "time": 37.10063499999997,
          "velocity": 0.7874015748031497,
          "duration": 0.17751499999999965
        },
        {
          "name": "D4",
          "midi": 62,
          "time": 37.27814999999997,
          "velocity": 0.7874015748031497,
          "duration": 0.17751499999999965
        },
        {
          "name": "E4",
          "midi": 64,
          "time": 37.63317999999997,
          "velocity": 0.7874015748031497,
          "duration": 0.17751499999999965
        },
        {
          "name": "C4",
          "midi": 60,
          "time": 37.81069499999997,
          "velocity": 0.7874015748031497,
          "duration": 0.17751499999999965
        },
        {
          "name": "E4",
          "midi": 64,
          "time": 38.343239999999966,
          "velocity": 0.7874015748031497,
          "duration": 0.17751499999999965
        },
        {
          "name": "E4",
          "midi": 64,
          "time": 38.698269999999965,
          "velocity": 0.7874015748031497,
          "duration": 0.17751499999999965
        },
        {
          "name": "E4",
          "midi": 64,
          "time": 39.053299999999965,
          "velocity": 0.7874015748031497,
          "duration": 0.17751499999999965
        },
        {
          "name": "D4",
          "midi": 62,
          "time": 39.230814999999964,
          "velocity": 0.7874015748031497,
          "duration": 0.16272208333333538
        },
        {
          "name": "F4",
          "midi": 65,
          "time": 39.408329999999964,
          "velocity": 0.7874015748031497,
          "duration": 0.17751499999999965
        },
        {
          "name": "F4",
          "midi": 65,
          "time": 39.76335999999996,
          "velocity": 0.7874015748031497,
          "duration": 0.17751499999999965
        },
        {
          "name": "F4",
          "midi": 65,
          "time": 40.11838999999996,
          "velocity": 0.7874015748031497,
          "duration": 0.17751499999999965
        },
        {
          "name": "E4",
          "midi": 64,
          "time": 40.47341999999996,
          "velocity": 0.7874015748031497,
          "duration": 0.17751499999999965
        },
        {
          "name": "E4",
          "midi": 64,
          "time": 40.82844999999996,
          "velocity": 0.7874015748031497,
          "duration": 0.17751499999999965
        },
        {
          "name": "E4",
          "midi": 64,
          "time": 41.18347999999996,
          "velocity": 0.7874015748031497,
          "duration": 0.17751499999999965
        },
        {
          "name": "D4",
          "midi": 62,
          "time": 41.36099499999996,
          "velocity": 0.7874015748031497,
          "duration": 0.16642031250000144
        },
        {
          "name": "F4",
          "midi": 65,
          "time": 41.53850999999996,
          "velocity": 0.7874015748031497,
          "duration": 0.17751499999999965
        },
        {
          "name": "F4",
          "midi": 65,
          "time": 41.89353999999996,
          "velocity": 0.7874015748031497,
          "duration": 0.17751499999999965
        },
        {
          "name": "F4",
          "midi": 65,
          "time": 42.24856999999996,
          "velocity": 0.7874015748031497,
          "duration": 0.17751499999999965
        },
        {
          "name": "C4",
          "midi": 60,
          "time": 42.60359999999996,
          "velocity": 0.7874015748031497,
          "duration": 0.17751499999999965
        },
        {
          "name": "C4",
          "midi": 60,
          "time": 42.95862999999996,
          "velocity": 0.7874015748031497,
          "duration": 0.17751499999999965
        },
        {
          "name": "C4",
          "midi": 60,
          "time": 43.313659999999956,
          "velocity": 0.7874015748031497,
          "duration": 0.17751499999999965
        },
        {
          "name": "F4",
          "midi": 65,
          "time": 43.491174999999956,
          "velocity": 0.7874015748031497,
          "duration": 0.16272208333333538
        },
        {
          "name": "D4",
          "midi": 62,
          "time": 43.668689999999955,
          "velocity": 0.7874015748031497,
          "duration": 0.17751499999999965
        },
        {
          "name": "D4",
          "midi": 62,
          "time": 44.023719999999955,
          "velocity": 0.7874015748031497,
          "duration": 0.17751499999999965
        },
        {
          "name": "D4",
          "midi": 62,
          "time": 44.378749999999954,
          "velocity": 0.7874015748031497,
          "duration": 0.17751499999999965
        },
        {
          "name": "C4",
          "midi": 60,
          "time": 44.73377999999995,
          "velocity": 0.7874015748031497,
          "duration": 0.17751499999999965
        },
        {
          "name": "C4",
          "midi": 60,
          "time": 45.08880999999995,
          "velocity": 0.7874015748031497,
          "duration": 0.17751499999999965
        },
        {
          "name": "C4",
          "midi": 60,
          "time": 45.44383999999995,
          "velocity": 0.7874015748031497,
          "duration": 0.17751499999999965
        },
        {
          "name": "F4",
          "midi": 65,
          "time": 45.62135499999995,
          "velocity": 0.7874015748031497,
          "duration": 0.16272208333333538
        },
        {
          "name": "D4",
          "midi": 62,
          "time": 45.79886999999995,
          "velocity": 0.7874015748031497,
          "duration": 0.17751499999999965
        },
        {
          "name": "D4",
          "midi": 62,
          "time": 46.15389999999995,
          "velocity": 0.7874015748031497,
          "duration": 0.17751499999999965
        },
        {
          "name": "D4",
          "midi": 62,
          "time": 46.50892999999995,
          "velocity": 0.7874015748031497,
          "duration": 0.17751499999999965
        },
        {
          "name": "D4",
          "midi": 62,
          "time": 46.86395999999995,
          "velocity": 0.7874015748031497,
          "duration": 0.17751499999999965
        },
        {
          "name": "F4",
          "midi": 65,
          "time": 47.21898999999995,
          "velocity": 0.7874015748031497,
          "duration": 0.17751499999999965
        },
        {
          "name": "D4",
          "midi": 62,
          "time": 47.57401999999995,
          "velocity": 0.7874015748031497,
          "duration": 0.17751499999999965
        },
        {
          "name": "C4",
          "midi": 60,
          "time": 47.75153499999995,
          "velocity": 0.7874015748031497,
          "duration": 0.16272208333333538
        },
        {
          "name": "E4",
          "midi": 64,
          "time": 47.92904999999995,
          "velocity": 0.7874015748031497,
          "duration": 0.17751499999999965
        },
        {
          "name": "E4",
          "midi": 64,
          "time": 48.284079999999946,
          "velocity": 0.7874015748031497,
          "duration": 0.17751499999999965
        },
        {
          "name": "E4",
          "midi": 64,
          "time": 48.639109999999945,
          "velocity": 0.7874015748031497,
          "duration": 0.17751499999999965
        },
        {
          "name": "D4",
          "midi": 62,
          "time": 48.994139999999945,
          "velocity": 0.7874015748031497,
          "duration": 0.17751499999999965
        },
        {
          "name": "F4",
          "midi": 65,
          "time": 49.349169999999944,
          "velocity": 0.7874015748031497,
          "duration": 0.17751499999999965
        },
        {
          "name": "D4",
          "midi": 62,
          "time": 49.70419999999994,
          "velocity": 0.7874015748031497,
          "duration": 0.17751499999999965
        },
        {
          "name": "C4",
          "midi": 60,
          "time": 49.88171499999994,
          "velocity": 0.7874015748031497,
          "duration": 0.16272208333333538
        },
        {
          "name": "E4",
          "midi": 64,
          "time": 50.05922999999994,
          "velocity": 0.7874015748031497,
          "duration": 0.17751499999999965
        },
        {
          "name": "E4",
          "midi": 64,
          "time": 50.41425999999994,
          "velocity": 0.7874015748031497,
          "duration": 0.17751499999999965
        },
        {
          "name": "E4",
          "midi": 64,
          "time": 50.76928999999994,
          "velocity": 0.7874015748031497,
          "duration": 0.17751499999999965
        },
        {
          "name": "C4",
          "midi": 60,
          "time": 51.12431999999994,
          "velocity": 0.7874015748031497,
          "duration": 0.17751499999999965
        },
        {
          "name": "E4",
          "midi": 64,
          "time": 51.47934999999994,
          "velocity": 0.7874015748031497,
          "duration": 0.17751499999999965
        },
        {
          "name": "C4",
          "midi": 60,
          "time": 51.83437999999994,
          "velocity": 0.7874015748031497,
          "duration": 0.17751499999999965
        },
        {
          "name": "F4",
          "midi": 65,
          "time": 52.01189499999994,
          "velocity": 0.7874015748031497,
          "duration": 0.16272208333333538
        },
        {
          "name": "D4",
          "midi": 62,
          "time": 52.18940999999994,
          "velocity": 0.7874015748031497,
          "duration": 0.17751499999999965
        },
        {
          "name": "D4",
          "midi": 62,
          "time": 52.54443999999994,
          "velocity": 0.7874015748031497,
          "duration": 0.17751499999999965
        },
        {
          "name": "D4",
          "midi": 62,
          "time": 52.89946999999994,
          "velocity": 0.7874015748031497,
          "duration": 0.17751499999999965
        },
        {
          "name": "C4",
          "midi": 60,
          "time": 53.254499999999936,
          "velocity": 0.7874015748031497,
          "duration": 0.17751499999999965
        },
        {
          "name": "E4",
          "midi": 64,
          "time": 53.609529999999936,
          "velocity": 0.7874015748031497,
          "duration": 0.17751499999999965
        },
        {
          "name": "C4",
          "midi": 60,
          "time": 53.964559999999935,
          "velocity": 0.7874015748031497,
          "duration": 0.17751499999999965
        },
        {
          "name": "F4",
          "midi": 65,
          "time": 54.142074999999934,
          "velocity": 0.7874015748031497,
          "duration": 0.16272208333333538
        },
        {
          "name": "D4",
          "midi": 62,
          "time": 54.319589999999934,
          "velocity": 0.7874015748031497,
          "duration": 0.17751499999999965
        },
        {
          "name": "D4",
          "midi": 62,
          "time": 54.67461999999993,
          "velocity": 0.7874015748031497,
          "duration": 0.17751499999999965
        },
        {
          "name": "D4",
          "midi": 62,
          "time": 55.02964999999993,
          "velocity": 0.7874015748031497,
          "duration": 0.17751499999999965
        },
        {
          "name": "C4",
          "midi": 60,
          "time": 55.38467999999993,
          "velocity": 0.7874015748031497,
          "duration": 0.17751500000000675
        },
        {
          "name": "E4",
          "midi": 64,
          "time": 55.38467999999993,
          "velocity": 0.7874015748031497,
          "duration": 0.15532562500000324
        },
        {
          "name": "C4",
          "midi": 60,
          "time": 55.73970999999994,
          "velocity": 0.7874015748031497,
          "duration": 0.1812132291666657
        },
        {
          "name": "C4",
          "midi": 60,
          "time": 56.09473999999994,
          "velocity": 0.7874015748031497,
          "duration": 0.16642031250000144
        },
        {
          "name": "C4",
          "midi": 60,
          "time": 56.44976999999994,
          "velocity": 0.7874015748031497,
          "duration": 0.17751499999999965
        },
        {
          "name": "C4",
          "midi": 60,
          "time": 56.804799999999936,
          "velocity": 0.7874015748031497,
          "duration": 0.15162739583333007
        },
        {
          "name": "C4",
          "midi": 60,
          "time": 57.159829999999936,
          "velocity": 0.7874015748031497,
          "duration": 0.1590238541666693
        },
        {
          "name": "C4",
          "midi": 60,
          "time": 57.514859999999935,
          "velocity": 0.7874015748031497,
          "duration": 0.17751499999999965
        },
        {
          "name": "E4",
          "midi": 64,
          "time": 57.514859999999935,
          "velocity": 0.7874015748031497,
          "duration": 0.17751499999999965
        },
        {
          "name": "C4",
          "midi": 60,
          "time": 57.869889999999934,
          "velocity": 0.7874015748031497,
          "duration": 0.1812132291666657
        },
        {
          "name": "C4",
          "midi": 60,
          "time": 58.22491999999993,
          "velocity": 0.7874015748031497,
          "duration": 0.14423093749999794
        },
        {
          "name": "C4",
          "midi": 60,
          "time": 58.57994999999993,
          "velocity": 0.7874015748031497,
          "duration": 0.17751499999999965
        },
        {
          "name": "C4",
          "midi": 60,
          "time": 58.93497999999993,
          "velocity": 0.7874015748031497,
          "duration": 0.14053270833333187
        },
        {
          "name": "F4",
          "midi": 65,
          "time": 59.29000999999993,
          "velocity": 0.7874015748031497,
          "duration": 0.17751499999999965
        },
        {
          "name": "D4",
          "midi": 62,
          "time": 59.64503999999993,
          "velocity": 0.7874015748031497,
          "duration": 0.17751499999999965
        },
        {
          "name": "F4",
          "midi": 65,
          "time": 59.64503999999993,
          "velocity": 0.7874015748031497,
          "duration": 0.17751499999999965
        },
        {
          "name": "F4",
          "midi": 65,
          "time": 60.00006999999993,
          "velocity": 0.7874015748031497,
          "duration": 0.17751499999999965
        },
        {
          "name": "F4",
          "midi": 65,
          "time": 60.35509999999993,
          "velocity": 0.7874015748031497,
          "duration": 0.17751499999999965
        },
        {
          "name": "F4",
          "midi": 65,
          "time": 60.71012999999993,
          "velocity": 0.7874015748031497,
          "duration": 0.17751499999999965
        },
        {
          "name": "F4",
          "midi": 65,
          "time": 61.06515999999993,
          "velocity": 0.7874015748031497,
          "duration": 0.17751499999999965
        },
        {
          "name": "F4",
          "midi": 65,
          "time": 61.42018999999993,
          "velocity": 0.7874015748031497,
          "duration": 0.17751499999999965
        },
        {
          "name": "D4",
          "midi": 62,
          "time": 61.775219999999926,
          "velocity": 0.7874015748031497,
          "duration": 0.17751499999999965
        },
        {
          "name": "F4",
          "midi": 65,
          "time": 61.775219999999926,
          "velocity": 0.7874015748031497,
          "duration": 0.17751499999999965
        },
        {
          "name": "D4",
          "midi": 62,
          "time": 62.130249999999926,
          "velocity": 0.7874015748031497,
          "duration": 0.17751499999999965
        },
        {
          "name": "D4",
          "midi": 62,
          "time": 62.485279999999925,
          "velocity": 0.7874015748031497,
          "duration": 0.17751499999999965
        },
        {
          "name": "D4",
          "midi": 62,
          "time": 62.840309999999924,
          "velocity": 0.7874015748031497,
          "duration": 0.17751499999999965
        },
        {
          "name": "D4",
          "midi": 62,
          "time": 63.19533999999992,
          "velocity": 0.7874015748031497,
          "duration": 0.17751499999999965
        },
        {
          "name": "D4",
          "midi": 62,
          "time": 63.55036999999992,
          "velocity": 0.7874015748031497,
          "duration": 0.17751499999999965
        },
        {
          "name": "C4",
          "midi": 60,
          "time": 63.90539999999992,
          "velocity": 0.7874015748031497,
          "duration": 0.17751499999999254
        },
        {
          "name": "E4",
          "midi": 64,
          "time": 63.90539999999992,
          "velocity": 0.7874015748031497,
          "duration": 0.15532562499999614
        },
        {
          "name": "C4",
          "midi": 60,
          "time": 64.26042999999991,
          "velocity": 0.7874015748031497,
          "duration": 0.18121322916667282
        },
        {
          "name": "C4",
          "midi": 60,
          "time": 64.61545999999991,
          "velocity": 0.7874015748031497,
          "duration": 0.16642031249999434
        },
        {
          "name": "C4",
          "midi": 60,
          "time": 64.97048999999991,
          "velocity": 0.7874015748031497,
          "duration": 0.17751499999999965
        },
        {
          "name": "C4",
          "midi": 60,
          "time": 65.32551999999991,
          "velocity": 0.7874015748031497,
          "duration": 0.15162739583333007
        },
        {
          "name": "C4",
          "midi": 60,
          "time": 65.68054999999991,
          "velocity": 0.7874015748031497,
          "duration": 0.1590238541666622
        },
        {
          "name": "C4",
          "midi": 60,
          "time": 66.03557999999991,
          "velocity": 0.7874015748031497,
          "duration": 0.17751499999999965
        },
        {
          "name": "E4",
          "midi": 64,
          "time": 66.03557999999991,
          "velocity": 0.7874015748031497,
          "duration": 0.17751499999999965
        },
        {
          "name": "C4",
          "midi": 60,
          "time": 66.39060999999991,
          "velocity": 0.7874015748031497,
          "duration": 0.18121322916667282
        },
        {
          "name": "C4",
          "midi": 60,
          "time": 66.74563999999991,
          "velocity": 0.7874015748031497,
          "duration": 0.14423093749999794
        },
        {
          "name": "C4",
          "midi": 60,
          "time": 67.10066999999991,
          "velocity": 0.7874015748031497,
          "duration": 0.17751499999999965
        },
        {
          "name": "C4",
          "midi": 60,
          "time": 67.45569999999991,
          "velocity": 0.7874015748031497,
          "duration": 0.14053270833333897
        },
        {
          "name": "F4",
          "midi": 65,
          "time": 67.81072999999991,
          "velocity": 0.7874015748031497,
          "duration": 0.17751499999999965
        },
        {
          "name": "D4",
          "midi": 62,
          "time": 68.1657599999999,
          "velocity": 0.7874015748031497,
          "duration": 0.17751499999999965
        },
        {
          "name": "F4",
          "midi": 65,
          "time": 68.1657599999999,
          "velocity": 0.7874015748031497,
          "duration": 0.17751499999999965
        },
        {
          "name": "F4",
          "midi": 65,
          "time": 68.5207899999999,
          "velocity": 0.7874015748031497,
          "duration": 0.17751499999999965
        },
        {
          "name": "F4",
          "midi": 65,
          "time": 68.8758199999999,
          "velocity": 0.7874015748031497,
          "duration": 0.17751499999999965
        },
        {
          "name": "F4",
          "midi": 65,
          "time": 69.2308499999999,
          "velocity": 0.7874015748031497,
          "duration": 0.17751499999999965
        },
        {
          "name": "F4",
          "midi": 65,
          "time": 69.5858799999999,
          "velocity": 0.7874015748031497,
          "duration": 0.17751499999999965
        },
        {
          "name": "F4",
          "midi": 65,
          "time": 69.9409099999999,
          "velocity": 0.7874015748031497,
          "duration": 0.17751499999999965
        },
        {
          "name": "D4",
          "midi": 62,
          "time": 70.2959399999999,
          "velocity": 0.7874015748031497,
          "duration": 0.17751499999999965
        },
        {
          "name": "F4",
          "midi": 65,
          "time": 70.2959399999999,
          "velocity": 0.7874015748031497,
          "duration": 0.17751499999999965
        },
        {
          "name": "D4",
          "midi": 62,
          "time": 70.6509699999999,
          "velocity": 0.7874015748031497,
          "duration": 0.17751499999999965
        },
        {
          "name": "D4",
          "midi": 62,
          "time": 71.0059999999999,
          "velocity": 0.7874015748031497,
          "duration": 0.17751499999999965
        },
        {
          "name": "D4",
          "midi": 62,
          "time": 71.3610299999999,
          "velocity": 0.7874015748031497,
          "duration": 0.17751499999999965
        },
        {
          "name": "D4",
          "midi": 62,
          "time": 71.7160599999999,
          "velocity": 0.7874015748031497,
          "duration": 0.17751499999999965
        },
        {
          "name": "D4",
          "midi": 62,
          "time": 72.0710899999999,
          "velocity": 0.7874015748031497,
          "duration": 0.17751499999999965
        },
        {
          "name": "D4",
          "midi": 62,
          "time": 72.4261199999999,
          "velocity": 0.7874015748031497,
          "duration": 0.15532562500000324
        },
        {
          "name": "D4",
          "midi": 62,
          "time": 72.7811499999999,
          "velocity": 0.7874015748031497,
          "duration": 0.18121322916667282
        },
        {
          "name": "E4",
          "midi": 64,
          "time": 73.1361799999999,
          "velocity": 0.7874015748031497,
          "duration": 0.16642031249999434
        },
        {
          "name": "F4",
          "midi": 65,
          "time": 73.4912099999999,
          "velocity": 0.7874015748031497,
          "duration": 0.15162739583333007
        },
        {
          "name": "E4",
          "midi": 64,
          "time": 73.8462399999999,
          "velocity": 0.7874015748031497,
          "duration": 0.15162739583333007
        },
        {
          "name": "D4",
          "midi": 62,
          "time": 74.2012699999999,
          "velocity": 0.7874015748031497,
          "duration": 0.1590238541666622
        },
        {
          "name": "C4",
          "midi": 60,
          "time": 74.5562999999999,
          "velocity": 0.7874015748031497,
          "duration": 0.17751499999999965
        },
        {
          "name": "C4",
          "midi": 60,
          "time": 74.9113299999999,
          "velocity": 0.7874015748031497,
          "duration": 0.18121322916667282
        },
        {
          "name": "E4",
          "midi": 64,
          "time": 75.26635999999989,
          "velocity": 0.7874015748031497,
          "duration": 0.14423093749999794
        },
        {
          "name": "D4",
          "midi": 62,
          "time": 75.62138999999989,
          "velocity": 0.7874015748031497,
          "duration": 0.14053270833333897
        },
        {
          "name": "D4",
          "midi": 62,
          "time": 76.6864799999999,
          "velocity": 0.7874015748031497,
          "duration": 0.17751499999999965
        },
        {
          "name": "E4",
          "midi": 64,
          "time": 77.3965399999999,
          "velocity": 0.7874015748031497,
          "duration": 0.17751499999999965
        },
        {
          "name": "C4",
          "midi": 60,
          "time": 77.5740549999999,
          "velocity": 0.7874015748031497,
          "duration": 0.17751499999999965
        },
        {
          "name": "D4",
          "midi": 62,
          "time": 77.7515699999999,
          "velocity": 0.7874015748031497,
          "duration": 0.17751499999999965
        },
        {
          "name": "E4",
          "midi": 64,
          "time": 78.1065999999999,
          "velocity": 0.7874015748031497,
          "duration": 0.17751499999999965
        },
        {
          "name": "C4",
          "midi": 60,
          "time": 78.2841149999999,
          "velocity": 0.7874015748031497,
          "duration": 0.17751499999999965
        },
        {
          "name": "D4",
          "midi": 62,
          "time": 78.8166599999999,
          "velocity": 0.7874015748031497,
          "duration": 0.17751499999999965
        },
        {
          "name": "E4",
          "midi": 64,
          "time": 79.5267199999999,
          "velocity": 0.7874015748031497,
          "duration": 0.17751499999999965
        },
        {
          "name": "C4",
          "midi": 60,
          "time": 79.7042349999999,
          "velocity": 0.7874015748031497,
          "duration": 0.17751499999999965
        },
        {
          "name": "D4",
          "midi": 62,
          "time": 79.8817499999999,
          "velocity": 0.7874015748031497,
          "duration": 0.17751499999999965
        },
        {
          "name": "E4",
          "midi": 64,
          "time": 80.2367799999999,
          "velocity": 0.7874015748031497,
          "duration": 0.17751499999999965
        },
        {
          "name": "C4",
          "midi": 60,
          "time": 80.4142949999999,
          "velocity": 0.7874015748031497,
          "duration": 0.17751499999999965
        },
        {
          "name": "D4",
          "midi": 62,
          "time": 80.9468399999999,
          "velocity": 0.7874015748031497,
          "duration": 0.15532562500000324
        },
        {
          "name": "D4",
          "midi": 62,
          "time": 81.3018699999999,
          "velocity": 0.7874015748031497,
          "duration": 0.18121322916667282
        },
        {
          "name": "E4",
          "midi": 64,
          "time": 81.6568999999999,
          "velocity": 0.7874015748031497,
          "duration": 0.16642031249999434
        },
        {
          "name": "F4",
          "midi": 65,
          "time": 82.0119299999999,
          "velocity": 0.7874015748031497,
          "duration": 0.15162739583333007
        },
        {
          "name": "E4",
          "midi": 64,
          "time": 82.36695999999989,
          "velocity": 0.7874015748031497,
          "duration": 0.15162739583333007
        },
        {
          "name": "D4",
          "midi": 62,
          "time": 82.72198999999989,
          "velocity": 0.7874015748031497,
          "duration": 0.1590238541666622
        },
        {
          "name": "C4",
          "midi": 60,
          "time": 83.07701999999989,
          "velocity": 0.7874015748031497,
          "duration": 0.17751499999999965
        },
        {
          "name": "C4",
          "midi": 60,
          "time": 83.43204999999989,
          "velocity": 0.7874015748031497,
          "duration": 0.18121322916667282
        },
        {
          "name": "E4",
          "midi": 64,
          "time": 83.78707999999989,
          "velocity": 0.7874015748031497,
          "duration": 0.14423093749999794
        },
        {
          "name": "D4",
          "midi": 62,
          "time": 84.14210999999989,
          "velocity": 0.7874015748031497,
          "duration": 0.14053270833333897
        },
        {
          "name": "D4",
          "midi": 62,
          "time": 85.2071999999999,
          "velocity": 0.7874015748031497,
          "duration": 0.17751499999999965
        },
        {
          "name": "E4",
          "midi": 64,
          "time": 85.9172599999999,
          "velocity": 0.7874015748031497,
          "duration": 0.17751499999999965
        },
        {
          "name": "C4",
          "midi": 60,
          "time": 86.0947749999999,
          "velocity": 0.7874015748031497,
          "duration": 0.17751499999999965
        },
        {
          "name": "D4",
          "midi": 62,
          "time": 86.2722899999999,
          "velocity": 0.7874015748031497,
          "duration": 0.17751499999999965
        },
        {
          "name": "E4",
          "midi": 64,
          "time": 86.6273199999999,
          "velocity": 0.7874015748031497,
          "duration": 0.17751499999999965
        },
        {
          "name": "C4",
          "midi": 60,
          "time": 86.8048349999999,
          "velocity": 0.7874015748031497,
          "duration": 0.17751499999999965
        },
        {
          "name": "D4",
          "midi": 62,
          "time": 87.3373799999999,
          "velocity": 0.7874015748031497,
          "duration": 0.17751499999999965
        },
        {
          "name": "E4",
          "midi": 64,
          "time": 88.0474399999999,
          "velocity": 0.7874015748031497,
          "duration": 0.17751499999999965
        },
        {
          "name": "C4",
          "midi": 60,
          "time": 88.2249549999999,
          "velocity": 0.7874015748031497,
          "duration": 0.17751499999999965
        },
        {
          "name": "D4",
          "midi": 62,
          "time": 88.4024699999999,
          "velocity": 0.7874015748031497,
          "duration": 0.17751499999999965
        },
        {
          "name": "E4",
          "midi": 64,
          "time": 88.7574999999999,
          "velocity": 0.7874015748031497,
          "duration": 0.17751499999999965
        },
        {
          "name": "C4",
          "midi": 60,
          "time": 88.9350149999999,
          "velocity": 0.7874015748031497,
          "duration": 0.17751499999999965
        },
        {
          "name": "C4",
          "midi": 60,
          "time": 89.46755999999989,
          "velocity": 0.7874015748031497,
          "duration": 0.17751499999999965
        },
        {
          "name": "D4",
          "midi": 62,
          "time": 89.46755999999989,
          "velocity": 0.7874015748031497,
          "duration": 0.15532562500000324
        },
        {
          "name": "D4",
          "midi": 62,
          "time": 89.82258999999989,
          "velocity": 0.7874015748031497,
          "duration": 0.18121322916667282
        },
        {
          "name": "E4",
          "midi": 64,
          "time": 90.17761999999989,
          "velocity": 0.7874015748031497,
          "duration": 0.16642031249999434
        },
        {
          "name": "E4",
          "midi": 64,
          "time": 90.53264999999989,
          "velocity": 0.7874015748031497,
          "duration": 0.17751499999999965
        },
        {
          "name": "F4",
          "midi": 65,
          "time": 90.53264999999989,
          "velocity": 0.7874015748031497,
          "duration": 0.15162739583333007
        },
        {
          "name": "E4",
          "midi": 64,
          "time": 90.88767999999989,
          "velocity": 0.7874015748031497,
          "duration": 0.15162739583333007
        },
        {
          "name": "D4",
          "midi": 62,
          "time": 91.24270999999989,
          "velocity": 0.7874015748031497,
          "duration": 0.1590238541666622
        },
        {
          "name": "C4",
          "midi": 60,
          "time": 91.59773999999989,
          "velocity": 0.7874015748031497,
          "duration": 0.17751499999999965
        },
        {
          "name": "D4",
          "midi": 62,
          "time": 91.59773999999989,
          "velocity": 0.7874015748031497,
          "duration": 0.17751499999999965
        },
        {
          "name": "C4",
          "midi": 60,
          "time": 91.95276999999989,
          "velocity": 0.7874015748031497,
          "duration": 0.18121322916667282
        },
        {
          "name": "E4",
          "midi": 64,
          "time": 92.30779999999989,
          "velocity": 0.7874015748031497,
          "duration": 0.14423093749999794
        },
        {
          "name": "C4",
          "midi": 60,
          "time": 92.66282999999989,
          "velocity": 0.7874015748031497,
          "duration": 0.17751499999999965
        },
        {
          "name": "D4",
          "midi": 62,
          "time": 92.66282999999989,
          "velocity": 0.7874015748031497,
          "duration": 0.14053270833333897
        },
        {
          "name": "C4",
          "midi": 60,
          "time": 93.72791999999988,
          "velocity": 0.7874015748031497,
          "duration": 0.17751499999999965
        },
        {
          "name": "E4",
          "midi": 64,
          "time": 93.72791999999988,
          "velocity": 0.7874015748031497,
          "duration": 0.17751499999999965
        },
        {
          "name": "E4",
          "midi": 64,
          "time": 94.08294999999988,
          "velocity": 0.7874015748031497,
          "duration": 0.17751499999999965
        },
        {
          "name": "E4",
          "midi": 64,
          "time": 94.43797999999988,
          "velocity": 0.7874015748031497,
          "duration": 0.17751499999999965
        },
        {
          "name": "D4",
          "midi": 62,
          "time": 94.61549499999988,
          "velocity": 0.7874015748031497,
          "duration": 0.16272208333333538
        },
        {
          "name": "C4",
          "midi": 60,
          "time": 94.79300999999988,
          "velocity": 0.7874015748031497,
          "duration": 0.17751499999999965
        },
        {
          "name": "F4",
          "midi": 65,
          "time": 94.79300999999988,
          "velocity": 0.7874015748031497,
          "duration": 0.17751499999999965
        },
        {
          "name": "F4",
          "midi": 65,
          "time": 95.14803999999988,
          "velocity": 0.7874015748031497,
          "duration": 0.17751499999999965
        },
        {
          "name": "F4",
          "midi": 65,
          "time": 95.50306999999988,
          "velocity": 0.7874015748031497,
          "duration": 0.17751499999999965
        },
        {
          "name": "C4",
          "midi": 60,
          "time": 95.85809999999988,
          "velocity": 0.7874015748031497,
          "duration": 0.17751499999999965
        },
        {
          "name": "E4",
          "midi": 64,
          "time": 95.85809999999988,
          "velocity": 0.7874015748031497,
          "duration": 0.17751499999999965
        },
        {
          "name": "E4",
          "midi": 64,
          "time": 96.21312999999988,
          "velocity": 0.7874015748031497,
          "duration": 0.17751499999999965
        },
        {
          "name": "E4",
          "midi": 64,
          "time": 96.56815999999988,
          "velocity": 0.7874015748031497,
          "duration": 0.17751499999999965
        },
        {
          "name": "D4",
          "midi": 62,
          "time": 96.74567499999988,
          "velocity": 0.7874015748031497,
          "duration": 0.16642031249999434
        },
        {
          "name": "C4",
          "midi": 60,
          "time": 96.92318999999988,
          "velocity": 0.7874015748031497,
          "duration": 0.17751499999999965
        },
        {
          "name": "F4",
          "midi": 65,
          "time": 96.92318999999988,
          "velocity": 0.7874015748031497,
          "duration": 0.17751499999999965
        },
        {
          "name": "F4",
          "midi": 65,
          "time": 97.27821999999988,
          "velocity": 0.7874015748031497,
          "duration": 0.17751499999999965
        },
        {
          "name": "F4",
          "midi": 65,
          "time": 97.63324999999988,
          "velocity": 0.7874015748031497,
          "duration": 0.17751499999999965
        },
        {
          "name": "C4",
          "midi": 60,
          "time": 97.98827999999988,
          "velocity": 0.7874015748031497,
          "duration": 0.17751499999999965
        },
        {
          "name": "D4",
          "midi": 62,
          "time": 97.98827999999988,
          "velocity": 0.7874015748031497,
          "duration": 0.17751499999999965
        },
        {
          "name": "D4",
          "midi": 62,
          "time": 98.34330999999987,
          "velocity": 0.7874015748031497,
          "duration": 0.18121322916667282
        },
        {
          "name": "E4",
          "midi": 64,
          "time": 98.69833999999987,
          "velocity": 0.7874015748031497,
          "duration": 0.16642031249999434
        },
        {
          "name": "E4",
          "midi": 64,
          "time": 99.05336999999987,
          "velocity": 0.7874015748031497,
          "duration": 0.17751499999999965
        },
        {
          "name": "F4",
          "midi": 65,
          "time": 99.05336999999987,
          "velocity": 0.7874015748031497,
          "duration": 0.17751499999999965
        },
        {
          "name": "E4",
          "midi": 64,
          "time": 99.40839999999987,
          "velocity": 0.7874015748031497,
          "duration": 0.15162739583333007
        },
        {
          "name": "D4",
          "midi": 62,
          "time": 99.76342999999987,
          "velocity": 0.7874015748031497,
          "duration": 0.1590238541666622
        },
        {
          "name": "C4",
          "midi": 60,
          "time": 100.11845999999987,
          "velocity": 0.7874015748031497,
          "duration": 0.17751499999999965
        },
        {
          "name": "D4",
          "midi": 62,
          "time": 100.11845999999987,
          "velocity": 0.7874015748031497,
          "duration": 0.17751499999999965
        },
        {
          "name": "C4",
          "midi": 60,
          "time": 100.47348999999987,
          "velocity": 0.7874015748031497,
          "duration": 0.18121322916667282
        },
        {
          "name": "E4",
          "midi": 64,
          "time": 100.82851999999987,
          "velocity": 0.7874015748031497,
          "duration": 0.17751499999999965
        },
        {
          "name": "C4",
          "midi": 60,
          "time": 101.18354999999987,
          "velocity": 0.7874015748031497,
          "duration": 0.17751499999999965
        },
        {
          "name": "D4",
          "midi": 62,
          "time": 101.18354999999987,
          "velocity": 0.7874015748031497,
          "duration": 0.17751499999999965
        },
        {
          "name": "C4",
          "midi": 60,
          "time": 102.24863999999987,
          "velocity": 0.7874015748031497,
          "duration": 0.17751499999999965
        },
        {
          "name": "E4",
          "midi": 64,
          "time": 102.25233822916654,
          "velocity": 0.9448818897637795,
          "duration": 0.17751499999999965
        },
        {
          "name": "C4",
          "midi": 60,
          "time": 102.60366999999987,
          "velocity": 0.7874015748031497,
          "duration": 0.17751499999999965
        },
        {
          "name": "C4",
          "midi": 60,
          "time": 102.95869999999987,
          "velocity": 0.7874015748031497,
          "duration": 0.17751499999999965
        },
        {
          "name": "F4",
          "midi": 65,
          "time": 103.13621499999986,
          "velocity": 0.7874015748031497,
          "duration": 0.16272208333333538
        },
        {
          "name": "D4",
          "midi": 62,
          "time": 103.31372999999986,
          "velocity": 0.7874015748031497,
          "duration": 0.17751499999999965
        },
        {
          "name": "E4",
          "midi": 64,
          "time": 103.31372999999986,
          "velocity": 0.9448818897637795,
          "duration": 0.17751499999999965
        },
        {
          "name": "D4",
          "midi": 62,
          "time": 103.66875999999986,
          "velocity": 0.7874015748031497,
          "duration": 0.17751499999999965
        },
        {
          "name": "D4",
          "midi": 62,
          "time": 104.02378999999986,
          "velocity": 0.7874015748031497,
          "duration": 0.17751499999999965
        },
        {
          "name": "C4",
          "midi": 60,
          "time": 104.37881999999986,
          "velocity": 0.7874015748031497,
          "duration": 0.17751499999999965
        },
        {
          "name": "E4",
          "midi": 64,
          "time": 104.37881999999986,
          "velocity": 0.9448818897637795,
          "duration": 0.17751499999999965
        },
        {
          "name": "C4",
          "midi": 60,
          "time": 104.73384999999986,
          "velocity": 0.7874015748031497,
          "duration": 0.17751499999999965
        },
        {
          "name": "C4",
          "midi": 60,
          "time": 105.08887999999986,
          "velocity": 0.7874015748031497,
          "duration": 0.17751499999999965
        },
        {
          "name": "F4",
          "midi": 65,
          "time": 105.26639499999986,
          "velocity": 0.7874015748031497,
          "duration": 0.16272208333333538
        },
        {
          "name": "D4",
          "midi": 62,
          "time": 105.44390999999986,
          "velocity": 0.7874015748031497,
          "duration": 0.17751499999999965
        },
        {
          "name": "E4",
          "midi": 64,
          "time": 105.44390999999986,
          "velocity": 0.9448818897637795,
          "duration": 0.17751499999999965
        },
        {
          "name": "D4",
          "midi": 62,
          "time": 105.79893999999986,
          "velocity": 0.7874015748031497,
          "duration": 0.17751499999999965
        },
        {
          "name": "D4",
          "midi": 62,
          "time": 106.15396999999986,
          "velocity": 0.7874015748031497,
          "duration": 0.17751499999999965
        },
        {
          "name": "C4",
          "midi": 60,
          "time": 106.50899999999986,
          "velocity": 0.7874015748031497,
          "duration": 0.17751499999999965
        },
        {
          "name": "E4",
          "midi": 64,
          "time": 106.50899999999986,
          "velocity": 0.7874015748031497,
          "duration": 0.15532562500000324
        },
        {
          "name": "D4",
          "midi": 62,
          "time": 106.86402999999986,
          "velocity": 0.7874015748031497,
          "duration": 0.18121322916667282
        },
        {
          "name": "E4",
          "midi": 64,
          "time": 107.21905999999986,
          "velocity": 0.7874015748031497,
          "duration": 0.16642031249999434
        },
        {
          "name": "E4",
          "midi": 64,
          "time": 107.57408999999986,
          "velocity": 0.9448818897637795,
          "duration": 0.17751499999999965
        },
        {
          "name": "F4",
          "midi": 65,
          "time": 107.57408999999986,
          "velocity": 0.9448818897637795,
          "duration": 0.17751499999999965
        },
        {
          "name": "E4",
          "midi": 64,
          "time": 107.92911999999986,
          "velocity": 0.7874015748031497,
          "duration": 0.15162739583333007
        },
        {
          "name": "D4",
          "midi": 62,
          "time": 108.28414999999985,
          "velocity": 0.7874015748031497,
          "duration": 0.1590238541666622
        },
        {
          "name": "C4",
          "midi": 60,
          "time": 108.63917999999985,
          "velocity": 0.7874015748031497,
          "duration": 0.17751499999999965
        },
        {
          "name": "E4",
          "midi": 64,
          "time": 108.63917999999985,
          "velocity": 0.7874015748031497,
          "duration": 0.15532562500000324
        },
        {
          "name": "D4",
          "midi": 62,
          "time": 108.99420999999985,
          "velocity": 0.7874015748031497,
          "duration": 0.18121322916667282
        },
        {
          "name": "E4",
          "midi": 64,
          "time": 109.34923999999985,
          "velocity": 0.7874015748031497,
          "duration": 0.16642031249999434
        },
        {
          "name": "E4",
          "midi": 64,
          "time": 109.70426999999985,
          "velocity": 0.9448818897637795,
          "duration": 0.17751499999999965
        },
        {
          "name": "F4",
          "midi": 65,
          "time": 109.70426999999985,
          "velocity": 0.9448818897637795,
          "duration": 0.17751499999999965
        },
        {
          "name": "E4",
          "midi": 64,
          "time": 110.05929999999985,
          "velocity": 0.7874015748031497,
          "duration": 0.15162739583333007
        },
        {
          "name": "D4",
          "midi": 62,
          "time": 110.41432999999985,
          "velocity": 0.7874015748031497,
          "duration": 0.1590238541666622
        },
        {
          "name": "C4",
          "midi": 60,
          "time": 110.76935999999985,
          "velocity": 0.7874015748031497,
          "duration": 0.17751499999999965
        },
        {
          "name": "D4",
          "midi": 62,
          "time": 110.76935999999985,
          "velocity": 0.7874015748031497,
          "duration": 0.17751499999999965
        },
        {
          "name": "D4",
          "midi": 62,
          "time": 111.12438999999985,
          "velocity": 0.9448818897637795,
          "duration": 0.17751499999999965
        },
        {
          "name": "E4",
          "midi": 64,
          "time": 111.47941999999985,
          "velocity": 0.7874015748031497,
          "duration": 0.17751499999999965
        },
        {
          "name": "C4",
          "midi": 60,
          "time": 111.65693499999985,
          "velocity": 0.7874015748031497,
          "duration": 0.17751499999999965
        },
        {
          "name": "D4",
          "midi": 62,
          "time": 111.83444999999985,
          "velocity": 0.7874015748031497,
          "duration": 0.17751499999999965
        },
        {
          "name": "E4",
          "midi": 64,
          "time": 112.18947999999985,
          "velocity": 0.7874015748031497,
          "duration": 0.17751499999999965
        },
        {
          "name": "C4",
          "midi": 60,
          "time": 112.36699499999985,
          "velocity": 0.7874015748031497,
          "duration": 0.17751499999999965
        },
        {
          "name": "C4",
          "midi": 60,
          "time": 112.89953999999985,
          "velocity": 0.7874015748031497,
          "duration": 0.17751499999999965
        },
        {
          "name": "D4",
          "midi": 62,
          "time": 112.89953999999985,
          "velocity": 0.7874015748031497,
          "duration": 0.17751499999999965
        },
        {
          "name": "D4",
          "midi": 62,
          "time": 113.25456999999984,
          "velocity": 0.9448818897637795,
          "duration": 0.17751499999999965
        },
        {
          "name": "E4",
          "midi": 64,
          "time": 113.60959999999984,
          "velocity": 0.7874015748031497,
          "duration": 0.17751499999999965
        },
        {
          "name": "C4",
          "midi": 60,
          "time": 113.78711499999984,
          "velocity": 0.7874015748031497,
          "duration": 0.17751499999999965
        },
        {
          "name": "D4",
          "midi": 62,
          "time": 113.96462999999984,
          "velocity": 0.7874015748031497,
          "duration": 0.17751499999999965
        },
        {
          "name": "E4",
          "midi": 64,
          "time": 114.31965999999984,
          "velocity": 0.7874015748031497,
          "duration": 0.17751499999999965
        },
        {
          "name": "C4",
          "midi": 60,
          "time": 114.49717499999984,
          "velocity": 0.7874015748031497,
          "duration": 0.17751499999999965
        },
        {
          "name": "C4",
          "midi": 60,
          "time": 115.02971999999984,
          "velocity": 0.7874015748031497,
          "duration": 0.17751499999999965
        },
        {
          "name": "E4",
          "midi": 64,
          "time": 115.02971999999984,
          "velocity": 0.7874015748031497,
          "duration": 0.15532562500000324
        },
        {
          "name": "F4",
          "midi": 65,
          "time": 115.38474999999984,
          "velocity": 0.7874015748031497,
          "duration": 0.18121322916667282
        },
        {
          "name": "C4",
          "midi": 60,
          "time": 115.73977999999984,
          "velocity": 0.7874015748031497,
          "duration": 0.16642031249999434
        },
        {
          "name": "D4",
          "midi": 62,
          "time": 116.09480999999984,
          "velocity": 0.9448818897637795,
          "duration": 0.17751499999999965
        },
        {
          "name": "F4",
          "midi": 65,
          "time": 116.09480999999984,
          "velocity": 0.9448818897637795,
          "duration": 0.17751499999999965
        },
        {
          "name": "C4",
          "midi": 60,
          "time": 116.44983999999984,
          "velocity": 0.7874015748031497,
          "duration": 0.15162739583333007
        },
        {
          "name": "F4",
          "midi": 65,
          "time": 116.80486999999984,
          "velocity": 0.7874015748031497,
          "duration": 0.1590238541666622
        },
        {
          "name": "C4",
          "midi": 60,
          "time": 117.15989999999984,
          "velocity": 0.7874015748031497,
          "duration": 0.17751499999999965
        },
        {
          "name": "E4",
          "midi": 64,
          "time": 117.15989999999984,
          "velocity": 0.7874015748031497,
          "duration": 0.15532562500000324
        },
        {
          "name": "F4",
          "midi": 65,
          "time": 117.51492999999984,
          "velocity": 0.7874015748031497,
          "duration": 0.18121322916667282
        },
        {
          "name": "C4",
          "midi": 60,
          "time": 117.86995999999984,
          "velocity": 0.7874015748031497,
          "duration": 0.16642031249999434
        },
        {
          "name": "D4",
          "midi": 62,
          "time": 118.22498999999983,
          "velocity": 0.9448818897637795,
          "duration": 0.17751499999999965
        },
        {
          "name": "F4",
          "midi": 65,
          "time": 118.22498999999983,
          "velocity": 0.9448818897637795,
          "duration": 0.17751499999999965
        },
        {
          "name": "C4",
          "midi": 60,
          "time": 118.58001999999983,
          "velocity": 0.7874015748031497,
          "duration": 0.15162739583333007
        },
        {
          "name": "F4",
          "midi": 65,
          "time": 118.93504999999983,
          "velocity": 0.7874015748031497,
          "duration": 0.1590238541666622
        },
        {
          "name": "C4",
          "midi": 60,
          "time": 119.29007999999983,
          "velocity": 0.7874015748031497,
          "duration": 0.17751499999999965
        },
        {
          "name": "D4",
          "midi": 62,
          "time": 119.29007999999983,
          "velocity": 0.7874015748031497,
          "duration": 0.17751499999999965
        },
        {
          "name": "D4",
          "midi": 62,
          "time": 119.64510999999983,
          "velocity": 0.9448818897637795,
          "duration": 0.17751499999999965
        },
        {
          "name": "E4",
          "midi": 64,
          "time": 120.00013999999983,
          "velocity": 0.7874015748031497,
          "duration": 0.17751499999999965
        },
        {
          "name": "C4",
          "midi": 60,
          "time": 120.17765499999983,
          "velocity": 0.7874015748031497,
          "duration": 0.17751499999999965
        },
        {
          "name": "D4",
          "midi": 62,
          "time": 120.35516999999983,
          "velocity": 0.7874015748031497,
          "duration": 0.17751499999999965
        },
        {
          "name": "E4",
          "midi": 64,
          "time": 120.71019999999983,
          "velocity": 0.7874015748031497,
          "duration": 0.17751499999999965
        },
        {
          "name": "C4",
          "midi": 60,
          "time": 120.88771499999983,
          "velocity": 0.7874015748031497,
          "duration": 0.17751499999999965
        },
        {
          "name": "C4",
          "midi": 60,
          "time": 121.42025999999983,
          "velocity": 0.7874015748031497,
          "duration": 0.17751499999999965
        },
        {
          "name": "D4",
          "midi": 62,
          "time": 121.42025999999983,
          "velocity": 0.7874015748031497,
          "duration": 0.17751499999999965
        },
        {
          "name": "D4",
          "midi": 62,
          "time": 121.77528999999983,
          "velocity": 0.9448818897637795,
          "duration": 0.17751499999999965
        },
        {
          "name": "E4",
          "midi": 64,
          "time": 122.13031999999983,
          "velocity": 0.7874015748031497,
          "duration": 0.17751499999999965
        },
        {
          "name": "C4",
          "midi": 60,
          "time": 122.30783499999983,
          "velocity": 0.7874015748031497,
          "duration": 0.17751499999999965
        },
        {
          "name": "D4",
          "midi": 62,
          "time": 122.48534999999983,
          "velocity": 0.7874015748031497,
          "duration": 0.17751499999999965
        },
        {
          "name": "E4",
          "midi": 64,
          "time": 122.84037999999983,
          "velocity": 0.7874015748031497,
          "duration": 0.17751499999999965
        },
        {
          "name": "C4",
          "midi": 60,
          "time": 123.01789499999983,
          "velocity": 0.7874015748031497,
          "duration": 0.17751499999999965
        },
        {
          "name": "D4",
          "midi": 62,
          "time": 123.55043999999982,
          "velocity": 0.7874015748031497,
          "duration": 0.15532562500000324
        },
        {
          "name": "D4",
          "midi": 62,
          "time": 123.90546999999982,
          "velocity": 0.7874015748031497,
          "duration": 0.18121322916667282
        },
        {
          "name": "E4",
          "midi": 64,
          "time": 124.26049999999982,
          "velocity": 0.7874015748031497,
          "duration": 0.16642031249999434
        },
        {
          "name": "F4",
          "midi": 65,
          "time": 124.61552999999982,
          "velocity": 0.7874015748031497,
          "duration": 0.15162739583333007
        },
        {
          "name": "E4",
          "midi": 64,
          "time": 124.97055999999982,
          "velocity": 0.7874015748031497,
          "duration": 0.15162739583333007
        },
        {
          "name": "D4",
          "midi": 62,
          "time": 125.32558999999982,
          "velocity": 0.7874015748031497,
          "duration": 0.1590238541666622
        },
        {
          "name": "C4",
          "midi": 60,
          "time": 125.68061999999982,
          "velocity": 0.7874015748031497,
          "duration": 0.17751499999999965
        },
        {
          "name": "C4",
          "midi": 60,
          "time": 126.03564999999982,
          "velocity": 0.7874015748031497,
          "duration": 0.18121322916667282
        },
        {
          "name": "E4",
          "midi": 64,
          "time": 126.39067999999982,
          "velocity": 0.7874015748031497,
          "duration": 0.14423093749999794
        },
        {
          "name": "D4",
          "midi": 62,
          "time": 126.74570999999982,
          "velocity": 0.7874015748031497,
          "duration": 0.14053270833333897
        },
        {
          "name": "D4",
          "midi": 62,
          "time": 127.81079999999983,
          "velocity": 0.7874015748031497,
          "duration": 0.17751499999999965
        },
        {
          "name": "E4",
          "midi": 64,
          "time": 128.52085999999983,
          "velocity": 0.7874015748031497,
          "duration": 0.17751499999999965
        },
        {
          "name": "C4",
          "midi": 60,
          "time": 128.69837499999983,
          "velocity": 0.7874015748031497,
          "duration": 0.17751499999999965
        },
        {
          "name": "D4",
          "midi": 62,
          "time": 128.87588999999983,
          "velocity": 0.7874015748031497,
          "duration": 0.17751499999999965
        },
        {
          "name": "E4",
          "midi": 64,
          "time": 129.23091999999983,
          "velocity": 0.7874015748031497,
          "duration": 0.17751499999999965
        },
        {
          "name": "C4",
          "midi": 60,
          "time": 129.40843499999983,
          "velocity": 0.7874015748031497,
          "duration": 0.17751499999999965
        },
        {
          "name": "D4",
          "midi": 62,
          "time": 129.94097999999983,
          "velocity": 0.7874015748031497,
          "duration": 0.17751499999999965
        },
        {
          "name": "E4",
          "midi": 64,
          "time": 130.65103999999982,
          "velocity": 0.7874015748031497,
          "duration": 0.17751499999999965
        },
        {
          "name": "C4",
          "midi": 60,
          "time": 130.82855499999982,
          "velocity": 0.7874015748031497,
          "duration": 0.17751499999999965
        },
        {
          "name": "D4",
          "midi": 62,
          "time": 131.00606999999982,
          "velocity": 0.7874015748031497,
          "duration": 0.17751499999999965
        },
        {
          "name": "E4",
          "midi": 64,
          "time": 131.36109999999982,
          "velocity": 0.7874015748031497,
          "duration": 0.17751499999999965
        },
        {
          "name": "C4",
          "midi": 60,
          "time": 131.53861499999982,
          "velocity": 0.7874015748031497,
          "duration": 0.17751499999999965
        },
        {
          "name": "D4",
          "midi": 62,
          "time": 132.07115999999982,
          "velocity": 0.7874015748031497,
          "duration": 0.15532562499998903
        },
        {
          "name": "D4",
          "midi": 62,
          "time": 132.42618999999982,
          "velocity": 0.7874015748031497,
          "duration": 0.18121322916667282
        },
        {
          "name": "E4",
          "midi": 64,
          "time": 132.78121999999982,
          "velocity": 0.7874015748031497,
          "duration": 0.16642031250000855
        },
        {
          "name": "F4",
          "midi": 65,
          "time": 133.13624999999982,
          "velocity": 0.7874015748031497,
          "duration": 0.15162739583334428
        },
        {
          "name": "E4",
          "midi": 64,
          "time": 133.49127999999982,
          "velocity": 0.7874015748031497,
          "duration": 0.15162739583334428
        },
        {
          "name": "D4",
          "midi": 62,
          "time": 133.84630999999982,
          "velocity": 0.7874015748031497,
          "duration": 0.1590238541666622
        },
        {
          "name": "C4",
          "midi": 60,
          "time": 134.20133999999982,
          "velocity": 0.7874015748031497,
          "duration": 0.17751499999999965
        },
        {
          "name": "C4",
          "midi": 60,
          "time": 134.55636999999982,
          "velocity": 0.7874015748031497,
          "duration": 0.18121322916667282
        },
        {
          "name": "E4",
          "midi": 64,
          "time": 134.91139999999982,
          "velocity": 0.7874015748031497,
          "duration": 0.14423093749999794
        },
        {
          "name": "D4",
          "midi": 62,
          "time": 135.26642999999981,
          "velocity": 0.7874015748031497,
          "duration": 0.14053270833332476
        },
        {
          "name": "D4",
          "midi": 62,
          "time": 136.3315199999998,
          "velocity": 0.7874015748031497,
          "duration": 0.17751499999999965
        },
        {
          "name": "E4",
          "midi": 64,
          "time": 137.0415799999998,
          "velocity": 0.7874015748031497,
          "duration": 0.17751499999999965
        },
        {
          "name": "C4",
          "midi": 60,
          "time": 137.2190949999998,
          "velocity": 0.7874015748031497,
          "duration": 0.17751499999999965
        },
        {
          "name": "D4",
          "midi": 62,
          "time": 137.3966099999998,
          "velocity": 0.7874015748031497,
          "duration": 0.17751499999999965
        },
        {
          "name": "E4",
          "midi": 64,
          "time": 137.7516399999998,
          "velocity": 0.7874015748031497,
          "duration": 0.17751499999999965
        },
        {
          "name": "C4",
          "midi": 60,
          "time": 137.9291549999998,
          "velocity": 0.7874015748031497,
          "duration": 0.17751499999999965
        },
        {
          "name": "D4",
          "midi": 62,
          "time": 138.4616999999998,
          "velocity": 0.7874015748031497,
          "duration": 0.17751499999999965
        },
        {
          "name": "E4",
          "midi": 64,
          "time": 139.1717599999998,
          "velocity": 0.7874015748031497,
          "duration": 0.17751499999999965
        },
        {
          "name": "C4",
          "midi": 60,
          "time": 139.3492749999998,
          "velocity": 0.7874015748031497,
          "duration": 0.17751499999999965
        },
        {
          "name": "D4",
          "midi": 62,
          "time": 139.5267899999998,
          "velocity": 0.7874015748031497,
          "duration": 0.17751499999999965
        },
        {
          "name": "E4",
          "midi": 64,
          "time": 139.8818199999998,
          "velocity": 0.7874015748031497,
          "duration": 0.17751499999999965
        },
        {
          "name": "C4",
          "midi": 60,
          "time": 140.0593349999998,
          "velocity": 0.7874015748031497,
          "duration": 0.17751499999999965
        }
      ]
}