{
"notes": [
        {
          "name": "E5",
          "midi": 76,
          "time": 0,
          "velocity": 0.7874015748031497,
          "duration": 0.056818125000000004
        },
        {
          "name": "E5",
          "midi": 76,
          "time": 0.22727250000000002,
          "velocity": 0.7874015748031497,
          "duration": 0.056818125000000025
        },
        {
          "name": "E5",
          "midi": 76,
          "time": 0.6818175000000001,
          "velocity": 0.7874015748031497,
          "duration": 0.052083281249999946
        },
        {
          "name": "E5",
          "midi": 76,
          "time": 0.8996203125,
          "velocity": 0.7874015748031497,
          "duration": 0.06628781250000004
        },
        {
          "name": "C5",
          "midi": 72,
          "time": 1.1363625,
          "velocity": 0.7874015748031497,
          "duration": 0.05681812499999994
        },
        {
          "name": "E5",
          "midi": 76,
          "time": 1.5909075,
          "velocity": 0.7874015748031497,
          "duration": 0.05681812499999994
        },
        {
          "name": "E5",
          "midi": 76,
          "time": 1.81818,
          "velocity": 0.7874015748031497,
          "duration": 0.05681812499999994
        },
        {
          "name": "E5",
          "midi": 76,
          "time": 2.0454524999999997,
          "velocity": 0.7874015748031497,
          "duration": 0.05681812499999994
        },
        {
          "name": "E5",
          "midi": 76,
          "time": 2.4999974999999997,
          "velocity": 0.7874015748031497,
          "duration": 0.052083281249999835
        },
        {
          "name": "E5",
          "midi": 76,
          "time": 2.7178003124999996,
          "velocity": 0.7874015748031497,
          "duration": 0.06628781250000015
        },
        {
          "name": "C5",
          "midi": 72,
          "time": 2.9545424999999996,
          "velocity": 0.7874015748031497,
          "duration": 0.05681812499999994
        },
        {
          "name": "F5",
          "midi": 77,
          "time": 3.63636,
          "velocity": 0.7874015748031497,
          "duration": 0.05681812499999994
        },
        {
          "name": "F5",
          "midi": 77,
          "time": 3.8636324999999996,
          "velocity": 0.7874015748031497,
          "duration": 0.05681812499999994
        },
        {
          "name": "F5",
          "midi": 77,
          "time": 4.318177499999999,
          "velocity": 0.7874015748031497,
          "duration": 0.052083281249999835
        },
        {
          "name": "F5",
          "midi": 77,
          "time": 4.535980312499999,
          "velocity": 0.7874015748031497,
          "duration": 0.06628781249999971
        },
        {
          "name": "D5",
          "midi": 74,
          "time": 4.772722499999999,
          "velocity": 0.7874015748031497,
          "duration": 0.056818125000000386
        },
        {
          "name": "F5",
          "midi": 77,
          "time": 5.227267499999999,
          "velocity": 0.7874015748031497,
          "duration": 0.056818125000000386
        },
        {
          "name": "F5",
          "midi": 77,
          "time": 5.45454,
          "velocity": 0.7874015748031497,
          "duration": 0.056818125000000386
        },
        {
          "name": "F5",
          "midi": 77,
          "time": 5.6818125,
          "velocity": 0.7874015748031497,
          "duration": 0.056818125000000386
        },
        {
          "name": "F5",
          "midi": 77,
          "time": 6.136357500000001,
          "velocity": 0.7874015748031497,
          "duration": 0.052083281249999835
        },
        {
          "name": "F5",
          "midi": 77,
          "time": 6.3541603125,
          "velocity": 0.7874015748031497,
          "duration": 0.06628781249999971
        },
        {
          "name": "D5",
          "midi": 74,
          "time": 6.5909025,
          "velocity": 0.7874015748031497,
          "duration": 0.056818125000000386
        },
        {
          "name": "E5",
          "midi": 76,
          "time": 7.2727200000000005,
          "velocity": 0.7874015748031497,
          "duration": 0.056818125000000386
        },
        {
          "name": "E5",
          "midi": 76,
          "time": 7.499992500000001,
          "velocity": 0.7874015748031497,
          "duration": 0.056818125000000386
        },
        {
          "name": "E5",
          "midi": 76,
          "time": 7.954537500000002,
          "velocity": 0.7874015748031497,
          "duration": 0.052083281249999835
        },
        {
          "name": "E5",
          "midi": 76,
          "time": 8.172340312500001,
          "velocity": 0.7874015748031497,
          "duration": 0.0662878125000006
        },
        {
          "name": "C5",
          "midi": 72,
          "time": 8.409082500000002,
          "velocity": 0.7874015748031497,
          "duration": 0.0568181249999995
        },
        {
          "name": "E5",
          "midi": 76,
          "time": 8.863627500000002,
          "velocity": 0.7874015748031497,
          "duration": 0.0568181249999995
        },
        {
          "name": "E5",
          "midi": 76,
          "time": 9.090900000000001,
          "velocity": 0.7874015748031497,
          "duration": 0.0568181249999995
        },
        {
          "name": "E5",
          "midi": 76,
          "time": 9.318172500000001,
          "velocity": 0.7874015748031497,
          "duration": 0.0568181249999995
        },
        {
          "name": "E5",
          "midi": 76,
          "time": 9.7727175,
          "velocity": 0.7874015748031497,
          "duration": 0.052083281250000724
        },
        {
          "name": "E5",
          "midi": 76,
          "time": 9.990520312500001,
          "velocity": 0.7874015748031497,
          "duration": 0.0662878125000006
        },
        {
          "name": "C5",
          "midi": 72,
          "time": 10.227262500000002,
          "velocity": 0.7874015748031497,
          "duration": 0.0568181249999995
        },
        {
          "name": "F5",
          "midi": 77,
          "time": 10.909080000000001,
          "velocity": 0.7874015748031497,
          "duration": 0.0568181249999995
        },
        {
          "name": "F5",
          "midi": 77,
          "time": 11.136352500000001,
          "velocity": 0.7874015748031497,
          "duration": 0.0568181249999995
        },
        {
          "name": "F5",
          "midi": 77,
          "time": 11.5908975,
          "velocity": 0.7874015748031497,
          "duration": 0.052083281250000724
        },
        {
          "name": "F5",
          "midi": 77,
          "time": 11.818170000000002,
          "velocity": 0.7874015748031497,
          "duration": 0.0568181249999995
        },
        {
          "name": "D5",
          "midi": 74,
          "time": 12.045442500000002,
          "velocity": 0.7874015748031497,
          "duration": 0.0568181249999995
        },
        {
          "name": "F5",
          "midi": 77,
          "time": 12.499987500000001,
          "velocity": 0.7874015748031497,
          "duration": 0.0568181249999995
        },
        {
          "name": "F5",
          "midi": 77,
          "time": 12.727260000000001,
          "velocity": 0.7874015748031497,
          "duration": 0.0568181249999995
        },
        {
          "name": "F5",
          "midi": 77,
          "time": 12.954532500000001,
          "velocity": 0.7874015748031497,
          "duration": 0.0568181249999995
        },
        {
          "name": "F5",
          "midi": 77,
          "time": 13.4090775,
          "velocity": 0.7874015748031497,
          "duration": 0.052083281250000724
        },
        {
          "name": "F5",
          "midi": 77,
          "time": 13.636350000000002,
          "velocity": 0.7874015748031497,
          "duration": 0.0568181249999995
        },
        {
          "name": "D5",
          "midi": 74,
          "time": 13.863622500000002,
          "velocity": 0.7874015748031497,
          "duration": 0.0568181249999995
        },
        {
          "name": "C5",
          "midi": 72,
          "time": 14.545440000000001,
          "velocity": 0.7874015748031497,
          "duration": 0.0568181249999995
        },
        {
          "name": "E5",
          "midi": 76,
          "time": 15.909075000000001,
          "velocity": 0.7874015748031497,
          "duration": 0.0568181249999995
        },
        {
          "name": "D5",
          "midi": 74,
          "time": 16.36362,
          "velocity": 0.7874015748031497,
          "duration": 0.0568181249999995
        },
        {
          "name": "E5",
          "midi": 76,
          "time": 17.045437500000002,
          "velocity": 0.7874015748031497,
          "duration": 0.0568181249999995
        },
        {
          "name": "F5",
          "midi": 77,
          "time": 17.27271,
          "velocity": 0.7874015748031497,
          "duration": 0.0568181249999995
        },
        {
          "name": "E5",
          "midi": 76,
          "time": 17.499982499999998,
          "velocity": 0.7874015748031497,
          "duration": 0.0568181249999995
        },
        {
          "name": "D5",
          "midi": 74,
          "time": 17.727254999999996,
          "velocity": 0.7874015748031497,
          "duration": 0.0568181249999995
        },
        {
          "name": "C5",
          "midi": 72,
          "time": 17.954527499999994,
          "velocity": 0.7874015748031497,
          "duration": 0.0568181249999995
        },
        {
          "name": "D5",
          "midi": 74,
          "time": 18.181799999999992,
          "velocity": 0.7874015748031497,
          "duration": 0.0568181249999995
        },
        {
          "name": "E5",
          "midi": 76,
          "time": 19.54543499999999,
          "velocity": 0.7874015748031497,
          "duration": 0.0568181249999995
        },
        {
          "name": "F5",
          "midi": 77,
          "time": 19.99997999999999,
          "velocity": 0.7874015748031497,
          "duration": 0.0568181249999995
        },
        {
          "name": "E5",
          "midi": 76,
          "time": 20.68179749999999,
          "velocity": 0.7874015748031497,
          "duration": 0.0568181249999995
        },
        {
          "name": "C5",
          "midi": 72,
          "time": 20.90906999999999,
          "velocity": 0.7874015748031497,
          "duration": 0.0568181249999995
        },
        {
          "name": "D5",
          "midi": 74,
          "time": 21.136342499999987,
          "velocity": 0.7874015748031497,
          "duration": 0.0568181249999995
        },
        {
          "name": "E5",
          "midi": 76,
          "time": 21.363614999999985,
          "velocity": 0.7874015748031497,
          "duration": 0.0568181249999995
        },
        {
          "name": "F5",
          "midi": 77,
          "time": 21.590887499999983,
          "velocity": 0.7874015748031497,
          "duration": 0.0568181249999995
        },
        {
          "name": "C5",
          "midi": 72,
          "time": 21.81815999999998,
          "velocity": 0.7874015748031497,
          "duration": 0.0568181249999995
        },
        {
          "name": "E5",
          "midi": 76,
          "time": 23.18179499999998,
          "velocity": 0.7874015748031497,
          "duration": 0.0568181249999995
        },
        {
          "name": "D5",
          "midi": 74,
          "time": 23.63633999999998,
          "velocity": 0.7874015748031497,
          "duration": 0.0568181249999995
        },
        {
          "name": "E5",
          "midi": 76,
          "time": 24.31815749999998,
          "velocity": 0.7874015748031497,
          "duration": 0.0568181249999995
        },
        {
          "name": "F5",
          "midi": 77,
          "time": 24.54542999999998,
          "velocity": 0.7874015748031497,
          "duration": 0.0568181249999995
        },
        {
          "name": "E5",
          "midi": 76,
          "time": 24.772702499999976,
          "velocity": 0.7874015748031497,
          "duration": 0.0568181249999995
        },
        {
          "name": "D5",
          "midi": 74,
          "time": 24.999974999999974,
          "velocity": 0.7874015748031497,
          "duration": 0.0568181249999995
        },
        {
          "name": "C5",
          "midi": 72,
          "time": 25.227247499999972,
          "velocity": 0.7874015748031497,
          "duration": 0.0568181249999995
        },
        {
          "name": "D5",
          "midi": 74,
          "time": 25.45451999999997,
          "velocity": 0.7874015748031497,
          "duration": 0.0568181249999995
        },
        {
          "name": "E5",
          "midi": 76,
          "time": 26.81815499999997,
          "velocity": 0.7874015748031497,
          "duration": 0.0568181249999995
        },
        {
          "name": "F5",
          "midi": 77,
          "time": 27.27269999999997,
          "velocity": 0.7874015748031497,
          "duration": 0.0568181249999995
        },
        {
          "name": "E5",
          "midi": 76,
          "time": 27.95451749999997,
          "velocity": 0.7874015748031497,
          "duration": 0.0568181249999995
        },
        {
          "name": "C5",
          "midi": 72,
          "time": 28.181789999999967,
          "velocity": 0.7874015748031497,
          "duration": 0.0568181249999995
        },
        {
          "name": "D5",
          "midi": 74,
          "time": 28.409062499999965,
          "velocity": 0.7874015748031497,
          "duration": 0.0568181249999995
        },
        {
          "name": "E5",
          "midi": 76,
          "time": 28.636334999999963,
          "velocity": 0.7874015748031497,
          "duration": 0.0568181249999995
        },
        {
          "name": "F5",
          "midi": 77,
          "time": 28.86360749999996,
          "velocity": 0.7874015748031497,
          "duration": 0.0568181249999995
        },
        {
          "name": "C5",
          "midi": 72,
          "time": 29.09087999999996,
          "velocity": 0.6299212598425197,
          "duration": 0.0568181249999995
        },
        {
          "name": "F5",
          "midi": 77,
          "time": 29.99996999999996,
          "velocity": 0.7874015748031497,
          "duration": 0.0568181249999995
        },
        {
          "name": "E5",
          "midi": 76,
          "time": 30.454514999999958,
          "velocity": 0.7874015748031497,
          "duration": 0.0568181249999995
        },
        {
          "name": "E5",
          "midi": 76,
          "time": 30.909059999999958,
          "velocity": 0.7874015748031497,
          "duration": 0.0473484374999984
        },
        {
          "name": "D5",
          "midi": 74,
          "time": 31.363604999999957,
          "velocity": 0.7874015748031497,
          "duration": 0.0568181249999995
        },
        {
          "name": "D5",
          "midi": 74,
          "time": 31.818149999999957,
          "velocity": 0.7874015748031497,
          "duration": 0.0568181249999995
        },
        {
          "name": "C5",
          "midi": 72,
          "time": 32.272694999999956,
          "velocity": 0.7874015748031497,
          "duration": 0.0568181249999995
        },
        {
          "name": "F5",
          "midi": 77,
          "time": 33.63632999999996,
          "velocity": 0.7874015748031497,
          "duration": 0.0568181249999995
        },
        {
          "name": "E5",
          "midi": 76,
          "time": 34.090874999999954,
          "velocity": 0.7874015748031497,
          "duration": 0.0568181249999995
        },
        {
          "name": "D5",
          "midi": 74,
          "time": 34.54541999999995,
          "velocity": 0.7874015748031497,
          "duration": 0.0568181249999995
        },
        {
          "name": "E5",
          "midi": 76,
          "time": 35.22723749999995,
          "velocity": 0.6299212598425197,
          "duration": 0.0568181249999995
        },
        {
          "name": "E5",
          "midi": 76,
          "time": 35.45450999999995,
          "velocity": 0.6299212598425197,
          "duration": 0.0568181249999995
        },
        {
          "name": "C5",
          "midi": 72,
          "time": 35.68178249999995,
          "velocity": 0.6299212598425197,
          "duration": 0.0568181249999995
        },
        {
          "name": "C5",
          "midi": 72,
          "time": 36.36359999999995,
          "velocity": 0.6299212598425197,
          "duration": 0.0568181249999995
        },
        {
          "name": "F5",
          "midi": 77,
          "time": 37.27268999999995,
          "velocity": 0.7874015748031497,
          "duration": 0.0568181249999995
        },
        {
          "name": "E5",
          "midi": 76,
          "time": 37.72723499999995,
          "velocity": 0.7874015748031497,
          "duration": 0.0568181249999995
        },
        {
          "name": "E5",
          "midi": 76,
          "time": 38.18177999999995,
          "velocity": 0.7874015748031497,
          "duration": 0.0473484374999984
        },
        {
          "name": "D5",
          "midi": 74,
          "time": 38.63632499999994,
          "velocity": 0.7874015748031497,
          "duration": 0.0568181249999995
        },
        {
          "name": "D5",
          "midi": 74,
          "time": 39.09086999999994,
          "velocity": 0.7874015748031497,
          "duration": 0.0568181249999995
        },
        {
          "name": "C5",
          "midi": 72,
          "time": 39.545414999999934,
          "velocity": 0.7874015748031497,
          "duration": 0.0568181249999995
        },
        {
          "name": "F5",
          "midi": 77,
          "time": 39.99995999999993,
          "velocity": 0.7874015748031497,
          "duration": 0.0568181249999995
        },
        {
          "name": "D5",
          "midi": 74,
          "time": 40.22723249999993,
          "velocity": 0.7874015748031497,
          "duration": 0.0568181249999995
        },
        {
          "name": "F5",
          "midi": 77,
          "time": 40.681777499999924,
          "velocity": 0.7874015748031497,
          "duration": 0.0568181249999995
        },
        {
          "name": "F5",
          "midi": 77,
          "time": 40.90904999999992,
          "velocity": 0.7874015748031497,
          "duration": 0.0568181249999995
        },
        {
          "name": "E5",
          "midi": 76,
          "time": 41.13632249999992,
          "velocity": 0.7874015748031497,
          "duration": 0.0568181249999995
        },
        {
          "name": "E5",
          "midi": 76,
          "time": 41.36359499999992,
          "velocity": 0.7874015748031497,
          "duration": 0.0568181249999995
        },
        {
          "name": "F5",
          "midi": 77,
          "time": 41.818139999999914,
          "velocity": 0.7874015748031497,
          "duration": 0.0568181249999995
        },
        {
          "name": "E5",
          "midi": 76,
          "time": 42.27268499999991,
          "velocity": 0.6299212598425197,
          "duration": 0.0568181249999995
        },
        {
          "name": "E5",
          "midi": 76,
          "time": 42.727229999999906,
          "velocity": 0.6299212598425197,
          "duration": 0.0568181249999995
        },
        {
          "name": "D5",
          "midi": 74,
          "time": 43.1817749999999,
          "velocity": 0.6299212598425197,
          "duration": 0.0568181249999995
        },
        {
          "name": "C5",
          "midi": 72,
          "time": 43.6363199999999,
          "velocity": 0.6299212598425197,
          "duration": 0.0568181249999995
        },
        {
          "name": "F5",
          "midi": 77,
          "time": 44.5454099999999,
          "velocity": 0.7874015748031497,
          "duration": 0.0568181249999995
        },
        {
          "name": "E5",
          "midi": 76,
          "time": 44.9999549999999,
          "velocity": 0.7874015748031497,
          "duration": 0.0568181249999995
        },
        {
          "name": "E5",
          "midi": 76,
          "time": 45.454499999999896,
          "velocity": 0.7874015748031497,
          "duration": 0.0473484374999984
        },
        {
          "name": "D5",
          "midi": 74,
          "time": 45.90904499999989,
          "velocity": 0.7874015748031497,
          "duration": 0.0568181249999995
        },
        {
          "name": "D5",
          "midi": 74,
          "time": 46.36358999999989,
          "velocity": 0.7874015748031497,
          "duration": 0.0568181249999995
        },
        {
          "name": "C5",
          "midi": 72,
          "time": 46.818134999999884,
          "velocity": 0.7874015748031497,
          "duration": 0.0568181249999995
        },
        {
          "name": "F5",
          "midi": 77,
          "time": 48.18176999999989,
          "velocity": 0.7874015748031497,
          "duration": 0.0568181249999995
        },
        {
          "name": "E5",
          "midi": 76,
          "time": 48.63631499999988,
          "velocity": 0.7874015748031497,
          "duration": 0.0568181249999995
        },
        {
          "name": "D5",
          "midi": 74,
          "time": 49.09085999999988,
          "velocity": 0.7874015748031497,
          "duration": 0.0568181249999995
        },
        {
          "name": "E5",
          "midi": 76,
          "time": 49.77267749999988,
          "velocity": 0.6299212598425197,
          "duration": 0.0568181249999995
        },
        {
          "name": "E5",
          "midi": 76,
          "time": 49.99994999999988,
          "velocity": 0.6299212598425197,
          "duration": 0.0568181249999995
        },
        {
          "name": "C5",
          "midi": 72,
          "time": 50.227222499999876,
          "velocity": 0.6299212598425197,
          "duration": 0.0568181249999995
        },
        {
          "name": "C5",
          "midi": 72,
          "time": 50.90903999999988,
          "velocity": 0.6299212598425197,
          "duration": 0.0568181249999995
        },
        {
          "name": "F5",
          "midi": 77,
          "time": 51.818129999999876,
          "velocity": 0.7874015748031497,
          "duration": 0.0568181249999995
        },
        {
          "name": "E5",
          "midi": 76,
          "time": 52.27267499999988,
          "velocity": 0.7874015748031497,
          "duration": 0.0568181249999995
        },
        {
          "name": "E5",
          "midi": 76,
          "time": 52.727219999999875,
          "velocity": 0.7874015748031497,
          "duration": 0.0473484374999984
        },
        {
          "name": "D5",
          "midi": 74,
          "time": 53.18176499999987,
          "velocity": 0.7874015748031497,
          "duration": 0.0568181249999995
        },
        {
          "name": "D5",
          "midi": 74,
          "time": 53.63630999999987,
          "velocity": 0.7874015748031497,
          "duration": 0.0568181249999995
        },
        {
          "name": "C5",
          "midi": 72,
          "time": 54.09085499999986,
          "velocity": 0.7874015748031497,
          "duration": 0.0568181249999995
        },
        {
          "name": "F5",
          "midi": 77,
          "time": 54.54539999999986,
          "velocity": 0.7874015748031497,
          "duration": 0.0568181249999995
        },
        {
          "name": "D5",
          "midi": 74,
          "time": 54.77267249999986,
          "velocity": 0.7874015748031497,
          "duration": 0.0568181249999995
        },
        {
          "name": "F5",
          "midi": 77,
          "time": 55.22721749999985,
          "velocity": 0.7874015748031497,
          "duration": 0.0568181249999995
        },
        {
          "name": "F5",
          "midi": 77,
          "time": 55.45448999999985,
          "velocity": 0.7874015748031497,
          "duration": 0.0568181249999995
        },
        {
          "name": "E5",
          "midi": 76,
          "time": 55.68176249999985,
          "velocity": 0.7874015748031497,
          "duration": 0.0568181249999995
        },
        {
          "name": "E5",
          "midi": 76,
          "time": 55.90903499999985,
          "velocity": 0.7874015748031497,
          "duration": 0.0568181249999995
        },
        {
          "name": "F5",
          "midi": 77,
          "time": 56.36357999999984,
          "velocity": 0.7874015748031497,
          "duration": 0.0568181249999995
        },
        {
          "name": "E5",
          "midi": 76,
          "time": 56.81812499999984,
          "velocity": 0.6299212598425197,
          "duration": 0.0568181249999995
        },
        {
          "name": "E5",
          "midi": 76,
          "time": 57.272669999999835,
          "velocity": 0.6299212598425197,
          "duration": 0.0568181249999995
        },
        {
          "name": "D5",
          "midi": 74,
          "time": 57.72721499999983,
          "velocity": 0.6299212598425197,
          "duration": 0.0568181249999995
        },
        {
          "name": "C5",
          "midi": 72,
          "time": 58.18175999999983,
          "velocity": 0.7874015748031497,
          "duration": 0.0568181249999995
        },
        {
          "name": "D5",
          "midi": 74,
          "time": 58.409032499999824,
          "velocity": 0.7874015748031497,
          "duration": 0.0568181249999995
        },
        {
          "name": "E5",
          "midi": 76,
          "time": 58.63630499999982,
          "velocity": 0.7874015748031497,
          "duration": 0.0568181249999995
        },
        {
          "name": "E5",
          "midi": 76,
          "time": 59.54539499999982,
          "velocity": 0.7874015748031497,
          "duration": 0.0568181249999995
        },
        {
          "name": "D5",
          "midi": 74,
          "time": 59.77266749999982,
          "velocity": 0.7874015748031497,
          "duration": 0.0568181249999995
        },
        {
          "name": "C5",
          "midi": 72,
          "time": 59.99993999999982,
          "velocity": 0.7874015748031497,
          "duration": 0.0568181249999995
        },
        {
          "name": "F5",
          "midi": 77,
          "time": 60.227212499999816,
          "velocity": 0.7874015748031497,
          "duration": 0.0568181249999995
        },
        {
          "name": "E5",
          "midi": 76,
          "time": 60.45448499999981,
          "velocity": 0.7874015748031497,
          "duration": 0.0568181249999995
        },
        {
          "name": "F5",
          "midi": 77,
          "time": 61.59084749999981,
          "velocity": 0.7795275590551181,
          "duration": 0.0568181249999995
        },
        {
          "name": "C5",
          "midi": 72,
          "time": 61.81811999999981,
          "velocity": 0.7874015748031497,
          "duration": 0.0568181249999995
        },
        {
          "name": "D5",
          "midi": 74,
          "time": 62.272664999999805,
          "velocity": 0.7874015748031497,
          "duration": 0.0568181249999995
        },
        {
          "name": "E5",
          "midi": 76,
          "time": 62.7272099999998,
          "velocity": 0.7874015748031497,
          "duration": 0.0568181249999995
        },
        {
          "name": "D5",
          "midi": 74,
          "time": 63.1817549999998,
          "velocity": 0.7795275590551181,
          "duration": 0.0568181249999995
        },
        {
          "name": "F5",
          "midi": 77,
          "time": 63.63629999999979,
          "velocity": 0.7795275590551181,
          "duration": 0.0568181249999995
        },
        {
          "name": "C5",
          "midi": 72,
          "time": 65.45447999999979,
          "velocity": 0.7874015748031497,
          "duration": 0.0568181250000066
        },
        {
          "name": "D5",
          "midi": 74,
          "time": 65.6817524999998,
          "velocity": 0.7874015748031497,
          "duration": 0.0568181250000066
        },
        {
          "name": "E5",
          "midi": 76,
          "time": 65.90902499999982,
          "velocity": 0.7874015748031497,
          "duration": 0.0568181250000066
        },
        {
          "name": "E5",
          "midi": 76,
          "time": 66.81811499999982,
          "velocity": 0.7874015748031497,
          "duration": 0.0568181250000066
        },
        {
          "name": "D5",
          "midi": 74,
          "time": 67.04538749999983,
          "velocity": 0.7874015748031497,
          "duration": 0.0568181250000066
        },
        {
          "name": "C5",
          "midi": 72,
          "time": 67.27265999999985,
          "velocity": 0.7874015748031497,
          "duration": 0.0568181250000066
        },
        {
          "name": "F5",
          "midi": 77,
          "time": 67.49993249999986,
          "velocity": 0.7874015748031497,
          "duration": 0.0568181250000066
        },
        {
          "name": "E5",
          "midi": 76,
          "time": 67.72720499999987,
          "velocity": 0.7874015748031497,
          "duration": 0.0568181250000066
        },
        {
          "name": "F5",
          "midi": 77,
          "time": 68.86356749999987,
          "velocity": 0.7795275590551181,
          "duration": 0.0568181250000066
        },
        {
          "name": "C5",
          "midi": 72,
          "time": 69.09083999999989,
          "velocity": 0.7874015748031497,
          "duration": 0.0568181250000066
        },
        {
          "name": "D5",
          "midi": 74,
          "time": 69.5453849999999,
          "velocity": 0.7874015748031497,
          "duration": 0.0568181250000066
        },
        {
          "name": "E5",
          "midi": 76,
          "time": 69.9999299999999,
          "velocity": 0.7874015748031497,
          "duration": 0.0568181250000066
        },
        {
          "name": "D5",
          "midi": 74,
          "time": 70.45447499999992,
          "velocity": 0.7795275590551181,
          "duration": 0.0568181250000066
        },
        {
          "name": "F5",
          "midi": 77,
          "time": 70.90901999999993,
          "velocity": 0.7795275590551181,
          "duration": 0.0568181250000066
        },
        {
          "name": "E5",
          "midi": 76,
          "time": 72.72719999999994,
          "velocity": 0.7874015748031497,
          "duration": 0.0568181250000066
        },
        {
          "name": "E5",
          "midi": 76,
          "time": 72.95447249999995,
          "velocity": 0.7874015748031497,
          "duration": 0.0568181250000066
        },
        {
          "name": "E5",
          "midi": 76,
          "time": 73.40901749999996,
          "velocity": 0.7874015748031497,
          "duration": 0.05208328125000605
        },
        {
          "name": "E5",
          "midi": 76,
          "time": 73.62682031249997,
          "velocity": 0.7874015748031497,
          "duration": 0.06628781249999349
        },
        {
          "name": "C5",
          "midi": 72,
          "time": 73.86356249999997,
          "velocity": 0.7874015748031497,
          "duration": 0.0568181250000066
        },
        {
          "name": "E5",
          "midi": 76,
          "time": 74.31810749999998,
          "velocity": 0.7874015748031497,
          "duration": 0.0568181250000066
        },
        {
          "name": "E5",
          "midi": 76,
          "time": 74.54538,
          "velocity": 0.7874015748031497,
          "duration": 0.0568181250000066
        },
        {
          "name": "E5",
          "midi": 76,
          "time": 74.7726525,
          "velocity": 0.7874015748031497,
          "duration": 0.0568181250000066
        },
        {
          "name": "E5",
          "midi": 76,
          "time": 75.22719750000002,
          "velocity": 0.7874015748031497,
          "duration": 0.05208328125000605
        },
        {
          "name": "E5",
          "midi": 76,
          "time": 75.44500031250003,
          "velocity": 0.7874015748031497,
          "duration": 0.06628781249999349
        },
        {
          "name": "C5",
          "midi": 72,
          "time": 75.68174250000003,
          "velocity": 0.7874015748031497,
          "duration": 0.0568181250000066
        },
        {
          "name": "F5",
          "midi": 77,
          "time": 76.36356000000004,
          "velocity": 0.7874015748031497,
          "duration": 0.0568181250000066
        },
        {
          "name": "F5",
          "midi": 77,
          "time": 76.59083250000005,
          "velocity": 0.7874015748031497,
          "duration": 0.0568181250000066
        },
        {
          "name": "F5",
          "midi": 77,
          "time": 77.04537750000006,
          "velocity": 0.7874015748031497,
          "duration": 0.05208328125000605
        },
        {
          "name": "F5",
          "midi": 77,
          "time": 77.26318031250007,
          "velocity": 0.7874015748031497,
          "duration": 0.06628781249999349
        },
        {
          "name": "D5",
          "midi": 74,
          "time": 77.49992250000007,
          "velocity": 0.7874015748031497,
          "duration": 0.0568181250000066
        },
        {
          "name": "F5",
          "midi": 77,
          "time": 77.95446750000008,
          "velocity": 0.7874015748031497,
          "duration": 0.0568181250000066
        },
        {
          "name": "F5",
          "midi": 77,
          "time": 78.18174000000009,
          "velocity": 0.7874015748031497,
          "duration": 0.0568181250000066
        },
        {
          "name": "F5",
          "midi": 77,
          "time": 78.4090125000001,
          "velocity": 0.7874015748031497,
          "duration": 0.0568181250000066
        },
        {
          "name": "F5",
          "midi": 77,
          "time": 78.86355750000011,
          "velocity": 0.7874015748031497,
          "duration": 0.05208328125000605
        },
        {
          "name": "F5",
          "midi": 77,
          "time": 79.08136031250012,
          "velocity": 0.7874015748031497,
          "duration": 0.06628781249999349
        },
        {
          "name": "D5",
          "midi": 74,
          "time": 79.31810250000012,
          "velocity": 0.7874015748031497,
          "duration": 0.0568181250000066
        },
        {
          "name": "E5",
          "midi": 76,
          "time": 79.99992000000013,
          "velocity": 0.7874015748031497,
          "duration": 0.0568181250000066
        },
        {
          "name": "E5",
          "midi": 76,
          "time": 80.22719250000014,
          "velocity": 0.7874015748031497,
          "duration": 0.0568181250000066
        },
        {
          "name": "E5",
          "midi": 76,
          "time": 80.68173750000015,
          "velocity": 0.7874015748031497,
          "duration": 0.05208328125000605
        },
        {
          "name": "E5",
          "midi": 76,
          "time": 80.89954031250016,
          "velocity": 0.7874015748031497,
          "duration": 0.06628781249999349
        },
        {
          "name": "C5",
          "midi": 72,
          "time": 81.13628250000016,
          "velocity": 0.7874015748031497,
          "duration": 0.0568181250000066
        },
        {
          "name": "E5",
          "midi": 76,
          "time": 81.59082750000017,
          "velocity": 0.7874015748031497,
          "duration": 0.0568181250000066
        },
        {
          "name": "E5",
          "midi": 76,
          "time": 81.81810000000019,
          "velocity": 0.7874015748031497,
          "duration": 0.0568181250000066
        },
        {
          "name": "E5",
          "midi": 76,
          "time": 82.0453725000002,
          "velocity": 0.7874015748031497,
          "duration": 0.0568181250000066
        },
        {
          "name": "E5",
          "midi": 76,
          "time": 82.49991750000021,
          "velocity": 0.7874015748031497,
          "duration": 0.05208328125000605
        },
        {
          "name": "E5",
          "midi": 76,
          "time": 82.71772031250022,
          "velocity": 0.7874015748031497,
          "duration": 0.06628781249999349
        },
        {
          "name": "C5",
          "midi": 72,
          "time": 82.95446250000022,
          "velocity": 0.7874015748031497,
          "duration": 0.0568181250000066
        },
        {
          "name": "F5",
          "midi": 77,
          "time": 83.63628000000023,
          "velocity": 0.7874015748031497,
          "duration": 0.0568181250000066
        },
        {
          "name": "F5",
          "midi": 77,
          "time": 83.86355250000024,
          "velocity": 0.7874015748031497,
          "duration": 0.0568181250000066
        },
        {
          "name": "F5",
          "midi": 77,
          "time": 84.31809750000025,
          "velocity": 0.7874015748031497,
          "duration": 0.05208328125000605
        },
        {
          "name": "F5",
          "midi": 77,
          "time": 84.54537000000026,
          "velocity": 0.7874015748031497,
          "duration": 0.0568181250000066
        },
        {
          "name": "D5",
          "midi": 74,
          "time": 84.77264250000027,
          "velocity": 0.7874015748031497,
          "duration": 0.0568181250000066
        },
        {
          "name": "F5",
          "midi": 77,
          "time": 85.22718750000028,
          "velocity": 0.7874015748031497,
          "duration": 0.0568181250000066
        },
        {
          "name": "F5",
          "midi": 77,
          "time": 85.4544600000003,
          "velocity": 0.7874015748031497,
          "duration": 0.0568181250000066
        },
        {
          "name": "F5",
          "midi": 77,
          "time": 85.68173250000031,
          "velocity": 0.7874015748031497,
          "duration": 0.0568181250000066
        },
        {
          "name": "F5",
          "midi": 77,
          "time": 86.13627750000032,
          "velocity": 0.7874015748031497,
          "duration": 0.05208328125000605
        },
        {
          "name": "F5",
          "midi": 77,
          "time": 86.36355000000033,
          "velocity": 0.7874015748031497,
          "duration": 0.0568181250000066
        },
        {
          "name": "D5",
          "midi": 74,
          "time": 86.59082250000034,
          "velocity": 0.7874015748031497,
          "duration": 0.0568181250000066
        },
        {
          "name": "C5",
          "midi": 72,
          "time": 87.27264000000035,
          "velocity": 0.7874015748031497,
          "duration": 0.0568181250000066
        },
        {
          "name": "E5",
          "midi": 76,
          "time": 88.63627500000035,
          "velocity": 0.7874015748031497,
          "duration": 0.0568181250000066
        },
        {
          "name": "D5",
          "midi": 74,
          "time": 89.09082000000036,
          "velocity": 0.7874015748031497,
          "duration": 0.0568181250000066
        },
        {
          "name": "E5",
          "midi": 76,
          "time": 89.77263750000037,
          "velocity": 0.7874015748031497,
          "duration": 0.0568181250000066
        },
        {
          "name": "F5",
          "midi": 77,
          "time": 89.99991000000038,
          "velocity": 0.7874015748031497,
          "duration": 0.0568181250000066
        },
        {
          "name": "E5",
          "midi": 76,
          "time": 90.2271825000004,
          "velocity": 0.7874015748031497,
          "duration": 0.0568181250000066
        },
        {
          "name": "D5",
          "midi": 74,
          "time": 90.45445500000041,
          "velocity": 0.7874015748031497,
          "duration": 0.0568181250000066
        },
        {
          "name": "C5",
          "midi": 72,
          "time": 90.68172750000042,
          "velocity": 0.7874015748031497,
          "duration": 0.0568181250000066
        },
        {
          "name": "D5",
          "midi": 74,
          "time": 90.90900000000043,
          "velocity": 0.7874015748031497,
          "duration": 0.0568181250000066
        },
        {
          "name": "E5",
          "midi": 76,
          "time": 92.27263500000043,
          "velocity": 0.7874015748031497,
          "duration": 0.0568181250000066
        },
        {
          "name": "F5",
          "midi": 77,
          "time": 92.72718000000044,
          "velocity": 0.7874015748031497,
          "duration": 0.0568181250000066
        },
        {
          "name": "E5",
          "midi": 76,
          "time": 93.40899750000045,
          "velocity": 0.7874015748031497,
          "duration": 0.0568181250000066
        },
        {
          "name": "C5",
          "midi": 72,
          "time": 93.63627000000047,
          "velocity": 0.7874015748031497,
          "duration": 0.0568181250000066
        },
        {
          "name": "D5",
          "midi": 74,
          "time": 93.86354250000048,
          "velocity": 0.7874015748031497,
          "duration": 0.0568181250000066
        },
        {
          "name": "E5",
          "midi": 76,
          "time": 94.09081500000049,
          "velocity": 0.7874015748031497,
          "duration": 0.0568181250000066
        },
        {
          "name": "F5",
          "midi": 77,
          "time": 94.3180875000005,
          "velocity": 0.7874015748031497,
          "duration": 0.0568181250000066
        },
        {
          "name": "C5",
          "midi": 72,
          "time": 94.54536000000051,
          "velocity": 0.7874015748031497,
          "duration": 0.0568181250000066
        },
        {
          "name": "E5",
          "midi": 76,
          "time": 95.90899500000052,
          "velocity": 0.7874015748031497,
          "duration": 0.0568181250000066
        },
        {
          "name": "D5",
          "midi": 74,
          "time": 96.36354000000053,
          "velocity": 0.7874015748031497,
          "duration": 0.0568181250000066
        },
        {
          "name": "E5",
          "midi": 76,
          "time": 97.04535750000053,
          "velocity": 0.7874015748031497,
          "duration": 0.0568181250000066
        },
        {
          "name": "F5",
          "midi": 77,
          "time": 97.27263000000055,
          "velocity": 0.7874015748031497,
          "duration": 0.0568181250000066
        },
        {
          "name": "E5",
          "midi": 76,
          "time": 97.49990250000056,
          "velocity": 0.7874015748031497,
          "duration": 0.0568181250000066
        },
        {
          "name": "D5",
          "midi": 74,
          "time": 97.72717500000057,
          "velocity": 0.7874015748031497,
          "duration": 0.0568181250000066
        },
        {
          "name": "C5",
          "midi": 72,
          "time": 97.95444750000058,
          "velocity": 0.7874015748031497,
          "duration": 0.0568181250000066
        },
        {
          "name": "D5",
          "midi": 74,
          "time": 98.1817200000006,
          "velocity": 0.7874015748031497,
          "duration": 0.0568181250000066
        },
        {
          "name": "E5",
          "midi": 76,
          "time": 99.5453550000006,
          "velocity": 0.7874015748031497,
          "duration": 0.0568181250000066
        },
        {
          "name": "F5",
          "midi": 77,
          "time": 99.99990000000061,
          "velocity": 0.7874015748031497,
          "duration": 0.0568181250000066
        },
        {
          "name": "E5",
          "midi": 76,
          "time": 100.68171750000062,
          "velocity": 0.7874015748031497,
          "duration": 0.0568181250000066
        },
        {
          "name": "C5",
          "midi": 72,
          "time": 100.90899000000063,
          "velocity": 0.7874015748031497,
          "duration": 0.0568181250000066
        },
        {
          "name": "D5",
          "midi": 74,
          "time": 101.13626250000064,
          "velocity": 0.7874015748031497,
          "duration": 0.0568181250000066
        },
        {
          "name": "E5",
          "midi": 76,
          "time": 101.36353500000065,
          "velocity": 0.7874015748031497,
          "duration": 0.0568181250000066
        },
        {
          "name": "F5",
          "midi": 77,
          "time": 101.59080750000066,
          "velocity": 0.7874015748031497,
          "duration": 0.0568181250000066
        },
        {
          "name": "C5",
          "midi": 72,
          "time": 116.36352000000068,
          "velocity": 0.6299212598425197,
          "duration": 0.0568181250000066
        },
        {
          "name": "F5",
          "midi": 77,
          "time": 117.27261000000068,
          "velocity": 0.7874015748031497,
          "duration": 0.0568181250000066
        },
        {
          "name": "E5",
          "midi": 76,
          "time": 117.72715500000069,
          "velocity": 0.7874015748031497,
          "duration": 0.0568181250000066
        },
        {
          "name": "E5",
          "midi": 76,
          "time": 118.1817000000007,
          "velocity": 0.7874015748031497,
          "duration": 0.0473484375000055
        },
        {
          "name": "D5",
          "midi": 74,
          "time": 118.63624500000071,
          "velocity": 0.7874015748031497,
          "duration": 0.0568181250000066
        },
        {
          "name": "D5",
          "midi": 74,
          "time": 119.09079000000072,
          "velocity": 0.7874015748031497,
          "duration": 0.0568181250000066
        },
        {
          "name": "C5",
          "midi": 72,
          "time": 119.54533500000073,
          "velocity": 0.7874015748031497,
          "duration": 0.0568181250000066
        },
        {
          "name": "F5",
          "midi": 77,
          "time": 120.90897000000074,
          "velocity": 0.7874015748031497,
          "duration": 0.0568181250000066
        },
        {
          "name": "E5",
          "midi": 76,
          "time": 121.36351500000075,
          "velocity": 0.7874015748031497,
          "duration": 0.0568181250000066
        },
        {
          "name": "D5",
          "midi": 74,
          "time": 121.81806000000076,
          "velocity": 0.7874015748031497,
          "duration": 0.0568181250000066
        },
        {
          "name": "E5",
          "midi": 76,
          "time": 122.49987750000076,
          "velocity": 0.6299212598425197,
          "duration": 0.0568181250000066
        },
        {
          "name": "E5",
          "midi": 76,
          "time": 122.72715000000078,
          "velocity": 0.6299212598425197,
          "duration": 0.0568181250000066
        },
        {
          "name": "C5",
          "midi": 72,
          "time": 122.95442250000079,
          "velocity": 0.6299212598425197,
          "duration": 0.0568181250000066
        },
        {
          "name": "C5",
          "midi": 72,
          "time": 123.6362400000008,
          "velocity": 0.6299212598425197,
          "duration": 0.0568181250000066
        },
        {
          "name": "F5",
          "midi": 77,
          "time": 124.5453300000008,
          "velocity": 0.7874015748031497,
          "duration": 0.0568181250000066
        },
        {
          "name": "E5",
          "midi": 76,
          "time": 124.99987500000081,
          "velocity": 0.7874015748031497,
          "duration": 0.0568181250000066
        },
        {
          "name": "E5",
          "midi": 76,
          "time": 125.45442000000082,
          "velocity": 0.7874015748031497,
          "duration": 0.0473484375000055
        },
        {
          "name": "D5",
          "midi": 74,
          "time": 125.90896500000083,
          "velocity": 0.7874015748031497,
          "duration": 0.0568181250000066
        },
        {
          "name": "D5",
          "midi": 74,
          "time": 126.36351000000084,
          "velocity": 0.7874015748031497,
          "duration": 0.0568181250000066
        },
        {
          "name": "C5",
          "midi": 72,
          "time": 126.81805500000085,
          "velocity": 0.7874015748031497,
          "duration": 0.0568181250000066
        },
        {
          "name": "F5",
          "midi": 77,
          "time": 127.27260000000086,
          "velocity": 0.7874015748031497,
          "duration": 0.0568181250000066
        },
        {
          "name": "D5",
          "midi": 74,
          "time": 127.49987250000088,
          "velocity": 0.7874015748031497,
          "duration": 0.0568181250000066
        },
        {
          "name": "F5",
          "midi": 77,
          "time": 127.95441750000089,
          "velocity": 0.7874015748031497,
          "duration": 0.0568181250000066
        },
        {
          "name": "F5",
          "midi": 77,
          "time": 128.18169000000088,
          "velocity": 0.7874015748031497,
          "duration": 0.0568181250000066
        },
        {
          "name": "E5",
          "midi": 76,
          "time": 128.40896250000088,
          "velocity": 0.7874015748031497,
          "duration": 0.0568181250000066
        },
        {
          "name": "E5",
          "midi": 76,
          "time": 128.63623500000088,
          "velocity": 0.7874015748031497,
          "duration": 0.0568181250000066
        },
        {
          "name": "F5",
          "midi": 77,
          "time": 129.09078000000088,
          "velocity": 0.7874015748031497,
          "duration": 0.0568181250000066
        },
        {
          "name": "E5",
          "midi": 76,
          "time": 129.54532500000087,
          "velocity": 0.6299212598425197,
          "duration": 0.0568181250000066
        },
        {
          "name": "E5",
          "midi": 76,
          "time": 129.99987000000087,
          "velocity": 0.6299212598425197,
          "duration": 0.0568181250000066
        },
        {
          "name": "D5",
          "midi": 74,
          "time": 130.45441500000086,
          "velocity": 0.6299212598425197,
          "duration": 0.0568181250000066
        },
        {
          "name": "C5",
          "midi": 72,
          "time": 130.90896000000086,
          "velocity": 0.6299212598425197,
          "duration": 0.0568181250000066
        },
        {
          "name": "F5",
          "midi": 77,
          "time": 131.81805000000088,
          "velocity": 0.7874015748031497,
          "duration": 0.0568181250000066
        },
        {
          "name": "E5",
          "midi": 76,
          "time": 132.27259500000088,
          "velocity": 0.7874015748031497,
          "duration": 0.0568181250000066
        },
        {
          "name": "E5",
          "midi": 76,
          "time": 132.72714000000087,
          "velocity": 0.7874015748031497,
          "duration": 0.0473484375000055
        },
        {
          "name": "D5",
          "midi": 74,
          "time": 133.18168500000087,
          "velocity": 0.7874015748031497,
          "duration": 0.0568181250000066
        },
        {
          "name": "D5",
          "midi": 74,
          "time": 133.63623000000086,
          "velocity": 0.7874015748031497,
          "duration": 0.0568181250000066
        },
        {
          "name": "C5",
          "midi": 72,
          "time": 134.09077500000086,
          "velocity": 0.7874015748031497,
          "duration": 0.0568181250000066
        },
        {
          "name": "F5",
          "midi": 77,
          "time": 135.45441000000088,
          "velocity": 0.7874015748031497,
          "duration": 0.0568181250000066
        },
        {
          "name": "E5",
          "midi": 76,
          "time": 135.90895500000087,
          "velocity": 0.7874015748031497,
          "duration": 0.0568181250000066
        },
        {
          "name": "D5",
          "midi": 74,
          "time": 136.36350000000087,
          "velocity": 0.7874015748031497,
          "duration": 0.0568181250000066
        },
        {
          "name": "E5",
          "midi": 76,
          "time": 137.04531750000086,
          "velocity": 0.6299212598425197,
          "duration": 0.0568181250000066
        },
        {
          "name": "E5",
          "midi": 76,
          "time": 137.27259000000086,
          "velocity": 0.6299212598425197,
          "duration": 0.0568181250000066
        },
        {
          "name": "C5",
          "midi": 72,
          "time": 137.49986250000086,
          "velocity": 0.6299212598425197,
          "duration": 0.0568181250000066
        },
        {
          "name": "C5",
          "midi": 72,
          "time": 138.18168000000085,
          "velocity": 0.6299212598425197,
          "duration": 0.0568181250000066
        },
        {
          "name": "F5",
          "midi": 77,
          "time": 139.09077000000087,
          "velocity": 0.7874015748031497,
          "duration": 0.0568181250000066
        },
        {
          "name": "E5",
          "midi": 76,
          "time": 139.54531500000087,
          "velocity": 0.7874015748031497,
          "duration": 0.0568181250000066
        },
        {
          "name": "E5",
          "midi": 76,
          "time": 139.99986000000087,
          "velocity": 0.7874015748031497,
          "duration": 0.0473484375000055
        },
        {
          "name": "D5",
          "midi": 74,
          "time": 140.45440500000086,
          "velocity": 0.7874015748031497,
          "duration": 0.0568181250000066
        },
        {
          "name": "D5",
          "midi": 74,
          "time": 140.90895000000086,
          "velocity": 0.7874015748031497,
          "duration": 0.0568181250000066
        },
        {
          "name": "C5",
          "midi": 72,
          "time": 141.36349500000085,
          "velocity": 0.7874015748031497,
          "duration": 0.0568181250000066
        },
        {
          "name": "F5",
          "midi": 77,
          "time": 141.81804000000085,
          "velocity": 0.7874015748031497,
          "duration": 0.0568181250000066
        },
        {
          "name": "D5",
          "midi": 74,
          "time": 142.04531250000085,
          "velocity": 0.7874015748031497,
          "duration": 0.0568181250000066
        },
        {
          "name": "F5",
          "midi": 77,
          "time": 142.49985750000084,
          "velocity": 0.7874015748031497,
          "duration": 0.0568181250000066
        },
        {
          "name": "F5",
          "midi": 77,
          "time": 142.72713000000084,
          "velocity": 0.7874015748031497,
          "duration": 0.0568181250000066
        },
        {
          "name": "E5",
          "midi": 76,
          "time": 142.95440250000084,
          "velocity": 0.7874015748031497,
          "duration": 0.0568181250000066
        },
        {
          "name": "E5",
          "midi": 76,
          "time": 143.18167500000084,
          "velocity": 0.7874015748031497,
          "duration": 0.0568181250000066
        },
        {
          "name": "F5",
          "midi": 77,
          "time": 143.63622000000083,
          "velocity": 0.7874015748031497,
          "duration": 0.0568181250000066
        },
        {
          "name": "E5",
          "midi": 76,
          "time": 144.09076500000083,
          "velocity": 0.6299212598425197,
          "duration": 0.0568181250000066
        },
        {
          "name": "E5",
          "midi": 76,
          "time": 144.54531000000082,
          "velocity": 0.6299212598425197,
          "duration": 0.0568181250000066
        },
        {
          "name": "D5",
          "midi": 74,
          "time": 144.99985500000082,
          "velocity": 0.6299212598425197,
          "duration": 0.0568181250000066
        }
      ]
}